g EPI_Bush_01
v 0.207788 -0.03601187 -0.674094
v 0.2350721 0.02036375 -0.5417833
v 0.1905807 0.03348589 -0.5176435
v 0.09924573 -0.004023612 -0.6152177
v 0.1742894 -0.09530908 -0.767583
v 0.03445208 -0.05408579 -0.691747
v 0.04905975 -0.1719126 -0.8020966
v 0.1276192 -0.1485403 -0.8027156
v 0.01583356 -0.1156112 -0.7421062
v 0.2418065 -0.004766345 -0.6178669
v 0.1111051 0.02407753 -0.5300477
v 0.07792842 0.01147538 -0.5588669
v 0.1608702 -0.03551674 -0.6881817
v 0.3382913 -0.04816842 -0.6885036
v 0.2340322 -0.08778238 -0.7790462
v 0.3732506 -0.158939 -0.8037555
v 0.3792422 -0.1058315 -0.7388875
v 0.2958795 -0.137498 -0.8112821
v 0.4484181 0.2604492 -0.1507686
v 0.3223714 0.2491097 -0.05146134
v 0.2873626 0.2456186 -0.07993388
v 0.3630005 0.2519074 -0.2202664
v 0.5426003 0.2500753 -0.2363843
v 0.4325477 0.2390576 -0.3259119
v 0.5758265 0.1887231 -0.3805544
v 0.5836503 0.2160073 -0.3040499
v 0.4956825 0.2072179 -0.3756027
v 0.4172716 0.2604492 -0.04455364
v 0.2747108 0.2491097 -0.06391501
v 0.2774096 0.2456186 -0.1131106
v 0.4238575 0.2519074 -0.1646088
v 0.5323998 0.2500753 -0.03900772
v 0.540892 0.2390576 -0.1937003
v 0.6589911 0.1887231 -0.1261584
v 0.6054627 0.2160073 -0.06032497
v 0.6122466 0.2072179 -0.1839453
v 0.5457942 -0.09377402 0.324203
v 0.4416342 -0.1322243 0.3325713
v 0.4363359 -0.1494069 0.2915708
v 0.5328702 -0.1356658 0.2241529
v 0.6294787 -0.08409333 0.3137795
v 0.6128161 -0.1380674 0.1848855
v 0.7101922 -0.1477233 0.2362599
v 0.6803579 -0.1111299 0.2931307
v 0.6670625 -0.1542844 0.1901097
v 0.4861999 -0.09377402 0.3771866
v 0.4146224 -0.1322243 0.3128882
v 0.4388365 -0.1494069 0.2743388
v 0.5452743 -0.1356658 0.2831282
v 0.5461656 -0.08409333 0.4256889
v 0.6222739 -0.1380674 0.3045197
v 0.6493847 -0.1477233 0.4150427
v 0.5922663 -0.1111299 0.44302
v 0.6530986 -0.1542844 0.3461639
v -0.06596935 0.0911985 0.6351231
v -0.008504331 0.0165509 0.5614411
v 0.03405595 0.0165509 0.5696115
v 0.0378688 0.0911985 0.6550786
v -0.1051872 0.1348481 0.7041009
v 0.0285843 0.1348481 0.7298252
v -0.0701288 0.1427462 0.8112815
v -0.1105598 0.1395275 0.7623582
v -0.003626823 0.1395275 0.7829079
v 0.007118464 0.0911985 0.5902602
v 0.01023805 0.0165509 0.5036542
v 0.05267453 0.0165509 0.4813219
v 0.1106842 0.0911985 0.5357663
v 0.01699716 0.1348481 0.661813
v 0.1503972 0.1348481 0.5916219
v 0.1162549 0.1427462 0.7103154
v 0.04960442 0.1395275 0.7041257
v 0.1562403 0.1395275 0.6479977
v -0.3359385 0.2099413 0.3762458
v -0.2919175 0.1400474 0.240964
v -0.2379435 0.1519316 0.228139
v -0.2041973 0.2389585 0.3449507
v -0.3554236 0.2525017 0.4890961
v -0.1857273 0.2898872 0.4487641
v -0.2627022 0.2824845 0.5996438
v -0.3337597 0.2629251 0.5621838
v -0.1981067 0.2928088 0.5299727
v -0.4310121 0.2068713 0.2723086
v -0.3000632 0.1387848 0.2036527
v -0.2527245 0.1531944 0.2411126
v -0.3154631 0.2420039 0.3637426
v -0.5287595 0.248565 0.344307
v -0.3799101 0.2938239 0.4620844
v -0.5475515 0.2824845 0.5124188
v -0.5688439 0.2597559 0.4206135
v -0.4498535 0.2959532 0.5147461
v -0.4884524 0.2089263 0.0152387
v -0.3405685 0.2215285 -0.0001612306
v -0.3327199 0.2170472 0.04316652
v -0.4693386 0.1979582 0.1209584
v -0.6031348 0.1793396 0.03509521
v -0.5785246 0.1652271 0.171293
v -0.7034077 0.09644735 0.1347243
v -0.6671113 0.1331645 0.06735581
v -0.6474282 0.1218746 0.1762447
v -0.4289818 0.1942443 -0.08580172
v -0.3288328 0.2065989 0.007538736
v -0.3557951 0.201771 0.05259961
v -0.4947658 0.1824592 0.02412707
v -0.5124931 0.1647815 -0.1508924
v -0.5972422 0.1496043 -0.009297192
v -0.6458189 0.08134449 -0.132769
v -0.5746871 0.1185074 -0.1677779
v -0.6424269 0.1063508 -0.05458093
v -0.3778551 0.01434737 -0.4955835
v -0.3332399 0.006003678 -0.4129388
v -0.3668622 0.001175702 -0.3720869
v -0.4599056 0.002537429 -0.3958553
v -0.4174691 0.002067029 -0.5517116
v -0.5231641 -0.01313484 -0.4232632
v -0.5154889 -0.0620333 -0.5292306
v -0.4547309 -0.03281802 -0.5634719
v -0.5392078 -0.04497457 -0.4607975
v -0.56976 -0.2220985 0.501624
v -0.2461386 -0.4458927 0.5803816
v -0.4958305 -0.4458927 0.4323738
v -0.2814446 -0.2220985 0.6725582
v 0.06468248 -0.4458927 0.5687696
v -0.7101915 -0.2220985 0.1921646
v -0.6174453 -0.4458927 0.1643605
v 0.07745802 -0.2220985 0.6591391
v 0.3533941 -0.4458927 0.4006332
v -0.6651307 -0.2220985 -0.1729029
v -0.5784256 -0.4458927 -0.1518085
v 0.4108343 -0.2220985 0.464981
v 0.5426003 -0.4458927 0.121008
v -0.4466596 -0.2220985 -0.4957816
v -0.3892193 -0.4458927 -0.4314336
v 0.6293054 -0.2220985 0.1421024
v 0.5816201 -0.4458927 -0.195161
v -0.113308 -0.2220985 -0.6899396
v -0.1005325 -0.4458927 -0.5995702
v 0.6743663 -0.2220985 -0.2229651
v 0.4599804 -0.4458927 -0.4631743
v 0.2456194 -0.2220985 -0.7033588
v 0.2103134 -0.4458927 -0.611182
v 0.5339348 -0.2220985 -0.5324244
v -0.3892193 0.084167 -0.4314336
v -0.1005325 0.084167 -0.5995702
v 0.2103134 0.084167 -0.611182
v 0.4599804 0.084167 -0.4631743
v 0.5816201 0.084167 -0.195161
v 0.5426003 0.084167 0.121008
v -0.5784256 0.084167 -0.1518085
v 0.3533941 0.084167 0.4006332
v -0.6174453 0.084167 0.1643605
v 0.06468248 0.084167 0.5687696
v -0.4958305 0.084167 0.4323738
v -0.2461386 0.084167 0.5803816
v -0.2322986 0.3450498 -0.2555971
v -0.3415341 0.3450498 -0.09414542
v -0.3640645 0.3450498 0.08837599
v -0.2938487 0.3450498 0.2431181
v -0.01791263 0.445892 -0.01541263
v -0.06559795 0.3450498 -0.3526761
v -0.1496786 0.3450498 0.3285852
v 0.0297727 0.3450498 0.3218756
v 0.1138533 0.3450498 -0.3593857
v 0.1964485 0.3450498 0.2247966
v 0.2579987 0.3450498 -0.2739186
v 0.305684 0.3450498 0.0633449
v 0.3282145 0.3450498 -0.1191765
vt 0.05504297 0.2459361
vt 0.0539151 0.2425524
vt 0.05250525 0.2425524
vt 0.05137737 0.2459361
vt 0.05560691 0.2487558
vt 0.05081344 0.2487558
vt 0.05306919 0.2518574
vt 0.05532494 0.2507296
vt 0.0510954 0.2507296
vt 0.04320027 0.2498837
vt 0.04207239 0.2465
vt 0.04038058 0.2465
vt 0.0392527 0.2498837
vt 0.04376421 0.2527033
vt 0.03868876 0.2527033
vt 0.04122649 0.255805
vt 0.04320027 0.2543952
vt 0.0392527 0.2543952
vt 0.05504297 0.2459361
vt 0.0539151 0.2425524
vt 0.05250525 0.2425524
vt 0.05137737 0.2459361
vt 0.05560691 0.2487558
vt 0.05081344 0.2487558
vt 0.05306919 0.2518574
vt 0.05504297 0.2504476
vt 0.0510954 0.2504476
vt 0.04320027 0.2498837
vt 0.04207239 0.2465
vt 0.04038058 0.2465
vt 0.0392527 0.2498837
vt 0.04376421 0.2527033
vt 0.03868876 0.2527033
vt 0.04122649 0.255805
vt 0.04320027 0.2543952
vt 0.0392527 0.2543952
vt 0.04235436 0.2309917
vt 0.04150845 0.228172
vt 0.04009861 0.228172
vt 0.0392527 0.2309917
vt 0.0429183 0.2332475
vt 0.03868876 0.2332475
vt 0.04066255 0.2357852
vt 0.04235436 0.2349393
vt 0.0392527 0.2349393
vt 0.04235436 0.2309917
vt 0.04150845 0.228172
vt 0.04009861 0.228172
vt 0.0392527 0.2309917
vt 0.0429183 0.2332475
vt 0.03868876 0.2332475
vt 0.04066255 0.2357852
vt 0.04235436 0.2349393
vt 0.0392527 0.2349393
vt 0.04235436 0.2309917
vt 0.04150845 0.228172
vt 0.04009861 0.228172
vt 0.0392527 0.2309917
vt 0.0429183 0.2332475
vt 0.03868876 0.2332475
vt 0.04066255 0.2357852
vt 0.04235436 0.2346573
vt 0.0392527 0.2346573
vt 0.04235436 0.2309917
vt 0.04150845 0.228172
vt 0.04009861 0.228172
vt 0.0392527 0.2309917
vt 0.0429183 0.2332475
vt 0.03868876 0.2332475
vt 0.04066255 0.2357852
vt 0.04235436 0.2349393
vt 0.0392527 0.2349393
vt 0.05532494 0.2459361
vt 0.0539151 0.2422705
vt 0.05222328 0.2422705
vt 0.0510954 0.2459361
vt 0.05588888 0.2487558
vt 0.05053147 0.2487558
vt 0.05306919 0.2521394
vt 0.05532494 0.2507296
vt 0.0510954 0.2507296
vt 0.04348224 0.2496017
vt 0.04207239 0.2456541
vt 0.04038058 0.2456541
vt 0.03897073 0.2496017
vt 0.04404618 0.2529853
vt 0.0384068 0.2529853
vt 0.04122649 0.2566509
vt 0.04348224 0.2549591
vt 0.03897073 0.2549591
vt 0.04320027 0.2498837
vt 0.04207239 0.246782
vt 0.04038058 0.246782
vt 0.0392527 0.2498837
vt 0.04348224 0.2527033
vt 0.03897073 0.2527033
vt 0.04122649 0.255523
vt 0.04320027 0.2543952
vt 0.0392527 0.2543952
vt 0.05504297 0.2459361
vt 0.0539151 0.2425524
vt 0.05250525 0.2425524
vt 0.05137737 0.2459361
vt 0.05560691 0.2487558
vt 0.05081344 0.2487558
vt 0.05306919 0.2518574
vt 0.05532494 0.2507296
vt 0.0510954 0.2507296
vt 0.04235436 0.2309917
vt 0.04150845 0.228172
vt 0.04009861 0.228172
vt 0.0392527 0.2309917
vt 0.0429183 0.2332475
vt 0.03868876 0.2332475
vt 0.04066255 0.2357852
vt 0.04235436 0.2346573
vt 0.0392527 0.2346573
vt 0.06237417 0.3147365
vt 0.04799375 0.3169923
vt 0.06237417 0.3215038
vt 0.05137737 0.3121988
vt 0.03671498 0.3057135
vt 0.07365294 0.3121988
vt 0.07731853 0.3172742
vt 0.04235436 0.3031758
vt 0.03304938 0.2899233
vt 0.08295792 0.3031758
vt 0.0885973 0.3059955
vt 0.0384068 0.2899233
vt 0.03699695 0.274133
vt 0.08718745 0.2899233
vt 0.09254487 0.2899233
vt 0.04263633 0.2766707
vt 0.04827572 0.2625723
vt 0.08323988 0.2766707
vt 0.08887927 0.274133
vt 0.05194131 0.2676477
vt 0.06322008 0.2583427
vt 0.07421687 0.2679297
vt 0.07788247 0.2628542
vt 0.06322008 0.2653919
vt 0.07872838 0.2899233
vt 0.0767546 0.2809002
vt 0.07083325 0.2746969
vt 0.06293811 0.2721592
vt 0.05504297 0.2746969
vt 0.04912162 0.2809002
vt 0.07647263 0.2989463
vt 0.04686587 0.2899233
vt 0.07055128 0.3054315
vt 0.04883965 0.2989463
vt 0.06265614 0.3076873
vt 0.05476101 0.3054315
vt 0.07055128 0.2899233
vt 0.0694234 0.2944348
vt 0.06660371 0.2978184
vt 0.06265614 0.2989463
vt 0.06265614 0.2899233
vt 0.06970537 0.2854117
vt 0.05870857 0.2978184
vt 0.05588888 0.2944348
vt 0.06688568 0.2823101
vt 0.05504297 0.2899233
vt 0.06293811 0.2809002
vt 0.05617085 0.2854117
vt 0.05899054 0.2823101
vn -0.003002107 0.8753714 -0.4834417
vn 0.05152094 0.9143165 -0.40171
vn 0.05152094 0.9143165 -0.40171
vn 0.004786909 0.8831604 -0.4690467
vn -0.1198373 0.7585362 -0.6405169
vn -0.1120483 0.7741142 -0.6230509
vn -0.1977274 0.6572791 -0.7272469
vn -0.1977274 0.6572791 -0.7272469
vn -0.1977274 0.6572791 -0.7272469
vn 0.02036494 0.9065275 -0.4216554
vn -0.04194719 0.9298945 -0.3654267
vn -0.04194719 0.9298945 -0.3654267
vn 0.02036494 0.9065275 -0.4216554
vn 0.1605671 0.8208483 -0.5481116
vn 0.1683561 0.8208483 -0.5457695
vn 0.2618243 0.7351691 -0.6252795
vn 0.2618243 0.7351691 -0.6252795
vn 0.2618243 0.7351691 -0.6252795
vn -0.04191052 0.9991214 0
vn -0.0964703 0.9922065 -0.07886536
vn -0.0964703 0.9922065 -0.07886536
vn -0.04191052 0.9991214 0
vn 0.09825504 0.9688395 -0.2273677
vn 0.09046602 0.9688395 -0.2305776
vn 0.1917232 0.9221055 -0.3361007
vn 0.1917232 0.9221055 -0.3361007
vn 0.1917232 0.9221055 -0.3361007
vn 0.01257499 0.9999209 0
vn -0.06531423 0.9922065 -0.1061144
vn -0.06531423 0.9922065 -0.1061144
vn 0.02814287 0.999604 0
vn 0.2384572 0.9688395 -0.0669947
vn 0.2696133 0.9610505 -0.06075129
vn 0.4098155 0.9065275 -0.1012881
vn 0.4098155 0.9065275 -0.1012881
vn 0.4098155 0.9065275 -0.1012881
vn -0.2444615 0.9065275 -0.3441607
vn -0.3535076 0.8753714 -0.3297837
vn -0.3535076 0.8753714 -0.3297837
vn -0.2288834 0.9065275 -0.3547116
vn 0.04373193 0.9221055 -0.3844593
vn 0.09046602 0.9143165 -0.3947674
vn 0.3007693 0.8675824 -0.3960285
vn 0.3007693 0.8675824 -0.3960285
vn 0.3007693 0.8675824 -0.3960285
vn 0.03594291 0.9221055 -0.3852656
vn -0.08089226 0.8909494 -0.4468395
vn -0.08089226 0.8909494 -0.4468395
vn 0.04373193 0.9221055 -0.3844593
vn 0.3163474 0.9221055 -0.2228133
vn 0.3397143 0.9221055 -0.1852447
vn 0.5188617 0.8520043 -0.06979391
vn 0.5188617 0.8520043 -0.06979391
vn 0.5188617 0.8520043 -0.06979391
vn 0.1060441 0.8208483 -0.5612154
vn 0.129411 0.7429581 -0.6567085
vn 0.129411 0.7429581 -0.6567085
vn 0.1060441 0.8130593 -0.5724415
vn 0.05152094 0.9610505 -0.2715283
vn 0.05930996 0.9454724 -0.3202565
vn 0.01257499 0.9999209 0
vn 0.01257499 0.9999209 0
vn 0.01257499 0.9999209 0
vn -0.2834066 0.7974812 -0.5326391
vn -0.3301405 0.7118022 -0.6199555
vn -0.3301405 0.7118022 -0.6199555
vn -0.2834066 0.7896922 -0.5441203
vn -0.1432043 0.9532614 -0.2660548
vn -0.1587823 0.9376834 -0.3090923
vn -0.04194719 0.9922065 -0.1173314
vn -0.04194719 0.9922065 -0.1173314
vn -0.04194719 0.9922065 -0.1173314
vn -0.2911956 0.8520043 -0.4350789
vn -0.2989846 0.8052703 -0.5120039
vn -0.2989846 0.8052703 -0.5120039
vn -0.2911956 0.8442153 -0.4500062
vn -0.2600395 0.9376834 -0.230498
vn -0.2678285 0.9298945 -0.2521193
vn -0.2288834 0.9688395 -0.09467023
vn -0.2288834 0.9688395 -0.09467023
vn -0.2288834 0.9688395 -0.09467023
vn 0.1060441 0.8753714 -0.4716774
vn 0.1605671 0.8364263 -0.5240317
vn 0.1605671 0.8364263 -0.5240317
vn 0.1060441 0.8753714 -0.4716774
vn -0.02636915 0.9454724 -0.3246329
vn -0.02636915 0.9454724 -0.3246329
vn -0.1276262 0.9688395 -0.2122773
vn -0.1276262 0.9688395 -0.2122773
vn -0.1276262 0.9688395 -0.2122773
vn -0.1509933 0.9766285 0.1529636
vn -0.07310325 0.9922065 0.1009066
vn -0.07310325 0.9922065 0.1009066
vn -0.1665713 0.9766285 0.1358337
vn -0.3612966 0.9221055 0.1385143
vn -0.3846636 0.9065275 0.1739018
vn -0.5170769 0.8364263 0.1817208
vn -0.5170769 0.8364263 0.1817208
vn -0.5170769 0.8364263 0.1817208
vn -0.2207981 0.9753196 0
vn -0.1428489 0.9897445 0
vn -0.1428489 0.9897445 0
vn -0.2281782 0.9736194 0
vn -0.4080307 0.8987384 -0.1605619
vn -0.4236087 0.8909494 -0.1635995
vn -0.5404438 0.8052703 -0.2438447
vn -0.5404438 0.8052703 -0.2438447
vn -0.5404438 0.8052703 -0.2438447
vn -0.1352253 0.9908149 0
vn -0.01079112 0.9922065 0.1241361
vn -0.01079112 0.9922065 0.1241361
vn -0.1428489 0.9897445 0
vn -0.4002417 0.8909494 -0.2145128
vn -0.4002417 0.8831604 -0.2446105
vn -0.5638109 0.7351691 -0.3763557
vn -0.5638109 0.7351691 -0.3763557
vn -0.5638109 0.7351691 -0.3763557
vn -0.7429581 -0.05152094 0.6673521
vn -0.2210944 -0.4020265 0.8885337
vn -0.6806461 -0.4098155 0.6072661
vn -0.2522505 -0.05152094 0.9662894
vn 0.2696133 -0.3708704 0.8886865
vn -0.9844175 -0.05152094 0.1681302
vn -0.9065275 -0.3942375 0.1509464
vn 0.2696133 -0.04373193 0.9619752
vn 0.6356968 -0.3630814 0.6812206
vn -0.9376834 -0.04373193 -0.3447279
vn -0.8675824 -0.3708704 -0.3312944
vn 0.6824309 -0.04373193 0.7296408
vn 0.8693671 -0.3708704 0.3265823
vn -0.6806461 -0.04373193 -0.731306
vn -0.641701 -0.3630814 -0.6755677
vn 0.9394682 -0.04373193 0.3398338
vn 0.9083122 -0.3942375 -0.1398062
vn -0.2756175 -0.04373193 -0.9602721
vn -0.2678285 -0.3708704 -0.8892261
vn 0.9862023 -0.05152094 -0.1573233
vn 0.6824309 -0.4098155 -0.6052598
vn 0.2540352 -0.05152094 -0.9658217
vn 0.2150902 -0.4020265 -0.8900061
vn 0.744743 -0.05152094 -0.6653596
vn -0.602756 0.4703428 -0.6445641
vn -0.2444615 0.4859208 -0.8391183
vn 0.2150902 0.5092879 -0.8332839
vn 0.6356968 0.5170769 -0.5731676
vn 0.8537891 0.5014989 -0.1397966
vn 0.822633 0.4781318 0.3076766
vn -0.8208483 0.4781318 -0.3124069
vn 0.6045408 0.4703428 0.6428904
vn -0.8520043 0.5014989 0.1502912
vn 0.2462462 0.4859208 0.8385963
vn -0.633912 0.5170769 0.5751408
vn -0.2133054 0.5092879 0.8337426
vn -0.3846636 0.8286373 -0.4066867
vn -0.5170769 0.8286373 -0.2144567
vn -0.5326548 0.8442153 0.05982741
vn -0.3924527 0.8520043 0.3465104
vn -0.003002107 0.9999955 0
vn -0.1587823 0.8364263 -0.5245753
vn -0.1276262 0.8442153 0.5205882
vn 0.1605671 0.8364263 0.5240317
vn 0.1216221 0.8442153 -0.5220235
vn 0.3864484 0.8286373 0.4049911
vn 0.3864484 0.8520043 -0.3531942
vn 0.5188617 0.8286373 0.210102
vn 0.5344397 0.8442153 -0.04092252
g EPI_Bush_01_0
f 3/3/3 2/2/2 1/1/1
f 4/4/4 3/3/3 1/1/1
f 4/4/4 1/1/1 5/5/5
f 6/6/6 4/4/4 5/5/5
f 7/7/7 6/6/6 5/5/5
f 5/5/5 8/8/8 7/7/7
f 6/6/6 7/7/7 9/9/9
f 12/12/12 11/11/11 10/10/10
f 13/13/13 12/12/12 10/10/10
f 13/13/13 10/10/10 14/14/14
f 15/15/15 13/13/13 14/14/14
f 16/16/16 15/15/15 14/14/14
f 14/14/14 17/17/17 16/16/16
f 15/15/15 16/16/16 18/18/18
f 21/21/21 20/20/20 19/19/19
f 22/22/22 21/21/21 19/19/19
f 22/22/22 19/19/19 23/23/23
f 24/24/24 22/22/22 23/23/23
f 25/25/25 24/24/24 23/23/23
f 23/23/23 26/26/26 25/25/25
f 24/24/24 25/25/25 27/27/27
f 30/30/30 29/29/29 28/28/28
f 31/31/31 30/30/30 28/28/28
f 31/31/31 28/28/28 32/32/32
f 33/33/33 31/31/31 32/32/32
f 34/34/34 33/33/33 32/32/32
f 32/32/32 35/35/35 34/34/34
f 33/33/33 34/34/34 36/36/36
f 39/39/39 38/38/38 37/37/37
f 40/40/40 39/39/39 37/37/37
f 40/40/40 37/37/37 41/41/41
f 42/42/42 40/40/40 41/41/41
f 43/43/43 42/42/42 41/41/41
f 41/41/41 44/44/44 43/43/43
f 42/42/42 43/43/43 45/45/45
f 48/48/48 47/47/47 46/46/46
f 49/49/49 48/48/48 46/46/46
f 49/49/49 46/46/46 50/50/50
f 51/51/51 49/49/49 50/50/50
f 52/52/52 51/51/51 50/50/50
f 50/50/50 53/53/53 52/52/52
f 51/51/51 52/52/52 54/54/54
f 57/57/57 56/56/56 55/55/55
f 58/58/58 57/57/57 55/55/55
f 58/58/58 55/55/55 59/59/59
f 60/60/60 58/58/58 59/59/59
f 61/61/61 60/60/60 59/59/59
f 59/59/59 62/62/62 61/61/61
f 60/60/60 61/61/61 63/63/63
f 66/66/66 65/65/65 64/64/64
f 67/67/67 66/66/66 64/64/64
f 67/67/67 64/64/64 68/68/68
f 69/69/69 67/67/67 68/68/68
f 70/70/70 69/69/69 68/68/68
f 68/68/68 71/71/71 70/70/70
f 69/69/69 70/70/70 72/72/72
f 75/75/75 74/74/74 73/73/73
f 76/76/76 75/75/75 73/73/73
f 76/76/76 73/73/73 77/77/77
f 78/78/78 76/76/76 77/77/77
f 79/79/79 78/78/78 77/77/77
f 77/77/77 80/80/80 79/79/79
f 78/78/78 79/79/79 81/81/81
f 84/84/84 83/83/83 82/82/82
f 85/85/85 84/84/84 82/82/82
f 85/85/85 82/82/82 86/86/86
f 87/87/87 85/85/85 86/86/86
f 88/88/88 87/87/87 86/86/86
f 86/86/86 89/89/89 88/88/88
f 87/87/87 88/88/88 90/90/90
f 93/93/93 92/92/92 91/91/91
f 94/94/94 93/93/93 91/91/91
f 94/94/94 91/91/91 95/95/95
f 96/96/96 94/94/94 95/95/95
f 97/97/97 96/96/96 95/95/95
f 95/95/95 98/98/98 97/97/97
f 96/96/96 97/97/97 99/99/99
f 102/102/102 101/101/101 100/100/100
f 103/103/103 102/102/102 100/100/100
f 103/103/103 100/100/100 104/104/104
f 105/105/105 103/103/103 104/104/104
f 106/106/106 105/105/105 104/104/104
f 104/104/104 107/107/107 106/106/106
f 105/105/105 106/106/106 108/108/108
f 111/111/111 110/110/110 109/109/109
f 112/112/112 111/111/111 109/109/109
f 112/112/112 109/109/109 113/113/113
f 114/114/114 112/112/112 113/113/113
f 115/115/115 114/114/114 113/113/113
f 113/113/113 116/116/116 115/115/115
f 114/114/114 115/115/115 117/117/117
f 120/120/120 119/119/119 118/118/118
f 119/119/119 121/121/121 118/118/118
f 119/119/119 122/122/122 121/121/121
f 120/120/120 118/118/118 123/123/123
f 124/124/124 120/120/120 123/123/123
f 122/122/122 125/125/125 121/121/121
f 122/122/122 126/126/126 125/125/125
f 124/124/124 123/123/123 127/127/127
f 128/128/128 124/124/124 127/127/127
f 126/126/126 129/129/129 125/125/125
f 126/126/126 130/130/130 129/129/129
f 128/128/128 127/127/127 131/131/131
f 132/132/132 128/128/128 131/131/131
f 130/130/130 133/133/133 129/129/129
f 130/130/130 134/134/134 133/133/133
f 132/132/132 131/131/131 135/135/135
f 136/136/136 132/132/132 135/135/135
f 134/134/134 137/137/137 133/133/133
f 134/134/134 138/138/138 137/137/137
f 136/136/136 135/135/135 139/139/139
f 140/140/140 136/136/136 139/139/139
f 138/138/138 140/140/140 141/141/141
f 138/138/138 141/141/141 137/137/137
f 140/140/140 139/139/139 141/141/141
f 131/131/131 127/127/127 142/142/142
f 135/135/135 131/131/131 143/143/143
f 131/131/131 142/142/142 143/143/143
f 139/139/139 135/135/135 144/144/144
f 135/135/135 143/143/143 144/144/144
f 141/141/141 139/139/139 145/145/145
f 139/139/139 144/144/144 145/145/145
f 137/137/137 141/141/141 146/146/146
f 141/141/141 145/145/145 146/146/146
f 133/133/133 137/137/137 147/147/147
f 137/137/137 146/146/146 147/147/147
f 127/127/127 148/148/148 142/142/142
f 127/127/127 123/123/123 148/148/148
f 133/133/133 147/147/147 149/149/149
f 129/129/129 133/133/133 149/149/149
f 123/123/123 150/150/150 148/148/148
f 123/123/123 118/118/118 150/150/150
f 129/129/129 149/149/149 151/151/151
f 125/125/125 129/129/129 151/151/151
f 118/118/118 152/152/152 150/150/150
f 118/118/118 121/121/121 152/152/152
f 121/121/121 125/125/125 153/153/153
f 125/125/125 151/151/151 153/153/153
f 121/121/121 153/153/153 152/152/152
f 142/142/142 148/148/148 154/154/154
f 148/148/148 150/150/150 155/155/155
f 148/148/148 155/155/155 154/154/154
f 150/150/150 152/152/152 156/156/156
f 150/150/150 156/156/156 155/155/155
f 152/152/152 153/153/153 157/157/157
f 152/152/152 157/157/157 156/156/156
f 155/155/155 156/156/156 158/158/158
f 154/154/154 155/155/155 158/158/158
f 156/156/156 157/157/157 158/158/158
f 159/159/159 154/154/154 158/158/158
f 142/142/142 154/154/154 159/159/159
f 157/157/157 160/160/160 158/158/158
f 153/153/153 160/160/160 157/157/157
f 153/153/153 151/151/151 160/160/160
f 143/143/143 142/142/142 159/159/159
f 151/151/151 161/161/161 160/160/160
f 160/160/160 161/161/161 158/158/158
f 151/151/151 149/149/149 161/161/161
f 143/143/143 159/159/159 162/162/162
f 162/162/162 159/159/159 158/158/158
f 144/144/144 143/143/143 162/162/162
f 149/149/149 163/163/163 161/161/161
f 161/161/161 163/163/163 158/158/158
f 149/149/149 147/147/147 163/163/163
f 144/144/144 162/162/162 164/164/164
f 164/164/164 162/162/162 158/158/158
f 145/145/145 144/144/144 164/164/164
f 147/147/147 165/165/165 163/163/163
f 163/163/163 165/165/165 158/158/158
f 147/147/147 146/146/146 165/165/165
f 166/166/166 164/164/164 158/158/158
f 145/145/145 164/164/164 166/166/166
f 165/165/165 166/166/166 158/158/158
f 146/146/146 166/166/166 165/165/165
f 146/146/146 145/145/145 166/166/166
