g EPI_Moss_02
v 0.2195245 -0.7628803 0.9669216
v 0.2195245 -0.9711635 1.508533
v 0.1203555 -1.084237 1.544449
v -0.05931759 -0.9635279 0.9669216
v -0.06846154 -1.120247 0.9746044
v 0.2195245 -0.7685835 0.7175379
v -0.06846154 -1.136885 0.5537958
v -0.05931759 -0.8333921 0.3175153
v -0.06846154 -1.026216 0.2934301
v 0.2195245 -0.5234889 0.1633885
v -0.06846154 -1.176572 -0.1558
v -0.05931759 -0.8472965 -0.1844101
v -0.05931759 -0.4851222 -0.7683478
v 0.2195245 -0.5174558 -0.2710887
v -0.03179157 -0.8890097 -1.103137
v 0.2195245 -0.1636242 -0.1845515
v 0.0189712 -0.4960572 -1.179541
v -0.05931759 0.1192244 -0.8359373
v 0.2195245 0.1242205 -0.4193709
v 0.06417227 -0.07623851 -1.235913
v 0.1203555 0.1029633 -1.462908
v 0.1203555 0.6812921 -1.451172
v 0.2195245 0.4305416 -0.3845863
v 0.1203555 0.8531411 -1.03074
v 0.2195245 0.7158411 -0.4680599
v 0.1510395 0.2314966 -1.49067
v -0.00313437 -0.003511429 -1.493922
v 0.09009576 0.1110232 -1.544449
v 0.05828059 0.1971833 -1.373213
v 0.2066571 0.3610667 -1.354407
v 0.008837461 0.0124197 -1.339135
v 0.1717782 0.4154117 -1.223517
v 0.05366158 0.1133798 -1.24468
v 0.1389732 0.27896 -1.183453
v 0.03560936 0.2397449 -1.107709
v -0.1564127 0.1189415 -1.044315
v -0.05955327 0.1646612 -1.119399
v -0.02165794 0.2622747 -0.9947774
v 0.1459962 0.334012 -1.030787
v -0.1118244 0.1463733 -0.9244542
v 0.1633414 0.4038168 -0.9319013
v -0.02698398 0.2178278 -0.8741627
v 0.1024919 0.3187879 -0.8684595
v 0.01194835 0.2339003 -0.880997
v -0.1659337 0.1298294 -0.7668867
v -0.08429837 0.1612204 -0.8641703
v -0.02326047 0.2740581 -0.7639173
v 0.1353911 0.3342006 -0.8398966
v -0.09966397 0.1722968 -0.6624387
v 0.1712598 0.4165429 -0.7569415
v -0.006480932 0.2471448 -0.639249
v 0.1225709 0.3433917 -0.6718654
v 0.128274 0.9474554 -0.6848271
v 0.05625391 1.176572 -0.792056
v 0.09928679 1.080184 -0.691143
v 0.07402325 0.9521687 -0.8177438
v 0.1628228 0.7783873 -0.7470434
v 0.08627796 1.104834 -0.9156873
v 0.1373707 0.6923213 -0.8499832
v 0.1126728 0.9770553 -0.9538655
v 0.1519822 0.7989376 -0.9340223
v 0.168149 0.8133132 -0.4782878
v 0.09726012 1.0092 -0.4404867
v 0.1415185 0.9022071 -0.4202193
v 0.114511 0.8735499 -0.5611486
v 0.1948737 0.7319136 -0.5985727
v 0.1135683 1.019853 -0.5564353
v 0.1685731 0.7202244 -0.7046704
v 0.1346841 0.9542897 -0.6415114
v 0.1715897 0.8298571 -0.7120232
v 0.2122189 0.5748646 -0.4057493
v 0.1595235 0.7067914 -0.2756135
v 0.1968062 0.614928 -0.3159127
v 0.1591464 0.6608362 -0.4351134
v 0.2227297 0.5706224 -0.5396557
v 0.1648024 0.77127 -0.360831
v 0.1893591 0.6127129 -0.624072
v 0.1738521 0.7621262 -0.459623
v 0.1960521 0.7007582 -0.5770798
v -0.03051901 -0.2429028 -0.8784047
v -0.1830432 -0.3395737 -0.7835248
v -0.1137569 -0.3066274 -0.8668569
v -0.05922329 -0.2152826 -0.7743809
v 0.07708693 -0.1587694 -0.8386711
v -0.124032 -0.3092669 -0.6917086
v 0.1095148 -0.09268808 -0.7625504
v -0.04286802 -0.2460607 -0.668566
v 0.06850863 -0.1609846 -0.6928398
v -0.03626931 -0.7418116 -1.142777
v -0.1664994 -0.9490107 -1.180107
v -0.09575188 -0.8344762 -1.207963
v -0.09707165 -0.8044993 -1.039507
v 0.03174448 -0.661496 -1.005854
v -0.1314319 -0.9718705 -1.04917
v 0.02175212 -0.6489585 -0.8783104
v -0.07901943 -0.9063549 -0.9524515
v 0.002050281 -0.7758892 -0.873597
v -0.0005892515 -0.9629623 -0.9038097
v -0.2304125 -1.118173 -0.8736442
v -0.1119658 -1.045917 -0.9425535
v -0.07482457 -0.9666858 -0.7707516
v 0.1250218 -0.8752467 -0.7838547
v -0.1845044 -1.118739 -0.7256919
v 0.1394918 -0.8211845 -0.6502782
v -0.08745635 -1.050159 -0.6439152
v 0.06464362 -0.9358605 -0.6032389
v -0.04550743 -0.9929392 -0.6482515
v -0.2069399 -1.127364 -0.5501665
v -0.138172 -1.068683 -0.6418413
v -0.06605768 -0.9883673 -0.5233947
v 0.08062196 -0.906402 -0.5957918
v -0.1297823 -1.114544 -0.4479338
v 0.1259173 -0.8507373 -0.499168
v -0.03542089 -1.047897 -0.4159302
v 0.08764482 -0.9446273 -0.4343122
v 0.2167908 -0.5058138 0.5809448
v 0.1482115 -0.2825421 0.4904954
v 0.1967119 -0.3778933 0.5793424
v 0.1477401 -0.4965285 0.4632051
v 0.2304124 -0.6678119 0.5170789
v 0.155093 -0.3510743 0.369645
v 0.1870495 -0.7468549 0.4233773
v 0.1668763 -0.4736687 0.3297229
v 0.1957221 -0.6454706 0.3424489
v 0.2150469 -0.6554158 0.7607594
v 0.1525477 -0.4358205 0.7632103
v 0.1967591 -0.5472914 0.804405
v 0.1521236 -0.6062083 0.664984
v 0.227443 -0.7692434 0.6500425
v 0.1588166 -0.4509504 0.6374578
v 0.1879451 -0.8028024 0.5434265
v 0.1695629 -0.5399857 0.5607245
v 0.1958635 -0.689022 0.5109985
v -0.1011251 -1.086594 0.8494177
v -0.1745592 -1.169313 0.9910541
v -0.1513695 -1.149281 0.8960798
v -0.09754288 -1.045729 0.9385943
v -0.01958406 -0.9929392 0.8325438
v -0.1051314 -1.116995 1.040026
v 0.01656747 -0.9170542 0.8730314
v -0.04569602 -1.047944 1.021879
v 0.01892412 -0.9660731 0.9524045
v 0.2106634 -0.890518 1.356716
v 0.1633885 -0.7280486 1.321413
v 0.1968533 -0.8033209 1.37062
v 0.1630585 -0.870392 1.27772
v 0.2200902 -0.9931749 1.294217
v 0.1681018 -0.7604765 1.2312
v 0.1901604 -1.035925 1.221254
v 0.1762559 -0.8391424 1.189628
v 0.1961462 -0.9574948 1.178127
v 0.2106634 -1.021219 1.472005
v 0.1633885 -0.8580901 1.503961
v 0.1968533 -0.9467012 1.519327
v 0.1630585 -0.9714463 1.407479
v 0.2200902 -1.090741 1.373967
v 0.1681018 -0.8521041 1.40828
v 0.1901604 -1.101064 1.290022
v 0.1762559 -0.9078631 1.338947
v 0.1961462 -1.011934 1.281491
vt 0.08119971 0.02563406
vt 0.09615587 0.01969121
vt 0.09665111 0.01543217
vt 0.07981304 0.01642264
vt 0.08040732 0.0121636
vt 0.07416733 0.02642644
vt 0.06871972 0.01156932
vt 0.06218259 0.01998835
vt 0.0615883 0.01473884
vt 0.05831973 0.03137882
vt 0.04940546 0.01087599
vt 0.04821689 0.01979026
vt 0.03118072 0.02890263
vt 0.04673118 0.03177501
vt 0.02266264 0.01681884
vt 0.04683023 0.04158071
vt 0.01969121 0.02751596
vt 0.02672358 0.04514642
vt 0.03979785 0.04871213
vt 0.01622455 0.03851024
vt 0.009192178 0.04257118
vt 0.007508371 0.05851783
vt 0.03841119 0.05713116
vt 0.01830455 0.06485687
vt 0.03444929 0.06426258
vt 0.01483789 0.01404551
vt 0.01077694 0.02097883
vt 0.01414455 0.0182055
vt 0.01077694 0.01404551
vt 0.01355027 0.008597894
vt 0.007409324 0.0182055
vt 0.01077694 0.005725516
vt 0.006715991 0.01404551
vt 0.007904561 0.008597894
vt 0.01780931 0.07892161
vt 0.0144417 0.08476541
vt 0.01731407 0.08238827
vt 0.0144417 0.07892161
vt 0.01681884 0.07436543
vt 0.01156932 0.08238827
vt 0.0144417 0.07198828
vt 0.01107408 0.07892161
vt 0.01206456 0.07436543
vt 0.01780931 0.07892161
vt 0.0144417 0.08476541
vt 0.01731407 0.08238827
vt 0.0144417 0.07892161
vt 0.01681884 0.07436543
vt 0.01156932 0.08238827
vt 0.0144417 0.07198828
vt 0.01107408 0.07892161
vt 0.01206456 0.07436543
vt 0.01454074 0.01404551
vt 0.01077694 0.02048359
vt 0.01394646 0.01780931
vt 0.01077694 0.01404551
vt 0.01335217 0.008895036
vt 0.007607419 0.01780931
vt 0.01077694 0.006220754
vt 0.007013134 0.01404551
vt 0.008102656 0.008895036
vt 0.01176741 0.1011082
vt 0.008696941 0.1062587
vt 0.01127218 0.1041787
vt 0.008696941 0.1011082
vt 0.01087599 0.09694825
vt 0.006220754 0.1041787
vt 0.008696941 0.09486826
vt 0.005626469 0.1011082
vt 0.006616944 0.09694825
vt 0.01147027 0.1010092
vt 0.008696941 0.1057635
vt 0.01107408 0.1038816
vt 0.008696941 0.1010092
vt 0.01067789 0.0972454
vt 0.006418849 0.1038816
vt 0.008696941 0.0953635
vt 0.005923611 0.1010092
vt 0.006815039 0.0972454
vt 0.01166837 0.1011082
vt 0.008696941 0.1060606
vt 0.01117313 0.1040797
vt 0.008696941 0.1011082
vt 0.01077694 0.0970473
vt 0.006220754 0.1040797
vt 0.008696941 0.09506635
vt 0.005824564 0.1011082
vt 0.006715991 0.0970473
vt 0.01434265 0.01394646
vt 0.01077694 0.0200874
vt 0.01374836 0.01761121
vt 0.01077694 0.01394646
vt 0.01325313 0.009093131
vt 0.007805514 0.01761121
vt 0.01077694 0.006715991
vt 0.007211229 0.01394646
vt 0.008300751 0.009093131
vt 0.01850264 0.07902066
vt 0.0144417 0.08595398
vt 0.01780931 0.08318065
vt 0.0144417 0.07902066
vt 0.01721502 0.07357305
vt 0.01107408 0.08318065
vt 0.0144417 0.07079972
vt 0.01038075 0.07902066
vt 0.01166837 0.07357305
vt 0.01780931 0.07892161
vt 0.0144417 0.08466636
vt 0.01721502 0.08238827
vt 0.0144417 0.07892161
vt 0.01671979 0.07436543
vt 0.01166837 0.08238827
vt 0.0144417 0.07208733
vt 0.01107408 0.07892161
vt 0.0121636 0.07436543
vt 0.01800741 0.07902066
vt 0.0144417 0.0851616
vt 0.01741312 0.08268542
vt 0.0144417 0.07902066
vt 0.01691788 0.07406829
vt 0.01147027 0.08268542
vt 0.0144417 0.0715921
vt 0.01087599 0.07902066
vt 0.01196551 0.07406829
vt 0.01196551 0.1011082
vt 0.008696941 0.106754
vt 0.01147027 0.1044759
vt 0.008696941 0.1011082
vt 0.01097503 0.09665111
vt 0.005923611 0.1044759
vt 0.008696941 0.09437302
vt 0.005428374 0.1011082
vt 0.006418849 0.09665111
vt 0.01127218 0.1010092
vt 0.008696941 0.1054663
vt 0.01087599 0.1036835
vt 0.008696941 0.1010092
vt 0.0104798 0.09754254
vt 0.006517896 0.1036835
vt 0.008696941 0.09575968
vt 0.006121706 0.1010092
vt 0.006914086 0.09754254
vt 0.01117313 0.1010092
vt 0.008696941 0.1052682
vt 0.01077694 0.1035844
vt 0.008696941 0.1010092
vt 0.0104798 0.09764159
vt 0.006616944 0.1035844
vt 0.008696941 0.09595778
vt 0.006220754 0.1010092
vt 0.007013134 0.09764159
vt 0.01117313 0.1010092
vt 0.008696941 0.1052682
vt 0.01077694 0.1035844
vt 0.008696941 0.1010092
vt 0.0104798 0.09764159
vt 0.006616944 0.1035844
vt 0.008696941 0.09595778
vt 0.006220754 0.1010092
vt 0.007013134 0.09764159
vn -0.593967 0.7904612 0.1495801
vn -0.5878266 0.7474781 0.3094132
vn -0.6737928 0.6676523 0.3166128
vn -0.8702869 0.4465964 0.2077315
vn -0.9869553 0.05974859 0.1494966
vn -0.5571244 0.8088825 0.1879399
vn -0.9991459 0.04132351 0
vn -0.8825678 0.4588773 0.1024973
vn -0.9991459 0.04132351 0
vn -0.6983545 0.7106355 0.08542933
vn -0.9992362 0.02290589 -0.03166056
vn -0.9501126 0.3115067 0.01579785
vn -0.9930958 0.1027316 0.05662945
vn -0.8457251 0.4036133 0.3490635
vn -0.9992362 0.010625 -0.03760559
vn -0.8887083 0.07816988 0.4517599
vn -0.9869553 0.010625 -0.1606432
vn -0.9869553 0.1088721 0.1186002
vn -0.8641465 0.05360812 0.5003768
vn -0.9623936 -0.02007717 -0.270916
vn -0.9746744 0.05974859 -0.2154992
vn -0.9746744 0.1088721 -0.1953373
vn -0.9071296 0.1457148 0.3948204
vn -0.9843974 0.1759598 0
vn -0.9194105 0.2439618 0.3084914
vn -0.7167758 0.5755457 -0.3936744
vn -0.9009891 0.4097537 -0.1425499
vn -0.7658994 0.5080008 -0.3941235
vn -0.8764274 0.4711582 -0.09942371
vn -0.6615118 0.6430905 -0.3857936
vn -0.9562531 0.274664 0.1006958
vn -0.8457251 0.5264222 -0.08734248
vn -0.9378318 0.3053663 0.1649937
vn -0.9071296 0.3360685 0.2533257
vn -0.5080008 0.759759 -0.4058343
vn -0.6799332 0.7229163 -0.122812
vn -0.5816862 0.7167758 -0.3845433
vn -0.6246693 0.7720398 -0.1172297
vn -0.4343155 0.7966016 -0.420471
vn -0.7290568 0.6676523 0.1507204
vn -0.5694053 0.8211634 -0.03831997
vn -0.6799332 0.6983545 0.2235882
vn -0.6246693 0.7290568 0.279758
vn -0.5694053 0.7106355 -0.4132492
vn -0.6860737 0.7229163 -0.08182208
vn -0.6369501 0.6737928 -0.3745636
vn -0.6308097 0.7720398 -0.07767624
vn -0.49572 0.7413376 -0.4524161
vn -0.6799332 0.704495 0.2034147
vn -0.5632648 0.8211634 -0.09177999
vn -0.6185288 0.7474781 0.2422781
vn -0.550984 0.7781803 0.3014168
vn -0.9071296 -0.2104309 0.364465
vn -0.9930958 -0.1121838 0.03428526
vn -0.9316913 -0.142886 0.3339683
vn -0.9808149 -0.1920096 0.03368261
vn -0.8764274 -0.2841162 0.3887841
vn -0.9685341 -0.07534117 -0.2372035
vn -0.9623936 -0.2656949 0.05661115
vn -0.9439723 -0.142886 -0.2974893
vn -0.9132701 -0.2042904 -0.3524247
vn -0.8641465 -0.4499081 0.2254627
vn -0.9808149 -0.1920096 0.03368261
vn -0.8948486 -0.3700824 0.2495696
vn -0.9674333 -0.253126 0
vn -0.8273038 -0.5235934 0.2035149
vn -0.9808149 -0.001655877 -0.1949345
vn -0.9501126 -0.308678 -0.04476487
vn -0.9623936 -0.02007717 -0.270916
vn -0.9378318 -0.04463893 -0.3442076
vn -0.8580061 -0.5113125 0.04883728
vn -0.9808149 -0.1920096 0.03368261
vn -0.8825678 -0.4560486 0.1144279
vn -0.9746744 -0.2104309 -0.07568771
vn -0.8211634 -0.5665765 -0.06842344
vn -0.9930958 0.08431035 -0.08156256
vn -0.9623936 -0.2349927 -0.1362977
vn -0.9869553 0.1088721 -0.1186002
vn -0.9685341 0.1334339 -0.2100886
vn -0.5755457 0.7351972 -0.3580951
vn -0.6853132 0.7282485 0
vn -0.6430905 0.6983545 -0.314222
vn -0.6297133 0.7768277 0
vn -0.5018604 0.7720398 -0.3899879
vn -0.6737928 0.6922141 0.2585401
vn -0.5632648 0.8211634 -0.09177999
vn -0.6123883 0.7290568 0.3057071
vn -0.5448435 0.759759 0.3548406
vn -0.7843208 0.6123883 -0.09910335
vn -0.9194105 0.3729111 0.1249865
vn -0.8334443 0.5448435 -0.09228322
vn -0.8887083 0.4220347 0.1791209
vn -0.7290568 0.6799332 -0.0785304
vn -0.9316913 0.1702765 0.3208693
vn -0.8580061 0.4711582 0.2045374
vn -0.8948486 0.1825574 0.4073312
vn -0.8580061 0.1948383 0.4752511
vn -0.49572 0.8334443 -0.2441974
vn -0.6789752 0.7341613 0
vn -0.5632648 0.7904612 -0.2406321
vn -0.6246693 0.7781803 0.06499004
vn -0.4158942 0.8702869 -0.2638801
vn -0.7413376 0.6123883 0.2745891
vn -0.5694053 0.815023 0.1073089
vn -0.6922141 0.6308097 0.3505977
vn -0.6430905 0.649231 0.4061202
vn -0.606248 0.7843208 -0.1315458
vn -0.6860737 0.6983545 0.20397
vn -0.6676523 0.7351972 -0.1171555
vn -0.6308097 0.7474781 0.2082202
vn -0.538703 0.8273038 -0.1592716
vn -0.6430905 0.606248 0.4678653
vn -0.5694053 0.7966016 0.2029866
vn -0.5816862 0.6308097 0.513537
vn -0.5080008 0.6553715 0.5589485
vn -0.8580061 -0.1613074 0.4876531
vn -0.9808149 -0.0507794 0.1882117
vn -0.8825678 -0.08762205 0.4619485
vn -0.9746744 -0.1306051 0.1815271
vn -0.8211634 -0.2349927 0.5200665
vn -0.9930958 -0.01393676 -0.1164751
vn -0.9623936 -0.2042904 0.1790643
vn -0.9869553 -0.07534117 -0.1422774
vn -0.9685341 -0.142886 -0.2037778
vn -0.8580061 -0.3332397 0.3908668
vn -0.9808149 -0.1183242 0.1549244
vn -0.8825678 -0.253414 0.3960497
vn -0.9746744 -0.1858691 0.1243481
vn -0.8211634 -0.4130655 0.3937863
vn -0.9930958 0.02290589 -0.1150478
vn -0.9623936 -0.253414 0.09787725
vn -0.9869553 -0.01393676 -0.1603899
vn -0.9685341 -0.0507794 -0.2436458
vn -0.815023 0.538703 -0.213393
vn -0.7966016 0.5878266 0.1410172
vn -0.8518656 0.5018604 -0.1498703
vn -0.759759 0.649231 0.03557172
vn -0.7720398 0.5755457 -0.2696324
vn -0.6799332 0.6246693 0.3840301
vn -0.7106355 0.6983545 0.08542916
vn -0.6185288 0.6799332 0.3938437
vn -0.5448435 0.7290568 0.4142726
vn -0.8580061 -0.2411331 0.45352
vn -0.9808149 -0.08148161 0.1770958
vn -0.8825678 -0.1613074 0.4416492
vn -0.9746744 -0.1551669 0.1610373
vn -0.8211634 -0.3209589 0.4718857
vn -0.9930958 0.004484594 -0.1172202
vn -0.9623936 -0.2288522 0.1463737
vn -0.9869553 -0.0507794 -0.1527763
vn -0.9685341 -0.1060434 -0.2251591
vn -0.8580061 -0.4007846 0.3212433
vn -0.9808149 -0.1490265 0.1256714
vn -0.8825678 -0.3209589 0.3435978
vn -0.9746744 -0.2042904 0.09096812
vn -0.8211634 -0.4806103 0.3077409
vn -0.9930958 0.04132724 -0.109785
vn -0.9623936 -0.2595544 0.08018784
vn -0.9869553 0.01676548 -0.1601189
vn -0.9685341 -0.007796288 -0.248759
g EPI_Moss_02_0
f 3/3/3 2/2/2 1/1/1
f 4/4/4 3/3/3 1/1/1
f 5/5/5 3/3/3 4/4/4
f 1/1/1 6/6/6 4/4/4
f 5/5/5 4/4/4 7/7/7
f 8/8/8 4/4/4 6/6/6
f 4/4/4 8/8/8 7/7/7
f 9/9/9 7/7/7 8/8/8
f 10/10/10 8/8/8 6/6/6
f 9/9/9 8/8/8 11/11/11
f 12/12/12 8/8/8 10/10/10
f 8/8/8 12/12/12 11/11/11
f 12/12/12 13/13/13 11/11/11
f 14/14/14 12/12/12 10/10/10
f 14/14/14 13/13/13 12/12/12
f 13/13/13 15/15/15 11/11/11
f 14/14/14 16/16/16 13/13/13
f 13/13/13 17/17/17 15/15/15
f 17/17/17 13/13/13 18/18/18
f 16/16/16 19/19/19 13/13/13
f 19/19/19 18/18/18 13/13/13
f 20/20/20 17/17/17 18/18/18
f 21/21/21 20/20/20 18/18/18
f 21/21/21 18/18/18 22/22/22
f 19/19/19 23/23/23 18/18/18
f 18/18/18 24/24/24 22/22/22
f 24/24/24 18/18/18 23/23/23
f 25/25/25 24/24/24 23/23/23
f 28/28/28 27/27/27 26/26/26
f 27/27/27 29/29/29 26/26/26
f 26/26/26 29/29/29 30/30/30
f 27/27/27 31/31/31 29/29/29
f 29/29/29 32/32/32 30/30/30
f 31/31/31 33/33/33 29/29/29
f 29/29/29 33/33/33 32/32/32
f 33/33/33 34/34/34 32/32/32
f 37/37/37 36/36/36 35/35/35
f 36/36/36 38/38/38 35/35/35
f 35/35/35 38/38/38 39/39/39
f 36/36/36 40/40/40 38/38/38
f 38/38/38 41/41/41 39/39/39
f 40/40/40 42/42/42 38/38/38
f 38/38/38 42/42/42 41/41/41
f 42/42/42 43/43/43 41/41/41
f 46/46/46 45/45/45 44/44/44
f 45/45/45 47/47/47 44/44/44
f 44/44/44 47/47/47 48/48/48
f 45/45/45 49/49/49 47/47/47
f 47/47/47 50/50/50 48/48/48
f 49/49/49 51/51/51 47/47/47
f 47/47/47 51/51/51 50/50/50
f 51/51/51 52/52/52 50/50/50
f 55/55/55 54/54/54 53/53/53
f 54/54/54 56/56/56 53/53/53
f 53/53/53 56/56/56 57/57/57
f 54/54/54 58/58/58 56/56/56
f 56/56/56 59/59/59 57/57/57
f 58/58/58 60/60/60 56/56/56
f 56/56/56 60/60/60 59/59/59
f 60/60/60 61/61/61 59/59/59
f 64/64/64 63/63/63 62/62/62
f 63/63/63 65/65/65 62/62/62
f 62/62/62 65/65/65 66/66/66
f 63/63/63 67/67/67 65/65/65
f 65/65/65 68/68/68 66/66/66
f 67/67/67 69/69/69 65/65/65
f 65/65/65 69/69/69 68/68/68
f 69/69/69 70/70/70 68/68/68
f 73/73/73 72/72/72 71/71/71
f 72/72/72 74/74/74 71/71/71
f 71/71/71 74/74/74 75/75/75
f 72/72/72 76/76/76 74/74/74
f 74/74/74 77/77/77 75/75/75
f 76/76/76 78/78/78 74/74/74
f 74/74/74 78/78/78 77/77/77
f 78/78/78 79/79/79 77/77/77
f 82/82/82 81/81/81 80/80/80
f 81/81/81 83/83/83 80/80/80
f 80/80/80 83/83/83 84/84/84
f 81/81/81 85/85/85 83/83/83
f 83/83/83 86/86/86 84/84/84
f 85/85/85 87/87/87 83/83/83
f 83/83/83 87/87/87 86/86/86
f 87/87/87 88/88/88 86/86/86
f 91/91/91 90/90/90 89/89/89
f 90/90/90 92/92/92 89/89/89
f 89/89/89 92/92/92 93/93/93
f 90/90/90 94/94/94 92/92/92
f 92/92/92 95/95/95 93/93/93
f 94/94/94 96/96/96 92/92/92
f 92/92/92 96/96/96 95/95/95
f 96/96/96 97/97/97 95/95/95
f 100/100/100 99/99/99 98/98/98
f 99/99/99 101/101/101 98/98/98
f 98/98/98 101/101/101 102/102/102
f 99/99/99 103/103/103 101/101/101
f 101/101/101 104/104/104 102/102/102
f 103/103/103 105/105/105 101/101/101
f 101/101/101 105/105/105 104/104/104
f 105/105/105 106/106/106 104/104/104
f 109/109/109 108/108/108 107/107/107
f 108/108/108 110/110/110 107/107/107
f 107/107/107 110/110/110 111/111/111
f 108/108/108 112/112/112 110/110/110
f 110/110/110 113/113/113 111/111/111
f 112/112/112 114/114/114 110/110/110
f 110/110/110 114/114/114 113/113/113
f 114/114/114 115/115/115 113/113/113
f 118/118/118 117/117/117 116/116/116
f 117/117/117 119/119/119 116/116/116
f 116/116/116 119/119/119 120/120/120
f 117/117/117 121/121/121 119/119/119
f 119/119/119 122/122/122 120/120/120
f 121/121/121 123/123/123 119/119/119
f 119/119/119 123/123/123 122/122/122
f 123/123/123 124/124/124 122/122/122
f 127/127/127 126/126/126 125/125/125
f 126/126/126 128/128/128 125/125/125
f 125/125/125 128/128/128 129/129/129
f 126/126/126 130/130/130 128/128/128
f 128/128/128 131/131/131 129/129/129
f 130/130/130 132/132/132 128/128/128
f 128/128/128 132/132/132 131/131/131
f 132/132/132 133/133/133 131/131/131
f 136/136/136 135/135/135 134/134/134
f 135/135/135 137/137/137 134/134/134
f 134/134/134 137/137/137 138/138/138
f 135/135/135 139/139/139 137/137/137
f 137/137/137 140/140/140 138/138/138
f 139/139/139 141/141/141 137/137/137
f 137/137/137 141/141/141 140/140/140
f 141/141/141 142/142/142 140/140/140
f 145/145/145 144/144/144 143/143/143
f 144/144/144 146/146/146 143/143/143
f 143/143/143 146/146/146 147/147/147
f 144/144/144 148/148/148 146/146/146
f 146/146/146 149/149/149 147/147/147
f 148/148/148 150/150/150 146/146/146
f 146/146/146 150/150/150 149/149/149
f 150/150/150 151/151/151 149/149/149
f 154/154/154 153/153/153 152/152/152
f 153/153/153 155/155/155 152/152/152
f 152/152/152 155/155/155 156/156/156
f 153/153/153 157/157/157 155/155/155
f 155/155/155 158/158/158 156/156/156
f 157/157/157 159/159/159 155/155/155
f 155/155/155 159/159/159 158/158/158
f 159/159/159 160/160/160 158/158/158
