g EPI_BuildingWindow_01
v -0.006099224 0.8091804 0.178323
v -0.006099224 -0.8718916 0.5770974
v -0.006099224 0.7271919 0.3392073
v -0.006099224 0.8374262 1.716614E-05
v -0.006099224 -0.8718916 0.5770974
v -0.006099224 0.8091804 -0.1783231
v -0.006099224 0.7271919 -0.3392074
v -0.006099224 0.5995361 -0.4668633
v -0.006099224 0.4386518 -0.5488517
v -0.006099224 0.2603115 -0.5770975
v -0.006099224 -0.8718916 -0.5770975
v -0.006099224 0.7271919 0.3392073
v -0.006099224 -0.8718916 0.5770974
v -0.006099224 0.5995361 0.4668633
v 0.1121414 -0.8972853 0.9999942
v 0.1121414 -0.8718916 0.9746004
v 0.1375695 -0.8972853 0.9746004
v 0.1121414 -0.8718916 -0.9746006
v 0.1121414 -0.8972853 -0.9999943
v 0.1375695 -0.8972853 -0.9746006
v 0.06293464 -0.8718916 0.5770974
v -0.006099224 0.2603115 0.5770974
v -0.006099224 -0.8718916 0.5770974
v 0.06293464 0.2603115 0.5770974
v -0.006099224 0.4386518 0.5488516
v 0.06293464 0.4386518 0.5488516
v -0.006099224 0.5995361 0.4668633
v 0.06293464 0.5995361 0.4668633
v -0.006099224 0.7271919 0.3392073
v 0.06293464 0.7271919 0.3392073
v -0.006099224 0.8091804 0.178323
v 0.06293464 0.8091804 0.178323
v -0.006099224 0.8374262 1.716614E-05
v 0.06293464 0.8374262 1.716614E-05
v -0.006099224 0.8091804 -0.1783231
v 0.06293464 0.8091804 -0.1783231
v -0.006099224 0.7271919 -0.3392074
v 0.06293464 0.7271919 -0.3392074
v -0.006099224 0.5995361 -0.4668633
v 0.06293464 0.5995361 -0.4668633
v -0.006099224 0.4386518 -0.5488517
v 0.06293464 0.4386518 -0.5488517
v -0.006099224 0.2603115 -0.5770975
v 0.06293464 0.2603115 -0.5770975
v -0.006099224 -0.8718916 -0.5770975
v 0.06293464 -0.8718916 -0.5770975
v -0.006099224 0.5995361 0.4668633
v -0.006099224 -0.8718916 0.5770974
v -0.006099224 0.4386518 0.5488516
v -0.006099224 0.2603115 0.5770974
v 0.1121414 -0.8972853 0.9999942
v -0.1375694 -0.8972853 0.9999942
v -0.1375694 -0.8718916 0.9746004
v 0.1121414 -0.8718916 0.9746004
v 0.1375695 -0.8972853 0.9746004
v 0.1375695 -1.125966 0.9746004
v 0.1121414 -1.125966 0.9999942
v 0.1121414 -0.8972853 0.9999942
v 0.1121414 -0.8718916 0.9746004
v 0.1121414 -0.8718916 -0.9746006
v 0.1375695 -0.8972853 -0.9746006
v 0.1375695 -0.8972853 0.9746004
v 0.1121414 -0.8718916 -0.9746006
v -0.1375694 -0.8718916 -0.9746006
v -0.1375694 -0.8972853 -0.9999943
v 0.1121414 -0.8972853 -0.9999943
v 0.1121414 -0.8972853 -0.9999943
v 0.1121414 -1.125966 -0.9999943
v 0.1375695 -1.125966 -0.9746006
v 0.1375695 -0.8972853 -0.9746006
v 0.1375695 -0.8972853 0.9746004
v 0.1375695 -0.8972853 -0.9746006
v 0.1375695 -1.125966 -0.9746006
v 0.1375695 -1.125966 0.9746004
v 0.1121414 -0.8972853 -0.9999943
v -0.1375694 -0.8972853 -0.9999943
v -0.1375694 -1.125966 -0.9999943
v 0.1121414 -1.125966 -0.9999943
v 0.1121414 -0.8718916 -0.9746006
v 0.1121414 -0.8718916 0.9746004
v -0.1375694 -0.8718916 0.9746004
v -0.1375694 -0.8718916 -0.9746006
v 0.1121414 -0.8972853 0.9999942
v 0.1121414 -1.125966 0.9999942
v -0.1375694 -1.125966 0.9999942
v -0.1375694 -0.8972853 0.9999942
v 0.06293464 0.2587652 0.8456044
v 0.06293464 -0.8718916 0.8456044
v 0.0429014 -0.8718916 0.8656377
v 0.0429014 0.2603115 0.8656377
v 0.06293464 0.5215681 0.8039573
v 0.0429014 0.5278219 0.8232689
v 0.06293464 0.7571902 0.6838955
v 0.0429014 0.7691483 0.7003206
v 0.06293464 0.9442242 0.4968959
v 0.0429014 0.9606494 0.5088196
v 0.06293464 1.064286 0.2612393
v 0.0429014 1.083598 0.2674932
v 0.06293464 1.105658 1.716614E-05
v 0.0429014 1.125966 1.716614E-05
v 0.06293464 1.064286 -0.2612393
v 0.0429014 1.083598 -0.2674933
v 0.06293464 0.9442242 -0.496896
v 0.0429014 0.9606494 -0.5088197
v 0.06293464 0.7571902 -0.6838956
v 0.0429014 0.7691483 -0.7003207
v 0.06293464 0.5215681 -0.8039574
v 0.0429014 0.5278219 -0.823269
v 0.06293464 0.2587652 -0.8456045
v 0.0429014 0.2603115 -0.8656377
v 0.06293464 -0.8718916 -0.8456045
v 0.0429014 -0.8718916 -0.8656377
v 0.06293464 0.2603115 0.5770974
v 0.06293464 -0.8718916 0.5770974
v 0.06293464 -0.8718916 0.8456044
v 0.06293464 0.2587652 0.8456044
v 0.06293464 0.5215681 0.8039573
v 0.06293464 0.4386518 0.5488516
v 0.06293464 0.7571902 0.6838955
v 0.06293464 0.5995361 0.4668633
v 0.06293464 0.9442242 0.4968959
v 0.06293464 0.7271919 0.3392073
v 0.06293464 1.064286 0.2612393
v 0.06293464 0.8091804 0.178323
v 0.06293464 1.105658 1.716614E-05
v 0.06293464 0.8374262 1.716614E-05
v 0.06293464 1.064286 -0.2612393
v 0.06293464 0.8091804 -0.1783231
v 0.06293464 0.9442242 -0.496896
v 0.06293464 0.7271919 -0.3392074
v 0.06293464 0.7571902 -0.6838956
v 0.06293464 0.5995361 -0.4668633
v 0.06293464 0.5215681 -0.8039574
v 0.06293464 0.4386518 -0.5488517
v 0.06293464 0.2587652 -0.8456045
v 0.06293464 0.2603115 -0.5770975
v 0.06293464 -0.8718916 -0.5770975
v 0.06293464 -0.8718916 -0.8456045
v 0.0429014 0.2603115 0.8656377
v 0.0429014 -0.8718916 0.8656377
v -0.1375694 -0.8718916 0.8656377
v -0.1375694 0.2603115 0.8656377
v 0.0429014 0.5278219 0.8232689
v -0.1375694 0.5278219 0.8232689
v 0.0429014 0.7691483 0.7003206
v -0.1375694 0.7691483 0.7003206
v 0.0429014 0.9606494 0.5088196
v -0.1375694 0.9606494 0.5088196
v 0.0429014 1.083598 0.2674932
v -0.1375694 1.083598 0.2674932
v 0.0429014 1.125966 1.716614E-05
v -0.1375694 1.125966 1.716614E-05
v 0.0429014 1.083598 -0.2674933
v -0.1375694 1.083598 -0.2674933
v 0.0429014 0.9606494 -0.5088197
v -0.1375694 0.9606494 -0.5088197
v 0.0429014 0.7691483 -0.7003207
v -0.1375694 0.7691483 -0.7003207
v 0.0429014 0.5278219 -0.823269
v -0.1375694 0.5278219 -0.823269
v 0.0429014 0.2603115 -0.8656377
v -0.1375694 0.2603115 -0.8656377
v -0.1375694 -0.8718916 -0.8656377
v 0.0429014 -0.8718916 -0.8656377
vt 0.7873855 0.7841556
vt 0.7771085 0.7423134
vt 0.7831279 0.782247
vt 0.7920836 0.7847428
vt 0.7771085 0.7423134
vt 0.7967817 0.7841556
vt 0.8010393 0.782247
vt 0.804416 0.7794575
vt 0.8066182 0.7757872
vt 0.8072054 0.7716764
vt 0.8072054 0.7423134
vt 0.7831279 0.782247
vt 0.7771085 0.7423134
vt 0.7797512 0.7794575
vt 0.7914963 0.7295406
vt 0.7926708 0.729247
vt 0.7914963 0.7286597
vt 0.7926708 0.6780087
vt 0.7914963 0.6777151
vt 0.7914963 0.678596
vt 0.7751999 0.7423134
vt 0.7771085 0.7716764
vt 0.7771085 0.7423134
vt 0.7751999 0.7716764
vt 0.7776958 0.7757872
vt 0.7760808 0.7763744
vt 0.7797512 0.7794575
vt 0.7784298 0.7804852
vt 0.7831279 0.782247
vt 0.782247 0.7838619
vt 0.7873855 0.7841556
vt 0.786945 0.7859173
vt 0.7920836 0.7847428
vt 0.7920836 0.7866514
vt 0.7967817 0.7841556
vt 0.7973689 0.7859173
vt 0.8010393 0.782247
vt 0.8020669 0.7838619
vt 0.804416 0.7794575
vt 0.8057373 0.7804852
vt 0.8066182 0.7757872
vt 0.8082331 0.7763744
vt 0.8072054 0.7716764
vt 0.8089672 0.7716764
vt 0.8072054 0.7423134
vt 0.8089672 0.7423134
vt 0.7797512 0.7794575
vt 0.7771085 0.7423134
vt 0.7776958 0.7757872
vt 0.7771085 0.7716764
vt 0.7914963 0.7295406
vt 0.7914963 0.7358536
vt 0.7926708 0.7358536
vt 0.7926708 0.729247
vt 0.7914963 0.7286597
vt 0.7856237 0.7286597
vt 0.7856237 0.7295406
vt 0.7914963 0.7295406
vt 0.7926708 0.7286597
vt 0.7926708 0.678596
vt 0.7914963 0.678596
vt 0.7914963 0.7286597
vt 0.7926708 0.6780087
vt 0.7926708 0.671402
vt 0.7914963 0.671402
vt 0.7914963 0.6777151
vt 0.7914963 0.6777151
vt 0.7856237 0.6777151
vt 0.7856237 0.678596
vt 0.7914963 0.678596
vt 0.7914963 0.7286597
vt 0.7914963 0.678596
vt 0.7856237 0.678596
vt 0.7856237 0.7286597
vt 0.7914963 0.6777151
vt 0.7914963 0.671402
vt 0.7856237 0.671402
vt 0.7856237 0.6777151
vt 0.7926708 0.678596
vt 0.7926708 0.7286597
vt 0.7985434 0.7286597
vt 0.7985434 0.678596
vt 0.7914963 0.7295406
vt 0.7856237 0.7295406
vt 0.7856237 0.7358536
vt 0.7914963 0.7358536
vt 0.7682996 0.7718232
vt 0.7681528 0.7423134
vt 0.7674187 0.7423134
vt 0.7675655 0.77197
vt 0.769621 0.7787235
vt 0.7688869 0.7788703
vt 0.7728509 0.7848896
vt 0.7722636 0.7853301
vt 0.7781362 0.7898813
vt 0.7776958 0.7904686
vt 0.7847428 0.7931113
vt 0.7844492 0.7938454
vt 0.7920836 0.794139
vt 0.7920836 0.7950199
vt 0.7995711 0.7931113
vt 0.7997179 0.7938454
vt 0.8061777 0.7898813
vt 0.8066182 0.7904686
vt 0.8113163 0.7848896
vt 0.8119035 0.7853301
vt 0.814693 0.7787235
vt 0.8154271 0.7788703
vt 0.8160143 0.7718232
vt 0.8167484 0.77197
vt 0.8160143 0.7423134
vt 0.8168952 0.7423134
vt 0.7751999 0.7716764
vt 0.7751999 0.7423134
vt 0.7681528 0.7423134
vt 0.7682996 0.7718232
vt 0.769621 0.7787235
vt 0.7760808 0.7763744
vt 0.7728509 0.7848896
vt 0.7784298 0.7804852
vt 0.7781362 0.7898813
vt 0.782247 0.7838619
vt 0.7847428 0.7931113
vt 0.786945 0.7859173
vt 0.7920836 0.794139
vt 0.7920836 0.7866514
vt 0.7995711 0.7931113
vt 0.7973689 0.7859173
vt 0.8061777 0.7898813
vt 0.8020669 0.7838619
vt 0.8113163 0.7848896
vt 0.8057373 0.7804852
vt 0.814693 0.7787235
vt 0.8082331 0.7763744
vt 0.8160143 0.7718232
vt 0.8089672 0.7716764
vt 0.8089672 0.7423134
vt 0.8160143 0.7423134
vt 0.7675655 0.77197
vt 0.7674187 0.7423134
vt 0.7627206 0.7423134
vt 0.7627206 0.7722636
vt 0.7688869 0.7788703
vt 0.764042 0.780632
vt 0.7722636 0.7853301
vt 0.7681528 0.78856
vt 0.7776958 0.7904686
vt 0.7746127 0.7948731
vt 0.7844492 0.7938454
vt 0.7828342 0.7991307
vt 0.7920836 0.7950199
vt 0.7920836 0.8005988
vt 0.7997179 0.7938454
vt 0.8013329 0.7991307
vt 0.8066182 0.7904686
vt 0.8097013 0.7948731
vt 0.8119035 0.7853301
vt 0.8161612 0.78856
vt 0.8154271 0.7788703
vt 0.8201252 0.780632
vt 0.8167484 0.77197
vt 0.8214465 0.7722636
vt 0.8215933 0.7423134
vt 0.8168952 0.7423134
vn 0.9999924 0.003921509 0
vn 0.9999924 0.003921509 0
vn 0.9999924 0.003921509 0
vn 0.9999924 0.003921509 0
vn 0.9999924 0.003921509 0
vn 0.9999924 0.003921509 0
vn 0.9999924 0.003921509 0
vn 0.9999924 0.003921509 0
vn 0.9999924 0.003921509 0
vn 0.9999924 0.003921509 0
vn 0.9999924 0.003921509 0
vn 0.9999924 0.003921509 0
vn 0.9999924 0.003921509 0
vn 0.9999924 0.003921509 0
vn 0.5764662 0.5764661 0.5791144
vn 0.5764662 0.5764661 0.5791144
vn 0.5764662 0.5764661 0.5791144
vn 0.5764662 0.5764661 -0.5791144
vn 0.5764662 0.5764661 -0.5791144
vn 0.5764662 0.5764661 -0.5791144
vn -0.003921509 0.003921509 -0.9999846
vn -0.003921509 -0.01960772 -0.9998001
vn -0.003921509 0.003921509 -0.9999846
vn -0.003921509 -0.01960772 -0.9998001
vn -0.003921509 -0.3098016 -0.9507931
vn -0.003921509 -0.3098016 -0.9507931
vn -0.003921509 -0.5843093 -0.8115216
vn -0.003921509 -0.5843093 -0.8115216
vn -0.003921509 -0.8117585 -0.5839801
vn -0.003921509 -0.8117585 -0.5839801
vn -0.003921509 -0.9529339 -0.3031528
vn -0.003921509 -0.9529339 -0.3031528
vn -0.003921509 -0.9999924 0
vn -0.003921509 -0.9999924 0
vn -0.003921509 -0.9529339 0.3031528
vn -0.003921509 -0.9529339 0.3031528
vn -0.003921509 -0.8117585 0.5839801
vn -0.003921509 -0.8117585 0.5839801
vn -0.003921509 -0.5843093 0.8115216
vn -0.003921509 -0.5843093 0.8115216
vn -0.003921509 -0.3098016 0.9507931
vn -0.003921509 -0.3098016 0.9507931
vn -0.003921509 -0.01960772 0.9998001
vn -0.003921509 -0.01960772 0.9998001
vn -0.003921509 0.003921509 0.9999846
vn -0.003921509 0.003921509 0.9999846
vn 0.9999924 0.003921509 0
vn 0.9999924 0.003921509 0
vn 0.9999924 0.003921509 0
vn 0.9999924 0.003921509 0
vn -0.003921509 0.7097985 0.7043939
vn -0.003921509 0.7097985 0.7043939
vn -0.003921509 0.7097985 0.7043939
vn -0.003921509 0.7097985 0.7043939
vn 0.7097985 0.003921509 0.7043939
vn 0.7097985 0.003921509 0.7043939
vn 0.7097985 0.003921509 0.7043939
vn 0.7097985 0.003921509 0.7043939
vn 0.7071068 0.7071068 0
vn 0.7071068 0.7071068 0
vn 0.7071068 0.7071068 0
vn 0.7071068 0.7071068 0
vn -0.003921509 0.7097985 -0.7043939
vn -0.003921509 0.7097985 -0.7043939
vn -0.003921509 0.7097985 -0.7043939
vn -0.003921509 0.7097985 -0.7043939
vn 0.7097985 0.003921509 -0.7043939
vn 0.7097985 0.003921509 -0.7043939
vn 0.7097985 0.003921509 -0.7043939
vn 0.7097985 0.003921509 -0.7043939
vn 0.9999924 0.003921509 0
vn 0.9999924 0.003921509 0
vn 0.9999924 0.003921509 0
vn 0.9999924 0.003921509 0
vn -0.003921509 0.003921509 -0.9999846
vn -0.003921509 0.003921509 -0.9999846
vn -0.003921509 0.003921509 -0.9999846
vn -0.003921509 0.003921509 -0.9999846
vn -0.003921509 0.9999923 -0.000345267
vn -0.003921509 0.9999923 -0.000345267
vn -0.003921509 0.9999923 -0.000345267
vn -0.003921509 0.9999923 -0.000345267
vn -0.003921509 0.003921509 0.9999846
vn -0.003921509 0.003921509 0.9999846
vn -0.003921509 0.003921509 0.9999846
vn -0.003921509 0.003921509 0.9999846
vn 0.7097985 0.01960766 0.7041318
vn 0.7097985 0.003921509 0.7043939
vn 0.7097985 0.003921509 0.7043939
vn 0.7097985 0.01960766 0.7041318
vn 0.7097985 0.2156845 0.6705716
vn 0.7097985 0.2156845 0.6705716
vn 0.7097985 0.4117615 0.571523
vn 0.7097985 0.4117615 0.571523
vn 0.7097985 0.5686231 0.415757
vn 0.7097985 0.5686231 0.415757
vn 0.7097985 0.670583 0.215649
vn 0.7097985 0.670583 0.215649
vn 0.7097985 0.7019553 -0.05869259
vn 0.7097985 0.7019553 -0.05869259
vn 0.7097985 0.670583 -0.215649
vn 0.7097985 0.670583 -0.215649
vn 0.7097985 0.5686231 -0.415757
vn 0.7097985 0.5686231 -0.415757
vn 0.7097985 0.4117615 -0.571523
vn 0.7097985 0.4117615 -0.571523
vn 0.7097985 0.2156845 -0.6705716
vn 0.7097985 0.2156845 -0.6705716
vn 0.7097985 0.01960766 -0.7041318
vn 0.7097985 0.01960766 -0.7041318
vn 0.7097985 0.003921509 -0.7043939
vn 0.7097985 0.003921509 -0.7043939
vn 0.9999924 0.003921509 0
vn 0.9999924 0.003921509 0
vn 0.9999924 0.003921509 0
vn 0.9999924 0.003921509 0
vn 0.9999924 0.003921509 0
vn 0.9999924 0.003921509 0
vn 0.9999924 0.003921509 0
vn 0.9999924 0.003921509 0
vn 0.9999924 0.003921509 0
vn 0.9999924 0.003921509 0
vn 0.9999924 0.003921509 0
vn 0.9999924 0.003921509 0
vn 0.9999924 0.003921509 0
vn 0.9999924 0.003921509 0
vn 0.9999924 0.003921509 0
vn 0.9999924 0.003921509 0
vn 0.9999924 0.003921509 0
vn 0.9999924 0.003921509 0
vn 0.9999924 0.003921509 0
vn 0.9999924 0.003921509 0
vn 0.9999924 0.003921509 0
vn 0.9999924 0.003921509 0
vn 0.9999924 0.003921509 0
vn 0.9999924 0.003921509 0
vn 0.9999924 0.003921509 0
vn 0.9999924 0.003921509 0
vn -0.003921509 0.02745068 0.9996155
vn -0.003921509 0.003921509 0.9999846
vn -0.003921509 0.003921509 0.9999846
vn -0.003921509 0.02745068 0.9996155
vn -0.003921509 0.3098015 0.9507932
vn -0.003921509 0.3098015 0.9507932
vn -0.003921509 0.5843092 0.8115216
vn -0.003921509 0.5843092 0.8115216
vn -0.003921509 0.8117584 0.5839803
vn -0.003921509 0.8117584 0.5839803
vn -0.003921509 0.9529338 0.3031532
vn -0.003921509 0.9529338 0.3031532
vn -0.003921509 0.9999923 -0.000345267
vn -0.003921509 0.9999923 -0.000345267
vn -0.003921509 0.9529338 -0.3031532
vn -0.003921509 0.9529338 -0.3031532
vn -0.003921509 0.8117584 -0.5839803
vn -0.003921509 0.8117584 -0.5839803
vn -0.003921509 0.5843092 -0.8115216
vn -0.003921509 0.5843092 -0.8115216
vn -0.003921509 0.3098015 -0.9507932
vn -0.003921509 0.3098015 -0.9507932
vn -0.003921509 0.02745068 -0.9996155
vn -0.003921509 0.02745068 -0.9996155
vn -0.003921509 0.003921509 -0.9999846
vn -0.003921509 0.003921509 -0.9999846
g EPI_BuildingWindow_01_0
f 3/3/3 2/2/2 1/1/1
f 1/1/1 5/5/5 4/4/4
f 4/4/4 5/5/5 6/6/6
f 6/6/6 5/5/5 7/7/7
f 7/7/7 5/5/5 8/8/8
f 8/8/8 5/5/5 9/9/9
f 9/9/9 5/5/5 10/10/10
f 5/5/5 11/11/11 10/10/10
f 14/14/14 13/13/13 12/12/12
f 17/17/17 16/16/16 15/15/15
f 20/20/20 19/19/19 18/18/18
f 23/23/23 22/22/22 21/21/21
f 22/22/22 24/24/24 21/21/21
f 22/22/22 25/25/25 24/24/24
f 25/25/25 26/26/26 24/24/24
f 25/25/25 27/27/27 26/26/26
f 27/27/27 28/28/28 26/26/26
f 27/27/27 29/29/29 28/28/28
f 29/29/29 30/30/30 28/28/28
f 29/29/29 31/31/31 30/30/30
f 31/31/31 32/32/32 30/30/30
f 31/31/31 33/33/33 32/32/32
f 33/33/33 34/34/34 32/32/32
f 33/33/33 35/35/35 34/34/34
f 35/35/35 36/36/36 34/34/34
f 35/35/35 37/37/37 36/36/36
f 37/37/37 38/38/38 36/36/36
f 37/37/37 39/39/39 38/38/38
f 39/39/39 40/40/40 38/38/38
f 39/39/39 41/41/41 40/40/40
f 41/41/41 42/42/42 40/40/40
f 41/41/41 43/43/43 42/42/42
f 43/43/43 44/44/44 42/42/42
f 43/43/43 45/45/45 44/44/44
f 45/45/45 46/46/46 44/44/44
f 49/49/49 48/48/48 47/47/47
f 50/50/50 48/48/48 49/49/49
f 53/53/53 52/52/52 51/51/51
f 54/54/54 53/53/53 51/51/51
f 57/57/57 56/56/56 55/55/55
f 58/58/58 57/57/57 55/55/55
f 61/61/61 60/60/60 59/59/59
f 62/62/62 61/61/61 59/59/59
f 65/65/65 64/64/64 63/63/63
f 66/66/66 65/65/65 63/63/63
f 69/69/69 68/68/68 67/67/67
f 70/70/70 69/69/69 67/67/67
f 73/73/73 72/72/72 71/71/71
f 74/74/74 73/73/73 71/71/71
f 77/77/77 76/76/76 75/75/75
f 78/78/78 77/77/77 75/75/75
f 81/81/81 80/80/80 79/79/79
f 82/82/82 81/81/81 79/79/79
f 85/85/85 84/84/84 83/83/83
f 86/86/86 85/85/85 83/83/83
f 89/89/89 88/88/88 87/87/87
f 90/90/90 89/89/89 87/87/87
f 90/90/90 87/87/87 91/91/91
f 92/92/92 90/90/90 91/91/91
f 92/92/92 91/91/91 93/93/93
f 94/94/94 92/92/92 93/93/93
f 94/94/94 93/93/93 95/95/95
f 96/96/96 94/94/94 95/95/95
f 96/96/96 95/95/95 97/97/97
f 98/98/98 96/96/96 97/97/97
f 98/98/98 97/97/97 99/99/99
f 100/100/100 98/98/98 99/99/99
f 100/100/100 99/99/99 101/101/101
f 102/102/102 100/100/100 101/101/101
f 102/102/102 101/101/101 103/103/103
f 104/104/104 102/102/102 103/103/103
f 104/104/104 103/103/103 105/105/105
f 106/106/106 104/104/104 105/105/105
f 106/106/106 105/105/105 107/107/107
f 108/108/108 106/106/106 107/107/107
f 107/107/107 109/109/109 108/108/108
f 109/109/109 110/110/110 108/108/108
f 109/109/109 111/111/111 110/110/110
f 111/111/111 112/112/112 110/110/110
f 115/115/115 114/114/114 113/113/113
f 116/116/116 115/115/115 113/113/113
f 116/116/116 113/113/113 117/117/117
f 113/113/113 118/118/118 117/117/117
f 117/117/117 118/118/118 119/119/119
f 118/118/118 120/120/120 119/119/119
f 119/119/119 120/120/120 121/121/121
f 120/120/120 122/122/122 121/121/121
f 121/121/121 122/122/122 123/123/123
f 122/122/122 124/124/124 123/123/123
f 123/123/123 124/124/124 125/125/125
f 124/124/124 126/126/126 125/125/125
f 125/125/125 126/126/126 127/127/127
f 126/126/126 128/128/128 127/127/127
f 127/127/127 128/128/128 129/129/129
f 128/128/128 130/130/130 129/129/129
f 129/129/129 130/130/130 131/131/131
f 130/130/130 132/132/132 131/131/131
f 131/131/131 132/132/132 133/133/133
f 132/132/132 134/134/134 133/133/133
f 133/133/133 134/134/134 135/135/135
f 134/134/134 136/136/136 135/135/135
f 136/136/136 137/137/137 135/135/135
f 137/137/137 138/138/138 135/135/135
f 141/141/141 140/140/140 139/139/139
f 142/142/142 141/141/141 139/139/139
f 142/142/142 139/139/139 143/143/143
f 144/144/144 142/142/142 143/143/143
f 144/144/144 143/143/143 145/145/145
f 146/146/146 144/144/144 145/145/145
f 146/146/146 145/145/145 147/147/147
f 148/148/148 146/146/146 147/147/147
f 148/148/148 147/147/147 149/149/149
f 150/150/150 148/148/148 149/149/149
f 150/150/150 149/149/149 151/151/151
f 152/152/152 150/150/150 151/151/151
f 152/152/152 151/151/151 153/153/153
f 154/154/154 152/152/152 153/153/153
f 154/154/154 153/153/153 155/155/155
f 156/156/156 154/154/154 155/155/155
f 156/156/156 155/155/155 157/157/157
f 158/158/158 156/156/156 157/157/157
f 158/158/158 157/157/157 159/159/159
f 160/160/160 158/158/158 159/159/159
f 160/160/160 159/159/159 161/161/161
f 162/162/162 160/160/160 161/161/161
f 163/163/163 162/162/162 161/161/161
f 164/164/164 163/163/163 161/161/161
