g EPI_Vine_01
v -0.0648576 1.485066 0.06917048
v -0.0648576 1.485066 -0.04554319
v 0.04985607 1.485066 -0.04554319
v 0.04985607 1.485066 0.06917048
v -0.0304482 0.8807915 0.01915026
v -0.0648576 1.485066 0.06917048
v 0.04985607 1.485066 0.06917048
v 0.08426547 0.8807915 0.01915026
v -0.1041424 0.2765644 0.05824757
v 0.04985607 1.485066 -0.04554319
v 0.01057124 0.2765644 0.05824757
v -0.0648576 -0.3276627 0.06917048
v 0.08426547 0.8807915 -0.09556341
v -0.0648576 1.485066 -0.04554319
v 0.04985607 -0.3276627 0.06917048
v 0.008039713 -0.9318898 0.04498076
v 0.01057124 0.2765644 -0.0564661
v -0.0304482 0.8807915 -0.09556341
v -0.0648576 1.485066 0.06917048
v -0.0304482 0.8807915 0.01915026
v -0.1041424 0.2765644 -0.0564661
v -0.1041424 0.2765644 0.05824757
v 0.1227534 -0.9318898 0.04498076
v -0.0648576 -1.536117 0.06917048
v 0.04985607 -1.536117 0.06917048
v 0.04985607 -0.3276627 -0.04554319
v -0.0648576 -0.3276627 -0.04554319
v -0.0648576 -0.3276627 0.06917048
v 0.1227534 -0.9318898 -0.0697329
v 0.04985607 -1.536117 -0.04554319
v 0.008039713 -0.9318898 -0.0697329
v 0.008039713 -0.9318898 0.04498076
v -0.0648576 -1.536117 -0.04554319
v -0.0648576 -1.536117 0.06917048
v 0.04455876 -1.363648 -0.02355683
v 0.02477562 -1.363742 0.05590355
v -0.1695858 -1.320566 0.06837344
v -0.1213471 -1.320425 -0.1255661
v -0.3250844 -1.308143 0.05941951
v -0.2629694 -1.308002 -0.1904471
v -0.459628 -1.346912 -0.1067207
v -0.4165928 -1.331067 0.01005566
v -0.3669477 -1.330926 -0.189697
v 0.04498065 -0.9286083 -0.003164291
v 0.02149415 -0.9571578 0.05393469
v -0.169914 -0.9114974 0.05632555
v -0.1125338 -0.8418347 -0.08299971
v -0.3219435 -0.8876827 0.03415155
v -0.2480149 -0.7979088 -0.1453491
v -0.4448142 -0.8522888 -0.1261287
v -0.4088577 -0.8842605 -0.02547884
v -0.3497899 -0.8124883 -0.1689763
v 0.2179183 -1.204774 0.1367235
v 0.07006109 -1.157567 0.01638436
v 0.09987628 -1.129486 -0.03518283
v 0.2906281 -1.13619 0.01099324
v 0.3440704 -1.256294 0.2112147
v 0.437829 -1.167974 0.04919982
v 0.5365568 -1.302752 0.1650386
v 0.439423 -1.300924 0.2155275
v 0.514336 -1.230323 0.08604693
v 0.2000104 -0.6412383 0.06837344
v 0.005648851 -0.6843672 0.05590355
v -0.01413417 -0.6843203 -0.02355683
v 0.1518185 -0.6410976 -0.1255661
v 0.3555559 -0.6288152 0.05941951
v 0.2934408 -0.6286277 -0.1904471
v 0.4900526 -0.6675844 -0.1067207
v 0.4470174 -0.6517392 0.01005566
v 0.3973722 -0.6515986 -0.189697
v 0.007102132 -0.382699 -0.03293264
v 0.03691733 -0.4107797 0.01863456
v -0.1109399 -0.4579402 0.1389737
v -0.1836497 -0.3894027 0.01324344
v -0.237092 -0.5095074 0.2134649
v -0.3308506 -0.4211869 0.05149698
v -0.4295784 -0.555918 0.1673356
v -0.3324445 -0.5540897 0.2177777
v -0.4073576 -0.4835364 0.08829725
v 0.183462 -0.2302476 0.1154872
v 0.002320528 -0.2135117 0.04151165
v 0.01169634 -0.1855716 -0.01736867
v 0.206386 -0.1621319 -0.02819788
v 0.3318819 -0.2578595 0.1520061
v 0.3614627 -0.1701484 -0.03307331
v 0.5084293 -0.280549 0.05374718
v 0.4303284 -0.288331 0.1300666
v 0.4539555 -0.2181996 -0.01788437
v 0.01225889 -0.02468193 -0.02505696
v -0.004148841 -0.04183972 0.03874576
v -0.1961195 -0.0008672476 0.05262208
v -0.1560847 0.04094911 -0.1030172
v -0.3504461 0.01469672 0.0425899
v -0.2988789 0.06856096 -0.1579129
v -0.4902402 0.01474357 -0.1075176
v -0.4430327 0.004242659 -0.006961465
v -0.4017789 0.04727781 -0.167195
v -0.01310277 0.4137332 -0.04099584
v 2.336502E-05 0.3650256 0.004617691
v -0.1767116 0.2912376 0.04980934
v -0.208777 0.4101703 -0.06152904
v -0.3185214 0.2282319 0.05899763
v -0.359822 0.3813865 -0.08445299
v -0.4860679 0.2217625 -0.05909133
v -0.4093734 0.1945726 0.01722825
v -0.4423765 0.3170213 -0.09743857
v -0.007430434 -0.2730484 -0.03016675
v 0.003679991 -0.2887998 0.03415155
v -0.1469901 -0.207183 0.1305823
v -0.1740863 -0.1687888 -0.02636957
v -0.2815336 -0.1576315 0.1905409
v -0.3164119 -0.1081738 -0.01160252
v -0.4704572 -0.1205032 0.1220971
v -0.3862619 -0.1453491 0.1895095
v -0.4141083 -0.1057831 0.02791667
v 0.05899751 0.6682409 -0.02177536
v 0.04155838 0.6083759 0.01483738
v -0.1511623 0.6260027 0.05463791
v -0.108596 0.7720784 -0.0347141
v -0.305864 0.6429728 0.05885696
v -0.2510152 0.8311464 -0.05627859
v -0.4440172 0.7518734 -0.05337203
v -0.3980755 0.6705848 0.0150249
v -0.3542434 0.8210205 -0.07699919
v -0.03982401 1.205806 -0.01736867
v -0.0304482 1.177866 0.04151165
v -0.2115897 1.16113 0.1154872
v -0.2345136 1.229245 -0.02819788
v -0.3600096 1.133518 0.1520061
v -0.3895904 1.221229 -0.03307331
v -0.5365568 1.110828 0.05374718
v -0.458456 1.103046 0.1300666
v -0.4820832 1.173178 -0.01788437
v 0.1753519 0.1727737 0.05632555
v -0.01605618 0.1271132 0.05393469
v -0.03954268 0.1556628 -0.003164291
v 0.1179717 0.2424363 -0.08299971
v 0.3273815 0.1965884 0.03415155
v 0.2534528 0.2863622 -0.1453491
v 0.4502521 0.2319822 -0.1261287
v 0.4142957 0.2000105 -0.02547884
v 0.3552277 0.2717358 -0.1689763
v 0.1653198 0.5433074 0.05262208
v -0.02665091 0.502335 0.03874576
v -0.04305863 0.5194927 -0.02505696
v 0.1252379 0.5851239 -0.1030172
v 0.3196464 0.5588714 0.0425899
v 0.2680323 0.6127359 -0.1579129
v 0.4594404 0.5589184 -0.1075176
v 0.412233 0.5484174 -0.006961465
v 0.3709792 0.5914525 -0.167195
v 0.1459117 0.8324121 0.04980934
v -0.03082323 0.9062001 0.004617691
v -0.01769698 0.9549078 -0.04099584
v 0.1779772 0.9513448 -0.06152904
v 0.2877215 0.7694064 0.05899763
v 0.3290222 0.922561 -0.08445299
v 0.4552681 0.7629369 -0.05909133
v 0.3785737 0.735747 0.01722825
v 0.4115766 0.8581957 -0.09743857
v 0.2128085 1.33102 0.05463791
v 0.02008772 1.313393 0.01483738
v 0.002648592 1.373258 -0.02177536
v 0.1702421 1.477096 -0.0347141
v 0.3675101 1.347944 0.05885696
v 0.3126613 1.536117 -0.05627859
v 0.5056634 1.456844 -0.05337203
v 0.4597217 1.375555 0.0150249
v 0.4158895 1.525991 -0.07699919
v 0.1984634 1.122407 0.02744782
v 0.004992604 1.079278 0.01863456
v -0.0134778 1.079419 -0.05562222
v 0.1533655 1.122782 -0.1538343
v 0.3534932 1.13483 0.0166657
v 0.2954566 1.135346 -0.216887
v 0.4900526 1.096296 -0.1413645
v 0.4454235 1.112 -0.03110433
v 0.399013 1.112375 -0.2177777
vt 0.01748769 0.2966988
vt 0.0233274 0.2893992
vt 0.01748769 0.2893992
vt 0.01128299 0.2893992
vt 0.00471332 0.2766248
vt 0.00471332 0.2893992
vt 0.01128299 0.2893992
vt 0.01128299 0.2766248
vt 0.00471332 0.2612956
vt 0.01748769 0.2893992
vt 0.01128299 0.2612956
vt 0.00471332 0.2463313
vt 0.01748769 0.2766248
vt 0.0233274 0.2893992
vt 0.01128299 0.2463313
vt 0.00471332 0.2310021
vt 0.01748769 0.2612956
vt 0.0233274 0.2766248
vt 0.02989707 0.2893992
vt 0.02989707 0.2766248
vt 0.0233274 0.2612956
vt 0.02989707 0.2612956
vt 0.01128299 0.2310021
vt 0.00471332 0.2156729
vt 0.01128299 0.2156729
vt 0.01748769 0.2463313
vt 0.0233274 0.2463313
vt 0.02989707 0.2463313
vt 0.01748769 0.2310021
vt 0.01748769 0.2156729
vt 0.0233274 0.2310021
vt 0.02989707 0.2310021
vt 0.0233274 0.2156729
vt 0.02989707 0.2156729
vt 0.01055303 0.3018086
vt 0.007633175 0.3018086
vt 0.005443283 0.3083783
vt 0.01274292 0.3083783
vt 0.004348338 0.313853
vt 0.01383787 0.313853
vt 0.009093102 0.3196927
vt 0.005443283 0.3175028
vt 0.01274292 0.3175028
vt 0.01237794 0.3609357
vt 0.009823066 0.3609357
vt 0.007633175 0.3667754
vt 0.01456783 0.3667754
vt 0.006538229 0.3718851
vt 0.01529779 0.3718851
vt 0.01091801 0.3773598
vt 0.007633175 0.374805
vt 0.01456783 0.374805
vt 0.01237794 0.3087432
vt 0.01055303 0.3029035
vt 0.007633175 0.3029035
vt 0.005808265 0.3087432
vt 0.01347289 0.313488
vt 0.00471332 0.313488
vt 0.009093102 0.3189628
vt 0.01237794 0.3167728
vt 0.005808265 0.3167728
vt 0.03062703 0.3178678
vt 0.02843714 0.3112981
vt 0.02551729 0.3112981
vt 0.0233274 0.3178678
vt 0.03172198 0.3229775
vt 0.02223245 0.3229775
vt 0.02697722 0.3291822
vt 0.03062703 0.3266274
vt 0.02296242 0.3266274
vt 0.02807216 0.3408616
vt 0.02551729 0.3408616
vt 0.0233274 0.3467014
vt 0.02989707 0.3467014
vt 0.02259743 0.3514461
vt 0.03099202 0.3514461
vt 0.02661223 0.3569209
vt 0.0233274 0.354731
vt 0.03026205 0.354731
vt 0.01420285 0.3667754
vt 0.01237794 0.3609357
vt 0.009823066 0.3609357
vt 0.007633175 0.3667754
vt 0.01529779 0.3715201
vt 0.006903211 0.3715201
vt 0.01091801 0.3769949
vt 0.01456783 0.374805
vt 0.007633175 0.374805
vt 0.01347289 0.3317371
vt 0.01091801 0.3317371
vt 0.00872812 0.3375768
vt 0.01566278 0.3375768
vt 0.007633175 0.3423216
vt 0.01639274 0.3423216
vt 0.01201296 0.3477963
vt 0.00872812 0.3456064
vt 0.01566278 0.3456064
vt 0.01055303 0.3029035
vt 0.007633175 0.3029035
vt 0.005808265 0.3087432
vt 0.01237794 0.3087432
vt 0.00471332 0.313488
vt 0.01347289 0.313488
vt 0.009093102 0.3189628
vt 0.005808265 0.3167728
vt 0.01274292 0.3167728
vt 0.01055303 0.3029035
vt 0.007633175 0.3029035
vt 0.005808265 0.3087432
vt 0.01237794 0.3087432
vt 0.00471332 0.313488
vt 0.01347289 0.313488
vt 0.009093102 0.3189628
vt 0.005808265 0.3167728
vt 0.01237794 0.3167728
vt 0.01237794 0.3605707
vt 0.009458085 0.3605707
vt 0.007633175 0.3667754
vt 0.01456783 0.3667754
vt 0.006538229 0.3718851
vt 0.01566278 0.3718851
vt 0.01091801 0.3773598
vt 0.007268193 0.37517
vt 0.01456783 0.37517
vt 0.01055303 0.3029035
vt 0.007633175 0.3029035
vt 0.005808265 0.3087432
vt 0.01237794 0.3087432
vt 0.00471332 0.313488
vt 0.01347289 0.313488
vt 0.009093102 0.3189628
vt 0.005808265 0.3167728
vt 0.01237794 0.3167728
vt 0.03026205 0.3467014
vt 0.02807216 0.3408616
vt 0.02551729 0.3408616
vt 0.0233274 0.3467014
vt 0.03099202 0.3514461
vt 0.02223245 0.3514461
vt 0.02661223 0.3569209
vt 0.03026205 0.354731
vt 0.0233274 0.354731
vt 0.01456783 0.3667754
vt 0.01237794 0.3609357
vt 0.009823066 0.3609357
vt 0.007633175 0.3667754
vt 0.01529779 0.3718851
vt 0.006538229 0.3718851
vt 0.01091801 0.3773598
vt 0.01456783 0.374805
vt 0.007633175 0.374805
vt 0.03026205 0.3178678
vt 0.02843714 0.3120281
vt 0.02551729 0.3120281
vt 0.02369238 0.3178678
vt 0.031357 0.3226126
vt 0.02259743 0.3226126
vt 0.02697722 0.3280873
vt 0.03026205 0.3258974
vt 0.0233274 0.3258974
vt 0.03026205 0.3178678
vt 0.02843714 0.3116631
vt 0.02551729 0.3116631
vt 0.0233274 0.3178678
vt 0.031357 0.3229775
vt 0.02259743 0.3229775
vt 0.02697722 0.3284523
vt 0.03062703 0.3262624
vt 0.0233274 0.3262624
vt 0.01456783 0.3667754
vt 0.01237794 0.3605707
vt 0.009458085 0.3605707
vt 0.007633175 0.3667754
vt 0.01566278 0.3718851
vt 0.006538229 0.3718851
vt 0.01091801 0.3777248
vt 0.01456783 0.37517
vt 0.007268193 0.37517
vn -0.00268358 0.9999964 0
vn -0.00268358 0.9999964 0
vn -0.00268358 0.9999964 0
vn -0.00268358 0.9999964 0
vn -0.7062674 0.01634538 0.7077565
vn -0.6994364 -0.09978008 0.7076953
vn 0.6735765 -0.02464008 0.7387066
vn 0.7418857 -0.03147095 0.6697875
vn -0.7199291 0.04366904 0.6926724
vn 0.7077311 0.09831631 -0.6996074
vn 0.6804075 0.01634538 0.7326517
vn -0.7062674 -0.07245642 0.7042276
vn 0.7077311 -0.01780915 -0.7062574
vn -0.7404219 0.01634538 -0.6719437
vn 0.6940693 0.05733085 0.7176218
vn -0.6857746 0.00268358 0.7278091
vn 0.6872384 -0.05196369 -0.724571
vn -0.6721128 0.03000718 -0.7398405
vn -0.6994364 -0.09978008 0.7076953
vn -0.7062674 0.01634538 0.7077565
vn -0.733591 -0.004147351 -0.6795787
vn -0.7199291 0.04366904 0.6926724
vn 0.7418857 0.00268358 0.670521
vn -0.7199291 0.1119781 0.6849548
vn 0.6667457 -0.05196369 0.7434716
vn 0.7009002 0.07099265 -0.7097175
vn -0.7199291 -0.05879462 -0.6915528
vn -0.7062674 -0.07245642 0.7042276
vn 0.7213929 0.00268358 -0.6925208
vn 0.6804075 -0.1134419 -0.7240005
vn -0.6721128 0.00268358 -0.7404439
vn -0.6857746 0.00268358 0.7278091
vn -0.7404219 0.06416178 -0.669073
vn -0.7199291 0.1119781 0.6849548
vn 0.2227365 0.9726728 0.06554391
vn 0.2227365 0.9726728 0.06554391
vn 0.1403317 0.9901045 0
vn 0.1403317 0.9901045 0
vn -0.06403035 0.997948 0
vn -0.06403035 0.997948 0
vn -0.2144418 0.9726728 -0.08900726
vn -0.2144418 0.9726728 -0.08900726
vn -0.2144418 0.9726728 -0.08900726
vn 0.2090747 0.8360547 0.5072479
vn 0.2090747 0.8360547 0.5072479
vn 0.1271037 0.8633783 0.4882853
vn 0.1271037 0.8633783 0.4882853
vn -0.07099265 0.9043638 0.4208162
vn -0.07099265 0.9043638 0.4208162
vn -0.2144418 0.9043638 0.3689728
vn -0.2144418 0.9043638 0.3689728
vn -0.2144418 0.9043638 0.3689728
vn -0.00268358 0.8770401 0.4804096
vn -0.07782358 0.8907019 0.4478768
vn -0.07782358 0.8907019 0.4478768
vn -0.00268358 0.8770401 0.4804096
vn 0.1885819 0.8155619 0.5470791
vn 0.1885819 0.8155619 0.5470791
vn 0.3183692 0.7404219 0.5919599
vn 0.3183692 0.7404219 0.5919599
vn 0.3183692 0.7404219 0.5919599
vn -0.1389007 0.9903062 0
vn -0.2212727 0.9726728 0.07032733
vn -0.2212727 0.9726728 0.07032733
vn -0.1389007 0.9903062 0
vn 0.06548493 0.9978536 0
vn 0.06548493 0.9978536 0
vn 0.2159055 0.9726728 -0.08539549
vn 0.2159055 0.9726728 -0.08539549
vn 0.2159055 0.9726728 -0.08539549
vn 0.07245642 0.8907019 0.4487764
vn 0.07245642 0.8907019 0.4487764
vn 0.004147351 0.8770401 0.4803992
vn 0.004147351 0.8770401 0.4803992
vn -0.1871182 0.8155619 0.5475816
vn -0.1871182 0.8155619 0.5475816
vn -0.3237363 0.7404219 0.5890418
vn -0.3237363 0.7404219 0.5890418
vn -0.3237363 0.7404219 0.5890418
vn -0.00268358 0.9043638 0.426754
vn -0.08465451 0.9043638 0.418282
vn -0.08465451 0.9043638 0.418282
vn -0.00268358 0.9043638 0.426754
vn 0.2090747 0.8702092 0.4461207
vn 0.2090747 0.8702092 0.4461207
vn 0.3525238 0.8223928 0.446539
vn 0.3525238 0.8223928 0.446539
vn 0.3525238 0.8223928 0.446539
vn 0.2227365 0.9248564 0.3082677
vn 0.2227365 0.9248564 0.3082677
vn 0.1407655 0.9453492 0.2941086
vn 0.1407655 0.9453492 0.2941086
vn -0.06416178 0.9658419 0.2510632
vn -0.06416178 0.9658419 0.2510632
vn -0.2144418 0.9521801 0.2176412
vn -0.2144418 0.9521801 0.2176412
vn -0.2144418 0.9521801 0.2176412
vn -0.09148538 0.6652819 0.7409658
vn -0.09148538 0.6652819 0.7409658
vn -0.1734563 0.65162 0.7384471
vn -0.1734563 0.65162 0.7384471
vn -0.3715527 0.57648 0.7277495
vn -0.3715527 0.57648 0.7277495
vn -0.508171 0.5150019 0.6903154
vn -0.508171 0.5150019 0.6903154
vn -0.508171 0.5150019 0.6903154
vn 0.5301274 0.8428855 0.09224413
vn 0.5301274 0.8428855 0.09224413
vn 0.4549874 0.8770401 0.1542304
vn 0.4549874 0.8770401 0.1542304
vn 0.2637219 0.9453492 0.1917435
vn 0.2637219 0.9453492 0.1917435
vn 0.1134419 0.9726728 0.2025796
vn 0.1134419 0.9726728 0.2025796
vn 0.1134419 0.9726728 0.2025796
vn 0.2227365 0.4603546 0.8593382
vn 0.2227365 0.4603546 0.8593382
vn 0.1407655 0.4876782 0.8616003
vn 0.1407655 0.4876782 0.8616003
vn -0.06416178 0.5354946 0.8420979
vn -0.06416178 0.5354946 0.8420979
vn -0.2144418 0.5559874 0.8030522
vn -0.2144418 0.5559874 0.8030522
vn -0.2144418 0.5559874 0.8030522
vn 0.08611828 0.9043638 0.4179831
vn 0.08611828 0.9043638 0.4179831
vn 0.004147351 0.9043638 0.4267423
vn 0.004147351 0.9043638 0.4267423
vn -0.2076109 0.8702092 0.4468038
vn -0.2076109 0.8702092 0.4468038
vn -0.35106 0.8223928 0.4476906
vn -0.35106 0.8223928 0.4476906
vn -0.35106 0.8223928 0.4476906
vn -0.1324708 0.8633783 0.4868567
vn -0.2076109 0.8360547 0.5078487
vn -0.2076109 0.8360547 0.5078487
vn -0.1324708 0.8633783 0.4868567
vn 0.07245642 0.9043638 0.4205666
vn 0.07245642 0.9043638 0.4205666
vn 0.2159055 0.9043638 0.3681183
vn 0.2159055 0.9043638 0.3681183
vn 0.2159055 0.9043638 0.3681183
vn -0.1393018 0.9453492 0.2948047
vn -0.2212727 0.9248564 0.3093201
vn -0.2212727 0.9248564 0.3093201
vn -0.1393018 0.9453492 0.2948047
vn 0.06562555 0.9658419 0.2506845
vn 0.06562555 0.9658419 0.2506845
vn 0.2159055 0.9521801 0.2161893
vn 0.2159055 0.9521801 0.2161893
vn 0.2159055 0.9521801 0.2161893
vn 0.1680892 0.65162 0.7396873
vn 0.09294915 0.6652819 0.7407836
vn 0.09294915 0.6652819 0.7407836
vn 0.1680892 0.65162 0.7396873
vn 0.3730165 0.57648 0.7270003
vn 0.3730165 0.57648 0.7270003
vn 0.5096347 0.5150019 0.6892354
vn 0.5096347 0.5150019 0.6892354
vn 0.5096347 0.5150019 0.6892354
vn -0.1393018 0.4876782 0.8618382
vn -0.2212727 0.4603546 0.8597162
vn -0.2212727 0.4603546 0.8597162
vn -0.1393018 0.4876782 0.8618382
vn 0.06562555 0.5354946 0.841985
vn 0.06562555 0.5354946 0.841985
vn 0.2159055 0.5559874 0.8026599
vn 0.2159055 0.5559874 0.8026599
vn 0.2159055 0.5559874 0.8026599
vn -0.1393018 0.9863347 0.08797095
vn -0.2212727 0.9726728 0.07032733
vn -0.2212727 0.9726728 0.07032733
vn -0.1393018 0.9863347 0.08797095
vn 0.06548493 0.9978536 0
vn 0.06548493 0.9978536 0
vn 0.2159055 0.9726728 -0.08539549
vn 0.2159055 0.9726728 -0.08539549
vn 0.2159055 0.9726728 -0.08539549
g EPI_Vine_01_0
f 3/3/3 2/2/2 1/1/1
f 4/4/4 3/3/3 1/1/1
f 7/7/7 6/6/6 5/5/5
f 8/8/8 7/7/7 5/5/5
f 8/8/8 5/5/5 9/9/9
f 10/10/10 7/7/7 8/8/8
f 11/11/11 8/8/8 9/9/9
f 11/11/11 9/9/9 12/12/12
f 13/13/13 10/10/10 8/8/8
f 13/13/13 8/8/8 11/11/11
f 14/14/14 10/10/10 13/13/13
f 15/15/15 11/11/11 12/12/12
f 15/15/15 12/12/12 16/16/16
f 17/17/17 13/13/13 11/11/11
f 17/17/17 11/11/11 15/15/15
f 18/18/18 14/14/14 13/13/13
f 18/18/18 13/13/13 17/17/17
f 19/19/19 14/14/14 18/18/18
f 20/20/20 19/19/19 18/18/18
f 20/20/20 18/18/18 21/21/21
f 21/21/21 18/18/18 17/17/17
f 22/22/22 20/20/20 21/21/21
f 23/23/23 15/15/15 16/16/16
f 23/23/23 16/16/16 24/24/24
f 25/25/25 23/23/23 24/24/24
f 26/26/26 17/17/17 15/15/15
f 21/21/21 17/17/17 26/26/26
f 26/26/26 15/15/15 23/23/23
f 22/22/22 21/21/21 27/27/27
f 27/27/27 21/21/21 26/26/26
f 28/28/28 22/22/22 27/27/27
f 29/29/29 23/23/23 25/25/25
f 29/29/29 26/26/26 23/23/23
f 27/27/27 26/26/26 29/29/29
f 30/30/30 29/29/29 25/25/25
f 28/28/28 27/27/27 31/31/31
f 31/31/31 27/27/27 29/29/29
f 31/31/31 29/29/29 30/30/30
f 32/32/32 28/28/28 31/31/31
f 33/33/33 31/31/31 30/30/30
f 32/32/32 31/31/31 33/33/33
f 34/34/34 32/32/32 33/33/33
f 37/37/37 36/36/36 35/35/35
f 38/38/38 37/37/37 35/35/35
f 39/39/39 37/37/37 38/38/38
f 40/40/40 39/39/39 38/38/38
f 40/40/40 41/41/41 39/39/39
f 39/39/39 41/41/41 42/42/42
f 40/40/40 43/43/43 41/41/41
f 46/46/46 45/45/45 44/44/44
f 47/47/47 46/46/46 44/44/44
f 48/48/48 46/46/46 47/47/47
f 49/49/49 48/48/48 47/47/47
f 49/49/49 50/50/50 48/48/48
f 48/48/48 50/50/50 51/51/51
f 49/49/49 52/52/52 50/50/50
f 55/55/55 54/54/54 53/53/53
f 56/56/56 55/55/55 53/53/53
f 56/56/56 53/53/53 57/57/57
f 58/58/58 56/56/56 57/57/57
f 59/59/59 58/58/58 57/57/57
f 57/57/57 60/60/60 59/59/59
f 58/58/58 59/59/59 61/61/61
f 64/64/64 63/63/63 62/62/62
f 65/65/65 64/64/64 62/62/62
f 65/65/65 62/62/62 66/66/66
f 67/67/67 65/65/65 66/66/66
f 68/68/68 67/67/67 66/66/66
f 66/66/66 69/69/69 68/68/68
f 67/67/67 68/68/68 70/70/70
f 73/73/73 72/72/72 71/71/71
f 74/74/74 73/73/73 71/71/71
f 75/75/75 73/73/73 74/74/74
f 76/76/76 75/75/75 74/74/74
f 76/76/76 77/77/77 75/75/75
f 75/75/75 77/77/77 78/78/78
f 76/76/76 79/79/79 77/77/77
f 82/82/82 81/81/81 80/80/80
f 83/83/83 82/82/82 80/80/80
f 83/83/83 80/80/80 84/84/84
f 85/85/85 83/83/83 84/84/84
f 86/86/86 85/85/85 84/84/84
f 84/84/84 87/87/87 86/86/86
f 85/85/85 86/86/86 88/88/88
f 91/91/91 90/90/90 89/89/89
f 92/92/92 91/91/91 89/89/89
f 93/93/93 91/91/91 92/92/92
f 94/94/94 93/93/93 92/92/92
f 94/94/94 95/95/95 93/93/93
f 93/93/93 95/95/95 96/96/96
f 94/94/94 97/97/97 95/95/95
f 100/100/100 99/99/99 98/98/98
f 101/101/101 100/100/100 98/98/98
f 102/102/102 100/100/100 101/101/101
f 103/103/103 102/102/102 101/101/101
f 103/103/103 104/104/104 102/102/102
f 102/102/102 104/104/104 105/105/105
f 103/103/103 106/106/106 104/104/104
f 109/109/109 108/108/108 107/107/107
f 110/110/110 109/109/109 107/107/107
f 111/111/111 109/109/109 110/110/110
f 112/112/112 111/111/111 110/110/110
f 112/112/112 113/113/113 111/111/111
f 111/111/111 113/113/113 114/114/114
f 112/112/112 115/115/115 113/113/113
f 118/118/118 117/117/117 116/116/116
f 119/119/119 118/118/118 116/116/116
f 120/120/120 118/118/118 119/119/119
f 121/121/121 120/120/120 119/119/119
f 121/121/121 122/122/122 120/120/120
f 120/120/120 122/122/122 123/123/123
f 121/121/121 124/124/124 122/122/122
f 127/127/127 126/126/126 125/125/125
f 128/128/128 127/127/127 125/125/125
f 129/129/129 127/127/127 128/128/128
f 130/130/130 129/129/129 128/128/128
f 130/130/130 131/131/131 129/129/129
f 129/129/129 131/131/131 132/132/132
f 130/130/130 133/133/133 131/131/131
f 136/136/136 135/135/135 134/134/134
f 137/137/137 136/136/136 134/134/134
f 137/137/137 134/134/134 138/138/138
f 139/139/139 137/137/137 138/138/138
f 140/140/140 139/139/139 138/138/138
f 138/138/138 141/141/141 140/140/140
f 139/139/139 140/140/140 142/142/142
f 145/145/145 144/144/144 143/143/143
f 146/146/146 145/145/145 143/143/143
f 146/146/146 143/143/143 147/147/147
f 148/148/148 146/146/146 147/147/147
f 149/149/149 148/148/148 147/147/147
f 147/147/147 150/150/150 149/149/149
f 148/148/148 149/149/149 151/151/151
f 154/154/154 153/153/153 152/152/152
f 155/155/155 154/154/154 152/152/152
f 155/155/155 152/152/152 156/156/156
f 157/157/157 155/155/155 156/156/156
f 158/158/158 157/157/157 156/156/156
f 156/156/156 159/159/159 158/158/158
f 157/157/157 158/158/158 160/160/160
f 163/163/163 162/162/162 161/161/161
f 164/164/164 163/163/163 161/161/161
f 164/164/164 161/161/161 165/165/165
f 166/166/166 164/164/164 165/165/165
f 167/167/167 166/166/166 165/165/165
f 165/165/165 168/168/168 167/167/167
f 166/166/166 167/167/167 169/169/169
f 172/172/172 171/171/171 170/170/170
f 173/173/173 172/172/172 170/170/170
f 173/173/173 170/170/170 174/174/174
f 175/175/175 173/173/173 174/174/174
f 176/176/176 175/175/175 174/174/174
f 174/174/174 177/177/177 176/176/176
f 175/175/175 176/176/176 178/178/178
