g EPI_Moss_01
v 0.3330574 -0.1314561 0.8764658
v 0.5798197 -0.1559131 1.048297
v 0.4992805 -0.1898999 1.248886
v 0.3549844 -0.2063873 1.335793
v 0.1969417 -0.1724849 1.150384
v 0.2256576 0.1328055 -0.5131956
v 0.3864411 0.2063873 -0.6364081
v 0.3272383 0.1708403 -0.5386646
v 0.2061764 0.1634611 -0.6251494
v 0.08743358 0.07908452 -0.5374417
v 0.3179616 0.1613528 -0.7235677
v 0.00276196 0.07912672 -0.6106018
v 0.2145677 0.1214204 -0.7347419
v 0.07967484 0.0711571 -0.6914362
v 0.08127725 0.131161 -0.363207
v 0.256524 0.198249 -0.3050163
v 0.1524975 0.1658646 -0.2996188
v 0.1557444 0.1591178 -0.4352285
v 0.02877915 0.08216274 -0.4799679
v 0.2872639 0.1571782 -0.4013261
v 0.04062808 0.08220494 -0.5812956
v 0.2427354 0.1207457 -0.4850279
v 0.1410282 0.07495213 -0.5646396
v 0.8551714 -0.0663079 -0.1039211
v 1.065459 -0.0001475811 -0.1430943
v 0.9642578 -0.03573668 -0.08022308
v 0.8885678 -0.02730322 -0.2149472
v 0.7325914 -0.1070414 -0.1917131
v 1.036743 -0.03573668 -0.2587167
v 0.6856172 -0.09510803 -0.2973418
v 0.9419936 -0.0663079 -0.3177507
v 0.7929326 -0.1070414 -0.3403102
v 0.7376937 -0.06672955 0.02215886
v 0.8957784 -0.006346107 0.06048882
v 0.8054985 -0.03746557 0.07309675
v 0.7960109 -0.03712821 -0.04644716
v 0.6816956 -0.1057342 -0.07781947
v 0.9146271 -0.03746557 -0.02873695
v 0.682792 -0.1008006 -0.1677622
v 0.868454 -0.06672955 -0.09987295
v 0.772608 -0.1057342 -0.1626177
v 0.8329071 -0.1252576 -0.9029046
v 0.8912665 -0.06470549 -1.054664
v 0.892152 -0.09590924 -0.9634988
v 0.7723551 -0.09565628 -0.9695288
v 0.7266037 -0.1643888 -0.8603158
v 0.8052455 -0.09590924 -1.084898
v 0.6375466 -0.1595395 -0.8729659
v 0.7287542 -0.1252576 -1.048297
v 0.6542026 -0.1643888 -0.9613484
v 0.5798197 -0.1227275 -1.07579
v 0.5672539 -0.04665792 -1.277012
v 0.6154088 -0.0857048 -1.174672
v 0.476974 -0.08604217 -1.119686
v 0.4818232 -0.172021 -0.9730709
v 0.4546254 -0.0857048 -1.266976
v 0.3746765 -0.1664127 -0.9414455
v 0.3872001 -0.1227275 -1.186352
v 0.3479425 -0.172021 -1.049899
v -0.2771859 -0.1363053 -1.301005
v -0.4389814 -0.06158519 -1.310155
v -0.3547313 -0.1045957 -1.33963
v -0.3160219 -0.09228289 -1.223164
v -0.2002308 -0.171262 -1.209629
v -0.4384754 -0.08140373 -1.213086
v -0.1788943 -0.1563348 -1.12074
v -0.3775016 -0.1085172 -1.14933
v -0.2699332 -0.1519494 -1.104253
v -0.7912037 -0.08056033 -0.05753708
v -0.9529994 -0.005840182 -0.06672955
v -0.8687491 -0.04885066 -0.0962044
v -0.8300397 -0.03653789 0.02026129
v -0.7142487 -0.115517 0.03379703
v -0.9524932 -0.02565873 0.03038144
v -0.6929121 -0.1005898 0.1227275
v -0.8915195 -0.05277216 0.09409606
v -0.783951 -0.0962044 0.139215
v -0.8728395 -0.0662235 0.05597699
v -1.065459 -0.0007801056 0.09835494
v -0.9739985 -0.03539932 0.03708601
v -0.9000795 -0.03025496 0.1601299
v -0.7576809 -0.1072943 0.1338598
v -1.036532 -0.03539932 0.2045741
v -0.7110863 -0.09810197 0.2307177
v -0.9477706 -0.0662235 0.2566506
v -0.8097994 -0.1072943 0.2733066
v -0.231814 0.09801757 0.7378201
v -0.1084751 0.1599612 0.6510823
v -0.1567143 0.133185 0.7228508
v -0.2413017 0.1145049 0.6508293
v -0.3300636 0.0460676 0.7139535
v -0.1508952 0.1169506 0.5836569
v -0.3887603 0.036327 0.6537809
v -0.2248143 0.07857859 0.571049
v -0.3252144 0.03253198 0.5980781
v 0.2893301 -0.06664526 0.5933554
v 0.3387922 -0.004027009 0.4111511
v 0.3501773 -0.03717041 0.5158943
v 0.2130497 -0.03223681 0.5240748
v 0.1722318 -0.105945 0.6564796
v 0.2358621 -0.03717041 0.3885916
v 0.06938612 -0.09717429 0.6530643
v 0.152371 -0.06664526 0.4407946
v 0.07701838 -0.105945 0.5504714
v 0.3807485 -0.09405386 0.9084706
v 0.423759 -0.05294085 0.7921736
v 0.4251084 -0.07469916 0.8613701
v 0.3349128 -0.07145226 0.8587134
v 0.3004622 -0.1198602 0.9429634
v 0.3577253 -0.07469916 0.7714274
v 0.2334164 -0.1140833 0.9346986
v 0.3000405 -0.09405386 0.8006914
v 0.2443799 -0.1198602 0.8680325
v 0.5191412 -0.1438533 1.138577
v 0.6193304 -0.09751153 1.041213
v 0.5871146 -0.1220529 1.112222
v 0.4967082 -0.1183844 1.065712
v 0.4208073 -0.1729487 1.134613
v 0.5623204 -0.1220529 0.9880402
v 0.3565867 -0.1664549 1.093669
v 0.4894555 -0.1438533 0.9898112
v 0.4001454 -0.1729487 1.031219
v 0.2381392 -0.1719788 1.252597
v 0.2914805 -0.1256371 1.381713
v 0.2374644 -0.1501362 1.325504
v 0.3141243 -0.1465099 1.258754
v 0.2781979 -0.201032 1.162697
v 0.3619841 -0.1501362 1.348443
v 0.3400151 -0.1945382 1.118253
v 0.3873266 -0.1719788 1.28009
v 0.381887 -0.201032 1.181798
v -0.5816751 -0.1136616 1.029322
v -0.5965601 -0.05441678 1.207352
v -0.6251073 -0.085747 1.111801
v -0.4988588 -0.08110857 1.080766
v -0.4834677 -0.150853 0.9505537
v -0.496919 -0.085747 1.210767
v -0.3872001 -0.1425462 0.9361324
v -0.4281023 -0.1136616 1.147896
v -0.3767426 -0.150853 1.032948
v -0.6582508 -0.09460211 0.5272373
v -0.349334 0.09211421 0.622493
v -0.6892436 -0.1337332 0.8970435
v -0.4458547 -0.1880866 1.242055
v -0.08258438 0.06647658 0.8561835
v 0.1969417 -0.1724849 1.150384
v 0.3330574 -0.1314561 0.8764658
v 0.2811496 -0.09030104 0.4667274
v -0.1136616 -0.08756018 0.4260782
v -0.4281865 0.02873695 0.3748451
v -0.4613721 0.115011 0.0299176
v -0.1844182 -0.07693398 0.2102666
v -0.9656494 -0.07655454 0.1996405
v -0.842437 -0.07419312 -0.1518651
v -0.01528561 -0.07301247 -0.0444653
v -0.5055634 -0.0767653 -0.2514218
v 0.0856626 0.1438533 -0.6106018
v 0.6678227 -0.07377148 0.08089769
v -0.6979301 -0.09978867 -0.6318541
v 0.9004589 -0.07490993 -0.1863999
v -0.6070597 -0.1438955 -0.9794803
v 0.9207413 -0.09034312 -0.5127318
v -0.407609 -0.148576 -1.038599
v 0.8005227 -0.1459616 -1.027846
v -0.3634599 -0.1784725 -1.249856
v 0.2263745 -0.2063873 -1.381713
vt 0.3054624 0.04112512
vt 0.3107059 0.0479109
vt 0.3162579 0.04544334
vt 0.318417 0.04112512
vt 0.3131735 0.03711533
vt 0.2258836 0.02601132
vt 0.2227991 0.03125488
vt 0.2252667 0.02909576
vt 0.2227991 0.02601132
vt 0.2249583 0.02169309
vt 0.2200231 0.02909576
vt 0.2227991 0.01953397
vt 0.2197147 0.02601132
vt 0.22064 0.02169309
vt 0.2255751 0.02601132
vt 0.2227991 0.03063799
vt 0.2249583 0.02878732
vt 0.2227991 0.02601132
vt 0.2246498 0.02200153
vt 0.2203316 0.02878732
vt 0.2227991 0.02015086
vt 0.2200231 0.02601132
vt 0.22064 0.02200153
vt 0.2339032 0.01398197
vt 0.2305103 0.01922553
vt 0.2332863 0.01706642
vt 0.2305103 0.01398197
vt 0.2326694 0.009355293
vt 0.2280427 0.01706642
vt 0.2305103 0.007196179
vt 0.2274258 0.01398197
vt 0.2283511 0.009355293
vt 0.2172471 0.009972183
vt 0.2147796 0.01429041
vt 0.2169387 0.01243974
vt 0.2147796 0.009972183
vt 0.2166302 0.006579289
vt 0.2129289 0.01243974
vt 0.2147796 0.005037065
vt 0.212312 0.009972183
vt 0.2132373 0.006579289
vt 0.2172471 0.009972183
vt 0.2147796 0.01429041
vt 0.2169387 0.01243974
vt 0.2147796 0.009972183
vt 0.2166302 0.006579289
vt 0.2129289 0.01243974
vt 0.2147796 0.005037065
vt 0.212312 0.009972183
vt 0.2132373 0.006579289
vt 0.2335947 0.01398197
vt 0.2305103 0.01922553
vt 0.2332863 0.01706642
vt 0.2305103 0.01398197
vt 0.2326694 0.009663737
vt 0.2280427 0.01706642
vt 0.2305103 0.007504623
vt 0.2274258 0.01398197
vt 0.2283511 0.009663737
vt 0.2332863 0.01367352
vt 0.2305103 0.01830019
vt 0.2326694 0.01644952
vt 0.2305103 0.01367352
vt 0.2323609 0.01028063
vt 0.2283511 0.01644952
vt 0.2305103 0.008429958
vt 0.2280427 0.01367352
vt 0.2286596 0.01028063
vt 0.2332863 0.01367352
vt 0.2305103 0.01830019
vt 0.2326694 0.01644952
vt 0.2305103 0.01367352
vt 0.2323609 0.01028063
vt 0.2283511 0.01644952
vt 0.2305103 0.008429958
vt 0.2280427 0.01367352
vt 0.2286596 0.01028063
vt 0.2335947 0.01398197
vt 0.2305103 0.01891708
vt 0.2329778 0.01675797
vt 0.2305103 0.01398197
vt 0.2326694 0.009663737
vt 0.2280427 0.01675797
vt 0.2305103 0.007813068
vt 0.2277343 0.01398197
vt 0.2283511 0.009663737
vt 0.2329778 0.01367352
vt 0.2305103 0.0176833
vt 0.2326694 0.01614108
vt 0.2305103 0.01367352
vt 0.2323609 0.01058907
vt 0.2286596 0.01614108
vt 0.2305103 0.009046848
vt 0.2283511 0.01367352
vt 0.228968 0.01058907
vt 0.2335947 0.01367352
vt 0.2305103 0.01860864
vt 0.2329778 0.01675797
vt 0.2305103 0.01367352
vt 0.2326694 0.009972183
vt 0.2280427 0.01675797
vt 0.2305103 0.007813068
vt 0.2277343 0.01367352
vt 0.2286596 0.009972183
vt 0.2166302 0.009972183
vt 0.2147796 0.01305663
vt 0.2163218 0.01182285
vt 0.2147796 0.009972183
vt 0.2163218 0.007196179
vt 0.2132373 0.01182285
vt 0.2147796 0.005962399
vt 0.2129289 0.009972183
vt 0.2135458 0.007196179
vt 0.2169387 0.009972183
vt 0.2147796 0.01367352
vt 0.2166302 0.0121313
vt 0.2147796 0.009972183
vt 0.2163218 0.007196179
vt 0.2132373 0.0121313
vt 0.2147796 0.005653954
vt 0.2126205 0.009972183
vt 0.2135458 0.007196179
vt 0.2169387 0.009972183
vt 0.2147796 0.01367352
vt 0.2166302 0.0121313
vt 0.2147796 0.009972183
vt 0.2163218 0.007196179
vt 0.2132373 0.0121313
vt 0.2147796 0.005653954
vt 0.2126205 0.009972183
vt 0.2135458 0.007196179
vt 0.2252667 0.02601132
vt 0.2227991 0.03063799
vt 0.2249583 0.02878732
vt 0.2227991 0.02601132
vt 0.2246498 0.02230998
vt 0.2203316 0.02878732
vt 0.2227991 0.02045931
vt 0.2200231 0.02601132
vt 0.2209485 0.02230998
vt 0.296209 0.0121313
vt 0.2968259 0.02200153
vt 0.3060792 0.01274819
vt 0.315641 0.01922553
vt 0.3029948 0.02909576
vt 0.3131735 0.03711533
vt 0.3054624 0.04112512
vt 0.293433 0.04019978
vt 0.290657 0.02909576
vt 0.2903486 0.01891708
vt 0.2807868 0.01675797
vt 0.2854134 0.02631976
vt 0.287881 0.002877951
vt 0.2777023 0.004420175
vt 0.2780108 0.0300211
vt 0.2724588 0.01274819
vt 0.2613547 0.02909576
vt 0.2770854 0.04945312
vt 0.2619716 0.006887734
vt 0.268449 0.0540798
vt 0.2521014 0.008429958
vt 0.2595041 0.05284602
vt 0.2496338 0.01367352
vt 0.2456241 0.04729401
vt 0.2437734 0.01429041
vt 0.2379129 0.0300211
vn -0.01613253 0.9862221 0.1646382
vn -0.01613253 0.9862221 0.1646382
vn -0.01613253 0.9862221 0.1646382
vn 0.002286911 0.9862221 0.1654108
vn 0.002286911 0.9862221 0.1654108
vn -0.2985637 0.9064047 0.2988149
vn -0.2617248 0.9616628 -0.08188252
vn -0.2371656 0.9371037 0.2561038
vn -0.3350337 0.9422061 0
vn -0.3599617 0.8634259 0.3534448
vn -0.2678646 0.9064047 -0.3266176
vn -0.409063 0.9125062 0
vn -0.3292627 0.8695658 -0.3680237
vn -0.3968006 0.8265871 -0.3991278
vn -0.41522 0.9064047 -0.07760715
vn -0.1143695 0.9616628 -0.2492474
vn -0.3415423 0.9371037 -0.07201031
vn -0.1634879 0.9432434 -0.2890735
vn -0.4888977 0.8634259 -0.1243973
vn 0.1189433 0.9064047 -0.4053184
vn -0.2064666 0.9125444 -0.3530358
vn 0.1128035 0.8695658 -0.4807606
vn 0.1066636 0.8265871 -0.5526088
vn -0.3354025 0.9186842 0.2086254
vn -0.1573481 0.9862221 -0.05106451
vn -0.2617248 0.9432434 0.2044307
vn -0.2248859 0.9678027 -0.1130674
vn -0.41522 0.8818454 0.2234748
vn -0.04069173 0.9432434 -0.3295997
vn -0.2985637 0.9493833 -0.09762725
vn -0.08981019 0.9186842 -0.3846473
vn -0.1327888 0.8818454 -0.4524553
vn -0.4389279 0.8985222 0
vn -0.1573481 0.9739425 -0.163333
vn -0.3659691 0.930627 0
vn -0.2126064 0.9493833 -0.2312355
vn -0.5134569 0.8572862 -0.03771558
vn 0.05754519 0.9309638 -0.3605481
vn -0.2617248 0.9248241 -0.2760446
vn 0.04526556 0.9002648 -0.432983
vn 0.03298593 0.8572862 -0.5137824
vn -0.04683155 0.9002648 0.4328164
vn -0.1941869 0.9739425 0.1171644
vn -0.01613253 0.9309638 0.3647549
vn -0.2494452 0.9493833 0.1909147
vn -0.07139075 0.8572862 0.5098665
vn -0.3538219 0.9309638 -0.0900912
vn -0.3108433 0.9248241 0.2192645
vn -0.4274996 0.9002648 -0.08226416
vn -0.5073171 0.8572862 -0.08769102
vn 0.1373627 0.894125 0.4262299
vn -0.1205092 0.9678027 0.2209875
vn 0.1312229 0.9309638 0.3407154
vn -0.1573481 0.9493833 0.2718693
vn 0.1435025 0.8572862 0.4944365
vn -0.3659691 0.930627 0
vn -0.1941869 0.9248241 0.3270961
vn -0.4336395 0.894125 0.1117911
vn -0.5011774 0.8572862 0.1178206
vn 0.4934715 0.8388668 -0.2297572
vn 0.2724385 0.9616628 0.03133476
vn 0.4197938 0.8757055 -0.2385644
vn 0.3336439 0.9426992 0
vn 0.5671492 0.7958881 -0.2119052
vn 0.1066636 0.9616628 0.252641
vn 0.3952346 0.9125444 0.1051297
vn 0.1312229 0.9371037 0.3234459
vn 0.1619219 0.9064047 0.3901434
vn 0.4934715 0.8388668 -0.2297572
vn 0.2724385 0.9616628 0.03133476
vn 0.4197938 0.8757055 -0.2385644
vn 0.3336439 0.9426992 0
vn 0.5671492 0.7958881 -0.2119052
vn 0.1066636 0.9616628 0.252641
vn 0.3952346 0.9125444 0.1051297
vn 0.1312229 0.9371037 0.3234459
vn 0.1619219 0.9064047 0.3901434
vn 0.3522559 0.9125444 -0.2077942
vn 0.1803413 0.9800823 0.08316026
vn 0.2724385 0.9371037 -0.2182061
vn 0.254019 0.9616628 0.103339
vn 0.4259337 0.8695658 -0.2498717
vn 0.0759646 0.9371037 0.3406847
vn 0.3215569 0.9371037 0.1357859
vn 0.1189433 0.9125444 0.3912993
vn 0.1680617 0.8695658 0.4643389
vn -0.4090802 0.8879852 0.2100851
vn -0.3476821 0.9309638 -0.1114608
vn -0.3476821 0.9248241 0.1543295
vn -0.4213598 0.9002648 -0.1094494
vn -0.4704782 0.8450065 0.2541932
vn -0.3231229 0.8572862 -0.4008141
vn -0.4888977 0.8634259 -0.1243973
vn -0.3783811 0.8143075 -0.4401489
vn -0.4397792 0.7590492 -0.4800401
vn 0.03298593 0.9125444 0.4076452
vn -0.1450685 0.9800823 0.1356236
vn 0.05140537 0.9371037 0.3452451
vn -0.2003267 0.9616628 0.18728
vn 0.01456654 0.8695658 0.4936022
vn -0.3292627 0.9371037 -0.1158565
vn -0.255585 0.9371037 0.2377245
vn -0.409063 0.9125062 0
vn -0.4827579 0.8695658 -0.1039239
vn -0.003852904 0.9125444 0.4089594
vn -0.1573481 0.9800823 0.1211619
vn 0.02070636 0.9371037 0.3484364
vn -0.2126064 0.9616628 0.1732141
vn -0.03455192 0.8695658 0.4926069
vn -0.3231229 0.9371037 -0.132016
vn -0.2740044 0.9371037 0.2162365
vn -0.3968006 0.9125444 -0.09905553
vn -0.4766181 0.8695658 -0.1291919
vn -0.1819073 0.9125444 0.3662956
vn -0.1880471 0.9800823 0.06385059
vn -0.126649 0.9371037 0.325264
vn -0.2617248 0.9616628 0.08188252
vn -0.2371656 0.8695658 0.4331372
vn -0.2371656 0.9371037 -0.2561038
vn -0.3354025 0.9371037 0.09665317
vn -0.3108433 0.9125444 -0.2657802
vn -0.3845209 0.8695658 -0.309837
vn -0.2801442 0.9125444 -0.2979629
vn 0.03298593 0.9800823 -0.1958329
vn -0.2494452 0.9371037 -0.2441593
vn 0.05140537 0.9616628 -0.2693735
vn -0.3108433 0.8695658 -0.383708
vn 0.3154171 0.9371037 -0.1494948
vn 0.063685 0.9371037 -0.3431922
vn 0.3706754 0.9125444 -0.1728074
vn 0.4259337 0.8695658 -0.2498717
vn -0.1082296 0.9125444 -0.394397
vn 0.1189433 0.9800823 -0.1590317
vn -0.1143695 0.9371037 -0.3297822
vn 0.1619219 0.9616628 -0.2213276
vn -0.1020898 0.8695658 -0.4831491
vn 0.3399763 0.9371037 0.07907443
vn 0.2110404 0.9371037 -0.2780263
vn 0.4128607 0.9107942 0
vn 0.4873317 0.8695658 -0.07976938
vn -0.4213598 0.9002648 0.1094494
vn -0.1326288 0.9911657 0
vn -0.3538219 0.9002648 0.2536401
vn -0.1082296 0.9002648 0.4216748
vn 0.1066636 0.9739425 0.2001472
vn 0.1742015 0.8388668 0.5157096
vn 0.3154171 0.9064047 0.2809673
vn 0.3154171 0.9371037 -0.1494948
vn 0.2724385 0.9186842 -0.2860011
vn -0.0284121 0.9985017 0.04676615
vn -0.05297136 0.9985017 0.01372409
vn 0.4320735 0.9002648 0.05325232
vn -0.3231229 0.9432434 0.07670291
vn -0.3108433 0.9064047 -0.2860193
vn 0.2847181 0.9064047 0.3120355
vn -0.3538219 0.8818454 -0.3117029
vn 0.008426726 0.9985017 -0.05406764
vn 0.04526556 0.9616628 0.270473
vn -0.2924238 0.9555231 -0.0382616
vn 0.1557821 0.9800823 0.1231686
vn -0.2740044 0.9309638 -0.2413047
vn 0.2478792 0.9555231 -0.1597859
vn -0.2433054 0.9064047 -0.3453014
vn 0.2110404 0.9309638 -0.2979402
vn -0.1327888 0.9125444 -0.3868201
vn 0.08210441 0.9309638 -0.3557601
g EPI_Moss_01_0
f 3/3/3 2/2/2 1/1/1
f 4/4/4 3/3/3 1/1/1
f 5/5/5 4/4/4 1/1/1
f 8/8/8 7/7/7 6/6/6
f 7/7/7 9/9/9 6/6/6
f 6/6/6 9/9/9 10/10/10
f 7/7/7 11/11/11 9/9/9
f 9/9/9 12/12/12 10/10/10
f 11/11/11 13/13/13 9/9/9
f 9/9/9 13/13/13 12/12/12
f 13/13/13 14/14/14 12/12/12
f 17/17/17 16/16/16 15/15/15
f 16/16/16 18/18/18 15/15/15
f 15/15/15 18/18/18 19/19/19
f 16/16/16 20/20/20 18/18/18
f 18/18/18 21/21/21 19/19/19
f 20/20/20 22/22/22 18/18/18
f 18/18/18 22/22/22 21/21/21
f 22/22/22 23/23/23 21/21/21
f 26/26/26 25/25/25 24/24/24
f 25/25/25 27/27/27 24/24/24
f 24/24/24 27/27/27 28/28/28
f 25/25/25 29/29/29 27/27/27
f 27/27/27 30/30/30 28/28/28
f 29/29/29 31/31/31 27/27/27
f 27/27/27 31/31/31 30/30/30
f 31/31/31 32/32/32 30/30/30
f 35/35/35 34/34/34 33/33/33
f 34/34/34 36/36/36 33/33/33
f 33/33/33 36/36/36 37/37/37
f 34/34/34 38/38/38 36/36/36
f 36/36/36 39/39/39 37/37/37
f 38/38/38 40/40/40 36/36/36
f 36/36/36 40/40/40 39/39/39
f 40/40/40 41/41/41 39/39/39
f 44/44/44 43/43/43 42/42/42
f 43/43/43 45/45/45 42/42/42
f 42/42/42 45/45/45 46/46/46
f 43/43/43 47/47/47 45/45/45
f 45/45/45 48/48/48 46/46/46
f 47/47/47 49/49/49 45/45/45
f 45/45/45 49/49/49 48/48/48
f 49/49/49 50/50/50 48/48/48
f 53/53/53 52/52/52 51/51/51
f 52/52/52 54/54/54 51/51/51
f 51/51/51 54/54/54 55/55/55
f 52/52/52 56/56/56 54/54/54
f 54/54/54 57/57/57 55/55/55
f 56/56/56 58/58/58 54/54/54
f 54/54/54 58/58/58 57/57/57
f 58/58/58 59/59/59 57/57/57
f 62/62/62 61/61/61 60/60/60
f 61/61/61 63/63/63 60/60/60
f 60/60/60 63/63/63 64/64/64
f 61/61/61 65/65/65 63/63/63
f 63/63/63 66/66/66 64/64/64
f 65/65/65 67/67/67 63/63/63
f 63/63/63 67/67/67 66/66/66
f 67/67/67 68/68/68 66/66/66
f 71/71/71 70/70/70 69/69/69
f 70/70/70 72/72/72 69/69/69
f 69/69/69 72/72/72 73/73/73
f 70/70/70 74/74/74 72/72/72
f 72/72/72 75/75/75 73/73/73
f 74/74/74 76/76/76 72/72/72
f 72/72/72 76/76/76 75/75/75
f 76/76/76 77/77/77 75/75/75
f 80/80/80 79/79/79 78/78/78
f 79/79/79 81/81/81 78/78/78
f 78/78/78 81/81/81 82/82/82
f 79/79/79 83/83/83 81/81/81
f 81/81/81 84/84/84 82/82/82
f 83/83/83 85/85/85 81/81/81
f 81/81/81 85/85/85 84/84/84
f 85/85/85 86/86/86 84/84/84
f 89/89/89 88/88/88 87/87/87
f 88/88/88 90/90/90 87/87/87
f 87/87/87 90/90/90 91/91/91
f 88/88/88 92/92/92 90/90/90
f 90/90/90 93/93/93 91/91/91
f 92/92/92 94/94/94 90/90/90
f 90/90/90 94/94/94 93/93/93
f 94/94/94 95/95/95 93/93/93
f 98/98/98 97/97/97 96/96/96
f 97/97/97 99/99/99 96/96/96
f 96/96/96 99/99/99 100/100/100
f 97/97/97 101/101/101 99/99/99
f 99/99/99 102/102/102 100/100/100
f 101/101/101 103/103/103 99/99/99
f 99/99/99 103/103/103 102/102/102
f 103/103/103 104/104/104 102/102/102
f 107/107/107 106/106/106 105/105/105
f 106/106/106 108/108/108 105/105/105
f 105/105/105 108/108/108 109/109/109
f 106/106/106 110/110/110 108/108/108
f 108/108/108 111/111/111 109/109/109
f 110/110/110 112/112/112 108/108/108
f 108/108/108 112/112/112 111/111/111
f 112/112/112 113/113/113 111/111/111
f 116/116/116 115/115/115 114/114/114
f 115/115/115 117/117/117 114/114/114
f 114/114/114 117/117/117 118/118/118
f 115/115/115 119/119/119 117/117/117
f 117/117/117 120/120/120 118/118/118
f 119/119/119 121/121/121 117/117/117
f 117/117/117 121/121/121 120/120/120
f 121/121/121 122/122/122 120/120/120
f 125/125/125 124/124/124 123/123/123
f 124/124/124 126/126/126 123/123/123
f 123/123/123 126/126/126 127/127/127
f 124/124/124 128/128/128 126/126/126
f 126/126/126 129/129/129 127/127/127
f 128/128/128 130/130/130 126/126/126
f 126/126/126 130/130/130 129/129/129
f 130/130/130 131/131/131 129/129/129
f 134/134/134 133/133/133 132/132/132
f 133/133/133 135/135/135 132/132/132
f 132/132/132 135/135/135 136/136/136
f 133/133/133 137/137/137 135/135/135
f 135/135/135 138/138/138 136/136/136
f 137/137/137 139/139/139 135/135/135
f 135/135/135 139/139/139 138/138/138
f 139/139/139 140/140/140 138/138/138
f 143/143/143 142/142/142 141/141/141
f 143/143/143 144/144/144 142/142/142
f 144/144/144 145/145/145 142/142/142
f 144/144/144 146/146/146 145/145/145
f 146/146/146 147/147/147 145/145/145
f 148/148/148 145/145/145 147/147/147
f 145/145/145 148/148/148 149/149/149
f 142/142/142 145/145/145 149/149/149
f 150/150/150 142/142/142 149/149/149
f 142/142/142 150/150/150 141/141/141
f 141/141/141 150/150/150 151/151/151
f 152/152/152 150/150/150 149/149/149
f 151/151/151 150/150/150 152/152/152
f 153/153/153 141/141/141 151/151/151
f 153/153/153 151/151/151 154/154/154
f 155/155/155 151/151/151 152/152/152
f 156/156/156 154/154/154 151/151/151
f 155/155/155 157/157/157 151/151/151
f 151/151/151 157/157/157 156/156/156
f 155/155/155 158/158/158 157/157/157
f 159/159/159 156/156/156 157/157/157
f 158/158/158 160/160/160 157/157/157
f 159/159/159 157/157/157 161/161/161
f 162/162/162 157/157/157 160/160/160
f 163/163/163 161/161/161 157/157/157
f 157/157/157 162/162/162 164/164/164
f 165/165/165 163/163/163 157/157/157
f 166/166/166 157/157/157 164/164/164
f 166/166/166 165/165/165 157/157/157
