g EPI_ConcreteWall_05
v -0.8165865 -3.803846 5
v -1.074311 3.60441 3.117037
v -0.8165865 3.820631 5
v 1.074312 3.074617 -2.237202
v 1.074312 3.423743 -2.166858
v 1.074312 3.749066 -2.61471
v -0.8165865 -3.803846 5
v -1.011902 3.659037 1.761425
v -1.074311 3.60441 3.117037
v -1.025025 -3.808729 2.102159
v -0.8165865 3.415808 1.475776
v -0.8165865 3.152285 0.1528192
v -0.8448157 2.764706 -0.4903488
v -0.8448157 -3.814374 -1.302129
v -0.8306246 3.058443 -1.663615
v -0.8165865 -3.816511 -2.576562
v -0.8165865 -3.820631 -5
v -0.8165865 3.074617 -2.237202
v -0.8165865 3.820631 -4.989777
v -0.8165865 3.586404 -2.390707
v 0.8788433 -3.803846 5
v 0.8788433 3.820631 5
v 0.8165865 3.60441 3.117037
v 0.8788433 3.659037 1.761425
v 0.7181659 -3.808729 2.102159
v 1.074312 3.415808 1.475776
v 1.074312 3.298924 0.3257036
v 1.074312 3.005799 -0.0199132
v 0.8982224 2.764706 -0.4903488
v 0.8982224 -3.814374 -1.302129
v 0.8982224 2.922332 -1.476234
v 1.074312 -3.816511 -2.576562
v 1.074312 3.1944 -1.850996
v 0.8788433 -3.820631 -5
v 1.074312 3.074617 -2.237202
v 0.8788433 3.820631 -4.989777
v 1.074312 3.749066 -2.61471
v 1.074312 3.749066 -2.61471
v 1.074312 3.423743 -2.166858
v -0.8165865 3.586404 -2.390707
v 0.8788433 3.820631 -4.989777
v -0.8165865 3.820631 -4.989777
v 1.074312 3.423743 -2.166858
v -0.8165865 3.074617 -2.237202
v -0.8165865 3.586404 -2.390707
v 1.074312 3.074617 -2.237202
v -0.8306246 3.058443 -1.663615
v 1.074312 3.1944 -1.850996
v 0.8982224 2.922332 -1.476234
v -0.8448157 2.764706 -0.4903488
v 0.8982224 2.764706 -0.4903488
v -0.8165865 3.152285 0.1528192
v 1.074312 3.005799 -0.0199132
v 1.074312 3.298924 0.3257036
v -0.8165865 3.415808 1.475776
v 1.074312 3.415808 1.475776
v 1.074312 3.415808 1.475776
v 0.8788433 3.659037 1.761425
v -1.011902 3.659037 1.761425
v -0.8165865 3.415808 1.475776
v 0.8788433 3.659037 1.761425
v -1.074311 3.60441 3.117037
v -1.011902 3.659037 1.761425
v 0.8165865 3.60441 3.117037
v -0.8165865 3.820631 5
v 0.8788433 3.820631 5
v 0.8788433 3.820631 5
v 0.8788433 -3.803846 5
v -0.8165865 -3.803846 5
v -0.8165865 3.820631 5
v 0.8788433 -3.820631 -5
v 0.8788433 3.820631 -4.989777
v -0.8165865 3.820631 -4.989777
v -0.8165865 -3.820631 -5
vt 0.349243 0.4770757
vt 0.5088648 0.5176575
vt 0.5135993 0.4770757
vt 0.4980429 0.7963192
vt 0.5054829 0.797672
vt 0.5122465 0.7882029
vt 0.349243 0.4770757
vt 0.5102175 0.5474175
vt 0.5088648 0.5176575
vt 0.349243 0.5406538
vt 0.5048066 0.5548575
vt 0.4993957 0.5832647
vt 0.4912793 0.596792
vt 0.349243 0.6143775
vt 0.4973665 0.6224939
vt 0.349243 0.6421084
vt 0.349243 0.6941884
vt 0.4973665 0.6346684
vt 0.5129229 0.6941884
vt 0.5088648 0.6380502
vt 0.349243 0.9552647
vt 0.5129229 0.9552647
vt 0.5088648 0.9146829
vt 0.5102175 0.8849229
vt 0.349243 0.8910102
vt 0.5054829 0.8774829
vt 0.5027775 0.8531338
vt 0.4966902 0.8456938
vt 0.4912793 0.834872
vt 0.349243 0.8172865
vt 0.4946611 0.8132284
vt 0.349243 0.7895557
vt 0.500072 0.8044356
vt 0.349243 0.7367992
vt 0.4980429 0.7963192
vt 0.5129229 0.7367992
vt 0.5122465 0.7882029
vt 0.3431557 0.6427847
vt 0.3431557 0.6306102
vt 0.3005448 0.6360211
vt 0.3431557 0.6962174
vt 0.3005448 0.6962174
vt 0.3431557 0.6306102
vt 0.3005448 0.6238465
vt 0.3005448 0.6360211
vt 0.3431557 0.6231702
vt 0.3005448 0.6103193
vt 0.3431557 0.6137011
vt 0.3431557 0.6035557
vt 0.3005448 0.5825884
vt 0.3431557 0.581912
vt 0.3005448 0.5650029
vt 0.3431557 0.5697374
vt 0.3431557 0.559592
vt 0.3005448 0.5338902
vt 0.3431557 0.5338902
vt 0.3431557 0.5338902
vt 0.3431557 0.5250975
vt 0.3005448 0.5257738
vt 0.3005448 0.5338902
vt 0.3431557 0.5250975
vt 0.3005448 0.4946611
vt 0.3005448 0.5257738
vt 0.3431557 0.4946611
vt 0.3005448 0.4513738
vt 0.3431557 0.4513738
vt 0.5129229 0.9552647
vt 0.349243 0.9552647
vt 0.349243 0.9924647
vt 0.5122465 0.9924647
vt 0.349243 0.7367992
vt 0.5129229 0.7367992
vt 0.5129229 0.6941884
vt 0.349243 0.6941884
vn -0.9921492 0.003921509 0.1249981
vn -0.9921492 0.003921509 0.1249981
vn -0.9921492 0.003921509 0.1249981
vn 0.9999924 0.003921509 0
vn 0.9999924 0.003921509 0
vn 0.9999924 0.003921509 0
vn -0.9999309 -0.01176392 0
vn -0.9999309 -0.01176392 0
vn -0.9999309 -0.01176392 0
vn -0.9999923 -0.003921568 -0.0003442513
vn -0.9843061 0.01176453 -0.176077
vn -0.9996234 0.02744056 0
vn -0.9999309 0.0117638 0
vn -0.9999923 0.003921509 -0.0003449296
vn -0.9999923 0.003921509 -0.0003449296
vn -0.9999923 0.003921509 -0.0003449296
vn -0.9999923 0.003921509 -0.0003449296
vn -0.9999923 0.003921509 -0.0003449296
vn -0.9999923 0.003921509 -0.0003449296
vn -0.9999923 0.003921509 -0.0003449296
vn 0.9999309 -0.01176392 0
vn 0.9999924 0.003921509 0
vn 0.9999924 -0.003921568 0
vn 0.9999309 -0.01176392 0
vn 0.9999309 -0.01176392 0
vn 0.9843062 -0.03529388 0.1729035
vn 0.998703 -0.0509143 0
vn 0.9921493 -0.09019542 -0.08662891
vn 0.9998079 -0.01960411 0
vn 0.9999924 -0.003921568 0
vn 0.9921493 -0.003921568 0.1249976
vn 0.9999924 -0.003921568 0
vn 0.9999924 -0.003921568 0
vn 0.9999924 0.003921509 0
vn 0.9999924 -0.003921568 0
vn 0.9999924 -0.003921568 0
vn 0.9999924 -0.003921568 0
vn -0.03529382 0.9921492 0.1199759
vn -0.003921509 0.8117584 0.5839803
vn -0.04309709 0.9990709 0
vn -0.04309709 0.9990709 0
vn -0.04309709 0.9990709 0
vn -0.05097997 0.09803843 0.993876
vn -0.06666613 0.8117584 0.5801758
vn -0.05097997 0.09803843 0.993876
vn -0.06666613 0.8117584 0.5801758
vn 0.003921568 0.9921492 0.1249981
vn -0.03527213 0.9993777 0
vn 0.01960772 0.9607769 0.2766283
vn 0.01960411 0.9998079 0
vn 0.01960772 0.9921492 -0.123513
vn -0.01960766 0.9607769 -0.2766283
vn 0.01176465 0.8431307 -0.53758
vn -0.02745068 0.9764631 -0.2139307
vn -0.02745068 0.9843061 -0.1743215
vn -0.02745068 0.9843061 -0.1743215
vn -0.003921509 0.7646999 -0.6443746
vn -0.003921509 0.7646999 -0.6443746
vn -0.003921509 0.7646999 -0.6443746
vn -0.003921509 0.7646999 -0.6443746
vn -0.003921509 0.9999923 -0.000345267
vn -0.003921509 0.9999923 -0.000345267
vn -0.003921509 0.9999923 -0.000345267
vn -0.003921509 0.9999923 -0.000345267
vn -0.003921509 0.9921492 -0.1249981
vn -0.003921509 0.9921492 -0.1249981
vn -0.003921509 0.003921509 0.9999846
vn -0.003921509 0.003921509 0.9999846
vn -0.003921509 0.003921509 0.9999846
vn -0.003921509 0.003921509 0.9999846
vn -0.003921509 0.003921509 -0.9999846
vn -0.003921509 0.003921509 -0.9999846
vn -0.003921509 0.003921509 -0.9999846
vn -0.003921509 0.003921509 -0.9999846
g EPI_ConcreteWall_05_0
f 3/3/3 2/2/2 1/1/1
f 6/6/6 5/5/5 4/4/4
f 9/9/9 8/8/8 7/7/7
f 8/8/8 10/10/10 7/7/7
f 11/11/11 10/10/10 8/8/8
f 12/12/12 10/10/10 11/11/11
f 12/12/12 13/13/13 10/10/10
f 10/10/10 13/13/13 14/14/14
f 13/13/13 15/15/15 14/14/14
f 14/14/14 15/15/15 16/16/16
f 17/17/17 16/16/16 15/15/15
f 18/18/18 17/17/17 15/15/15
f 19/19/19 17/17/17 18/18/18
f 20/20/20 19/19/19 18/18/18
f 23/23/23 22/22/22 21/21/21
f 24/24/24 23/23/23 21/21/21
f 25/25/25 24/24/24 21/21/21
f 25/25/25 26/26/26 24/24/24
f 25/25/25 27/27/27 26/26/26
f 25/25/25 28/28/28 27/27/27
f 29/29/29 28/28/28 25/25/25
f 29/29/29 25/25/25 30/30/30
f 31/31/31 29/29/29 30/30/30
f 31/31/31 30/30/30 32/32/32
f 33/33/33 31/31/31 32/32/32
f 32/32/32 34/34/34 33/33/33
f 34/34/34 35/35/35 33/33/33
f 34/34/34 36/36/36 35/35/35
f 36/36/36 37/37/37 35/35/35
f 40/40/40 39/39/39 38/38/38
f 40/40/40 38/38/38 41/41/41
f 42/42/42 40/40/40 41/41/41
f 45/45/45 44/44/44 43/43/43
f 44/44/44 46/46/46 43/43/43
f 44/44/44 47/47/47 46/46/46
f 47/47/47 48/48/48 46/46/46
f 47/47/47 49/49/49 48/48/48
f 47/47/47 50/50/50 49/49/49
f 50/50/50 51/51/51 49/49/49
f 50/50/50 52/52/52 51/51/51
f 52/52/52 53/53/53 51/51/51
f 52/52/52 54/54/54 53/53/53
f 52/52/52 55/55/55 54/54/54
f 55/55/55 56/56/56 54/54/54
f 59/59/59 58/58/58 57/57/57
f 60/60/60 59/59/59 57/57/57
f 63/63/63 62/62/62 61/61/61
f 62/62/62 64/64/64 61/61/61
f 62/62/62 65/65/65 64/64/64
f 65/65/65 66/66/66 64/64/64
f 69/69/69 68/68/68 67/67/67
f 70/70/70 69/69/69 67/67/67
f 73/73/73 72/72/72 71/71/71
f 74/74/74 73/73/73 71/71/71
