g EPI_Rock_13
v -1.37954 0.736017 0.9607193
v -1.802431 0.5912945 0.471875
v -1.649678 0.8480105 0.2939284
v -1.580534 0.5366728 -0.03638673
v -1.226732 0.9927332 0.7827177
v -1.038609 0.9794765 0.8804095
v -1.188612 0.7329366 1.052965
v -0.291563 0.6006455 0.7388773
v -0.892731 1.143507 0.7381072
v -1.313257 0.9543386 0.07764208
v -0.2975037 0.8320036 0.4404111
v 0.4597181 0.010589 0.5880489
v -0.5411835 0.6719892 -0.08061206
v 0.4799606 0.258559 0.3085601
v 1.043284 -0.2646095 0.5356276
v -1.409244 0.8537862 -0.08924818
v -0.7006476 0.506144 -0.3784733
v 0.2646644 0.1594371 -0.2214292
v 1.079478 0.08105254 0.1553665
v -0.8793094 0.05921483 -0.3259419
v 1.787964 -0.2602639 -0.08974326
v 1.800286 -0.4641187 0.2289104
v 1.802431 -0.5798527 -0.1070703
v 1.715191 -0.7953689 -0.5564749
v 0.7988893 -0.1174116 -0.4303995
v 0.09562898 0.02263546 -0.5561448
v 1.535704 -0.4437112 -0.6153871
v 0.6332092 -0.2718704 -0.7363467
v 0.9321155 -0.5778174 -0.9688049
v 1.142736 -1.013085 -1.052965
v -0.1149917 -0.4568578 -0.5469037
v 0.4236888 -0.6947067 -0.8202319
v -0.9298055 -0.3557005 0.07709205
v 1.289934 -1.143506 -0.6668183
v 1.715191 -0.7953689 -0.5564749
v -0.08968854 -0.6548268 -0.195246
v -1.571513 0.1439252 0.3817191
v -1.802431 0.5912945 0.471875
v -0.7563145 -0.2476674 0.4611487
v 0.4673641 -0.8910255 -0.4080119
v 1.71299 -0.9067574 0.06708086
v 1.802431 -0.5798527 -0.1070703
v -1.526903 0.1577318 0.4997084
v -1.25803 0.3710477 1.038224
v -1.37954 0.736017 0.9607193
v -1.188612 0.7329366 1.052965
v -0.4242942 0.118017 0.9914131
v -0.291563 0.6006455 0.7388773
v 0.07005084 -0.5519643 0.1575118
v 0.368077 -0.2917278 0.7214952
v 0.4597181 0.010589 0.5880489
v 0.615002 -0.7894832 -0.07241607
v 0.9089026 -0.5361774 0.4849665
v 1.043284 -0.2646095 0.5356276
v 0.9495526 -1.125629 -0.409497
v 1.590105 -0.8970212 0.1776992
v 1.702044 -0.7333213 0.3149409
v 1.800286 -0.4641187 0.2289104
vt 0.01580409 0.865893
vt 0.03692956 0.8701181
vt 0.03692956 0.8616679
vt 0.05044986 0.8565978
vt 0.02002919 0.8574428
vt 0.01580409 0.8540627
vt 0.009888963 0.8608229
vt 0.007353907 0.8312472
vt 0.01833915 0.8489926
vt 0.03608454 0.8515277
vt 0.01749413 0.8312472
vt 0.006508888 0.8033616
vt 0.03270447 0.8304022
vt 0.01664911 0.8050516
vt 0.005663869 0.7847712
vt 0.04115466 0.8515277
vt 0.04199968 0.8312472
vt 0.03270447 0.8058966
vt 0.01833915 0.7873062
vt 0.05382994 0.8320922
vt 0.02425428 0.7670258
vt 0.01495908 0.7628007
vt 0.02594432 0.7585756
vt 0.04115466 0.7585756
vt 0.03608454 0.7898413
vt 0.04368971 0.8075867
vt 0.0386196 0.7687159
vt 0.04622477 0.7906863
vt 0.0521399 0.7797011
vt 0.06143511 0.7695609
vt 0.05805503 0.8084317
vt 0.05890005 0.7915313
vt 0.06735024 0.8329372
vt 0.07242036 0.7712509
vt 0.08256058 0.7594206
vt 0.06904028 0.8092768
vt 0.0656602 0.8540627
vt 0.06397016 0.866738
vt 0.07833549 0.8346273
vt 0.07073032 0.7940664
vt 0.09439085 0.7712509
vt 0.09777092 0.7628007
vt 0.06819526 0.8549078
vt 0.08425062 0.8574428
vt 0.08425062 0.867583
vt 0.09101077 0.865048
vt 0.09608088 0.8380074
vt 0.1087562 0.8430775
vt 0.08002552 0.8109668
vt 0.09861594 0.8135018
vt 0.1079111 0.8143468
vt 0.08087055 0.7949114
vt 0.09946096 0.7957565
vt 0.1079111 0.7957565
vt 0.07495541 0.7813911
vt 0.09523586 0.775476
vt 0.101151 0.774631
vt 0.1070661 0.7704059
vn -0.6363881 0.2975557 0.7116677
vn -0.9829212 0.06653357 0.1715782
vn -0.7364976 0.667191 -0.1114779
vn -0.7364976 -0.09518188 -0.6697101
vn -0.4361689 0.8212057 0.3679373
vn 0.02587521 0.6055851 0.7953597
vn -0.07423437 0.3745631 0.9242249
vn 0.4725179 0.4669719 0.7474384
vn 0.1721892 0.9367168 0.3048155
vn -0.112738 0.9367168 -0.331439
vn 0.5256248 0.8507166 0
vn 0.4263135 0.4284682 0.7966629
vn 0.3185032 0.8212057 -0.4734732
vn 0.4879194 0.8597095 0.1511098
vn 0.3493062 0.2667527 0.8982362
vn -0.3745631 0.5901837 -0.7151123
vn -0.01262844 0.4746727 -0.8800718
vn 0.3416054 0.8212057 -0.4570852
vn 0.3955106 0.9059138 0.1512996
vn -0.4669719 -0.3031017 -0.8307025
vn 0.7650316 0.6439927 0
vn 0.8190511 0.2282491 0.5263627
vn 0.9807665 -0.1336855 -0.1422153
vn 0.8575547 -0.2106929 -0.4692636
vn 0.2491966 0.844308 -0.4743891
vn 0.03357595 0.520877 -0.8529711
vn 0.5418246 0.5593808 -0.6273112
vn -0.004927695 0.6132859 -0.7898456
vn 0.04897743 0.4053661 -0.9128415
vn 0.1028826 -0.5264231 -0.843975
vn -0.4592712 -0.3801091 -0.8028618
vn -0.4746727 -0.3647076 -0.8010457
vn -0.5131763 -0.849854 -0.1199926
vn 0.2491966 -0.9422628 -0.2237004
vn 0.8575547 -0.2106929 -0.4692636
vn -0.4053661 -0.9114599 -0.07013681
vn -0.7518991 -0.6573356 -0.05057219
vn -0.9829212 0.06653357 0.1715782
vn -0.2667527 -0.8344525 0.4822157
vn -0.4127813 -0.9108301 0
vn 0.6496348 -0.7420437 0.1653652
vn 0.9807665 -0.1336855 -0.1422153
vn -0.5901837 -0.6265327 0.5090579
vn -0.3283587 -0.3185032 0.8892335
vn -0.6363881 0.2975557 0.7116677
vn -0.07423437 0.3745631 0.9242249
vn 0.09518188 -0.3031017 0.9481929
vn 0.4725179 0.4669719 0.7474384
vn -0.1974461 -0.8729562 0.4460521
vn 0.1105833 -0.4263135 0.8977907
vn 0.4263135 0.4284682 0.7966629
vn -0.2436506 -0.849854 0.4673142
vn -0.01262844 -0.588029 0.8087412
vn 0.3493062 0.2667527 0.8982362
vn -0.2513512 -0.9653651 0.06994874
vn 0.1259848 -0.8036496 0.5816143
vn 0.5957297 -0.3108025 0.7406132
vn 0.8190511 0.2282491 0.5263627
g EPI_Rock_13_0
f 3/3/3 2/2/2 1/1/1
f 4/4/4 2/2/2 3/3/3
f 5/5/5 3/3/3 1/1/1
f 6/6/6 5/5/5 1/1/1
f 7/7/7 6/6/6 1/1/1
f 8/8/8 6/6/6 7/7/7
f 5/5/5 6/6/6 9/9/9
f 9/9/9 6/6/6 8/8/8
f 3/3/3 5/5/5 10/10/10
f 5/5/5 9/9/9 10/10/10
f 11/11/11 9/9/9 8/8/8
f 8/8/8 12/12/12 11/11/11
f 9/9/9 11/11/11 13/13/13
f 10/10/10 9/9/9 13/13/13
f 12/12/12 14/14/14 11/11/11
f 11/11/11 14/14/14 13/13/13
f 12/12/12 15/15/15 14/14/14
f 10/10/10 16/16/16 3/3/3
f 16/16/16 4/4/4 3/3/3
f 13/13/13 17/17/17 10/10/10
f 17/17/17 16/16/16 10/10/10
f 14/14/14 18/18/18 13/13/13
f 17/17/17 13/13/13 18/18/18
f 15/15/15 19/19/19 14/14/14
f 14/14/14 19/19/19 18/18/18
f 17/17/17 20/20/20 16/16/16
f 20/20/20 4/4/4 16/16/16
f 19/19/19 15/15/15 21/21/21
f 15/15/15 22/22/22 21/21/21
f 21/21/21 22/22/22 23/23/23
f 23/23/23 24/24/24 21/21/21
f 19/19/19 25/25/25 18/18/18
f 25/25/25 19/19/19 21/21/21
f 26/26/26 17/17/17 18/18/18
f 20/20/20 17/17/17 26/26/26
f 26/26/26 18/18/18 25/25/25
f 24/24/24 27/27/27 21/21/21
f 27/27/27 25/25/25 21/21/21
f 28/28/28 26/26/26 25/25/25
f 25/25/25 27/27/27 28/28/28
f 27/27/27 24/24/24 29/29/29
f 27/27/27 29/29/29 28/28/28
f 24/24/24 30/30/30 29/29/29
f 31/31/31 20/20/20 26/26/26
f 31/31/31 26/26/26 28/28/28
f 32/32/32 28/28/28 29/29/29
f 32/32/32 29/29/29 30/30/30
f 32/32/32 31/31/31 28/28/28
f 20/20/20 31/31/31 33/33/33
f 20/20/20 33/33/33 4/4/4
f 32/32/32 30/30/30 34/34/34
f 30/30/30 35/35/35 34/34/34
f 31/31/31 32/32/32 36/36/36
f 31/31/31 36/36/36 33/33/33
f 33/33/33 37/37/37 4/4/4
f 4/4/4 37/37/37 38/38/38
f 33/33/33 39/39/39 37/37/37
f 33/33/33 36/36/36 39/39/39
f 32/32/32 40/40/40 36/36/36
f 32/32/32 34/34/34 40/40/40
f 34/34/34 35/35/35 41/41/41
f 35/35/35 42/42/42 41/41/41
f 37/37/37 43/43/43 38/38/38
f 39/39/39 43/43/43 37/37/37
f 38/38/38 43/43/43 44/44/44
f 44/44/44 43/43/43 39/39/39
f 45/45/45 38/38/38 44/44/44
f 46/46/46 45/45/45 44/44/44
f 46/46/46 44/44/44 47/47/47
f 47/47/47 44/44/44 39/39/39
f 48/48/48 46/46/46 47/47/47
f 36/36/36 49/49/49 39/39/39
f 47/47/47 39/39/39 49/49/49
f 36/36/36 40/40/40 49/49/49
f 48/48/48 47/47/47 50/50/50
f 50/50/50 47/47/47 49/49/49
f 51/51/51 48/48/48 50/50/50
f 40/40/40 52/52/52 49/49/49
f 50/50/50 49/49/49 52/52/52
f 51/51/51 50/50/50 53/53/53
f 53/53/53 50/50/50 52/52/52
f 54/54/54 51/51/51 53/53/53
f 40/40/40 55/55/55 52/52/52
f 34/34/34 55/55/55 40/40/40
f 34/34/34 41/41/41 55/55/55
f 52/52/52 55/55/55 56/56/56
f 53/53/53 52/52/52 56/56/56
f 41/41/41 56/56/56 55/55/55
f 54/54/54 53/53/53 57/57/57
f 53/53/53 56/56/56 57/57/57
f 57/57/57 56/56/56 41/41/41
f 57/57/57 58/58/58 54/54/54
f 41/41/41 42/42/42 57/57/57
f 42/42/42 58/58/58 57/57/57
