g EPI_Rock_20
v 0.6576502 0.6877337 -0.3113781
v 0.7009875 0.9006453 -0.1800609
v 0.5693865 0.9299625 -0.2537655
v 0.5368623 0.9284299 0.03415608
v -0.234495 0.5496903 -0.2773781
v 0.3849407 0.9147789 0.249707
v 0.5297387 0.7146387 -0.3824432
v -0.4016002 0.3085969 -0.2794215
v 0.006087661 0.4410209 0.3441861
v 0.2370492 0.3060994 -0.6394016
v 0.4768088 0.1717455 -0.5658957
v -0.5816186 0.1214265 -0.2371628
v -0.167091 -0.1445 -0.6032445
v 0.1475651 -0.317934 -0.5074883
v -0.5248289 0.2303798 0.262904
v -0.2537087 0.08853346 0.6394015
v -0.4271144 -0.5373731 -0.6016836
v -0.7009875 0.001631916 -0.1771945
v -0.6588423 0.02859348 0.2501895
v -0.3809674 -0.2143731 0.5676553
v -0.6896636 -0.4496486 0.1030359
v -0.5740693 -0.5895652 0.4140025
v -0.3467972 -0.9299625 -0.1736185
v -0.546909 -0.7070893 -0.327697
v -0.06134474 -0.74949 -0.4399992
v -0.246727 -0.6247855 -0.6126953
v 0.208101 -0.3857921 -0.334111
v -0.07953674 -0.7717121 -0.304141
v -0.3467972 -0.9299625 -0.1736185
v 0.5250559 0.1053063 -0.3622362
v -0.1828991 -0.4353731 0.2272295
v -0.5740693 -0.5895652 0.4140025
v -0.3809674 -0.2143731 0.5676553
v -0.2537087 0.08853346 0.6394015
v 0.01866025 -0.2449958 0.09071869
v 0.2126419 0.09418112 0.1409524
v 0.006087661 0.4410209 0.3441861
v 0.3849407 0.9147789 0.249707
v 0.6939491 0.6130643 -0.160308
v 0.7009875 0.9006453 -0.1800609
v 0.3982229 0.3955267 0.1130827
v 0.6733447 0.651435 -0.09704757
v 0.5368623 0.9284299 0.03415608
vt 0.05509621 0.722061
vt 0.06239342 0.716953
vt 0.05947454 0.7147638
vt 0.06385287 0.7089261
vt 0.0441504 0.7023586
vt 0.06385287 0.7008991
vt 0.05363677 0.7176827
vt 0.03831264 0.7001694
vt 0.05144761 0.6877642
vt 0.04123152 0.7154936
vt 0.04123152 0.7213314
vt 0.03247487 0.69871
vt 0.02955598 0.7125747
vt 0.02736682 0.7206016
vt 0.03612347 0.6877642
vt 0.03758292 0.6775481
vt 0.02006961 0.7096558
vt 0.02882627 0.6972505
vt 0.0302857 0.6884939
vt 0.0266371 0.6775481
vt 0.01861017 0.6921425
vt 0.01423185 0.6848453
vt 0.00693464 0.7052775
vt 0.01496157 0.7045478
vt 0.01496157 0.7184125
vt 0.01933989 0.7133044
vt 0.02590738 0.7249799
vt 0.01423185 0.7227908
vt 0.00693464 0.7257097
vt 0.0405018 0.7257097
vt 0.01861017 0.7388446
vt 0.009123802 0.7446824
vt 0.02006961 0.7505202
vt 0.02882627 0.7534391
vt 0.02590738 0.7366555
vt 0.03612347 0.7388446
vt 0.04269096 0.7476013
vt 0.05874482 0.7403041
vt 0.05363677 0.7264394
vt 0.06020426 0.7257097
vt 0.04560984 0.7366555
vt 0.05436649 0.7278988
vt 0.06020426 0.7330069
vn 0.8252642 0.11124 -0.5536828
vn 0.8252642 0.5641395 -0.02618287
vn 0.06531411 0.8635138 -0.5000781
vn 0.3646884 0.8097799 0.459629
vn -0.6562547 0.6946359 -0.2946365
vn 0.1036955 0.6869597 0.7192591
vn 0.1881343 0.464348 -0.86544
vn -0.6255496 0.6485783 -0.4336286
vn -0.03447729 0.4259668 0.9040816
vn -0.01912481 0.2340601 -0.972034
vn 0.6410339 -0.1881343 -0.7440975
vn -0.6485783 0.5948445 -0.4748749
vn -0.2033551 0.1265925 -0.9708867
vn 0.5489187 -0.3877172 -0.7405158
vn -0.6562547 0.6792834 0.3284871
vn 0.05763787 0.1649738 0.9846123
vn -0.5027294 -0.2265157 -0.8342385
vn -0.9018951 0.2954703 -0.3150913
vn -0.8865426 0.2877941 0.3622386
vn -0.08053488 -0.2418682 0.9669611
vn -0.9633052 -0.2418682 0.1163739
vn -0.3568804 -0.5949763 0.7201664
vn -0.06518239 -0.994142 0.08621448
vn -0.7483699 -0.5642712 -0.3486266
vn 0.4568036 -0.702444 -0.5458049
vn 0.04996157 -0.4644798 -0.8841733
vn 0.8329405 -0.5489187 0.06998899
vn 0.6794152 -0.7177965 0.1521942
vn -0.06518239 -0.994142 0.08621448
vn 0.8936456 -0.4487732 0
vn 0.6410339 -0.5105374 0.5730856
vn -0.3568804 -0.5949763 0.7201664
vn -0.08053488 -0.2418682 0.9669611
vn 0.05763787 0.1649738 0.9846123
vn 0.7331491 -0.4184222 0.5361113
vn 0.702444 -0.3416596 0.6243727
vn -0.03447729 0.4259668 0.9040816
vn 0.1036955 0.6869597 0.7192591
vn 0.963437 -0.2495444 0.09755396
vn 0.8252642 0.5641395 -0.02618287
vn 0.6717389 -0.295602 0.6792542
vn 0.8943506 -0.1574293 0.4187517
vn 0.3646884 0.8097799 0.459629
g EPI_Rock_20_0
f 3/3/3 2/2/2 1/1/1
f 4/4/4 2/2/2 3/3/3
f 5/5/5 4/4/4 3/3/3
f 6/6/6 4/4/4 5/5/5
f 7/7/7 3/3/3 1/1/1
f 3/3/3 7/7/7 5/5/5
f 6/6/6 5/5/5 8/8/8
f 9/9/9 6/6/6 8/8/8
f 7/7/7 10/10/10 5/5/5
f 10/10/10 8/8/8 5/5/5
f 11/11/11 7/7/7 1/1/1
f 10/10/10 7/7/7 11/11/11
f 9/9/9 8/8/8 12/12/12
f 10/10/10 13/13/13 8/8/8
f 13/13/13 12/12/12 8/8/8
f 14/14/14 13/13/13 10/10/10
f 11/11/11 14/14/14 10/10/10
f 15/15/15 9/9/9 12/12/12
f 16/16/16 9/9/9 15/15/15
f 12/12/12 13/13/13 17/17/17
f 13/13/13 14/14/14 17/17/17
f 12/12/12 18/18/18 15/15/15
f 18/18/18 12/12/12 17/17/17
f 15/15/15 19/19/19 16/16/16
f 18/18/18 19/19/19 15/15/15
f 19/19/19 20/20/20 16/16/16
f 18/18/18 21/21/21 19/19/19
f 20/20/20 19/19/19 21/21/21
f 21/21/21 18/18/18 17/17/17
f 22/22/22 20/20/20 21/21/21
f 22/22/22 21/21/21 23/23/23
f 21/21/21 24/24/24 23/23/23
f 24/24/24 21/21/21 17/17/17
f 23/23/23 24/24/24 25/25/25
f 17/17/17 26/26/26 24/24/24
f 14/14/14 26/26/26 17/17/17
f 24/24/24 26/26/26 25/25/25
f 25/25/25 26/26/26 14/14/14
f 14/14/14 27/27/27 25/25/25
f 14/14/14 11/11/11 27/27/27
f 27/27/27 28/28/28 25/25/25
f 25/25/25 28/28/28 29/29/29
f 11/11/11 30/30/30 27/27/27
f 11/11/11 1/1/1 30/30/30
f 29/29/29 28/28/28 31/31/31
f 32/32/32 29/29/29 31/31/31
f 32/32/32 31/31/31 33/33/33
f 33/33/33 31/31/31 34/34/34
f 27/27/27 35/35/35 28/28/28
f 35/35/35 31/31/31 28/28/28
f 31/31/31 35/35/35 34/34/34
f 27/27/27 30/30/30 35/35/35
f 34/34/34 35/35/35 36/36/36
f 30/30/30 36/36/36 35/35/35
f 37/37/37 34/34/34 36/36/36
f 37/37/37 36/36/36 38/38/38
f 1/1/1 39/39/39 30/30/30
f 1/1/1 40/40/40 39/39/39
f 30/30/30 41/41/41 36/36/36
f 36/36/36 41/41/41 38/38/38
f 30/30/30 39/39/39 41/41/41
f 40/40/40 42/42/42 39/39/39
f 39/39/39 42/42/42 41/41/41
f 38/38/38 41/41/41 42/42/42
f 43/43/43 42/42/42 40/40/40
f 43/43/43 38/38/38 42/42/42
