g EPI_WreckedBuilding_03
v 0.4342344 4.340099 1.478082
v 0.4342344 4.47276 1.774102
v -0.4624758 4.40649 1.626092
v -0.4624758 2.404881 -3.510166
v -0.4624758 2.400008 -3.161885
v -0.4624758 -2.007162 -3.510653
v -0.4624758 2.209727 -2.827614
v -0.4624758 -2.006432 -3.183691
v -0.4624758 2.320095 -2.417327
v -0.4624758 -2.003508 -2.386385
v -0.4624758 -2.00168 -0.7693586
v -0.4624758 2.686893 -2.289905
v -0.4624758 2.742564 -1.592856
v -0.4624758 2.823086 -1.92932
v -0.4624758 2.89362 -0.5154877
v -0.4624758 3.018484 -0.05964065
v -0.4624758 3.912514 0.8376784
v -0.4624758 3.293551 0.1141951
v -0.4624758 -1.996077 1.352242
v -0.4624758 4.278824 1.053907
v -0.4624758 4.031044 2.769242
v -0.4624758 -1.991082 3.510633
v -0.4624758 3.99864 3.509293
v -0.4624758 4.40649 1.626092
v -0.4624758 4.359346 2.397085
v 0.4342344 2.404881 -3.510166
v 0.4342344 -2.007162 -3.510653
v 0.4342344 2.400008 -3.161885
v 0.4342344 2.209727 -2.827614
v 0.4342344 -2.006432 -3.183691
v 0.4342344 2.320095 -2.417327
v 0.4342344 -2.003508 -2.386385
v 0.4342344 -2.00168 -0.7693586
v 0.4342344 2.686893 -2.289905
v 0.4342344 2.742564 -1.592856
v 0.4342344 2.816873 -2.051748
v 0.4342344 2.829299 -1.80677
v 0.4342344 2.89362 -0.5154877
v 0.4342344 3.018484 -0.05964065
v 0.4342344 3.912514 0.8376784
v 0.4342344 -1.996442 0.9563303
v 0.4342344 3.209618 0.03964186
v 0.4342344 3.377606 0.1887484
v 0.4342344 -1.996077 1.352242
v 0.4342344 4.278824 1.053907
v 0.4342344 4.031044 2.769242
v 0.4342344 -1.991082 3.510633
v 0.4342344 3.99864 3.509293
v 0.4342344 4.340099 1.478082
v 0.4342344 4.47276 1.774102
v 0.4342344 4.359346 2.397085
v 0.4342344 2.404881 -3.510166
v -0.4624758 2.400008 -3.161885
v -0.4624758 2.404881 -3.510166
v 0.4342344 2.400008 -3.161885
v -0.4624758 2.209727 -2.827614
v 0.4342344 2.209727 -2.827614
v -0.4624758 2.320095 -2.417327
v 0.4342344 2.320095 -2.417327
v 0.4342344 -2.007162 -3.510653
v 0.4342344 2.404881 -3.510166
v -0.4624758 2.404881 -3.510166
v -0.4624758 -2.007162 -3.510653
v 0.4342344 4.031044 2.769242
v 0.4342344 3.99864 3.509293
v -0.4624758 3.99864 3.509293
v -0.4624758 4.031044 2.769242
v 0.4342344 3.99864 3.509293
v 0.4342344 -1.991082 3.510633
v -0.4624758 -1.991082 3.510633
v -0.4624758 3.99864 3.509293
v 0.4342344 3.912514 0.8376784
v 0.4342344 4.278824 1.053907
v -0.4624758 4.278824 1.053907
v -0.4624758 3.912514 0.8376784
v 0.4342344 3.377606 0.1887484
v -0.4624758 3.293551 0.1141951
v 0.4342344 3.209618 0.03964186
v 0.4342344 2.89362 -0.5154877
v 0.4342344 3.018484 -0.05964065
v -0.4624758 3.018484 -0.05964065
v -0.4624758 2.89362 -0.5154877
v 0.4342344 2.742564 -1.592856
v 0.4342344 2.89362 -0.5154877
v -0.4624758 2.89362 -0.5154877
v -0.4624758 2.742564 -1.592856
v 0.4342344 2.829299 -1.80677
v -0.4624758 2.823086 -1.92932
v 0.4342344 2.816873 -2.051748
v 0.4342344 2.686893 -2.289905
v -0.4624758 2.686893 -2.289905
v 0.4342344 2.320095 -2.417327
v 0.4342344 2.686893 -2.289905
v -0.4624758 2.686893 -2.289905
v -0.4624758 2.320095 -2.417327
v 0.4342344 3.018484 -0.05964065
v 0.4342344 3.209618 0.03964186
v -0.4624758 3.293551 0.1141951
v -0.4624758 3.018484 -0.05964065
v 0.4342344 4.278824 1.053907
v 0.4342344 4.340099 1.478082
v -0.4624758 4.40649 1.626092
v -0.4624758 4.278824 1.053907
v 0.4342344 4.47276 1.774102
v 0.4342344 4.359346 2.397085
v -0.4624758 4.359346 2.397085
v -0.4624758 4.40649 1.626092
v 0.4342344 4.359346 2.397085
v 0.4342344 4.031044 2.769242
v -0.4624758 4.031044 2.769242
v -0.4624758 4.359346 2.397085
vt 0.3961163 0.5724362
vt 0.3961163 0.5664794
vt 0.3699065 0.5694578
vt 0.5658838 0.921502
vt 0.5748189 0.921502
vt 0.5658838 0.8077281
vt 0.5831584 0.9173323
vt 0.5772016 0.8077281
vt 0.5938805 0.9203107
vt 0.5980502 0.8077281
vt 0.6385562 0.8077281
vt 0.5968589 0.9298415
vt 0.6141335 0.9316285
vt 0.605794 0.9334155
vt 0.6421303 0.9369896
vt 0.6534481 0.9405636
vt 0.6766794 0.965582
vt 0.6582135 0.9483074
vt 0.6915713 0.8077281
vt 0.6826361 0.9751128
vt 0.7285032 0.9703474
vt 0.7481605 0.8077281
vt 0.7481605 0.9703474
vt 0.6975281 0.9792826
vt 0.7183767 0.9786869
vt 0.7481605 0.9268631
vt 0.7481605 0.8077281
vt 0.7386297 0.9262674
vt 0.7296945 0.9209064
vt 0.7386297 0.8077281
vt 0.7189723 0.9232891
vt 0.717781 0.8077281
vt 0.6772751 0.8077281
vt 0.7153983 0.9322242
vt 0.6969324 0.9328198
vt 0.7088459 0.9357982
vt 0.7022935 0.9357982
vt 0.6689357 0.9357982
vt 0.6570221 0.9381809
vt 0.6337907 0.9608166
vt 0.6337907 0.8077281
vt 0.6546394 0.9429463
vt 0.6504697 0.9477118
vt 0.6224729 0.8077281
vt 0.6284297 0.9697517
vt 0.5843497 0.9626036
vt 0.5658838 0.8077281
vt 0.5658838 0.9614123
vt 0.6171119 0.9715388
vt 0.6093681 0.9745172
vt 0.5938805 0.9709431
vt 0.3961163 0.693954
vt 0.3699065 0.6862102
vt 0.3699065 0.693954
vt 0.3961163 0.6862102
vt 0.3699065 0.6772751
vt 0.3961163 0.6772751
vt 0.3699065 0.66834
vt 0.3961163 0.66834
vt 0.7481605 0.8077281
vt 0.7481605 0.9268631
vt 0.7737745 0.9280545
vt 0.7737745 0.8077281
vt 0.3961163 0.5432481
vt 0.3961163 0.5277605
vt 0.3699065 0.5277605
vt 0.3699065 0.5438437
vt 0.7737745 0.9709431
vt 0.7737745 0.8077281
vt 0.7481605 0.8077281
vt 0.7481605 0.9703474
vt 0.3961163 0.5897108
vt 0.3961163 0.58018
vt 0.3699065 0.58018
vt 0.3699065 0.5897108
vt 0.3961163 0.6063897
vt 0.3699065 0.6087724
vt 0.3961163 0.6105595
vt 0.3961163 0.6242599
vt 0.3961163 0.6159205
vt 0.3699065 0.6159205
vt 0.3699065 0.6242599
vt 0.3961163 0.6433216
vt 0.3961163 0.6242599
vt 0.3699065 0.6242599
vt 0.3699065 0.6433216
vt 0.3961163 0.648087
vt 0.3699065 0.649874
vt 0.3961163 0.6522567
vt 0.3961163 0.6582135
vt 0.3699065 0.6576178
vt 0.3961163 0.66834
vt 0.3961163 0.6582135
vt 0.3699065 0.6576178
vt 0.3699065 0.66834
vt 0.3961163 0.6159205
vt 0.3961163 0.6105595
vt 0.3699065 0.6087724
vt 0.3699065 0.6159205
vt 0.3961163 0.58018
vt 0.3961163 0.5724362
vt 0.3699065 0.5694578
vt 0.3699065 0.58018
vt 0.3961163 0.5664794
vt 0.3961163 0.5545659
vt 0.3699065 0.5551616
vt 0.3699065 0.5694578
vt 0.3961163 0.5545659
vt 0.3961163 0.5432481
vt 0.3699065 0.5438437
vt 0.3699065 0.5551616
vn -0.003921509 0.9137185 -0.4063289
vn -0.003921509 0.9137185 -0.4063289
vn -0.003921509 0.9137185 -0.4063289
vn -0.9999923 0.003921509 -0.0003449296
vn -0.9999923 0.003921509 -0.0003449296
vn -0.9999923 0.003921509 -0.0003449296
vn -0.9999923 0.003921509 -0.0003449296
vn -0.9999923 0.003921509 -0.0003449296
vn -0.9999923 -0.003921568 -0.0003442513
vn -0.9999923 -0.003921568 -0.0003442513
vn -0.9999923 0.003921509 -0.0003449296
vn -0.9999923 0.003921509 -0.0003449296
vn -0.9999923 0.003921509 -0.0003449296
vn -0.9999923 0.003921509 -0.0003449296
vn -0.9999923 0.003921509 -0.0003449296
vn -0.9999923 0.003921509 -0.0003449296
vn -0.9999923 0.003921509 -0.0003449296
vn -0.9999923 0.003921509 -0.0003449296
vn -0.9999923 0.003921509 -0.0003449296
vn -0.9999923 0.003921509 -0.0003449296
vn -0.9999923 0.003921509 -0.0003449296
vn -0.9999923 0.003921509 -0.0003449296
vn -0.9999923 0.003921509 -0.0003449296
vn -0.9999923 0.003921509 -0.0003449296
vn -0.9999923 0.003921509 -0.0003449296
vn 0.9999924 0.003921509 0
vn 0.9999924 -0.003921568 0
vn 0.9999924 -0.003921568 0
vn 0.9999924 -0.003921568 0
vn 0.9999924 -0.003921568 0
vn 0.9999924 -0.003921568 0
vn 0.9999924 -0.003921568 0
vn 0.9999924 -0.003921568 0
vn 0.9999924 -0.003921568 0
vn 0.9999924 0.003921509 0
vn 0.9999924 0.003921509 0
vn 0.9999924 0.003921509 0
vn 0.9999924 0.003921509 0
vn 0.9999924 -0.003921568 0
vn 0.9999924 0.003921509 0
vn 0.9999924 0.003921509 0
vn 0.9999924 0.003921509 0
vn 0.9999924 0.003921509 0
vn 0.9999924 -0.003921568 0
vn 0.9999924 -0.003921568 0
vn 0.9999924 -0.003921568 0
vn 0.9999924 -0.003921568 0
vn 0.9999924 0.003921509 0
vn 0.9999924 0.003921509 0
vn 0.9999924 -0.003921568 0
vn 0.9999924 -0.003921568 0
vn -0.003921509 0.9999923 -0.000345267
vn -0.003921509 0.9607769 0.2772946
vn -0.003921509 0.9999923 -0.000345267
vn -0.003921509 0.9607769 0.2772946
vn -0.003921509 0.9921492 0.1249981
vn -0.003921509 0.9921492 0.1249981
vn -0.003921509 0.9686199 -0.2485156
vn -0.003921509 0.9686199 -0.2485156
vn -0.003921509 0.003921509 -0.9999846
vn -0.003921509 0.003921509 -0.9999846
vn -0.003921509 0.003921509 -0.9999846
vn -0.003921509 0.003921509 -0.9999846
vn -0.003921509 0.9999923 -0.000345267
vn -0.003921509 0.9999923 -0.000345267
vn -0.003921509 0.9999923 -0.000345267
vn -0.003921509 0.9999923 -0.000345267
vn -0.003921509 0.003921509 0.9999846
vn -0.003921509 0.003921509 0.9999846
vn -0.003921509 0.003921509 0.9999846
vn -0.003921509 0.003921509 0.9999846
vn -0.003921509 0.6941123 -0.7198561
vn -0.003921509 0.5058784 -0.8625959
vn -0.003921509 0.5058784 -0.8625959
vn -0.003921509 0.6941123 -0.7198561
vn -0.01176453 0.7568569 -0.6534747
vn -0.01176453 0.7646999 -0.6442792
vn 0.003921568 0.66274 -0.7488393
vn -0.003921509 0.9607769 -0.2772946
vn -0.003921509 0.9607769 -0.2772946
vn -0.003921509 0.9607769 -0.2772946
vn -0.003921509 0.9607769 -0.2772946
vn -0.003921509 0.9999923 -0.000345267
vn -0.003921509 0.9921492 -0.1249981
vn -0.003921509 0.9921492 -0.1249981
vn -0.003921509 0.9999923 -0.000345267
vn -0.01960766 0.9764631 0.2147916
vn -0.02744056 0.9996234 0
vn -0.01960766 0.9450908 -0.3262192
vn -0.02745068 0.9137185 -0.4054196
vn -0.02745068 0.9137185 -0.4054196
vn -0.003921509 0.3254876 -0.9455382
vn -0.003921509 0.3254876 -0.9455382
vn -0.003921509 0.3254876 -0.9455382
vn -0.003921509 0.3254876 -0.9455382
vn -0.01176453 0.5058784 -0.8625245
vn -0.01176453 0.5058784 -0.8625245
vn -0.01176453 0.5058784 -0.8625245
vn -0.01176453 0.5058784 -0.8625245
vn 0.01960772 0.9843061 -0.1753769
vn 0.01960772 0.9843061 -0.1753769
vn 0.01960772 0.9843061 -0.1753769
vn 0.01960772 0.9843061 -0.1753769
vn -0.04313684 0.9921492 0.1173844
vn -0.04313684 0.9921492 0.1173844
vn -0.04313684 0.9921492 0.1173844
vn -0.04313684 0.9921492 0.1173844
vn -0.003921509 0.7490138 0.6625428
vn -0.003921509 0.7490138 0.6625428
vn -0.003921509 0.7490138 0.6625428
vn -0.003921509 0.7490138 0.6625428
g EPI_WreckedBuilding_03_0
f 3/3/3 2/2/2 1/1/1
f 6/6/6 5/5/5 4/4/4
f 7/7/7 5/5/5 6/6/6
f 8/8/8 7/7/7 6/6/6
f 7/7/7 8/8/8 9/9/9
f 8/8/8 10/10/10 9/9/9
f 10/10/10 11/11/11 9/9/9
f 11/11/11 12/12/12 9/9/9
f 13/13/13 12/12/12 11/11/11
f 14/14/14 12/12/12 13/13/13
f 13/13/13 11/11/11 15/15/15
f 15/15/15 11/11/11 16/16/16
f 16/16/16 11/11/11 17/17/17
f 18/18/18 16/16/16 17/17/17
f 11/11/11 19/19/19 17/17/17
f 19/19/19 20/20/20 17/17/17
f 21/21/21 20/20/20 19/19/19
f 22/22/22 21/21/21 19/19/19
f 23/23/23 21/21/21 22/22/22
f 24/24/24 20/20/20 21/21/21
f 25/25/25 24/24/24 21/21/21
f 28/28/28 27/27/27 26/26/26
f 28/28/28 29/29/29 27/27/27
f 29/29/29 30/30/30 27/27/27
f 30/30/30 29/29/29 31/31/31
f 32/32/32 30/30/30 31/31/31
f 33/33/33 32/32/32 31/31/31
f 34/34/34 33/33/33 31/31/31
f 34/34/34 35/35/35 33/33/33
f 34/34/34 36/36/36 35/35/35
f 36/36/36 37/37/37 35/35/35
f 33/33/33 35/35/35 38/38/38
f 33/33/33 38/38/38 39/39/39
f 33/33/33 39/39/39 40/40/40
f 41/41/41 33/33/33 40/40/40
f 39/39/39 42/42/42 40/40/40
f 42/42/42 43/43/43 40/40/40
f 44/44/44 41/41/41 40/40/40
f 45/45/45 44/44/44 40/40/40
f 45/45/45 46/46/46 44/44/44
f 46/46/46 47/47/47 44/44/44
f 46/46/46 48/48/48 47/47/47
f 45/45/45 49/49/49 46/46/46
f 49/49/49 50/50/50 46/46/46
f 50/50/50 51/51/51 46/46/46
f 54/54/54 53/53/53 52/52/52
f 53/53/53 55/55/55 52/52/52
f 53/53/53 56/56/56 55/55/55
f 56/56/56 57/57/57 55/55/55
f 56/56/56 58/58/58 57/57/57
f 58/58/58 59/59/59 57/57/57
f 62/62/62 61/61/61 60/60/60
f 63/63/63 62/62/62 60/60/60
f 66/66/66 65/65/65 64/64/64
f 67/67/67 66/66/66 64/64/64
f 70/70/70 69/69/69 68/68/68
f 71/71/71 70/70/70 68/68/68
f 74/74/74 73/73/73 72/72/72
f 75/75/75 74/74/74 72/72/72
f 75/75/75 72/72/72 76/76/76
f 77/77/77 75/75/75 76/76/76
f 77/77/77 76/76/76 78/78/78
f 81/81/81 80/80/80 79/79/79
f 82/82/82 81/81/81 79/79/79
f 85/85/85 84/84/84 83/83/83
f 86/86/86 85/85/85 83/83/83
f 86/86/86 83/83/83 87/87/87
f 88/88/88 86/86/86 87/87/87
f 88/88/88 87/87/87 89/89/89
f 88/88/88 89/89/89 90/90/90
f 91/91/91 88/88/88 90/90/90
f 94/94/94 93/93/93 92/92/92
f 95/95/95 94/94/94 92/92/92
f 98/98/98 97/97/97 96/96/96
f 99/99/99 98/98/98 96/96/96
f 102/102/102 101/101/101 100/100/100
f 103/103/103 102/102/102 100/100/100
f 106/106/106 105/105/105 104/104/104
f 107/107/107 106/106/106 104/104/104
f 110/110/110 109/109/109 108/108/108
f 111/111/111 110/110/110 108/108/108
