g EPI_Rock_01
v -1.209391 -0.2373363 0.7991089
v -1.439239 -0.2373363 0.5517359
v -1.372828 0.03647816 0.5364069
v -1.219449 -0.04460323 0.2066349
v -1.14298 0.03647816 0.7837797
v -1.00168 0.02690303 0.8820349
v -1.068092 -0.2373363 0.897364
v 0.2057558 0.1719798 0.8249792
v -0.9201158 0.2216564 0.8600734
v -1.125147 0.2548181 0.474871
v 0.1794021 0.4521191 0.7108241
v 0.7496072 0.1415414 0.89508
v -1.162482 0.2284205 0.3046265
v -0.3223274 0.407757 0.1391256
v -0.8223439 0.2634709 0.09234786
v -0.890468 -0.03384221 0.01003671
v 0.7184221 0.5605643 0.7440296
v 0.03770733 0.5386908 0.09713542
v -0.7248353 0.3723993 -0.3533362
v 1.347703 0.4824258 0.4998631
v 1.385477 0.1144849 0.662553
v 1.439238 0.1588908 0.3827651
v 1.41407 0.1588908 -0.2127835
v -0.7552739 0.007708788 -0.4964365
v 0.5320578 0.5861713 -0.05338776
v -0.2698836 0.5353527 -0.3330439
v 1.192919 0.5016639 -0.1682458
v 0.3936573 0.5605643 -0.6590385
v 0.7156988 0.4244038 -0.8769392
v 1.061986 0.0824213 -0.7415693
v -0.3138942 -0.1241473 -0.5236247
v 0.3429705 -0.08575881 -0.8973633
v -0.7195207 -0.4403032 -0.3547417
v 1.180665 -0.2901753 -0.4824252
v 1.41407 0.1588908 -0.2127835
v -0.2698836 -0.387552 -0.3330439
v -0.7868103 -0.4623525 0.1112347
v 1.439238 -0.3169242 0.3827651
v 1.439238 0.1588908 0.3827651
v 0.3964683 -0.36704 -0.6595216
v -0.2978624 -0.4744751 0.1827409
v -1.144429 -0.4714444 0.3768795
v -1.439239 -0.2373363 0.5517359
v -1.121721 -0.4970953 0.4739926
v -1.030845 -0.4970953 0.7534291
v -1.209391 -0.2373363 0.7991089
v -1.068092 -0.2373363 0.897364
v 0.2008364 -0.387552 0.803589
v 0.2057558 0.1719798 0.8249792
v 0.03770733 -0.4163654 0.09713542
v 0.7169726 -0.5402714 0.7443811
v 0.7496072 0.1415414 0.89508
v 0.5320578 -0.5658783 -0.05338776
v 1.370543 -0.4383706 0.6171368
v 1.385477 0.1144849 0.662553
v 1.334482 -0.5227462 0.444213
v 0.8820342 -0.5861707 -0.4122366
vt 0.3833784 0.7106653
vt 0.3813456 0.7220492
vt 0.3882572 0.7216426
vt 0.3915098 0.7330265
vt 0.3902901 0.7126981
vt 0.3927295 0.7082259
vt 0.3858178 0.70538
vt 0.4240352 0.6919632
vt 0.3976083 0.7102587
vt 0.3955754 0.7208295
vt 0.4264746 0.699688
vt 0.4423307 0.6878976
vt 0.3955754 0.7253017
vt 0.4175301 0.7179835
vt 0.405333 0.7261149
vt 0.4012674 0.7350594
vt 0.4407044 0.6984683
vt 0.4268811 0.7155441
vt 0.4134644 0.729774
vt 0.4573737 0.7037537
vt 0.4618459 0.6964355
vt 0.4659116 0.70538
vt 0.4655051 0.724082
vt 0.4126513 0.7370922
vt 0.4398913 0.7167639
vt 0.423222 0.7265214
vt 0.4565606 0.7208295
vt 0.4386716 0.729774
vt 0.4463964 0.7350594
vt 0.4557474 0.7427841
vt 0.4211892 0.741971
vt 0.4378585 0.7427841
vt 0.4098053 0.744817
vt 0.4529015 0.7553878
vt 0.4646919 0.7627059
vt 0.4183432 0.7492892
vt 0.4016739 0.7484761
vt 0.450462 0.7773424
vt 0.4594066 0.7814081
vt 0.4354191 0.7496958
vt 0.411025 0.7586403
vt 0.3915098 0.747663
vt 0.3817521 0.744817
vt 0.3902901 0.7505089
vt 0.3886638 0.7578272
vt 0.3813456 0.7562009
vt 0.3829719 0.7627059
vt 0.4159038 0.7793752
vt 0.4118381 0.792792
vt 0.4191563 0.7610797
vt 0.4293205 0.7805949
vt 0.4301337 0.7972642
vt 0.4313534 0.7627059
vt 0.4451767 0.7810015
vt 0.4520883 0.7891328
vt 0.4451767 0.7769358
vt 0.4423307 0.7582337
vn -0.6785418 -0.2220165 0.7002069
vn -0.9674355 -0.2531176 0
vn -0.8899772 0.4436135 0.1055823
vn -0.6942036 0.02074265 -0.7194797
vn -0.6315562 0.4044588 0.6614755
vn -0.2791637 0.1695305 0.9451598
vn -0.2869947 -0.1202143 0.9503592
vn -0.02074265 0.1225449 0.9922462
vn -0.2478399 0.655049 0.713783
vn -0.4436135 0.8899772 0.1055823
vn -0.1303759 0.7960058 0.591081
vn 0.1358762 0.08339024 0.98721
vn -0.5610776 0.7255274 -0.3984996
vn -0.2713327 0.9526247 0.1374219
vn -0.5610776 0.780344 -0.2761433
vn -0.8351606 -0.002750158 -0.5499992
vn 0.08105958 0.7960058 0.5998366
vn -0.1930233 0.9761175 0.09968265
vn -0.5610776 0.6785418 -0.4741023
vn 0.6292255 0.7098656 0.3164904
vn 0.7231968 0.1225449 0.6796831
vn 0.9894488 0.1303759 0.06319099
vn 0.9268013 0.1695305 -0.3351102
vn -0.6002324 0.01291168 -0.7997215
vn 0.02624297 0.9996104 -0.009502686
vn -0.3104875 0.8664844 -0.3908993
vn 0.5509161 0.8038368 -0.224361
vn -0.2008543 0.8273296 -0.524579
vn 0.1750309 0.5610776 -0.8090464
vn 0.6057327 -0.002750158 -0.7956635
vn -0.2478399 -0.1750309 -0.9528586
vn -0.1773615 -0.2063547 -0.9622685
vn -0.4671063 -0.7153659 -0.5196761
vn 0.6918731 -0.4491138 -0.5653392
vn 0.9268013 0.1695305 -0.3351102
vn -0.08339024 -0.8641537 -0.4962704
vn -0.3887969 -0.8563228 -0.3399238
vn 0.9489158 -0.3155295 0
vn 0.9894488 0.1303759 0.06319099
vn -0.09122109 -0.7780134 -0.6215898
vn 0.08878104 -0.9960511 0
vn -0.506261 -0.7388587 -0.4447332
vn -0.9674355 -0.2531176 0
vn -0.3496422 -0.9346322 0.06490698
vn -0.2243471 -0.7780134 0.586825
vn -0.6785418 -0.2220165 0.7002069
vn -0.2869947 -0.1202143 0.9503592
vn -0.05989742 -0.6840421 0.7269791
vn -0.02074265 0.1225449 0.9922462
vn -0.05206645 -0.9972798 -0.05217417
vn -0.005080819 -0.7701825 0.6378034
vn 0.1358762 0.08339024 0.98721
vn -0.1460132 -0.9892827 0
vn 0.6605493 -0.3159878 0.681048
vn 0.7231968 0.1225449 0.6796831
vn 0.5822399 -0.7936753 0.1762846
vn 0.2141856 -0.8798156 -0.4243217
g EPI_Rock_01_0
f 3/3/3 2/2/2 1/1/1
f 4/4/4 2/2/2 3/3/3
f 5/5/5 3/3/3 1/1/1
f 6/6/6 5/5/5 1/1/1
f 7/7/7 6/6/6 1/1/1
f 8/8/8 6/6/6 7/7/7
f 5/5/5 6/6/6 9/9/9
f 9/9/9 6/6/6 8/8/8
f 3/3/3 5/5/5 10/10/10
f 5/5/5 9/9/9 10/10/10
f 11/11/11 9/9/9 8/8/8
f 8/8/8 12/12/12 11/11/11
f 13/13/13 4/4/4 3/3/3
f 10/10/10 13/13/13 3/3/3
f 10/10/10 9/9/9 14/14/14
f 9/9/9 11/11/11 14/14/14
f 15/15/15 13/13/13 10/10/10
f 10/10/10 14/14/14 15/15/15
f 16/16/16 4/4/4 13/13/13
f 15/15/15 16/16/16 13/13/13
f 12/12/12 17/17/17 11/11/11
f 11/11/11 18/18/18 14/14/14
f 11/11/11 17/17/17 18/18/18
f 19/19/19 15/15/15 14/14/14
f 19/19/19 14/14/14 18/18/18
f 17/17/17 12/12/12 20/20/20
f 12/12/12 21/21/21 20/20/20
f 20/20/20 21/21/21 22/22/22
f 22/22/22 23/23/23 20/20/20
f 19/19/19 24/24/24 15/15/15
f 24/24/24 16/16/16 15/15/15
f 17/17/17 25/25/25 18/18/18
f 25/25/25 17/17/17 20/20/20
f 26/26/26 19/19/19 18/18/18
f 24/24/24 19/19/19 26/26/26
f 26/26/26 18/18/18 25/25/25
f 23/23/23 27/27/27 20/20/20
f 27/27/27 25/25/25 20/20/20
f 28/28/28 26/26/26 25/25/25
f 25/25/25 27/27/27 28/28/28
f 27/27/27 23/23/23 29/29/29
f 27/27/27 29/29/29 28/28/28
f 23/23/23 30/30/30 29/29/29
f 31/31/31 24/24/24 26/26/26
f 31/31/31 26/26/26 28/28/28
f 32/32/32 28/28/28 29/29/29
f 32/32/32 29/29/29 30/30/30
f 32/32/32 31/31/31 28/28/28
f 24/24/24 33/33/33 16/16/16
f 24/24/24 31/31/31 33/33/33
f 32/32/32 30/30/30 34/34/34
f 30/30/30 35/35/35 34/34/34
f 31/31/31 32/32/32 36/36/36
f 31/31/31 36/36/36 33/33/33
f 33/33/33 37/37/37 16/16/16
f 16/16/16 37/37/37 4/4/4
f 34/34/34 35/35/35 38/38/38
f 35/35/35 39/39/39 38/38/38
f 32/32/32 34/34/34 40/40/40
f 32/32/32 40/40/40 36/36/36
f 33/33/33 36/36/36 41/41/41
f 33/33/33 41/41/41 37/37/37
f 37/37/37 42/42/42 4/4/4
f 4/4/4 42/42/42 43/43/43
f 37/37/37 44/44/44 42/42/42
f 42/42/42 44/44/44 43/43/43
f 41/41/41 44/44/44 37/37/37
f 43/43/43 44/44/44 45/45/45
f 45/45/45 44/44/44 41/41/41
f 46/46/46 43/43/43 45/45/45
f 47/47/47 46/46/46 45/45/45
f 47/47/47 45/45/45 48/48/48
f 48/48/48 45/45/45 41/41/41
f 49/49/49 47/47/47 48/48/48
f 36/36/36 50/50/50 41/41/41
f 36/36/36 40/40/40 50/50/50
f 48/48/48 41/41/41 50/50/50
f 49/49/49 48/48/48 51/51/51
f 52/52/52 49/49/49 51/51/51
f 48/48/48 50/50/50 53/53/53
f 40/40/40 53/53/53 50/50/50
f 51/51/51 48/48/48 53/53/53
f 52/52/52 51/51/51 54/54/54
f 54/54/54 55/55/55 52/52/52
f 39/39/39 55/55/55 54/54/54
f 38/38/38 39/39/39 54/54/54
f 51/51/51 56/56/56 54/54/54
f 51/51/51 53/53/53 56/56/56
f 54/54/54 56/56/56 38/38/38
f 40/40/40 57/57/57 53/53/53
f 53/53/53 57/57/57 56/56/56
f 38/38/38 56/56/56 57/57/57
f 34/34/34 57/57/57 40/40/40
f 34/34/34 38/38/38 57/57/57
