g EPI_TreeTrunk_01
v -0.1929429 -2.090187 -0.463428
v 0.03131819 -2.090187 -0.4741346
v 0.06087351 -1.678657 -0.3754033
v -0.2561564 -1.62397 -0.411562
v -0.4709933 -1.802648 -0.4353473
v -0.387841 -1.62397 -0.1530654
v -0.5644033 -2.090187 -0.5033693
v -0.8311062 -2.07948 -0.406369
v -0.2043548 -0.4664413 -0.3107151
v 0.08850551 -0.4961889 -0.342386
v -0.2365384 -0.4664413 -0.02548409
v -0.2464757 0.8348246 -0.3107151
v 0.01458526 0.8348246 -0.4262435
v -0.2380772 2.100765 -0.3046244
v 0.01721382 2.100765 -0.4175885
v -0.2807753 2.100765 0.1000457
v -0.2901356 0.8348246 0.1029949
v -0.04401255 2.097624 0.3305256
v -0.04805136 0.831619 0.3387318
v 0.2844936 2.093905 0.3761086
v -0.1044693 -0.4992661 0.2692993
v 0.2878274 0.8277724 0.3853407
v 0.5524786 2.100765 -0.02952313
v 0.1776201 -0.4452845 0.4266925
v -0.153194 -1.682183 0.3176394
v 0.5618387 0.8348246 -0.02939487
v 0.4284233 2.100765 -0.364889
v 0.4350268 0.8348246 -0.3723259
v 0.01721382 2.100765 -0.4175885
v 0.01458526 0.8348246 -0.4262435
v 0.5712631 -0.3400139 -0.03631902
v 0.4300902 -0.40233 0.2894945
v 0.354503 -0.3400139 -0.4829819
v 0.08850551 -0.4961889 -0.342386
v 0.3698256 -1.391054 -0.5327964
v 0.06087351 -1.678657 -0.3754033
v 0.03131819 -2.090187 -0.4741346
v 0.2898788 -2.090187 -0.6360154
v 0.5342709 -0.3400139 -0.2764155
v 0.6069089 -1.391054 -0.02618933
v 0.5674164 -1.391054 -0.2926998
v 0.1485136 -1.580054 0.475481
v 0.4481055 -1.50094 0.3403347
v 0.4880468 -1.778478 -0.6591597
v 0.6349256 -1.778478 -0.5668395
v 0.6715972 -2.090187 -0.3693128
v 0.7511593 -2.090187 -0.02022696
v 0.5894707 -2.09788 0.3730955
v 0.6930103 -1.89984 -0.7416067
v 0.8331575 -2.090187 -0.8625205
v 0.5985104 -1.879453 -0.835722
v 0.6804446 -2.090187 -0.9440058
v 0.4666977 -1.834383 0.5753024
v 0.4429125 -2.09788 0.9041929
v 0.3188572 -2.09788 0.944006
v 0.2989826 -1.834383 0.6555054
v 0.1174196 -2.09788 0.5553637
v -0.2044828 -2.093649 0.3518746
v -0.4084849 -2.090187 -0.07722187
v -0.5247185 -1.838294 -0.2425648
v -0.6475556 -2.066081 -0.2286526
v -0.6695459 -1.914842 -0.2935973
v -0.8331578 -2.100765 -0.2339097
v -0.6657634 -1.886056 -0.4183578
v 0.01721382 2.100765 -0.4175885
v 0.4284233 2.100765 -0.364889
v 0.1231897 2.099291 -0.03933215
v -0.2380772 2.100765 -0.3046244
v 0.5524786 2.100765 -0.02952313
v -0.2807753 2.100765 0.1000457
v 0.2844936 2.093905 0.3761086
v -0.04401255 2.097624 0.3305256
vt 0.2585705 0.2553651
vt 0.2539405 0.2592828
vt 0.2614198 0.2667621
vt 0.2699676 0.2632006
vt 0.2692553 0.2553651
vt 0.2781592 0.2610636
vt 0.2635567 0.2485981
vt 0.2681868 0.2428996
vt 0.2792277 0.293474
vt 0.2710361 0.2941863
vt 0.2870632 0.2927617
vt 0.27994 0.3290898
vt 0.2721045 0.3290898
vt 0.2802961 0.3636371
vt 0.2724607 0.3639932
vt 0.291337 0.3636371
vt 0.2909809 0.3287336
vt 0.300241 0.3632809
vt 0.300241 0.3280213
vt 0.3091449 0.3629248
vt 0.2963232 0.2909809
vt 0.3091449 0.3276651
vt 0.3223228 0.3636371
vt 0.3052272 0.2920493
vt 0.293474 0.2585705
vt 0.3226789 0.3283775
vt 0.331939 0.3636371
vt 0.3326513 0.3287336
vt 0.3433361 0.3643494
vt 0.3444045 0.3298021
vt 0.3233912 0.2956109
vt 0.3134188 0.2931178
vt 0.3372814 0.2970356
vt 0.3461853 0.2945425
vt 0.3433361 0.2692553
vt 0.3554454 0.2671183
vt 0.3629248 0.2589267
vt 0.3565139 0.2539405
vt 0.3298021 0.2959671
vt 0.3258843 0.266406
vt 0.334076 0.2674745
vt 0.3038025 0.259639
vt 0.3141311 0.2621321
vt 0.3468976 0.2571459
vt 0.3422676 0.2553651
vt 0.3365691 0.2478858
vt 0.3283775 0.2475296
vt 0.3191173 0.2457488
vt 0.345473 0.2500227
vt 0.3468976 0.2428996
vt 0.3483223 0.2510912
vt 0.3508154 0.2446804
vt 0.311638 0.2503789
vt 0.3091449 0.2389818
vt 0.3059395 0.2386257
vt 0.3066518 0.2496666
vt 0.2995287 0.2457488
vt 0.291337 0.2471735
vt 0.2806523 0.2482419
vt 0.2745976 0.2535843
vt 0.27531 0.2457488
vt 0.2724607 0.2489543
vt 0.2724607 0.2418311
vt 0.2696114 0.2496666
vt 0 0
vt 0 0
vt 0 0
vt 0 0
vt 0 0
vt 0 0
vt 0 0
vt 0 0
vn 0.0648427 0.1683334 -0.9835951
vn -0.3315567 0.1994236 -0.9221174
vn -0.2616038 0.1139256 -0.9584281
vn -0.4636897 0.1605608 -0.8713278
vn -0.3704193 0.5336425 -0.7602731
vn -0.9689046 0.1372433 0.2058838
vn -0.1139256 0.2305137 -0.966377
vn -0.6657757 0.5958228 -0.4491525
vn -0.7046384 0.02065516 -0.7092659
vn -0.2382863 0.02065516 -0.9709753
vn -0.9766771 0.02065516 0.2137178
vn -0.8367715 -0.01820749 -0.5472494
vn -0.1372433 -0.00266242 -0.9905338
vn -0.8678616 0.005110145 -0.4967797
vn -0.090608 0.005110145 -0.9958735
vn -0.9533595 0.005110145 0.3017939
vn -0.961132 -0.01820749 0.275488
vn -0.4403721 0.005110145 0.8978008
vn -0.4481447 -0.00266242 0.8939571
vn 0.5156498 0.005110145 0.8567842
vn -0.7435011 0.02065516 0.6684157
vn 0.5545124 0.02065516 0.8319191
vn 0.9820019 0.005110145 0.1888018
vn -0.03620028 0.02842772 0.9989402
vn -0.7590461 0.090608 0.6447009
vn 0.9820019 0.02065516 0.1877382
vn 0.5856026 0.005110145 -0.8105822
vn 0.5467399 0.01288265 -0.8372034
vn -0.090608 0.005110145 -0.9958735
vn -0.1372433 -0.00266242 -0.9905338
vn 0.9820019 0.03620028 0.1853693
vn 0.6944181 0.03620028 0.7186606
vn 0.1347955 0.02842772 -0.9904656
vn -0.2382863 0.02065516 -0.9709753
vn -0.02065516 0.1294707 -0.9913681
vn -0.2616038 0.1139256 -0.9584281
vn -0.3315567 0.1994236 -0.9221174
vn -0.5569601 0.2071961 -0.8042793
vn 0.9120491 0.03620028 -0.4084802
vn 0.9820019 0.09838057 0.161225
vn 0.9198216 0.1216981 -0.3729849
vn -0.1838784 0.1294707 0.974385
vn 0.7565984 0.1372433 0.6393147
vn 0.08038777 0.510325 -0.8562163
vn 0.8654138 0.409282 -0.2890452
vn 0.9742293 0.1994236 -0.1053919
vn 0.9664568 0.2071961 0.1517595
vn 0.9042765 0.2149686 0.36888
vn 0.7643709 0.6346855 -0.1136283
vn 0.7643709 0.6113679 -0.2048568
vn -0.191651 0.5802778 -0.7915476
vn -0.02065516 0.510325 -0.8597336
vn 0.6711005 0.4947798 0.5521024
vn 0.5234223 0.6424581 0.5597113
vn -0.1761059 0.7279559 0.6626212
vn -0.1527883 0.5958228 0.7884485
vn -0.5958228 0.1994236 0.7779624
vn -0.7590461 0.1450157 0.6346806
vn -0.8600891 0.1450157 0.4890984
vn -0.7124109 0.6113679 0.3445285
vn -0.3626468 0.3315567 0.870952
vn -0.5569601 0.6968658 0.4518556
vn -0.6657757 0.6346855 0.3923227
vn -0.4947798 0.5958228 -0.6326042
vn 0.00266242 0.9999948 0.001843221
vn -0.005110105 0.999987 0
vn 0.00266242 0.9999948 0.001843221
vn 0.00266242 0.9999948 0.001843221
vn -0.005110105 0.999987 0
vn 0.00266242 0.9999948 0.001843221
vn 0.00266242 0.9999948 0.001843221
vn 0.01043441 0.9999456 0
g EPI_TreeTrunk_01_0
f 3/3/3 2/2/2 1/1/1
f 4/4/4 3/3/3 1/1/1
f 1/1/1 5/5/5 4/4/4
f 4/4/4 5/5/5 6/6/6
f 1/1/1 7/7/7 5/5/5
f 7/7/7 8/8/8 5/5/5
f 4/4/4 9/9/9 3/3/3
f 9/9/9 10/10/10 3/3/3
f 6/6/6 11/11/11 4/4/4
f 11/11/11 9/9/9 4/4/4
f 9/9/9 12/12/12 10/10/10
f 12/12/12 13/13/13 10/10/10
f 12/12/12 14/14/14 13/13/13
f 14/14/14 15/15/15 13/13/13
f 16/16/16 14/14/14 12/12/12
f 17/17/17 12/12/12 9/9/9
f 17/17/17 16/16/16 12/12/12
f 11/11/11 17/17/17 9/9/9
f 18/18/18 16/16/16 17/17/17
f 19/19/19 18/18/18 17/17/17
f 19/19/19 17/17/17 11/11/11
f 20/20/20 18/18/18 19/19/19
f 21/21/21 11/11/11 6/6/6
f 21/21/21 19/19/19 11/11/11
f 22/22/22 20/20/20 19/19/19
f 23/23/23 20/20/20 22/22/22
f 24/24/24 19/19/19 21/21/21
f 22/22/22 19/19/19 24/24/24
f 25/25/25 21/21/21 6/6/6
f 24/24/24 21/21/21 25/25/25
f 26/26/26 23/23/23 22/22/22
f 27/27/27 23/23/23 26/26/26
f 28/28/28 27/27/27 26/26/26
f 29/29/29 27/27/27 28/28/28
f 30/30/30 29/29/29 28/28/28
f 31/31/31 26/26/26 22/22/22
f 28/28/28 26/26/26 31/31/31
f 32/32/32 22/22/22 24/24/24
f 32/32/32 31/31/31 22/22/22
f 30/30/30 28/28/28 33/33/33
f 34/34/34 30/30/30 33/33/33
f 34/34/34 33/33/33 35/35/35
f 36/36/36 34/34/34 35/35/35
f 36/36/36 35/35/35 37/37/37
f 35/35/35 38/38/38 37/37/37
f 39/39/39 28/28/28 31/31/31
f 33/33/33 28/28/28 39/39/39
f 39/39/39 31/31/31 40/40/40
f 40/40/40 31/31/31 32/32/32
f 33/33/33 39/39/39 41/41/41
f 35/35/35 33/33/33 41/41/41
f 41/41/41 39/39/39 40/40/40
f 32/32/32 24/24/24 42/42/42
f 42/42/42 24/24/24 25/25/25
f 43/43/43 40/40/40 32/32/32
f 43/43/43 32/32/32 42/42/42
f 35/35/35 44/44/44 38/38/38
f 41/41/41 45/45/45 35/35/35
f 45/45/45 44/44/44 35/35/35
f 46/46/46 41/41/41 40/40/40
f 46/46/46 45/45/45 41/41/41
f 47/47/47 46/46/46 40/40/40
f 47/47/47 40/40/40 43/43/43
f 48/48/48 47/47/47 43/43/43
f 46/46/46 49/49/49 45/45/45
f 45/45/45 49/49/49 44/44/44
f 46/46/46 50/50/50 49/49/49
f 44/44/44 51/51/51 38/38/38
f 49/49/49 51/51/51 44/44/44
f 49/49/49 50/50/50 51/51/51
f 51/51/51 52/52/52 38/38/38
f 50/50/50 52/52/52 51/51/51
f 43/43/43 53/53/53 48/48/48
f 53/53/53 54/54/54 48/48/48
f 54/54/54 53/53/53 55/55/55
f 56/56/56 53/53/53 43/43/43
f 53/53/53 56/56/56 55/55/55
f 42/42/42 56/56/56 43/43/43
f 57/57/57 55/55/55 56/56/56
f 57/57/57 56/56/56 42/42/42
f 57/57/57 42/42/42 25/25/25
f 58/58/58 57/57/57 25/25/25
f 58/58/58 25/25/25 6/6/6
f 59/59/59 58/58/58 6/6/6
f 6/6/6 60/60/60 59/59/59
f 60/60/60 61/61/61 59/59/59
f 5/5/5 60/60/60 6/6/6
f 60/60/60 62/62/62 61/61/61
f 62/62/62 63/63/63 61/61/61
f 8/8/8 63/63/63 62/62/62
f 5/5/5 64/64/64 60/60/60
f 64/64/64 62/62/62 60/60/60
f 64/64/64 8/8/8 62/62/62
f 8/8/8 64/64/64 5/5/5
f 67/67/67 66/66/66 65/65/65
f 67/67/67 65/65/65 68/68/68
f 69/69/69 66/66/66 67/67/67
f 67/67/67 68/68/68 70/70/70
f 71/71/71 69/69/69 67/67/67
f 67/67/67 70/70/70 72/72/72
f 71/71/71 67/67/67 72/72/72
