g EPI_Rock_07
v 0.8021619 -0.2735186 -0.5456365
v 0.9658394 -0.2551553 -0.388591
v 0.9269317 -0.06951851 -0.4029456
v 0.8342902 -0.08802915 -0.1702363
v 0.7632542 -0.08791125 -0.5599616
v 0.6644229 -0.1004089 -0.619738
v 0.7035074 -0.27962 -0.6063561
v -0.1429999 0.03093404 -0.5554813
v 0.6140492 0.03352785 -0.6214181
v 0.7667029 0.08791023 -0.3750027
v -0.1157351 0.2280663 -0.5077015
v -0.5119744 0.01699209 -0.5809482
v 0.7975932 0.08587641 -0.2602841
v 0.2418913 0.2416839 -0.1394345
v 0.5772048 0.1379597 -0.1109611
v 0.6203864 -0.05392599 -0.02931392
v -0.4774881 0.3101261 -0.5223804
v 0.00369972 0.3416649 -0.1122286
v 0.5300145 0.2559796 0.1785179
v -0.8933876 0.2968326 -0.3310253
v -0.9317352 0.03674072 -0.4021202
v -0.9567894 0.09468955 -0.218311
v -0.9180291 0.1516363 0.1774568
v 0.5487904 0.02601159 0.308446
v -0.3224174 0.3997906 -4.476309E-05
v 0.2263283 0.3736164 0.1642812
v -0.7643732 0.3704625 0.106863
v -0.2076398 0.437932 0.4011759
v -0.4188612 0.3759744 0.5704244
v -0.6632722 0.1432946 0.5252973
v 0.2503803 -0.0486204 0.354251
v -0.1770737 0.02890021 0.621417
v 0.5110322 -0.2854561 0.2590745
v -0.7596866 -0.127261 0.3931292
v -0.9180291 0.1516363 0.1774568
v 0.2087904 -0.2415671 0.2545353
v 0.5387982 -0.3468242 -0.05133212
v -0.9658384 -0.2224669 -0.1717986
v -0.9567894 0.09468955 -0.218311
v -0.2271231 -0.180258 0.4922847
v 0.2070513 -0.350037 -0.08139718
v 0.7694736 -0.3871762 -0.2393565
v 0.9658394 -0.2551553 -0.388591
v 0.7501671 -0.4131146 -0.3007834
v 0.6788069 -0.437933 -0.4838264
v 0.8021619 -0.2735186 -0.5456365
v 0.7035074 -0.27962 -0.6063561
v -0.149514 -0.3400743 -0.4866855
v -0.1429999 0.03093404 -0.5554813
v -0.01445723 -0.2949473 -0.01885015
v -0.4974725 -0.4237258 -0.415001
v -0.5119744 0.01699209 -0.5809482
v -0.3443177 -0.368135 0.1126106
v -0.9305267 -0.3277535 -0.3183213
v -0.9317352 0.03674072 -0.4021202
v -0.9015523 -0.3681644 -0.1961159
v -0.5669758 -0.3385416 0.3653337
vt 0.4750898 0.6928189
vt 0.4737341 0.700411
vt 0.4783436 0.7001398
vt 0.4805127 0.7077318
vt 0.4796993 0.6941746
vt 0.4813262 0.691192
vt 0.4769878 0.6890229
vt 0.5024754 0.6800751
vt 0.4845799 0.6922766
vt 0.4832242 0.6995975
vt 0.5041023 0.6852269
vt 0.5149481 0.6773636
vt 0.4834953 0.7025801
vt 0.4981371 0.6974283
vt 0.4900028 0.7031224
vt 0.4872913 0.7090876
vt 0.5138635 0.6846846
vt 0.5043734 0.6960726
vt 0.4954257 0.7058339
vt 0.5249804 0.6882094
vt 0.527963 0.6830577
vt 0.5306745 0.689294
vt 0.5306745 0.7017667
vt 0.4946122 0.7104433
vt 0.5130501 0.6968861
vt 0.5019332 0.7033935
vt 0.5244381 0.6995975
vt 0.5122367 0.7055627
vt 0.5173884 0.7093587
vt 0.5238959 0.7142393
vt 0.5005774 0.7139682
vt 0.5116944 0.7145104
vt 0.4929854 0.7158662
vt 0.5219978 0.7229159
vt 0.529861 0.7277966
vt 0.4986794 0.7188488
vt 0.4875625 0.7180353
vt 0.520371 0.7378289
vt 0.5263361 0.7405403
vt 0.5100675 0.7191199
vt 0.4935277 0.7250851
vt 0.4805127 0.7177642
vt 0.4740053 0.7158662
vt 0.4796993 0.719391
vt 0.4788859 0.7245428
vt 0.4737341 0.7234582
vt 0.4748187 0.7277966
vt 0.4967814 0.7391846
vt 0.4943411 0.7481323
vt 0.4992217 0.726712
vt 0.5062715 0.7397269
vt 0.5068138 0.751115
vt 0.507356 0.7277966
vt 0.5168461 0.739998
vt 0.5214555 0.7456921
vt 0.5168461 0.7375578
vt 0.5149481 0.7245428
vn 0.6331185 -0.3391496 -0.6958006
vn 0.9502956 -0.2927334 -0.1060446
vn 0.8961434 0.3880367 -0.2153011
vn 0.7336869 0.1018039 0.6718181
vn 0.6021744 0.2874684 -0.744814
vn 0.2308452 0.02444363 -0.9726834
vn 0.2308452 -0.2617893 -0.9371109
vn -0.03217959 -0.02197254 -0.9992406
vn 0.2308452 0.5350213 -0.8126885
vn 0.4551899 0.8444623 -0.2822863
vn 0.1148049 0.6974778 -0.7073504
vn -0.1869001 -0.05291665 -0.9809527
vn 0.6021744 0.7516299 0.2691438
vn 0.2849974 0.9140865 -0.288483
vn 0.5944384 0.79031 0.1485025
vn 0.8651993 0.04765165 0.4991587
vn -0.08633184 0.7052138 -0.7037189
vn 0.2153732 0.9372946 -0.2740315
vn 0.6021744 0.7206858 0.3435082
vn -0.6278535 0.6742697 -0.3887935
vn -0.759366 0.04765165 -0.6489164
vn -0.9837108 0.163692 0.0742835
vn -0.9063505 0.2487884 0.3415159
vn 0.6408546 0.1018039 0.760882
vn 0.006500483 0.9914467 -0.1303501
vn 0.3546216 0.8986144 0.2583324
vn -0.5118132 0.8444623 0.1578946
vn 0.2463173 0.8908784 0.3816587
vn -0.1095399 0.6742697 0.730316
vn -0.5582293 0.1327479 0.8189982
vn 0.2927334 -0.04518062 0.9551261
vn 0.2231092 -0.07612473 0.9718165
vn 0.478398 -0.6485906 0.5920013
vn -0.6742697 -0.3391496 0.6560015
vn -0.9063505 0.2487884 0.3415159
vn 0.09159678 -0.7878391 0.6090317
vn 0.3778297 -0.8187832 0.4322486
vn -0.9527667 -0.2695253 0.1399706
vn -0.9837108 0.163692 0.0742835
vn 0.1070688 -0.6872708 0.7184672
vn -0.1172758 -0.9735036 0.1963085
vn 0.5093421 -0.6872708 0.5179088
vn 0.9502956 -0.2927334 -0.1060446
vn 0.3159415 -0.9425595 0.1084548
vn 0.1689571 -0.8651993 -0.4721055
vn 0.6331185 -0.3391496 -0.6958006
vn 0.2308452 -0.2617893 -0.9371109
vn -0.001235545 -0.7878391 -0.6158799
vn -0.03217959 -0.02197254 -0.9992406
vn 0.02970856 -0.9812397 0.190489
vn -0.04765165 -0.8574633 -0.5123339
vn -0.1869001 -0.05291665 -0.9809527
vn 0.1225409 -0.9735036 0.1930657
vn -0.7052138 -0.3855658 -0.5949895
vn -0.759366 0.04765165 -0.6489164
vn -0.6123815 -0.7878391 -0.06556301
vn -0.2101082 -0.7955751 0.568256
g EPI_Rock_07_0
f 3/3/3 2/2/2 1/1/1
f 4/4/4 2/2/2 3/3/3
f 5/5/5 3/3/3 1/1/1
f 6/6/6 5/5/5 1/1/1
f 7/7/7 6/6/6 1/1/1
f 8/8/8 6/6/6 7/7/7
f 5/5/5 6/6/6 9/9/9
f 9/9/9 6/6/6 8/8/8
f 3/3/3 5/5/5 10/10/10
f 5/5/5 9/9/9 10/10/10
f 11/11/11 9/9/9 8/8/8
f 8/8/8 12/12/12 11/11/11
f 13/13/13 4/4/4 3/3/3
f 10/10/10 13/13/13 3/3/3
f 10/10/10 9/9/9 14/14/14
f 9/9/9 11/11/11 14/14/14
f 15/15/15 13/13/13 10/10/10
f 10/10/10 14/14/14 15/15/15
f 16/16/16 4/4/4 13/13/13
f 15/15/15 16/16/16 13/13/13
f 12/12/12 17/17/17 11/11/11
f 11/11/11 18/18/18 14/14/14
f 11/11/11 17/17/17 18/18/18
f 19/19/19 15/15/15 14/14/14
f 19/19/19 14/14/14 18/18/18
f 17/17/17 12/12/12 20/20/20
f 12/12/12 21/21/21 20/20/20
f 20/20/20 21/21/21 22/22/22
f 22/22/22 23/23/23 20/20/20
f 19/19/19 24/24/24 15/15/15
f 24/24/24 16/16/16 15/15/15
f 17/17/17 25/25/25 18/18/18
f 25/25/25 17/17/17 20/20/20
f 26/26/26 19/19/19 18/18/18
f 24/24/24 19/19/19 26/26/26
f 26/26/26 18/18/18 25/25/25
f 23/23/23 27/27/27 20/20/20
f 27/27/27 25/25/25 20/20/20
f 28/28/28 26/26/26 25/25/25
f 25/25/25 27/27/27 28/28/28
f 27/27/27 23/23/23 29/29/29
f 27/27/27 29/29/29 28/28/28
f 23/23/23 30/30/30 29/29/29
f 31/31/31 24/24/24 26/26/26
f 31/31/31 26/26/26 28/28/28
f 32/32/32 28/28/28 29/29/29
f 32/32/32 29/29/29 30/30/30
f 32/32/32 31/31/31 28/28/28
f 24/24/24 33/33/33 16/16/16
f 24/24/24 31/31/31 33/33/33
f 32/32/32 30/30/30 34/34/34
f 30/30/30 35/35/35 34/34/34
f 31/31/31 32/32/32 36/36/36
f 31/31/31 36/36/36 33/33/33
f 33/33/33 37/37/37 16/16/16
f 16/16/16 37/37/37 4/4/4
f 34/34/34 35/35/35 38/38/38
f 35/35/35 39/39/39 38/38/38
f 32/32/32 34/34/34 40/40/40
f 32/32/32 40/40/40 36/36/36
f 33/33/33 36/36/36 41/41/41
f 33/33/33 41/41/41 37/37/37
f 37/37/37 42/42/42 4/4/4
f 4/4/4 42/42/42 43/43/43
f 37/37/37 44/44/44 42/42/42
f 42/42/42 44/44/44 43/43/43
f 41/41/41 44/44/44 37/37/37
f 43/43/43 44/44/44 45/45/45
f 45/45/45 44/44/44 41/41/41
f 46/46/46 43/43/43 45/45/45
f 47/47/47 46/46/46 45/45/45
f 47/47/47 45/45/45 48/48/48
f 48/48/48 45/45/45 41/41/41
f 49/49/49 47/47/47 48/48/48
f 36/36/36 50/50/50 41/41/41
f 36/36/36 40/40/40 50/50/50
f 48/48/48 41/41/41 50/50/50
f 49/49/49 48/48/48 51/51/51
f 52/52/52 49/49/49 51/51/51
f 48/48/48 50/50/50 53/53/53
f 40/40/40 53/53/53 50/50/50
f 51/51/51 48/48/48 53/53/53
f 52/52/52 51/51/51 54/54/54
f 54/54/54 55/55/55 52/52/52
f 39/39/39 55/55/55 54/54/54
f 38/38/38 39/39/39 54/54/54
f 51/51/51 56/56/56 54/54/54
f 51/51/51 53/53/53 56/56/56
f 54/54/54 56/56/56 38/38/38
f 40/40/40 57/57/57 53/53/53
f 53/53/53 57/57/57 56/56/56
f 38/38/38 56/56/56 57/57/57
f 34/34/34 57/57/57 40/40/40
f 34/34/34 38/38/38 57/57/57
