g EPI_Rock_19
v 0.5456998 -0.1554825 1.335224
v -0.2350034 -0.1600944 1.467177
v -0.2350034 0.2543911 1.418506
v -0.6670409 0.1394975 1.207345
v 0.5456998 0.2590029 1.286553
v 0.7378757 0.2482569 1.179137
v 0.7378757 -0.1517662 1.2283
v 0.8122476 -0.1279905 -0.167348
v 0.733219 0.544222 1.111257
v -0.2414062 0.5912811 1.193868
v 0.6357431 0.2937486 -0.152617
v 0.9462155 -0.2032579 -0.6462205
v -0.5039243 0.5516099 1.190778
v -0.5499085 0.399732 0.4056871
v -0.06194663 0.4240898 -0.1480498
v 0.7139209 0.3819114 -0.6291164
v 0.3663745 0.3856725 -1.247867
v 0.6179672 -0.002350807 -1.261568
v 0.2254665 0.06825995 -1.36594
v -0.05048406 0.07179713 -1.467177
v -0.1154084 0.4203734 -0.6257134
v -0.06006598 0.4145974 -1.246345
v -0.5791916 0.3818666 -0.6283551
v -0.7899045 0.2851965 -0.8764554
v -0.9459466 -0.0537529 -1.172644
v -0.844575 -0.1684226 0.3858068
v -0.9462153 -0.07448387 -0.6482354
v -0.5499085 -0.564998 0.3719712
v -0.5253716 -0.3588523 -1.327746
v -0.05048406 0.07179713 -1.467177
v -0.3917619 -0.5019543 1.152674
v -0.2350034 -0.1600944 1.467177
v -0.2414958 -0.5405506 1.151107
v -0.5789229 -0.4979693 -0.6617128
v 0.2254665 -0.3972695 -1.382193
v 0.2254665 0.06825995 -1.36594
v 0.5391626 -0.5405506 1.151107
v 0.5456998 -0.1554825 1.335224
v 0.7378757 -0.1517662 1.2283
v 0.5917289 -0.5456551 -0.1819448
v 0.8122476 -0.1279905 -0.167348
v -0.06194663 -0.5890424 -0.1834223
v -0.4279852 -0.5912812 -1.051706
v -0.1154084 -0.5366552 -0.6591606
v 0.7139209 -0.4981036 -0.658489
v 0.9462155 -0.2032579 -0.6462205
v 0.2802267 -0.4878053 -1.278001
v 0.5462372 -0.3608671 -1.27012
v 0.6179672 -0.002350807 -1.261568
vt 0.2953368 0.8590723
vt 0.3036083 0.8355304
vt 0.2940643 0.8342578
vt 0.2915192 0.8189874
vt 0.2877016 0.8533459
vt 0.2838839 0.8571635
vt 0.2896104 0.8647988
vt 0.2507979 0.8667076
vt 0.2800663 0.8520734
vt 0.2851565 0.8336215
vt 0.2514341 0.8552548
vt 0.2361637 0.8679801
vt 0.2857928 0.827895
vt 0.2679772 0.8247137
vt 0.2527067 0.8361666
vt 0.239345 0.8539822
vt 0.2259833 0.8438019
vt 0.2208932 0.8533459
vt 0.2177118 0.8406205
vt 0.2170756 0.8310765
vt 0.2418901 0.8342578
vt 0.2266196 0.8336215
vt 0.2425264 0.8228049
vt 0.2367999 0.8170785
vt 0.2291647 0.8075345
vt 0.2686135 0.8107158
vt 0.2431626 0.8094432
vt 0.2705223 0.7992629
vt 0.2310735 0.7935365
vt 0.2189844 0.7820836
vt 0.2889741 0.8011718
vt 0.300427 0.8024443
vt 0.2896104 0.7973541
vt 0.246344 0.7960815
vt 0.2317098 0.7763572
vt 0.2208932 0.7731758
vt 0.293428 0.7795385
vt 0.3036083 0.7795385
vt 0.300427 0.7725396
vt 0.2622508 0.7687219
vt 0.2647958 0.7566328
vt 0.2597057 0.785265
vt 0.2387087 0.7903552
vt 0.2488891 0.7846287
vt 0.2501616 0.7649044
vt 0.2495253 0.7559966
vt 0.2348911 0.7750846
vt 0.2342549 0.7687219
vt 0.2285284 0.7629955
vn 0.301922 -0.1921496 0.9337675
vn -0.2077356 -0.2391949 0.9484892
vn -0.1293268 0.2861444 0.9494187
vn -0.858529 0.0587588 0.5093872
vn 0.2862402 0.2704627 0.9191934
vn 0.8507839 0.1685311 0.497759
vn 0.8272612 -0.1999905 0.5250169
vn 0.9840789 -0.09805894 0.1482331
vn 0.5998756 0.7409157 0.3019821
vn -0.02739519 0.9134151 0.4061063
vn 0.6375394 0.7704176 0
vn 0.9840789 -0.1451042 -0.1026322
vn -0.5448936 0.7409157 0.3926002
vn -0.5981141 0.801411 0
vn 0.01180923 0.999665 -0.02303218
vn 0.6233982 0.7801202 -0.05279424
vn 0.364649 0.7409157 -0.5639814
vn 0.6782844 0.1606902 -0.7170139
vn 0.1843087 0.1528494 -0.9709106
vn -0.09012228 0.2312582 -0.9687092
vn -0.02739408 0.9996247 0
vn -0.09796315 0.8506882 -0.5164618
vn -0.4351212 0.8977334 0.06887881
vn -0.6389843 0.7565975 -0.1387782
vn -0.8428472 -0.07453626 -0.5329662
vn -0.9839831 -0.1058998 0.1433963
vn -0.991824 -0.09021807 0.09025454
vn -0.4978483 -0.8586248 0.1221086
vn -0.4272804 -0.4979441 -0.7546411
vn -0.09012228 0.2312582 -0.9687092
vn -0.4664847 -0.7566932 0.4580473
vn -0.2077356 -0.2391949 0.9484892
vn -0.02739519 -0.8899883 0.4551597
vn -0.5213709 -0.8507839 -0.06587183
vn 0.1215816 -0.435217 -0.8920786
vn 0.1843087 0.1528494 -0.9709106
vn 0.4430579 -0.7958977 0.4126094
vn 0.301922 -0.1921496 0.9337675
vn 0.8272612 -0.1999905 0.5250169
vn 0.4822623 -0.8743066 0.05487302
vn 0.9840789 -0.09805894 0.1482331
vn -0.01955432 -0.9997607 -0.009808256
vn -0.3253488 -0.913511 -0.2442251
vn 0.003968358 -0.9997607 -0.02151349
vn 0.5214667 -0.8507839 -0.06510915
vn 0.9840789 -0.1451042 -0.1026322
vn 0.2156722 -0.8664656 -0.4502475
vn 0.6077164 -0.4038535 -0.6838005
vn 0.6782844 0.1606902 -0.7170139
g EPI_Rock_19_0
f 3/3/3 2/2/2 1/1/1
f 4/4/4 2/2/2 3/3/3
f 5/5/5 3/3/3 1/1/1
f 6/6/6 5/5/5 1/1/1
f 7/7/7 6/6/6 1/1/1
f 8/8/8 6/6/6 7/7/7
f 5/5/5 6/6/6 9/9/9
f 9/9/9 6/6/6 8/8/8
f 3/3/3 5/5/5 10/10/10
f 5/5/5 9/9/9 10/10/10
f 11/11/11 9/9/9 8/8/8
f 10/10/10 9/9/9 11/11/11
f 8/8/8 12/12/12 11/11/11
f 13/13/13 4/4/4 3/3/3
f 10/10/10 13/13/13 3/3/3
f 14/14/14 13/13/13 10/10/10
f 4/4/4 13/13/13 14/14/14
f 15/15/15 10/10/10 11/11/11
f 15/15/15 14/14/14 10/10/10
f 12/12/12 16/16/16 11/11/11
f 11/11/11 16/16/16 15/15/15
f 16/16/16 12/12/12 17/17/17
f 12/12/12 18/18/18 17/17/17
f 17/17/17 18/18/18 19/19/19
f 19/19/19 20/20/20 17/17/17
f 16/16/16 21/21/21 15/15/15
f 21/21/21 16/16/16 17/17/17
f 14/14/14 15/15/15 21/21/21
f 20/20/20 22/22/22 17/17/17
f 22/22/22 21/21/21 17/17/17
f 23/23/23 14/14/14 21/21/21
f 21/21/21 22/22/22 23/23/23
f 22/22/22 20/20/20 24/24/24
f 22/22/22 24/24/24 23/23/23
f 20/20/20 25/25/25 24/24/24
f 26/26/26 14/14/14 23/23/23
f 26/26/26 4/4/4 14/14/14
f 27/27/27 23/23/23 24/24/24
f 27/27/27 24/24/24 25/25/25
f 27/27/27 26/26/26 23/23/23
f 26/26/26 28/28/28 4/4/4
f 26/26/26 27/27/27 28/28/28
f 27/27/27 25/25/25 29/29/29
f 25/25/25 30/30/30 29/29/29
f 28/28/28 31/31/31 4/4/4
f 4/4/4 31/31/31 32/32/32
f 31/31/31 33/33/33 32/32/32
f 33/33/33 31/31/31 28/28/28
f 27/27/27 34/34/34 28/28/28
f 27/27/27 29/29/29 34/34/34
f 29/29/29 30/30/30 35/35/35
f 30/30/30 36/36/36 35/35/35
f 32/32/32 33/33/33 37/37/37
f 38/38/38 32/32/32 37/37/37
f 39/39/39 38/38/38 37/37/37
f 39/39/39 37/37/37 40/40/40
f 37/37/37 33/33/33 40/40/40
f 41/41/41 39/39/39 40/40/40
f 42/42/42 33/33/33 28/28/28
f 28/28/28 34/34/34 42/42/42
f 33/33/33 42/42/42 40/40/40
f 29/29/29 43/43/43 34/34/34
f 29/29/29 35/35/35 43/43/43
f 34/34/34 44/44/44 42/42/42
f 40/40/40 42/42/42 44/44/44
f 34/34/34 43/43/43 44/44/44
f 41/41/41 40/40/40 45/45/45
f 45/45/45 40/40/40 44/44/44
f 46/46/46 41/41/41 45/45/45
f 44/44/44 43/43/43 47/47/47
f 35/35/35 47/47/47 43/43/43
f 45/45/45 44/44/44 47/47/47
f 46/46/46 45/45/45 48/48/48
f 45/45/45 47/47/47 48/48/48
f 48/48/48 47/47/47 35/35/35
f 48/48/48 49/49/49 46/46/46
f 35/35/35 36/36/36 48/48/48
f 36/36/36 49/49/49 48/48/48
