g EPI_Bush_03
v 0.3236622 -0.2817815 0.5287399
v 0.1877378 -0.2255003 0.4606482
v 0.2028635 -0.2124207 0.4111788
v 0.3605441 -0.2498465 0.4079931
v 0.431174 -0.3409376 0.5661399
v 0.4786749 -0.299808 0.4106091
v 0.5618923 -0.4174209 0.4953805
v 0.4990843 -0.3940848 0.554692
v 0.5370541 -0.3612175 0.430345
v 0.2478263 -0.2505977 0.5166185
v 0.2776375 -0.2217966 0.3598964
v 0.3292048 -0.2343841 0.354302
v 0.3736496 -0.2812894 0.5029692
v 0.2308099 -0.2939028 0.6361482
v 0.3928675 -0.3334524 0.6185878
v 0.3018283 -0.4044708 0.7394641
v 0.2411699 -0.351479 0.7005619
v 0.3706969 -0.3830772 0.686524
v -0.2546898 0.3712148 0.3951465
v -0.2385021 0.3599223 0.2342544
v -0.1857433 0.3564257 0.2270542
v -0.1259397 0.3626936 0.3776122
v -0.256943 0.3608806 0.52299
v -0.09107804 0.349873 0.500405
v -0.159636 0.2996525 0.6443326
v -0.2318198 0.3268736 0.5990331
v -0.09923661 0.3180935 0.5809547
v -0.3210202 0.3712148 0.3007403
v -0.1893694 0.3599223 0.206852
v -0.1491722 0.3564257 0.2417914
v -0.222962 0.3626936 0.3860038
v -0.4186381 0.3608806 0.3833361
v -0.2923227 0.349873 0.493153
v -0.4457297 0.2996525 0.5364841
v -0.4592497 0.3268736 0.4523342
v -0.3582646 0.3180935 0.540136
v -0.4451599 -0.4439946 0.4186381
v -0.4277549 -0.4824046 0.3063865
v -0.3818339 -0.4995246 0.3039261
v -0.3330638 -0.4858234 0.4125775
v -0.4551056 -0.4343338 0.5091075
v -0.3107119 -0.4882062 0.5012857
v -0.3913392 -0.4978411 0.6016231
v -0.4456002 -0.4613218 0.5652333
v -0.3301888 -0.5043938 0.5589914
v -0.428014 -0.4439946 0.275384
v -0.3149336 -0.4824046 0.2647648
v -0.3012843 -0.4995246 0.3086917
v -0.3947063 -0.4858234 0.382585
v -0.5181726 -0.4343338 0.2878938
v -0.47523 -0.4882062 0.4259679
v -0.5922472 -0.4978411 0.3723544
v -0.570258 -0.4613218 0.3108414
v -0.5359401 -0.5043938 0.4212281
v -0.6298285 -0.1547927 -0.09421211
v -0.5654146 -0.2293077 -0.02583551
v -0.5858499 -0.2293077 0.01879054
v -0.6796864 -0.1547927 0.0147242
v -0.6941128 -0.1112286 -0.1426196
v -0.7583453 -0.1112286 -0.002318144
v -0.8200397 -0.1033549 -0.1153985
v -0.7559366 -0.1065665 -0.1538862
v -0.8072708 -0.1065665 -0.04173827
v -0.6886738 -0.1547927 0.0002977848
v -0.5954589 -0.2293077 0.01184928
v -0.5827159 -0.2293077 0.05924666
v -0.6575934 -0.1547927 0.1159682
v -0.7690681 -0.1112286 0.004027426
v -0.7290263 -0.1112286 0.1530314
v -0.8486853 -0.1033549 0.1052973
v -0.8238729 -0.1065665 0.03477097
v -0.7918602 -0.1065665 0.153886
v -0.2820144 0.2985647 -0.4897861
v -0.2010503 0.2287895 -0.3663198
v -0.2335551 0.2406777 -0.3172648
v -0.3613468 0.327547 -0.3701271
v -0.3634447 0.3410669 -0.5798671
v -0.4656211 0.3783632 -0.4257349
v -0.5334279 0.3709816 -0.5843219
v -0.4438649 0.3514529 -0.6125273
v -0.5255542 0.381264 -0.4893199
v -0.1158645 0.2955084 -0.4915214
v -0.1623555 0.2275463 -0.3474644
v -0.232804 0.2419209 -0.3370267
v -0.2877643 0.3305773 -0.4660874
v -0.09900349 0.3371301 -0.6129417
v -0.3204504 0.3823001 -0.5801779
v -0.2285823 0.3709816 -0.7394642
v -0.1323371 0.3482931 -0.6940094
v -0.3093651 0.3844239 -0.6678242
v 0.3581094 0.3442526 -0.4180425
v 0.2520739 0.3568402 -0.2969072
v 0.2084579 0.3523595 -0.3200361
v 0.2516595 0.3332968 -0.4744532
v 0.4335309 0.3147264 -0.5172921
v 0.2964151 0.3006367 -0.5899423
v 0.4286357 0.2319753 -0.65907
v 0.4573591 0.268624 -0.5868343
v 0.3477494 0.2573574 -0.6449025
v 0.3971152 0.3295931 -0.3058946
v 0.2359899 0.3419475 -0.2932812
v 0.2189476 0.3371041 -0.3436312
v 0.3555453 0.3178344 -0.4287393
v 0.5205297 0.3001963 -0.3249571
v 0.4669939 0.2850189 -0.4831816
v 0.6124755 0.2169012 -0.4369756
v 0.5852284 0.2539904 -0.3602591
v 0.5424412 0.2418692 -0.4867558
v 0.7086948 -0.2315091 0.006513834
v 0.6015456 -0.2398232 -0.01532006
v 0.5934906 -0.2446665 -0.0678457
v 0.6890365 -0.2432938 -0.1216664
v 0.7889854 -0.2437859 0.01438749
v 0.7636291 -0.2589375 -0.1507523
v 0.8486854 -0.3077594 -0.07411355
v 0.8291567 -0.2785957 -0.005685151
v 0.8089027 -0.2907171 -0.1376727
v 0.004934072 -0.3441233 -0.6946051
v -0.2638066 -0.6908754 -0.5103768
v 0.004934072 -0.6908754 -0.5824053
v -0.3199064 -0.3441233 -0.6075544
v -0.4605446 -0.6908754 -0.3136647
v 0.3297746 -0.3441233 -0.6075544
v 0.2736747 -0.6908754 -0.5103768
v -0.5577223 -0.3441233 -0.3697645
v -0.5325473 -0.6908754 -0.04492402
v 0.5675904 -0.3441233 -0.3697645
v 0.4704128 -0.6908754 -0.3136647
v -0.6447728 -0.3441233 -0.04489809
v -0.4605446 -0.6908754 0.2238426
v 0.654641 -0.3441233 -0.04489809
v 0.5424154 -0.6908754 -0.04489809
v -0.5577223 -0.3441233 0.2799425
v -0.2638066 -0.6908754 0.4205806
v 0.5675904 -0.3441233 0.2799425
v 0.4704128 -0.6908754 0.2238426
v -0.3199064 -0.3441233 0.5177582
v 0.004934072 -0.6908754 0.4925832
v 0.3297746 -0.3441233 0.5177582
v 0.2736747 -0.6908754 0.4205806
v 0.004934072 -0.3441233 0.604783
v 0.6020377 0.1304204 -0.04492402
v 0.5220319 0.1304204 0.2536537
v 0.3034859 0.1304204 0.4721997
v 0.004934072 0.1304204 0.5521796
v -0.2936178 0.1304204 0.4721997
v -0.5121638 0.1304204 0.2536537
v 0.5220319 0.1304204 -0.3434499
v -0.5921696 0.1304204 -0.04492402
v 0.3034859 0.1304204 -0.5620219
v -0.5121638 0.1304204 -0.3434499
v 0.004934072 0.1304204 -0.6420017
v -0.2936178 0.1304204 -0.5620219
v 0.3666047 0.5346451 -0.04492402
v 0.3181713 0.5346451 -0.2257593
v 0.1857694 0.5346451 -0.3581353
v 0.004934072 0.5346451 -0.4065946
v 0.004934072 0.6908752 -0.04492402
v 0.3181454 0.5346451 0.1359372
v -0.1759012 0.5346451 -0.3581353
v -0.3082773 0.5346451 -0.2257593
v 0.1857694 0.5346451 0.2683132
v -0.3567366 0.5346451 -0.04492402
v 0.004934072 0.5346451 0.3167725
v -0.3082773 0.5346451 0.1359372
v -0.1759012 0.5346451 0.2683132
vt 0.3685553 0.3478838
vt 0.3672169 0.3441659
vt 0.365581 0.3441659
vt 0.3643913 0.3478838
vt 0.3691502 0.3508582
vt 0.3637964 0.3508582
vt 0.3664733 0.3541299
vt 0.3685553 0.3527915
vt 0.3642426 0.3527915
vt 0.3563606 0.3560632
vt 0.3547248 0.3510069
vt 0.3523453 0.3510069
vt 0.3507094 0.3560632
vt 0.3572529 0.3600785
vt 0.3498171 0.3600785
vt 0.353535 0.3648374
vt 0.3565094 0.3629041
vt 0.3505607 0.3629041
vt 0.3685553 0.3478838
vt 0.3672169 0.3441659
vt 0.365581 0.3441659
vt 0.3643913 0.3478838
vt 0.3691502 0.3508582
vt 0.3637964 0.3508582
vt 0.3664733 0.3541299
vt 0.3685553 0.3527915
vt 0.3642426 0.3527915
vt 0.3563606 0.3560632
vt 0.3547248 0.3510069
vt 0.3523453 0.3510069
vt 0.3507094 0.3560632
vt 0.3572529 0.3600785
vt 0.3498171 0.3600785
vt 0.353535 0.3648374
vt 0.3565094 0.3629041
vt 0.3505607 0.3629041
vt 0.358294 0.3379199
vt 0.3574016 0.3349456
vt 0.3559145 0.3349456
vt 0.3550222 0.3379199
vt 0.3588888 0.3402993
vt 0.3544273 0.3402993
vt 0.3566581 0.3431249
vt 0.3584427 0.3419352
vt 0.3548735 0.3419352
vt 0.358294 0.3379199
vt 0.3574016 0.3349456
vt 0.3559145 0.3349456
vt 0.3550222 0.3379199
vt 0.3588888 0.3402993
vt 0.3544273 0.3402993
vt 0.3566581 0.3431249
vt 0.3584427 0.3419352
vt 0.3548735 0.3419352
vt 0.3816423 0.3469915
vt 0.38075 0.3440172
vt 0.3792629 0.3440172
vt 0.3782218 0.3469915
vt 0.3822372 0.3495197
vt 0.3777757 0.3495197
vt 0.3800064 0.3521966
vt 0.381791 0.3511556
vt 0.3782218 0.3511556
vt 0.358294 0.3379199
vt 0.3574016 0.3349456
vt 0.3559145 0.3349456
vt 0.3550222 0.3379199
vt 0.3588888 0.3402993
vt 0.3544273 0.3402993
vt 0.3566581 0.3431249
vt 0.3584427 0.3419352
vt 0.3548735 0.3419352
vt 0.3563606 0.3560632
vt 0.3547248 0.3510069
vt 0.3523453 0.3510069
vt 0.3507094 0.3560632
vt 0.3572529 0.3600785
vt 0.3498171 0.3600785
vt 0.353535 0.3648374
vt 0.3565094 0.3629041
vt 0.3505607 0.3629041
vt 0.3688528 0.3475864
vt 0.3673656 0.3432736
vt 0.3654323 0.3432736
vt 0.3639451 0.3475864
vt 0.3695963 0.3510069
vt 0.3633503 0.3510069
vt 0.3664733 0.3550222
vt 0.3688528 0.3533863
vt 0.3639451 0.3533863
vt 0.3563606 0.3560632
vt 0.3547248 0.3510069
vt 0.3523453 0.3510069
vt 0.3507094 0.3560632
vt 0.3572529 0.3600785
vt 0.3498171 0.3600785
vt 0.353535 0.3648374
vt 0.3565094 0.3629041
vt 0.3505607 0.3629041
vt 0.3685553 0.3478838
vt 0.3672169 0.3441659
vt 0.365581 0.3441659
vt 0.3643913 0.3478838
vt 0.3691502 0.3508582
vt 0.3637964 0.3508582
vt 0.3664733 0.3541299
vt 0.3685553 0.3527915
vt 0.3642426 0.3527915
vt 0.3816423 0.3469915
vt 0.3806013 0.3441659
vt 0.3792629 0.3441659
vt 0.3783706 0.3469915
vt 0.3820885 0.349371
vt 0.3777757 0.349371
vt 0.3800064 0.3521966
vt 0.3816423 0.3510069
vt 0.3782218 0.3510069
vt 0.3850628 0.3303354
vt 0.367663 0.3344994
vt 0.3855089 0.3386635
vt 0.3715296 0.3269149
vt 0.3542786 0.3218586
vt 0.3984472 0.3264688
vt 0.4030574 0.3336071
vt 0.361417 0.3172484
vt 0.3492223 0.3041614
vt 0.4082624 0.3163561
vt 0.4156982 0.3202227
vt 0.3575504 0.3037153
vt 0.3533863 0.2863155
vt 0.4115342 0.3028229
vt 0.420011 0.3023768
vt 0.3609708 0.2901821
vt 0.3660271 0.2730798
vt 0.4076676 0.2894385
vt 0.4148059 0.2848283
vt 0.3706374 0.2800694
vt 0.3837243 0.2678747
vt 0.3977036 0.2796233
vt 0.4015702 0.2721875
vt 0.3841705 0.2763515
vt 0.4021651 0.3025255
vt 0.3994882 0.2939
vt 0.392796 0.287654
vt 0.383873 0.2857206
vt 0.3750988 0.2883975
vt 0.3690015 0.2950897
vt 0.4002318 0.3114485
vt 0.3669195 0.3040127
vt 0.3939857 0.3182894
vt 0.3695963 0.3127869
vt 0.3852115 0.3209663
vt 0.3764372 0.3188843
vt 0.3929447 0.3025255
vt 0.3922011 0.3068383
vt 0.3893755 0.31011
vt 0.3853602 0.3115972
vt 0.3846166 0.3032691
vt 0.3914576 0.2985102
vt 0.3810475 0.3108536
vt 0.3777757 0.3081767
vt 0.3880371 0.2956846
vt 0.3762885 0.3040127
vt 0.3837243 0.294941
vt 0.3770321 0.2998486
vt 0.379709 0.2964282
vn 0.3005611 0.898145 0.3209341
vn 0.2222143 0.921649 0.3180943
vn 0.2222143 0.921649 0.3180943
vn 0.3005611 0.898145 0.3209341
vn 0.4885935 0.7962941 0.3566401
vn 0.4885935 0.7962941 0.3566401
vn 0.6139483 0.7022779 0.3603792
vn 0.6139483 0.7022779 0.3603792
vn 0.6139483 0.7022779 0.3603792
vn 0.253553 0.921649 0.2937244
vn 0.253553 0.945153 0.2059045
vn 0.253553 0.945153 0.2059045
vn 0.253553 0.921649 0.2937244
vn 0.253553 0.8276328 0.5007343
vn 0.253553 0.8276328 0.5007343
vn 0.2457184 0.7414514 0.6243976
vn 0.2457184 0.7414514 0.6243976
vn 0.2457184 0.7414514 0.6243976
vn 0.06538079 0.9978604 0
vn 0.05759053 0.9983402 0
vn 0.05759053 0.9983402 0
vn 0.06538079 0.9978604 0
vn 0.09685946 0.9686571 0.2287391
vn 0.09685946 0.9686571 0.2287391
vn 0.1125288 0.921649 0.3713495
vn 0.1125288 0.921649 0.3713495
vn 0.1125288 0.921649 0.3713495
vn 0.0341622 0.9994164 0
vn 0.08902478 0.9921612 -0.08769748
vn 0.08902478 0.9921612 -0.08769748
vn 0.0341622 0.9994164 0
vn -0.1068423 0.9686571 0.22425
vn -0.1068423 0.9686571 0.22425
vn -0.2086931 0.921649 0.3271244
vn -0.2086931 0.921649 0.3271244
vn -0.2086931 0.921649 0.3271244
vn 0.3397346 0.9294837 -0.1436682
vn 0.3240651 0.9059796 -0.272365
vn 0.3240651 0.9059796 -0.272365
vn 0.3397346 0.9294837 -0.1436682
vn 0.3554039 0.921649 0.1557282
vn 0.3554039 0.921649 0.1557282
vn 0.3397346 0.8668063 0.3650032
vn 0.3397346 0.8668063 0.3650032
vn 0.3397346 0.8668063 0.3650032
vn 0.2222143 0.9294837 0.2944162
vn 0.3318998 0.9059796 0.2627611
vn 0.3318998 0.9059796 0.2627611
vn 0.2222143 0.9294837 0.2944162
vn -0.05983412 0.921649 0.3833837
vn -0.05983412 0.921649 0.3833837
vn -0.2635359 0.8668063 0.4233152
vn -0.2635359 0.8668063 0.4233152
vn -0.2635359 0.8668063 0.4233152
vn 0.5042628 0.8276328 0.2464609
vn 0.5904443 0.7571207 0.279542
vn 0.5904443 0.7571207 0.279542
vn 0.5042628 0.8276328 0.2464609
vn 0.2613877 0.9529877 0.1532676
vn 0.2613877 0.9529877 0.1532676
vn 0.06538079 0.9978604 0
vn 0.06538079 0.9978604 0
vn 0.06538079 0.9978604 0
vn 0.5356015 0.8276328 -0.1677946
vn 0.6296177 0.7571207 -0.1742117
vn 0.6296177 0.7571207 -0.1742117
vn 0.5356015 0.8276328 -0.1677946
vn 0.2848918 0.9529877 -0.1032045
vn 0.2848918 0.9529877 -0.1032045
vn 0.07315911 0.9973203 0
vn 0.07315911 0.9973203 0
vn 0.07315911 0.9973203 0
vn 0.4572547 0.8824756 0.1102492
vn 0.5199322 0.8433022 0.1360582
vn 0.5199322 0.8433022 0.1360582
vn 0.4572547 0.8824756 0.1102492
vn 0.3005611 0.9529877 -0.03843877
vn 0.3005611 0.9529877 -0.03843877
vn 0.1752062 0.9764918 -0.1255647
vn 0.1752062 0.9764918 -0.1255647
vn 0.1752062 0.9764918 -0.1255647
vn 0.2378837 0.8824756 0.4057685
vn 0.2457184 0.8433022 0.4779788
vn 0.2457184 0.8433022 0.4779788
vn 0.2378837 0.8824756 0.4057685
vn 0.2222143 0.9529877 0.2059983
vn 0.2222143 0.9529877 0.2059983
vn 0.2065449 0.9764918 0.06166762
vn 0.2065449 0.9764918 0.06166762
vn 0.2065449 0.9764918 0.06166762
vn 0.01067793 0.9764918 -0.2152898
vn -0.02849543 0.9921612 -0.1216727
vn -0.02849543 0.9921612 -0.1216727
vn 0.01067793 0.9764918 -0.2152898
vn 0.1046941 0.921649 -0.3736339
vn 0.1046941 0.921649 -0.3736339
vn 0.1752062 0.8433022 -0.5080788
vn 0.1752062 0.8433022 -0.5080788
vn 0.1752062 0.8433022 -0.5080788
vn 0.1438676 0.9764918 -0.1605174
vn 0.0655207 0.9921612 -0.1064109
vn 0.0655207 0.9921612 -0.1064109
vn 0.1438676 0.9764918 -0.1605174
vn 0.3397346 0.921649 -0.1874663
vn 0.3397346 0.921649 -0.1874663
vn 0.4729241 0.8433022 -0.2553117
vn 0.4729241 0.8433022 -0.2553117
vn 0.4729241 0.8433022 -0.2553117
vn 0.07335538 0.9921612 -0.1011694
vn -0.05983412 0.9921612 -0.1097094
vn -0.05983412 0.9921612 -0.1097094
vn 0.07335538 0.9921612 -0.1011694
vn 0.3867426 0.9138143 -0.12399
vn 0.3867426 0.9138143 -0.12399
vn 0.598279 0.7884594 -0.1428075
vn 0.598279 0.7884594 -0.1428075
vn 0.598279 0.7884594 -0.1428075
vn 0.002843261 -0.0655207 -0.9978471
vn -0.4750723 -0.3083958 -0.8241349
vn 0.002843261 -0.3083958 -0.9512539
vn -0.4985763 -0.0655207 -0.8643661
vn -0.8276328 -0.3083958 -0.468952
vn 0.4964281 -0.0655207 -0.8656016
vn 0.4729241 -0.3083958 -0.8253695
vn -0.8668063 -0.0655207 -0.4943217
vn -0.9514222 -0.3078892 0
vn 0.8646581 -0.0655207 -0.4980697
vn 0.8254847 -0.3083958 -0.472723
vn -0.9978604 -0.06538079 0
vn -0.8276328 -0.3083958 0.468952
vn 0.9978477 -0.0655207 -0.002652485
vn 0.9508396 -0.3083958 0.02821594
vn -0.8668063 -0.0655207 0.4943217
vn -0.4750723 -0.3083958 0.8241349
vn 0.8646581 -0.0655207 0.4980697
vn 0.8254847 -0.3083958 0.472723
vn -0.4985763 -0.0655207 0.8643661
vn 0.002843261 -0.3083958 0.9512539
vn 0.4964281 -0.0655207 0.8656016
vn 0.4729241 -0.3083958 0.8253695
vn 0.002843261 -0.0655207 0.9978471
vn 0.9586743 0.2713705 0.08545022
vn 0.8333194 0.2713705 0.4815981
vn 0.4807588 0.2713705 0.833804
vn 0.002843261 0.2713705 0.9624708
vn -0.4829069 0.2713705 0.8325617
vn -0.8354675 0.2713705 0.4778621
vn 0.8333194 0.2713705 -0.4815981
vn -0.9608223 0.2713705 -0.05637792
vn 0.4807588 0.2713705 -0.833804
vn -0.8354675 0.2713705 -0.4778621
vn 0.002843261 0.2713705 -0.9624708
vn -0.4829069 0.2713705 -0.8325617
vn 0.7938879 0.6080642 0
vn 0.6922951 0.6082618 -0.3882589
vn 0.3945773 0.6082618 -0.6887136
vn 0.002843261 0.6082618 -0.7937313
vn 0.002843261 0.9999958 -0.0004882813
vn 0.6922951 0.6082618 0.3882589
vn -0.3967254 0.6082618 -0.6874784
vn -0.6866086 0.6082618 -0.3982289
vn 0.3945773 0.6082618 0.6887136
vn -0.7946798 0.6070287 0
vn 0.002843261 0.6082618 0.7937313
vn -0.6866086 0.6082618 0.3982289
vn -0.3967254 0.6082618 0.6874784
g EPI_Bush_03_0
f 3/3/3 2/2/2 1/1/1
f 4/4/4 3/3/3 1/1/1
f 4/4/4 1/1/1 5/5/5
f 6/6/6 4/4/4 5/5/5
f 7/7/7 6/6/6 5/5/5
f 5/5/5 8/8/8 7/7/7
f 6/6/6 7/7/7 9/9/9
f 12/12/12 11/11/11 10/10/10
f 13/13/13 12/12/12 10/10/10
f 13/13/13 10/10/10 14/14/14
f 15/15/15 13/13/13 14/14/14
f 16/16/16 15/15/15 14/14/14
f 14/14/14 17/17/17 16/16/16
f 15/15/15 16/16/16 18/18/18
f 21/21/21 20/20/20 19/19/19
f 22/22/22 21/21/21 19/19/19
f 22/22/22 19/19/19 23/23/23
f 24/24/24 22/22/22 23/23/23
f 25/25/25 24/24/24 23/23/23
f 23/23/23 26/26/26 25/25/25
f 24/24/24 25/25/25 27/27/27
f 30/30/30 29/29/29 28/28/28
f 31/31/31 30/30/30 28/28/28
f 31/31/31 28/28/28 32/32/32
f 33/33/33 31/31/31 32/32/32
f 34/34/34 33/33/33 32/32/32
f 32/32/32 35/35/35 34/34/34
f 33/33/33 34/34/34 36/36/36
f 39/39/39 38/38/38 37/37/37
f 40/40/40 39/39/39 37/37/37
f 40/40/40 37/37/37 41/41/41
f 42/42/42 40/40/40 41/41/41
f 43/43/43 42/42/42 41/41/41
f 41/41/41 44/44/44 43/43/43
f 42/42/42 43/43/43 45/45/45
f 48/48/48 47/47/47 46/46/46
f 49/49/49 48/48/48 46/46/46
f 49/49/49 46/46/46 50/50/50
f 51/51/51 49/49/49 50/50/50
f 52/52/52 51/51/51 50/50/50
f 50/50/50 53/53/53 52/52/52
f 51/51/51 52/52/52 54/54/54
f 57/57/57 56/56/56 55/55/55
f 58/58/58 57/57/57 55/55/55
f 58/58/58 55/55/55 59/59/59
f 60/60/60 58/58/58 59/59/59
f 61/61/61 60/60/60 59/59/59
f 59/59/59 62/62/62 61/61/61
f 60/60/60 61/61/61 63/63/63
f 66/66/66 65/65/65 64/64/64
f 67/67/67 66/66/66 64/64/64
f 67/67/67 64/64/64 68/68/68
f 69/69/69 67/67/67 68/68/68
f 70/70/70 69/69/69 68/68/68
f 68/68/68 71/71/71 70/70/70
f 69/69/69 70/70/70 72/72/72
f 75/75/75 74/74/74 73/73/73
f 76/76/76 75/75/75 73/73/73
f 76/76/76 73/73/73 77/77/77
f 78/78/78 76/76/76 77/77/77
f 79/79/79 78/78/78 77/77/77
f 77/77/77 80/80/80 79/79/79
f 78/78/78 79/79/79 81/81/81
f 84/84/84 83/83/83 82/82/82
f 85/85/85 84/84/84 82/82/82
f 85/85/85 82/82/82 86/86/86
f 87/87/87 85/85/85 86/86/86
f 88/88/88 87/87/87 86/86/86
f 86/86/86 89/89/89 88/88/88
f 87/87/87 88/88/88 90/90/90
f 93/93/93 92/92/92 91/91/91
f 94/94/94 93/93/93 91/91/91
f 94/94/94 91/91/91 95/95/95
f 96/96/96 94/94/94 95/95/95
f 97/97/97 96/96/96 95/95/95
f 95/95/95 98/98/98 97/97/97
f 96/96/96 97/97/97 99/99/99
f 102/102/102 101/101/101 100/100/100
f 103/103/103 102/102/102 100/100/100
f 103/103/103 100/100/100 104/104/104
f 105/105/105 103/103/103 104/104/104
f 106/106/106 105/105/105 104/104/104
f 104/104/104 107/107/107 106/106/106
f 105/105/105 106/106/106 108/108/108
f 111/111/111 110/110/110 109/109/109
f 112/112/112 111/111/111 109/109/109
f 112/112/112 109/109/109 113/113/113
f 114/114/114 112/112/112 113/113/113
f 115/115/115 114/114/114 113/113/113
f 113/113/113 116/116/116 115/115/115
f 114/114/114 115/115/115 117/117/117
f 120/120/120 119/119/119 118/118/118
f 119/119/119 121/121/121 118/118/118
f 119/119/119 122/122/122 121/121/121
f 120/120/120 118/118/118 123/123/123
f 124/124/124 120/120/120 123/123/123
f 122/122/122 125/125/125 121/121/121
f 122/122/122 126/126/126 125/125/125
f 124/124/124 123/123/123 127/127/127
f 128/128/128 124/124/124 127/127/127
f 126/126/126 129/129/129 125/125/125
f 126/126/126 130/130/130 129/129/129
f 128/128/128 127/127/127 131/131/131
f 132/132/132 128/128/128 131/131/131
f 130/130/130 133/133/133 129/129/129
f 130/130/130 134/134/134 133/133/133
f 132/132/132 131/131/131 135/135/135
f 136/136/136 132/132/132 135/135/135
f 134/134/134 137/137/137 133/133/133
f 134/134/134 138/138/138 137/137/137
f 136/136/136 135/135/135 139/139/139
f 140/140/140 136/136/136 139/139/139
f 138/138/138 140/140/140 141/141/141
f 138/138/138 141/141/141 137/137/137
f 140/140/140 139/139/139 141/141/141
f 131/131/131 127/127/127 142/142/142
f 135/135/135 131/131/131 143/143/143
f 131/131/131 142/142/142 143/143/143
f 139/139/139 135/135/135 144/144/144
f 135/135/135 143/143/143 144/144/144
f 141/141/141 139/139/139 145/145/145
f 139/139/139 144/144/144 145/145/145
f 137/137/137 141/141/141 146/146/146
f 141/141/141 145/145/145 146/146/146
f 133/133/133 137/137/137 147/147/147
f 137/137/137 146/146/146 147/147/147
f 127/127/127 148/148/148 142/142/142
f 127/127/127 123/123/123 148/148/148
f 133/133/133 147/147/147 149/149/149
f 129/129/129 133/133/133 149/149/149
f 123/123/123 150/150/150 148/148/148
f 123/123/123 118/118/118 150/150/150
f 129/129/129 149/149/149 151/151/151
f 125/125/125 129/129/129 151/151/151
f 118/118/118 152/152/152 150/150/150
f 118/118/118 121/121/121 152/152/152
f 121/121/121 125/125/125 153/153/153
f 125/125/125 151/151/151 153/153/153
f 121/121/121 153/153/153 152/152/152
f 142/142/142 148/148/148 154/154/154
f 148/148/148 150/150/150 155/155/155
f 148/148/148 155/155/155 154/154/154
f 150/150/150 152/152/152 156/156/156
f 150/150/150 156/156/156 155/155/155
f 152/152/152 153/153/153 157/157/157
f 152/152/152 157/157/157 156/156/156
f 155/155/155 156/156/156 158/158/158
f 154/154/154 155/155/155 158/158/158
f 156/156/156 157/157/157 158/158/158
f 159/159/159 154/154/154 158/158/158
f 142/142/142 154/154/154 159/159/159
f 157/157/157 160/160/160 158/158/158
f 153/153/153 160/160/160 157/157/157
f 153/153/153 151/151/151 160/160/160
f 143/143/143 142/142/142 159/159/159
f 151/151/151 161/161/161 160/160/160
f 160/160/160 161/161/161 158/158/158
f 151/151/151 149/149/149 161/161/161
f 143/143/143 159/159/159 162/162/162
f 162/162/162 159/159/159 158/158/158
f 144/144/144 143/143/143 162/162/162
f 149/149/149 163/163/163 161/161/161
f 161/161/161 163/163/163 158/158/158
f 149/149/149 147/147/147 163/163/163
f 144/144/144 162/162/162 164/164/164
f 164/164/164 162/162/162 158/158/158
f 145/145/145 144/144/144 164/164/164
f 147/147/147 165/165/165 163/163/163
f 163/163/163 165/165/165 158/158/158
f 147/147/147 146/146/146 165/165/165
f 166/166/166 164/164/164 158/158/158
f 145/145/145 164/164/164 166/166/166
f 165/165/165 166/166/166 158/158/158
f 146/146/146 166/166/166 165/165/165
f 146/146/146 145/145/145 166/166/166
