g EPI_Vine_04
v -0.07383674 0.9046351 0.07193184
v -0.07383674 0.9046351 -0.02643436
v 0.02455705 0.9046351 -0.02643436
v 0.02455705 0.9046351 0.07193184
v -0.0443241 0.5542382 0.02902949
v -0.07383674 0.9046351 0.07193184
v 0.02455705 0.9046351 0.07193184
v 0.0540697 0.5542382 0.02902949
v -0.1075181 0.2038138 0.06254518
v 0.02455705 0.9046351 -0.02643436
v -0.009151936 0.2038138 0.06254518
v -0.07383674 -0.1465831 0.07193184
v 0.0540697 0.5542382 -0.06936437
v -0.07383674 0.9046351 -0.02643436
v 0.02455705 -0.1465831 0.07193184
v -0.01133293 -0.4970075 0.05119842
v -0.009151936 0.2038138 -0.03582102
v -0.0443241 0.5542382 -0.06936437
v -0.07383674 0.9046351 0.07193184
v -0.0443241 0.5542382 0.02902949
v -0.1075181 0.2038138 -0.03582102
v -0.1075181 0.2038138 0.06254518
v 0.08706087 -0.4970075 0.05119842
v -0.07383674 -0.8474043 0.07193184
v 0.02455705 -0.8474043 0.07193184
v 0.02455705 -0.1465831 -0.02643436
v -0.07383674 -0.1465831 -0.02643436
v -0.07383674 -0.1465831 0.07193184
v 0.08706087 -0.4970075 -0.04719537
v 0.02455705 -0.8474043 -0.02643436
v -0.01133293 -0.4970075 -0.04719537
v -0.01133293 -0.4970075 0.05119842
v -0.07383674 -0.8474043 -0.02643436
v -0.07383674 -0.8474043 0.07193184
v 0.04214317 -0.7313692 -0.03388846
v 0.0719595 -0.7594738 0.01765507
v -0.07587969 -0.8066553 0.1380247
v -0.148626 -0.7381055 0.01227158
v -0.2020469 -0.8581713 0.2125102
v -0.2957749 -0.769882 0.05050826
v -0.3945277 -0.9046351 0.1663501
v -0.2974038 -0.902813 0.216817
v -0.3723311 -0.8322201 0.0873093
v 0.1644728 -0.5207225 0.1287209
v -0.01668882 -0.503937 0.0547322
v -0.007274628 -0.4760533 -0.00415498
v 0.1874148 -0.4526143 -0.01494956
v 0.3129194 -0.5483302 0.1652182
v 0.3424596 -0.460593 -0.01986378
v 0.489443 -0.5709961 0.06696242
v 0.4113408 -0.5787815 0.1432701
v 0.434973 -0.5086579 -0.004651904
v 0.00459671 -0.000759244 -0.06732136
v -0.03582096 -0.01790363 -0.0153361
v -0.2174796 0.02306622 -0.07891661
v -0.1188649 0.06489187 -0.2058015
v -0.3551315 0.03860933 -0.1494819
v -0.2280809 0.09247196 -0.3129194
v -0.4237367 0.03866458 -0.3427357
v -0.4203686 0.02814603 -0.2317252
v -0.3188274 0.07121402 -0.3623648
v -0.02640676 -0.249118 -0.01693732
v -0.01530844 -0.264882 0.04738855
v -0.1659912 -0.1832737 0.1438222
v -0.1930743 -0.1448438 -0.01312751
v -0.3005235 -0.1337179 0.2037861
v -0.335392 -0.08421731 0.001615047
v -0.4894429 -0.09658551 0.1353191
v -0.4052395 -0.1214325 0.2027646
v -0.4331232 -0.08187062 0.04114926
v 0.04001737 0.6921939 -0.008544624
v 0.0225693 0.6323128 0.02806318
v -0.1701324 0.6499541 0.06790107
v -0.1275613 0.7960263 -0.021465
v -0.3248459 0.6668776 0.07206988
v -0.270017 0.8550516 -0.04305422
v -0.4629948 0.77579 -0.04015541
v -0.4170831 0.6945128 0.02825648
v -0.3732421 0.8449196 -0.06375998
v 0.02731782 0.2482345 0.2130347
v -0.08661914 0.2072648 0.0579071
v -0.04871374 0.2244091 0.004044533
v 0.1198036 0.2900326 0.08162212
v 0.135043 0.2637777 0.3240176
v 0.2541702 0.3176403 0.1547549
v 0.3399197 0.2638329 0.3331006
v 0.2327743 0.2533144 0.3623648
v 0.3279932 0.2963548 0.2270318
vt 0.01738326 0.2967383
vt 0.02321074 0.2894539
vt 0.01738326 0.2894539
vt 0.01155577 0.2894539
vt 0.004635632 0.2763421
vt 0.004635632 0.2894539
vt 0.01155577 0.2894539
vt 0.01155577 0.2763421
vt 0.004635632 0.2614092
vt 0.01738326 0.2894539
vt 0.01155577 0.2614092
vt 0.004635632 0.246112
vt 0.01738326 0.2763421
vt 0.02321074 0.2894539
vt 0.01155577 0.246112
vt 0.004635632 0.2308149
vt 0.01738326 0.2614092
vt 0.02321074 0.2763421
vt 0.03013088 0.2894539
vt 0.03013088 0.2763421
vt 0.02321074 0.2614092
vt 0.03013088 0.2614092
vt 0.01155577 0.2308149
vt 0.004635632 0.2158819
vt 0.01155577 0.2158819
vt 0.01738326 0.246112
vt 0.02321074 0.246112
vt 0.03013088 0.246112
vt 0.01738326 0.2308149
vt 0.01738326 0.2158819
vt 0.02321074 0.2308149
vt 0.03013088 0.2308149
vt 0.02321074 0.2158819
vt 0.03013088 0.2158819
vt 0.01046312 0.30293
vt 0.007913592 0.30293
vt 0.005728285 0.3087575
vt 0.01228421 0.3087575
vt 0.00499985 0.3134923
vt 0.01337686 0.3134923
vt 0.009006245 0.3189556
vt 0.005728285 0.3167703
vt 0.01264842 0.3167703
vt 0.01446951 0.3670323
vt 0.01228421 0.3612048
vt 0.009734681 0.3612048
vt 0.007549374 0.3670323
vt 0.01519795 0.3717671
vt 0.006820939 0.3717671
vt 0.01119155 0.3772304
vt 0.01446951 0.3750451
vt 0.007549374 0.3750451
vt 0.01046312 0.3025658
vt 0.007549374 0.3025658
vt 0.005728285 0.3087575
vt 0.01264842 0.3087575
vt 0.004635632 0.3134923
vt 0.01337686 0.3134923
vt 0.009006245 0.3189556
vt 0.005728285 0.3167703
vt 0.01264842 0.3167703
vt 0.02794557 0.3408086
vt 0.02539605 0.3408086
vt 0.02321074 0.3466361
vt 0.03013088 0.3466361
vt 0.0224823 0.3517352
vt 0.03085931 0.3517352
vt 0.02685292 0.3571984
vt 0.02321074 0.3546489
vt 0.03013088 0.3546489
vt 0.01046312 0.3025658
vt 0.007549374 0.3025658
vt 0.005728285 0.3087575
vt 0.01264842 0.3087575
vt 0.004635632 0.3134923
vt 0.01374108 0.3134923
vt 0.009006245 0.3193198
vt 0.005364067 0.3171345
vt 0.01264842 0.3171345
vt 0.01446951 0.3670323
vt 0.01228421 0.3608406
vt 0.009734681 0.3608406
vt 0.007549374 0.3670323
vt 0.01519795 0.3717671
vt 0.006820939 0.3717671
vt 0.01119155 0.3772304
vt 0.01446951 0.3750451
vt 0.007549374 0.3750451
vn -0.0009604692 0.9999994 -0.000545915
vn -0.0009604692 0.9999994 -0.000545915
vn -0.0009604692 0.9999994 -0.000545915
vn -0.0009604692 0.9999994 -0.000545915
vn -0.7037327 0.02163023 0.7101355
vn -0.6899529 -0.143728 0.7094415
vn 0.6604723 -0.03348917 0.7501032
vn 0.7569312 -0.04726899 0.6517828
vn -0.7244025 0.06985968 0.6858284
vn 0.7087017 0.1456488 -0.6903103
vn 0.6673622 0.02163023 0.7444192
vn -0.6968428 -0.1023884 0.709878
vn 0.7087017 -0.01970929 -0.7052329
vn -0.7519622 0.01474029 -0.6590414
vn 0.681142 0.07674962 0.7281175
vn -0.676173 0.0009604692 0.7367423
vn 0.681142 -0.07482868 -0.7283174
vn -0.6486133 0.04229999 -0.7599418
vn -0.6899529 -0.143728 0.7094415
vn -0.7037327 0.02163023 0.7101355
vn -0.7450722 -0.00592947 -0.6669574
vn -0.7244025 0.06985968 0.6858284
vn 0.7569312 0.0009604692 0.6534939
vn -0.7175126 0.1663187 0.6763976
vn 0.6466924 -0.0679388 0.7597192
vn 0.7018118 0.1111993 -0.7036299
vn -0.7175126 -0.08860856 -0.6908865
vn -0.6968428 -0.1023884 0.709878
vn 0.7293715 0.0009604692 -0.6841171
vn 0.6673622 -0.1643977 -0.7263616
vn -0.6486133 0.0009604692 -0.7611175
vn -0.676173 0.0009604692 0.7367423
vn -0.7519622 0.09741938 -0.651968
vn -0.7175126 0.1663187 0.6763976
vn 0.07482868 0.8966506 0.4363697
vn 0.07482868 0.8966506 0.4363697
vn -0.0009604692 0.8759809 0.482345
vn -0.0009604692 0.8759809 0.482345
vn -0.1869884 0.8139715 0.549987
vn -0.1869884 0.8139715 0.549987
vn -0.317897 0.7381823 0.5950029
vn -0.317897 0.7381823 0.5950029
vn -0.317897 0.7381823 0.5950029
vn -0.0009604692 0.9035405 0.4285016
vn -0.08363956 0.9035405 0.4202606
vn -0.08363956 0.9035405 0.4202606
vn -0.0009604692 0.9035405 0.4285016
vn 0.2057372 0.8690909 0.4498369
vn 0.2057372 0.8690909 0.4498369
vn 0.3573156 0.8208615 0.4455469
vn 0.3573156 0.8208615 0.4455469
vn 0.3573156 0.8208615 0.4455469
vn 0.08171862 0.9242103 0.373038
vn 0.08171862 0.9242103 0.373038
vn 0.01281941 0.94488 0.3271658
vn 0.01281941 0.94488 0.3271658
vn -0.1594287 0.9655498 0.20566
vn -0.1594287 0.9655498 0.20566
vn -0.2765574 0.9586599 0.06698669
vn -0.2765574 0.9586599 0.06698669
vn -0.2765574 0.9586599 0.06698669
vn 0.5295637 0.8415312 0.1067126
vn 0.5295637 0.8415312 0.1067126
vn 0.4606645 0.8759809 0.1429889
vn 0.4606645 0.8759809 0.1429889
vn 0.2608567 0.94488 0.1978776
vn 0.2608567 0.94488 0.1978776
vn 0.1092783 0.9724398 0.2059592
vn 0.1092783 0.9724398 0.2059592
vn 0.1092783 0.9724398 0.2059592
vn 0.2195171 0.4625853 0.8589686
vn 0.2195171 0.4625853 0.8589686
vn 0.136838 0.4901451 0.8608329
vn 0.136838 0.4901451 0.8608329
vn -0.06985968 0.5314846 0.8441823
vn -0.06985968 0.5314846 0.8441823
vn -0.2145481 0.5521544 0.8056641
vn -0.2145481 0.5521544 0.8056641
vn -0.2145481 0.5521544 0.8056641
vn -0.311007 0.94488 0.1023543
vn -0.3730164 0.9242103 0.08181735
vn -0.3730164 0.9242103 0.08181735
vn -0.311007 0.94488 0.1023543
vn -0.138759 0.9655498 0.2201353
vn -0.138759 0.9655498 0.2201353
vn -0.01474029 0.9586599 0.2841724
vn -0.01474029 0.9586599 0.2841724
vn -0.01474029 0.9586599 0.2841724
g EPI_Vine_04_0
f 3/3/3 2/2/2 1/1/1
f 4/4/4 3/3/3 1/1/1
f 7/7/7 6/6/6 5/5/5
f 8/8/8 7/7/7 5/5/5
f 8/8/8 5/5/5 9/9/9
f 10/10/10 7/7/7 8/8/8
f 11/11/11 8/8/8 9/9/9
f 11/11/11 9/9/9 12/12/12
f 13/13/13 10/10/10 8/8/8
f 13/13/13 8/8/8 11/11/11
f 14/14/14 10/10/10 13/13/13
f 15/15/15 11/11/11 12/12/12
f 15/15/15 12/12/12 16/16/16
f 17/17/17 13/13/13 11/11/11
f 17/17/17 11/11/11 15/15/15
f 18/18/18 14/14/14 13/13/13
f 18/18/18 13/13/13 17/17/17
f 19/19/19 14/14/14 18/18/18
f 20/20/20 19/19/19 18/18/18
f 20/20/20 18/18/18 21/21/21
f 21/21/21 18/18/18 17/17/17
f 22/22/22 20/20/20 21/21/21
f 23/23/23 15/15/15 16/16/16
f 23/23/23 16/16/16 24/24/24
f 25/25/25 23/23/23 24/24/24
f 26/26/26 17/17/17 15/15/15
f 21/21/21 17/17/17 26/26/26
f 26/26/26 15/15/15 23/23/23
f 22/22/22 21/21/21 27/27/27
f 27/27/27 21/21/21 26/26/26
f 28/28/28 22/22/22 27/27/27
f 29/29/29 23/23/23 25/25/25
f 29/29/29 26/26/26 23/23/23
f 27/27/27 26/26/26 29/29/29
f 30/30/30 29/29/29 25/25/25
f 28/28/28 27/27/27 31/31/31
f 31/31/31 27/27/27 29/29/29
f 31/31/31 29/29/29 30/30/30
f 32/32/32 28/28/28 31/31/31
f 33/33/33 31/31/31 30/30/30
f 32/32/32 31/31/31 33/33/33
f 34/34/34 32/32/32 33/33/33
f 37/37/37 36/36/36 35/35/35
f 38/38/38 37/37/37 35/35/35
f 39/39/39 37/37/37 38/38/38
f 40/40/40 39/39/39 38/38/38
f 40/40/40 41/41/41 39/39/39
f 39/39/39 41/41/41 42/42/42
f 40/40/40 43/43/43 41/41/41
f 46/46/46 45/45/45 44/44/44
f 47/47/47 46/46/46 44/44/44
f 47/47/47 44/44/44 48/48/48
f 49/49/49 47/47/47 48/48/48
f 50/50/50 49/49/49 48/48/48
f 48/48/48 51/51/51 50/50/50
f 49/49/49 50/50/50 52/52/52
f 55/55/55 54/54/54 53/53/53
f 56/56/56 55/55/55 53/53/53
f 57/57/57 55/55/55 56/56/56
f 58/58/58 57/57/57 56/56/56
f 58/58/58 59/59/59 57/57/57
f 57/57/57 59/59/59 60/60/60
f 58/58/58 61/61/61 59/59/59
f 64/64/64 63/63/63 62/62/62
f 65/65/65 64/64/64 62/62/62
f 66/66/66 64/64/64 65/65/65
f 67/67/67 66/66/66 65/65/65
f 67/67/67 68/68/68 66/66/66
f 66/66/66 68/68/68 69/69/69
f 67/67/67 70/70/70 68/68/68
f 73/73/73 72/72/72 71/71/71
f 74/74/74 73/73/73 71/71/71
f 75/75/75 73/73/73 74/74/74
f 76/76/76 75/75/75 74/74/74
f 76/76/76 77/77/77 75/75/75
f 75/75/75 77/77/77 78/78/78
f 76/76/76 79/79/79 77/77/77
f 82/82/82 81/81/81 80/80/80
f 83/83/83 82/82/82 80/80/80
f 83/83/83 80/80/80 84/84/84
f 85/85/85 83/83/83 84/84/84
f 86/86/86 85/85/85 84/84/84
f 84/84/84 87/87/87 86/86/86
f 85/85/85 86/86/86 88/88/88
