g EPI_BuildingBase_01
v -1.212703 -4.5 3.615312
v -1.212703 -2.500046 3.615312
v 1.212703 -2.500046 3.615312
v 1.212703 -4.5 3.615312
v -1.212703 -2.500046 -3.615313
v -1.212703 -4.5 -3.615313
v 1.212703 -4.5 -3.615313
v 1.212703 -2.500046 -3.615313
v 1.212703 -4.5 3.615312
v 1.212703 -2.500046 3.615312
v 1.212703 -2.500046 -3.615313
v 1.212703 -4.5 -3.615313
v -1.212703 4.5 -3.499955
v -1.212703 -2.500046 -3.499955
v 1.097345 -2.500046 -3.499955
v 1.097345 4.5 -3.499955
v 1.097345 -2.500046 3.499954
v 1.097345 4.5 3.499954
v 1.097345 4.5 -3.499955
v 1.097345 -2.500046 -3.499955
v -1.212703 -2.500046 3.499954
v -1.212703 4.5 3.499954
v 1.097345 4.5 3.499954
v 1.097345 -2.500046 3.499954
v 1.097345 -2.500046 3.499954
v 1.212703 -2.500046 3.615312
v -1.212703 -2.500046 3.615312
v -1.212703 -2.500046 3.499954
v -1.212703 -2.500046 -3.499955
v -1.212703 -2.500046 -3.615313
v 1.212703 -2.500046 -3.615313
v 1.097345 -2.500046 -3.499955
v 1.097345 -2.500046 -3.499955
v 1.212703 -2.500046 -3.615313
v 1.212703 -2.500046 3.615312
v 1.097345 -2.500046 3.499954
vt 0.4638968 0.3824482
vt 0.4638968 0.4267658
vt 0.5171977 0.4267658
vt 0.5171977 0.3824482
vt 0.4638968 0.4267658
vt 0.4638968 0.3824482
vt 0.5171977 0.3824482
vt 0.5171977 0.4267658
vt 0.8166412 0.9951096
vt 0.8699422 0.9951096
vt 0.8699422 0.802268
vt 0.8166412 0.802268
vt 0.8100535 0.9945107
vt 0.8100535 0.8064601
vt 0.7477692 0.8064601
vt 0.7477692 0.9945107
vt 0.5591198 0.8064601
vt 0.5591198 0.9945107
vt 0.7477692 0.9945107
vt 0.7477692 0.8064601
vt 0.7477692 0.8064601
vt 0.7477692 0.9945107
vt 0.8100535 0.9945107
vt 0.8100535 0.8064601
vt 0.5148022 0.4303592
vt 0.5171977 0.4267658
vt 0.4638968 0.4267658
vt 0.4638968 0.4303592
vt 0.4638968 0.4303592
vt 0.4638968 0.4267658
vt 0.5171977 0.4267658
vt 0.5148022 0.4303592
vt 0.8741344 0.8052624
vt 0.8699422 0.802268
vt 0.8699422 0.9951096
vt 0.8741344 0.9915162
vn -0.003921509 0.003921509 0.9999846
vn -0.003921509 0.003921509 0.9999846
vn -0.003921509 0.003921509 0.9999846
vn -0.003921509 0.003921509 0.9999846
vn -0.003921509 0.003921509 -0.9999846
vn -0.003921509 0.003921509 -0.9999846
vn -0.003921509 0.003921509 -0.9999846
vn -0.003921509 0.003921509 -0.9999846
vn 0.9999924 0.003921509 0
vn 0.9999924 0.003921509 0
vn 0.9999924 0.003921509 0
vn 0.9999924 0.003921509 0
vn -0.003921509 0.003921509 -0.9999846
vn -0.003921509 0.003921509 -0.9999846
vn -0.003921509 0.003921509 -0.9999846
vn -0.003921509 0.003921509 -0.9999846
vn 0.9999924 0.003921509 0
vn 0.9999924 0.003921509 0
vn 0.9999924 0.003921509 0
vn 0.9999924 0.003921509 0
vn -0.003921509 0.003921509 0.9999846
vn -0.003921509 0.003921509 0.9999846
vn -0.003921509 0.003921509 0.9999846
vn -0.003921509 0.003921509 0.9999846
vn -0.003921509 0.9999923 -0.000345267
vn -0.003921509 0.9999923 -0.000345267
vn -0.003921509 0.9999923 -0.000345267
vn -0.003921509 0.9999923 -0.000345267
vn -0.003921509 0.9999923 -0.000345267
vn -0.003921509 0.9999923 -0.000345267
vn -0.003921509 0.9999923 -0.000345267
vn -0.003921509 0.9999923 -0.000345267
vn -0.003921509 0.9999923 -0.000345267
vn -0.003921509 0.9999923 -0.000345267
vn -0.003921509 0.9999923 -0.000345267
vn -0.003921509 0.9999923 -0.000345267
g EPI_BuildingBase_01_0
f 3/3/3 2/2/2 1/1/1
f 4/4/4 3/3/3 1/1/1
f 7/7/7 6/6/6 5/5/5
f 8/8/8 7/7/7 5/5/5
f 11/11/11 10/10/10 9/9/9
f 12/12/12 11/11/11 9/9/9
f 15/15/15 14/14/14 13/13/13
f 16/16/16 15/15/15 13/13/13
f 19/19/19 18/18/18 17/17/17
f 20/20/20 19/19/19 17/17/17
f 23/23/23 22/22/22 21/21/21
f 24/24/24 23/23/23 21/21/21
f 27/27/27 26/26/26 25/25/25
f 28/28/28 27/27/27 25/25/25
f 31/31/31 30/30/30 29/29/29
f 32/32/32 31/31/31 29/29/29
f 35/35/35 34/34/34 33/33/33
f 36/36/36 35/35/35 33/33/33
