g EPI_DoorBack_Sedan_01
v 0.3923301 -0.8109891 0.1732711
v -0.7530055 -0.7970518 0.1732711
v -0.753324 -0.03853238 0.1732711
v 0.5560265 -0.4716676 0.1732711
v 0.7197474 -0.1323461 0.1732711
v 0.7110518 -0.03853238 0.1732711
v 0.7110518 -0.03853238 0.1732711
v 0.5242572 0.08281308 0.1429225
v 0.2967773 0.6037364 -0.03297216
v 0.395 0.6888301 -0.06114078
v 0.395 0.6888301 -0.06114078
v 0.2967773 0.6037364 -0.03297216
v 0.1677896 0.6748928 -0.03277618
v 0.1986281 0.7942542 -0.06993425
v 0.1986281 0.7942542 -0.06993425
v 0.1677896 0.6748928 -0.03277618
v -0.55487 0.6746724 -0.03353554
v -0.6682057 0.7942542 -0.06993425
v -0.6154692 0.0814414 0.138244
v -0.753324 -0.03853238 0.1732711
v 0.5242572 0.08281308 0.1429225
v 0.7110518 -0.03853238 0.1732711
v -0.7532505 -0.04948139 0.09403157
v -0.7530055 -0.7970518 0.09327221
v 0.3923301 -0.8109891 0.09327221
v 0.5560265 -0.4716676 0.09327221
v 0.7197474 -0.1323461 0.09327221
v 0.710121 -0.04828119 0.09388459
v 0.2919519 0.5833571 -0.1101786
v 0.5212934 0.05907798 0.06659776
v 0.710121 -0.04828119 0.09388459
v 0.3905175 0.6671525 -0.1380288
v 0.1636255 0.6530682 -0.1096398
v 0.2919519 0.5833571 -0.1101786
v 0.3905175 0.6671525 -0.1380288
v 0.1945375 0.7714989 -0.1465284
v -0.5543312 0.651819 -0.1102031
v 0.1636255 0.6530682 -0.1096398
v 0.1945375 0.7714989 -0.1465284
v -0.6677649 0.7714254 -0.1466019
v -0.6152488 0.05883306 0.06150293
v -0.7532505 -0.04948139 0.09403157
v 0.5212934 0.05907798 0.06659776
v -0.6152488 0.05883306 0.06150293
v -0.7532505 -0.04948139 0.09403157
v 0.710121 -0.04828119 0.09388459
v 0.5560265 -0.4716676 0.1732711
v 0.5560265 -0.4716676 0.09327221
v 0.3923301 -0.8109891 0.09327221
v 0.3923301 -0.8109891 0.1732711
v 0.7197474 -0.1323461 0.1732711
v 0.5560265 -0.4716676 0.09327221
v 0.7197474 -0.1323461 0.09327221
v -0.7530055 -0.7970518 0.1732711
v -0.7530055 -0.7970518 0.09327221
v -0.7532505 -0.04948139 0.09403157
v -0.753324 -0.03853238 0.1732711
v 0.3923301 -0.8109891 0.1732711
v 0.3923301 -0.8109891 0.09327221
v -0.7530055 -0.7970518 0.09327221
v -0.7530055 -0.7970518 0.1732711
v 0.7110518 -0.03853238 0.1732711
v 0.710121 -0.04828119 0.09388459
v 0.7197474 -0.1323461 0.09327221
v 0.7197474 -0.1323461 0.1732711
v 0.395 0.6888301 -0.06114078
v 0.3905175 0.6671525 -0.1380288
v 0.710121 -0.04828119 0.09388459
v 0.7110518 -0.03853238 0.1732711
v 0.5242572 0.08281308 0.1429225
v 0.5212934 0.05907798 0.06659776
v 0.2919519 0.5833571 -0.1101786
v 0.2967773 0.6037364 -0.03297216
v 0.1986281 0.7942542 -0.06993425
v 0.1945375 0.7714989 -0.1465284
v 0.3905175 0.6671525 -0.1380288
v 0.395 0.6888301 -0.06114078
v 0.2967773 0.6037364 -0.03297216
v 0.2919519 0.5833571 -0.1101786
v 0.1636255 0.6530682 -0.1096398
v 0.1677896 0.6748928 -0.03277618
v -0.6682057 0.7942542 -0.06993425
v -0.6677649 0.7714254 -0.1466019
v 0.1945375 0.7714989 -0.1465284
v 0.1986281 0.7942542 -0.06993425
v 0.1677896 0.6748928 -0.03277618
v 0.1636255 0.6530682 -0.1096398
v -0.5543312 0.651819 -0.1102031
v -0.55487 0.6746724 -0.03353554
v -0.753324 -0.03853238 0.1732711
v -0.7532505 -0.04948139 0.09403157
v -0.6677649 0.7714254 -0.1466019
v -0.6682057 0.7942542 -0.06993425
v -0.55487 0.6746724 -0.03353554
v -0.5543312 0.651819 -0.1102031
v -0.6152488 0.05883306 0.06150293
v -0.6154692 0.0814414 0.138244
v -0.6154692 0.0814414 0.138244
v -0.6152488 0.05883306 0.06150293
v 0.5212934 0.05907798 0.06659776
v 0.5242572 0.08281308 0.1429225
vt 0.9340474 0.8628837
vt 0.910119 0.8628837
vt 0.910119 0.8774117
vt 0.9373881 0.8690988
vt 0.9408064 0.8756248
vt 0.940651 0.8774117
vt 0.940651 0.8774117
vt 0.9367665 0.8797423
vt 0.9320275 0.8896866
vt 0.9340474 0.8913181
vt 0.9340474 0.8913181
vt 0.9320275 0.8896866
vt 0.9293083 0.891085
vt 0.9300075 0.893338
vt 0.9300075 0.893338
vt 0.9293083 0.891085
vt 0.9143142 0.8910074
vt 0.9119058 0.893338
vt 0.9129935 0.8796647
vt 0.910119 0.8774117
vt 0.9367665 0.8797423
vt 0.940651 0.8774117
vt 0.910119 0.8774117
vt 0.910119 0.8628837
vt 0.9340474 0.8628837
vt 0.9373881 0.8690988
vt 0.9408064 0.8756248
vt 0.940651 0.8774117
vt 0.9320275 0.8896866
vt 0.9367665 0.8797423
vt 0.940651 0.8774117
vt 0.9340474 0.8913181
vt 0.9293083 0.891085
vt 0.9320275 0.8896866
vt 0.9340474 0.8913181
vt 0.9300075 0.893338
vt 0.9143142 0.8910074
vt 0.9293083 0.891085
vt 0.9300075 0.893338
vt 0.9119058 0.893338
vt 0.9129935 0.8796647
vt 0.910119 0.8774117
vt 0.9367665 0.8797423
vt 0.9129935 0.8796647
vt 0.910119 0.8774117
vt 0.940651 0.8774117
vt 0.9373881 0.8690988
vt 0.9381649 0.8687104
vt 0.9346689 0.8621068
vt 0.9340474 0.8628837
vt 0.9408064 0.8756248
vt 0.9381649 0.8687104
vt 0.9415833 0.8753141
vt 0.910119 0.8628837
vt 0.9093421 0.8628837
vt 0.9093421 0.8774117
vt 0.910119 0.8774117
vt 0.9340474 0.8628837
vt 0.9346689 0.8621068
vt 0.910119 0.8621068
vt 0.910119 0.8628837
vt 0.940651 0.8774117
vt 0.9413502 0.8777224
vt 0.9415833 0.8753141
vt 0.9408064 0.8756248
vt 0.9340474 0.8913181
vt 0.9347466 0.8918619
vt 0.9413502 0.8777224
vt 0.940651 0.8774117
vt 0.9367665 0.8797423
vt 0.9353681 0.8804415
vt 0.9310175 0.8891428
vt 0.9320275 0.8896866
vt 0.9300075 0.893338
vt 0.9302406 0.8941926
vt 0.9347466 0.8918619
vt 0.9340474 0.8913181
vt 0.9320275 0.8896866
vt 0.9310175 0.8891428
vt 0.9286091 0.8902304
vt 0.9293083 0.891085
vt 0.9119058 0.893338
vt 0.9119058 0.8942703
vt 0.9302406 0.8941926
vt 0.9300075 0.893338
vt 0.9293083 0.891085
vt 0.9286091 0.8902304
vt 0.9152465 0.8902304
vt 0.9143142 0.8910074
vt 0.910119 0.8774117
vt 0.9093421 0.8774117
vt 0.9111289 0.893338
vt 0.9119058 0.893338
vt 0.9143142 0.8910074
vt 0.9152465 0.8902304
vt 0.9140812 0.8804415
vt 0.9129935 0.8796647
vt 0.9129935 0.8796647
vt 0.9140812 0.8804415
vt 0.9353681 0.8804415
vt 0.9367665 0.8797423
vn 0.003888249 -0.003888249 0.9999849
vn 0.003888249 -0.003888249 0.9999849
vn 0.003888249 -0.003888249 0.9999849
vn 0.003888249 -0.003888249 0.9999849
vn 0.003888249 -0.003888249 0.9999849
vn 0.003888249 -0.003888249 0.9999849
vn 0.03525954 0.3255101 0.9448809
vn 0.03525954 0.3255101 0.9448809
vn 0.03525954 0.3255101 0.9448809
vn 0.03525954 0.3255101 0.9448809
vn 0.1058449 0.2392391 0.9651744
vn 0.1058449 0.2392391 0.9651744
vn 0.1058449 0.2392391 0.9651744
vn 0.1058449 0.2392391 0.9651744
vn -0.00395453 0.2941388 0.9557545
vn -0.00395453 0.2941388 0.9557545
vn -0.00395453 0.2941388 0.9557545
vn -0.00395453 0.2941388 0.9557545
vn -0.00395453 0.2784532 0.9604416
vn -0.00395453 0.2784532 0.9604416
vn -0.00395453 0.2627676 0.9648511
vn -0.00395453 0.2627676 0.9648511
vn -0.00395453 0.00395453 -0.9999844
vn -0.00395453 0.00395453 -0.9999844
vn -0.00395453 0.00395453 -0.9999844
vn -0.00395453 0.00395453 -0.9999844
vn -0.00395453 0.00395453 -0.9999844
vn -0.00395453 0.00395453 -0.9999844
vn -0.02748299 -0.3254437 -0.9451619
vn -0.02748299 -0.3254437 -0.9451619
vn -0.02748299 -0.3254437 -0.9451619
vn -0.02748299 -0.3254437 -0.9451619
vn -0.1059113 -0.2391728 -0.9651835
vn -0.1059113 -0.2391728 -0.9651835
vn -0.1059113 -0.2391728 -0.9651835
vn -0.1059113 -0.2391728 -0.9651835
vn 0.003888249 -0.2940725 -0.9557752
vn 0.003888249 -0.2940725 -0.9557752
vn 0.003888249 -0.2940725 -0.9557752
vn 0.003888249 -0.2940725 -0.9557752
vn 0.003888249 -0.2783869 -0.9604611
vn 0.003888249 -0.2783869 -0.9604611
vn 0.003888249 -0.2705441 -0.9626997
vn 0.003888249 -0.2705441 -0.9626997
vn 0.003888249 -0.2705441 -0.9626997
vn 0.003888249 -0.2705441 -0.9626997
vn 0.8979695 -0.4352432 -0.06491651
vn 0.8979695 -0.4352432 -0.06491651
vn 0.8979695 -0.4352432 -0.06491651
vn 0.8979695 -0.4352432 -0.06491651
vn 0.8979695 -0.4352432 -0.06491651
vn 0.8979695 -0.4352432 -0.06491651
vn 0.8979695 -0.4352432 -0.06491651
vn -0.9999924 -0.003888249 -0.0003745743
vn -0.9999924 -0.003888249 -0.0003745743
vn -0.9999924 -0.003888249 -0.0003745743
vn -0.9999924 -0.003888249 -0.0003745743
vn -0.01179743 -0.9999261 -0.002939842
vn -0.01179743 -0.9999261 -0.002939842
vn -0.01179743 -0.9999261 -0.002939842
vn -0.01179743 -0.9999261 -0.002939842
vn 0.9920833 0.1059113 -0.06748036
vn 0.9920833 0.1059113 -0.06748036
vn 0.9920833 0.1059113 -0.06748036
vn 0.9920833 0.1059113 -0.06748036
vn 0.9214979 0.3725671 -0.1097056
vn 0.9214979 0.3725671 -0.1097056
vn 0.9214979 0.3725671 -0.1097056
vn 0.9214979 0.3725671 -0.1097056
vn -0.9215642 -0.356815 0.1529786
vn -0.9215642 -0.356815 0.1529786
vn -0.9215642 -0.356815 0.1529786
vn -0.9215642 -0.356815 0.1529786
vn 0.4666145 0.8431361 -0.2671937
vn 0.4666145 0.8431361 -0.2671937
vn 0.4666145 0.8431361 -0.2671937
vn 0.4666145 0.8431361 -0.2671937
vn -0.4666808 -0.8509126 0.2411573
vn -0.4666808 -0.8509126 0.2411573
vn -0.4666808 -0.8509126 0.2411573
vn -0.4666808 -0.8509126 0.2411573
vn 0.003888249 0.9607784 -0.2772901
vn 0.003888249 0.9607784 -0.2772901
vn 0.003888249 0.9607784 -0.2772901
vn 0.003888249 0.9607784 -0.2772901
vn 0.003888249 -0.960712 0.2775199
vn 0.003888249 -0.960712 0.2775199
vn 0.003888249 -0.960712 0.2775199
vn 0.003888249 -0.960712 0.2775199
vn -0.9921496 0.09806836 -0.07760015
vn -0.9921496 0.09806836 -0.07760015
vn -0.9921496 0.09806836 -0.07760015
vn -0.9921496 0.09806836 -0.07760015
vn 0.9920833 -0.09015924 0.08741914
vn 0.9920833 -0.09015924 0.08741914
vn 0.9920833 -0.09015924 0.08741914
vn 0.9920833 -0.09015924 0.08741914
vn 0.003888249 0.9607784 -0.2772901
vn 0.003888249 0.9607784 -0.2772901
vn 0.003888249 0.9607784 -0.2772901
vn 0.003888249 0.9607784 -0.2772901
g EPI_DoorBack_Sedan_01_0
f 3/3/3 2/2/2 1/1/1
f 4/4/4 3/3/3 1/1/1
f 3/3/3 4/4/4 5/5/5
f 6/6/6 3/3/3 5/5/5
f 9/9/9 8/8/8 7/7/7
f 10/10/10 9/9/9 7/7/7
f 13/13/13 12/12/12 11/11/11
f 14/14/14 13/13/13 11/11/11
f 17/17/17 16/16/16 15/15/15
f 18/18/18 17/17/17 15/15/15
f 19/19/19 17/17/17 18/18/18
f 20/20/20 19/19/19 18/18/18
f 21/21/21 19/19/19 20/20/20
f 22/22/22 21/21/21 20/20/20
f 25/25/25 24/24/24 23/23/23
f 26/26/26 25/25/25 23/23/23
f 27/27/27 26/26/26 23/23/23
f 28/28/28 27/27/27 23/23/23
f 31/31/31 30/30/30 29/29/29
f 32/32/32 31/31/31 29/29/29
f 35/35/35 34/34/34 33/33/33
f 36/36/36 35/35/35 33/33/33
f 39/39/39 38/38/38 37/37/37
f 40/40/40 39/39/39 37/37/37
f 40/40/40 37/37/37 41/41/41
f 42/42/42 40/40/40 41/41/41
f 45/45/45 44/44/44 43/43/43
f 46/46/46 45/45/45 43/43/43
f 49/49/49 48/48/48 47/47/47
f 50/50/50 49/49/49 47/47/47
f 47/47/47 52/52/52 51/51/51
f 52/52/52 53/53/53 51/51/51
f 56/56/56 55/55/55 54/54/54
f 57/57/57 56/56/56 54/54/54
f 60/60/60 59/59/59 58/58/58
f 61/61/61 60/60/60 58/58/58
f 64/64/64 63/63/63 62/62/62
f 65/65/65 64/64/64 62/62/62
f 68/68/68 67/67/67 66/66/66
f 69/69/69 68/68/68 66/66/66
f 72/72/72 71/71/71 70/70/70
f 73/73/73 72/72/72 70/70/70
f 76/76/76 75/75/75 74/74/74
f 77/77/77 76/76/76 74/74/74
f 80/80/80 79/79/79 78/78/78
f 81/81/81 80/80/80 78/78/78
f 84/84/84 83/83/83 82/82/82
f 85/85/85 84/84/84 82/82/82
f 88/88/88 87/87/87 86/86/86
f 89/89/89 88/88/88 86/86/86
f 92/92/92 91/91/91 90/90/90
f 93/93/93 92/92/92 90/90/90
f 96/96/96 95/95/95 94/94/94
f 97/97/97 96/96/96 94/94/94
f 100/100/100 99/99/99 98/98/98
f 101/101/101 100/100/100 98/98/98
