g EPI_Rock_04
v 0.3866687 -0.1571053 -0.1105878
v 0.3396662 0.04260182 0.2860591
v 0.1596445 0.1367922 -0.02795187
v 0.2209831 0.04260182 0.4674217
v -0.06953377 0.0131022 -0.390135
v 0.005270839 -0.1322561 -0.4674217
v -0.1668339 0.0448699 -0.3544873
v -0.2871004 -0.1228555 -0.3227339
v -0.1414854 0.1672333 0.08164454
v -0.1219283 -0.08098838 0.4015326
v -0.3866687 -0.06446975 0.1708851
v -0.02417171 -0.1672333 0.03895003
v 0.005270839 -0.1322561 -0.4674217
v 0.3866687 -0.1571053 -0.1105878
v 0.1510999 -0.1450516 0.3888798
v 0.2209831 0.04260182 0.4674217
v 0.3075847 -0.1450516 0.2514527
v 0.3396662 0.04260182 0.2860591
vt 0.3404771 0.6789433
vt 0.3336241 0.6679022
vt 0.3321012 0.6766589
vt 0.3286746 0.6640949
vt 0.3275324 0.6865578
vt 0.3305783 0.6903651
vt 0.3252481 0.6854156
vt 0.3199179 0.6877
vt 0.3248673 0.6758975
vt 0.318395 0.6686637
vt 0.3191564 0.6762782
vt 0.3123034 0.6781818
vt 0.3115419 0.6911266
vt 0.301643 0.6800855
vt 0.3107805 0.6686637
vt 0.3092575 0.6637142
vt 0.3062117 0.6713288
vt 0.3035466 0.6671407
vn 0.8341246 -0.395354 -0.3846186
vn 0.8189946 0.459492 0.3436787
vn 0.4029191 0.8831325 -0.2402775
vn 0.3197039 0.3838419 0.8662879
vn 0.03979862 0.6486173 -0.7600735
vn 0.2213588 -0.372659 -0.9011801
vn -0.421667 0.7091373 -0.5650851
vn -0.7923524 -0.365094 -0.4887576
vn -0.3384519 0.9360876 0.09586647
vn -0.520012 -0.2516189 0.816257
vn -0.9209576 -0.1608388 0.3549198
vn -0.1115016 -0.9929898 0.03922695
vn 0.2213588 -0.372659 -0.9011801
vn 0.8341246 -0.395354 -0.3846186
vn 0.1759688 -0.7887346 0.58901
vn 0.3197039 0.3838419 0.8662879
vn 0.6071743 -0.7282144 0.3178729
vn 0.8189946 0.459492 0.3436787
g EPI_Rock_04_0
f 3/3/3 2/2/2 1/1/1
f 4/4/4 2/2/2 3/3/3
f 3/3/3 1/1/1 5/5/5
f 1/1/1 6/6/6 5/5/5
f 7/7/7 5/5/5 6/6/6
f 3/3/3 5/5/5 7/7/7
f 8/8/8 7/7/7 6/6/6
f 9/9/9 4/4/4 3/3/3
f 9/9/9 3/3/3 7/7/7
f 10/10/10 4/4/4 9/9/9
f 11/11/11 9/9/9 7/7/7
f 8/8/8 11/11/11 7/7/7
f 11/11/11 10/10/10 9/9/9
f 11/11/11 8/8/8 12/12/12
f 11/11/11 12/12/12 10/10/10
f 8/8/8 13/13/13 12/12/12
f 12/12/12 13/13/13 14/14/14
f 12/12/12 15/15/15 10/10/10
f 15/15/15 12/12/12 14/14/14
f 10/10/10 15/15/15 16/16/16
f 17/17/17 15/15/15 14/14/14
f 16/16/16 15/15/15 17/17/17
f 14/14/14 18/18/18 17/17/17
f 18/18/18 16/16/16 17/17/17
