g EPI_WoodFence_02
v 0.1376848 -0.6399262 -1.220131
v 0.1828315 -1.575361 -1.264456
v -0.03683186 -1.575361 -1.244285
v 0.1015168 1.002428 1.574413
v -0.09064126 1.236192 1.577637
v -0.09064126 1.181244 1.459143
v 0.188712 1.199138 0.02298427
v -0.04321814 1.487787 0.08880758
v -0.03980374 1.314977 -0.03189993
v -0.1383171 1.535462 1.187757
v 0.09728038 1.380547 1.109161
v -0.1864989 1.180043 1.220763
v 0.1342703 -1.577068 1.12813
v -0.0136261 -1.575361 1.200909
v 0.09367621 -0.710049 1.115041
v 0.08615184 1.371632 -0.5996482
v -0.1065121 0.964679 -0.5157411
v -0.1326263 1.470145 -0.5654404
v -0.03683186 -1.575361 -1.244285
v 0.06604457 -1.575361 -1.185986
v 0.1376848 -0.6399262 -1.220131
v 0.1605743 1.346213 0.3065741
v 0.188712 1.199138 0.02298427
v 0.1605743 0.7275639 0.2984173
v 0.08615184 1.371632 -0.5996482
v 0.1225095 -0.7452053 -0.5721428
v -0.1065121 0.964679 -0.5157411
v 0.1225095 -0.7452053 -0.5721428
v 0.08615184 1.371632 -0.5996482
v 0.08615184 1.492276 -1.304165
v 0.09999931 0.740716 -1.313586
v 0.1225095 -0.7452053 -0.5721428
v 0.1376848 -0.6399262 -1.220131
v 0.01463795 -1.575361 -0.6079947
v 0.06604457 -1.575361 -1.185986
v 0.09999931 0.740716 -1.313586
v 0.1074605 1.11599 -1.428855
v 0.1137836 1.167333 -1.956895
v 0.1553262 -0.6294299 -1.92509
v 0.1376848 -0.6399262 -1.220131
v 0.1828315 -1.575361 -1.264456
v 0.08710027 -1.575361 -1.985096
v 0.03335428 -1.575361 2.035933
v 0.09367621 -0.710049 1.115041
v -0.0136261 -1.575361 1.200909
v 0.1553262 -0.705117 1.92098
v 0.09936702 0.2597833 1.146025
v 0.1015168 1.151399 2.009946
v 0.2069857 -0.7046112 -0.4991747
v 0.1340175 -1.575361 -0.5555133
v 0.1340806 -1.575361 0.3658843
v 0.1606376 -0.6065403 0.3454609
v 0.2069857 0.8894978 -0.4748309
v 0.1605743 0.7275639 0.2984173
v 0.188712 1.199138 0.02298427
v 0.2069857 1.319909 -0.4028744
v 0.1342703 -1.577068 1.12813
v -0.06749868 -0.6258889 0.2982907
v -0.061239 -1.575361 0.2929795
v 0.09367621 -0.710049 1.115041
v 0.09936702 0.2597833 1.146025
v 0.03114104 0.7559545 0.4678123
v 0.09728038 1.380547 1.109161
v 0.03019261 1.569797 0.4999335
v 0.1015168 1.002428 1.574413
v 0.1015168 1.061169 1.311436
v 0.09936702 0.2597833 1.146025
v 0.1015168 1.151399 2.009946
v -0.07837439 1.263128 -2.039917
v 0.1137836 1.167333 -1.956895
v 0.1074605 1.11599 -1.428855
v -0.08469748 1.211785 -1.412226
v -0.08469748 1.211785 -1.412226
v 0.1074605 1.11599 -1.428855
v 0.09999931 0.740716 -1.313586
v -0.1442609 0.7881389 -1.304354
v -0.03683186 -0.6571882 -1.997805
v 0.1137836 1.167333 -1.956895
v -0.07837439 1.263128 -2.039917
v 0.1553262 -0.6294299 -1.92509
v -0.03683186 -1.575361 -2.071912
v 0.08710027 -1.575361 -1.985096
v -0.03683186 -0.6962647 1.994391
v 0.03335428 -1.575361 2.035933
v -0.1408463 -1.562588 2.06287
v 0.1553262 -0.705117 1.92098
v -0.09064126 1.279062 2.071912
v 0.1015168 1.151399 2.009946
v -0.06749868 -0.6258889 0.2982907
v 0.1340806 -1.575361 0.3658843
v -0.061239 -1.575361 0.2929795
v 0.1606376 -0.6065403 0.3454609
v -0.03683186 0.8005321 0.3670225
v 0.1605743 0.7275639 0.2984173
v -0.04960442 1.475646 0.3799849
v 0.1605743 1.346213 0.3065741
v 0.01463795 -1.575361 -0.6079947
v 0.1340175 -1.575361 -0.5555133
v 0.2069857 -0.7046112 -0.4991747
v 0.1225095 -0.7452053 -0.5721428
v 0.2069857 0.8894978 -0.4748309
v -0.1065121 0.964679 -0.5157411
v 0.2069857 1.319909 -0.4028744
v -0.03683186 1.430563 -0.4754632
v 0.1015168 1.002428 1.574413
v 0.1015168 1.151399 2.009946
v -0.09064126 1.279062 2.071912
v -0.09064126 1.236192 1.577637
v -0.09064126 1.19604 1.250165
v 0.1015168 1.061169 1.311436
v 0.1015168 1.002428 1.574413
v -0.09064126 1.181244 1.459143
v 0.03019261 1.569797 0.4999335
v 0.09728038 1.380547 1.109161
v -0.1383171 1.535462 1.187757
v -0.1944027 1.695752 0.4227288
v -0.2069857 0.7708769 0.3931999
v 0.03019261 1.569797 0.4999335
v -0.1944027 1.695752 0.4227288
v 0.03114104 0.7559545 0.4678123
v -0.06749868 -0.6258889 0.2982907
v -0.1864989 1.180043 1.220763
v 0.09728038 1.380547 1.109161
v 0.09936702 0.2597833 1.146025
v -0.1494458 0.2818508 1.157722
v -0.1442609 0.7881389 -1.304354
v 0.09999931 0.740716 -1.313586
v 0.08615184 1.492276 -1.304165
v -0.1326263 1.570429 -1.333061
v -0.1326263 1.570429 -1.333061
v 0.08615184 1.492276 -1.304165
v 0.08615184 1.371632 -0.5996482
v -0.1326263 1.470145 -0.5654404
v 0.188712 1.199138 0.02298427
v 0.1605743 1.346213 0.3065741
v -0.04960442 1.475646 0.3799849
v -0.04321814 1.487787 0.08880758
v -0.03683186 1.430563 -0.4754632
v 0.2069857 1.319909 -0.4028744
v 0.188712 1.199138 0.02298427
v -0.03980374 1.314977 -0.03189993
v 0.09936702 0.2597833 1.146025
v 0.1015168 1.061169 1.311436
v -0.09064126 1.19604 1.250165
v -0.1494458 0.2818508 1.157722
vt 0.9273071 0.3356183
vt 0.9266363 0.3107969
vt 0.9205986 0.3107969
vt 0.8629056 0.3758692
vt 0.8622348 0.3839194
vt 0.865589 0.3825777
vt 0.821313 0.3819069
vt 0.8193004 0.3919696
vt 0.8233255 0.3886154
vt 0.8897396 0.3872737
vt 0.8957772 0.3832486
vt 0.8883979 0.3785526
vt 0.8930938 0.3081135
vt 0.8890687 0.3081135
vt 0.8944355 0.3302515
vt 0.9688998 0.381236
vt 0.963533 0.3711733
vt 0.963533 0.3839194
vt 0.9896961 0.3087843
vt 0.9863418 0.3087843
vt 0.9863418 0.332264
vt 0.8132628 0.3852611
vt 0.821313 0.3819069
vt 0.8132628 0.3691607
vt 0.9688998 0.381236
vt 0.9702415 0.3289098
vt 0.963533 0.3711733
vt 0.9702415 0.3289098
vt 0.9688998 0.381236
vt 0.9863418 0.3852611
vt 0.9870127 0.3664773
vt 0.9702415 0.3289098
vt 0.9863418 0.332264
vt 0.972254 0.3081135
vt 0.9863418 0.3087843
vt 0.9333448 0.3718441
vt 0.9373699 0.381236
vt 0.9514577 0.381236
vt 0.9460909 0.3342766
vt 0.9273071 0.3356183
vt 0.9266363 0.3107969
vt 0.9460909 0.3087843
vt 0.8555263 0.3074426
vt 0.8776643 0.3315932
vt 0.8769934 0.3087843
vt 0.856868 0.3302515
vt 0.8756517 0.3570855
vt 0.8515012 0.3785526
vt 0.8327174 0.3302515
vt 0.8340591 0.3067718
vt 0.8092377 0.3074426
vt 0.8105794 0.3336057
vt 0.8340591 0.3718441
vt 0.8132628 0.3691607
vt 0.821313 0.3819069
vt 0.8333883 0.3832486
vt 0.8930938 0.3081135
vt 0.9159027 0.3315932
vt 0.9152318 0.3074426
vt 0.8944355 0.3302515
vt 0.8944355 0.3544021
vt 0.9118776 0.3664773
vt 0.8957772 0.3832486
vt 0.9118776 0.3872737
vt 0.8629056 0.3758692
vt 0.8696141 0.3772109
vt 0.8756517 0.3570855
vt 0.8515012 0.3785526
vt 0.9541411 0.3866028
vt 0.9514577 0.381236
vt 0.9373699 0.381236
vt 0.9373699 0.3872737
vt 0.9340156 0.3852611
vt 0.9373699 0.381236
vt 0.9333448 0.3718441
vt 0.927978 0.3751984
vt 0.9514577 0.3329349
vt 0.9514577 0.381236
vt 0.9574953 0.3832486
vt 0.9460909 0.3342766
vt 0.9494451 0.3081135
vt 0.9460909 0.3087843
vt 0.8515012 0.3302515
vt 0.8555263 0.3074426
vt 0.8508303 0.3074426
vt 0.856868 0.3302515
vt 0.8454635 0.381236
vt 0.8515012 0.3785526
vt 0.8045418 0.3329349
vt 0.8092377 0.3074426
vt 0.8038709 0.3081135
vt 0.8105794 0.3336057
vt 0.807896 0.3711733
vt 0.8132628 0.3691607
vt 0.807896 0.3886154
vt 0.8132628 0.3852611
vt 0.8374134 0.3067718
vt 0.8340591 0.3067718
vt 0.8327174 0.3302515
vt 0.8360717 0.3289098
vt 0.8340591 0.3718441
vt 0.8421093 0.3738567
vt 0.8333883 0.3832486
vt 0.8400968 0.385932
vt 0.8629056 0.3758692
vt 0.8515012 0.3785526
vt 0.8494886 0.3845903
vt 0.8622348 0.3839194
vt 0.8709558 0.3832486
vt 0.8696141 0.3772109
vt 0.8629056 0.3758692
vt 0.865589 0.3825777
vt 0.9118776 0.3872737
vt 0.8957772 0.3832486
vt 0.8937647 0.3899571
vt 0.9132193 0.3939822
vt 0.9185861 0.3671482
vt 0.9118776 0.3872737
vt 0.9179152 0.3906279
vt 0.9118776 0.3664773
vt 0.9159027 0.3315932
vt 0.8883979 0.3785526
vt 0.8957772 0.3832486
vt 0.8944355 0.3544021
vt 0.8883979 0.3557438
vt 0.9930503 0.3684899
vt 0.9870127 0.3664773
vt 0.9863418 0.3852611
vt 0.9910378 0.3879445
vt 0.985671 0.3912988
vt 0.9863418 0.3852611
vt 0.9688998 0.381236
vt 0.9668872 0.3872737
vt 0.821313 0.3819069
vt 0.8132628 0.3852611
vt 0.8112502 0.3919696
vt 0.8193004 0.3919696
vt 0.8354008 0.3899571
vt 0.8333883 0.3832486
vt 0.821313 0.3819069
vt 0.8233255 0.3886154
vt 0.8756517 0.3570855
vt 0.8696141 0.3772109
vt 0.8743101 0.3819069
vt 0.8816894 0.359098
vn 0.08996844 -0.04484308 0.9949346
vn 0.08996844 -0.04484308 0.9949346
vn 0.08996844 -0.04484308 0.9949346
vn 0.7367654 0.6094748 -0.2927751
vn 0.7367654 0.6094748 -0.2927751
vn 0.7367654 0.6094748 -0.2927751
vn 0.4359296 0.519224 -0.7350999
vn 0.4359296 0.519224 -0.7350999
vn 0.4359296 0.519224 -0.7350999
vn 0.338158 0.03788674 0.9403265
vn 0.338158 0.03788674 0.9403265
vn 0.338158 0.03788674 0.9403265
vn 0.4434505 0.03788674 0.8954978
vn 0.4434505 0.03788674 0.8954978
vn 0.4434505 0.03788674 0.8954978
vn 0.2027819 0.1055748 0.973516
vn 0.2027819 0.1055748 0.973516
vn 0.2027819 0.1055748 0.973516
vn 0.4885758 -0.06740576 -0.8699139
vn 0.4885758 -0.06740576 -0.8699139
vn 0.4885758 -0.06740576 -0.8699139
vn 0.9924757 0.0002822876 0.122441
vn 0.9924757 0.0002822876 0.122441
vn 0.9924757 0.0002822876 0.122441
vn 0.3682415 0.01532412 0.9296039
vn 0.3682415 0.01532412 0.9296039
vn 0.3682415 0.01532412 0.9296039
vn 0.9998826 0.01532237 0
vn 0.9998826 0.01532237 0
vn 0.9997391 0.02283915 0
vn 0.9997391 0.02283915 0
vn 0.9989961 -0.04479821 0
vn 0.9997519 -0.02227488 0
vn 0.9924757 -0.0974893 0.07407913
vn 0.9924757 -0.0974893 0.07407913
vn 0.9997391 0.02283915 0
vn 0.9998912 -0.01475792 0
vn 0.9997391 0.02283915 0
vn 0.9998826 0.01532237 0
vn 0.9998826 0.01532237 0
vn 0.9999738 -0.007238401 0
vn 0.9999738 -0.007238401 0
vn 0.9849549 -0.1350938 -0.1077659
vn 0.9924757 -0.02228034 -0.1203971
vn 0.9849549 -0.1350938 -0.1077659
vn 0.9989961 -0.04479821 0
vn 0.9924757 0.0002822876 -0.122441
vn 0.9998826 0.01532237 0
vn 0.9997519 -0.02227488 0
vn 0.9986318 -0.05229246 0
vn 0.9986318 -0.05229246 0
vn 0.9997519 -0.02227488 0
vn 0.9999738 -0.007238401 0
vn 0.9999967 0.0002822876 0.002568275
vn 0.9997519 -0.02227488 0
vn 0.9997519 -0.02227488 0
vn 0.977434 0.02284503 -0.2100022
vn 0.9849549 -0.007238567 -0.1726599
vn 0.977434 0.02284503 -0.2100022
vn 0.9924757 -0.02228034 -0.1203971
vn 0.9924757 0.0002822876 -0.122441
vn 0.9924757 -0.01475948 -0.1215485
vn 0.9924757 0.0002822876 -0.122441
vn 0.9924757 0.0002822876 -0.122441
vn 0.9999967 0.0002822876 -0.002568275
vn 0.9999967 0.0002822876 -0.002568275
vn 0.9999967 0.0002822876 -0.002568275
vn 0.9999738 -0.007238401 0
vn 0.4359296 0.8952688 0.09197364
vn 0.4359296 0.8952688 0.09197364
vn 0.4359296 0.8952688 0.09197364
vn 0.4359296 0.8952688 0.09197364
vn 0.1426147 0.2559928 0.9561008
vn 0.1426147 0.2559928 0.9561008
vn 0.1426147 0.2559928 0.9561008
vn 0.1426147 0.2559928 0.9561008
vn 0.3983251 0.007803202 -0.9172111
vn 0.3757624 -0.007238567 -0.9266878
vn 0.3757624 -0.007238567 -0.9266878
vn 0.3908042 0.007803202 -0.9204407
vn 0.4434505 0.04540765 -0.895148
vn 0.4434505 0.04540765 -0.895148
vn 0.3080744 0.0002822876 0.9513623
vn 0.2704699 0.0679704 0.960326
vn 0.2704699 0.0679704 0.960326
vn 0.3080744 0.0002822876 0.9513623
vn 0.3231161 -0.02980125 0.94589
vn 0.3231161 -0.02980125 0.94589
vn -0.09805393 0.0002822876 0.9951811
vn -0.2710345 0.007803202 0.962538
vn -0.2710345 0.007803202 0.962538
vn -0.07549131 0.0002822876 0.9971464
vn 0.1651773 -0.007238567 0.9862373
vn 0.1125311 -0.007238567 0.9936218
vn 0.3231161 -0.01475948 0.9462442
vn 0.3231161 -0.01475948 0.9462442
vn 0.5261803 -0.007238567 -0.8503423
vn 0.5261803 -0.007238567 -0.8503423
vn 0.3155953 0.03788674 -0.9481372
vn 0.3607206 0.02284503 -0.9323941
vn 0.2704699 0.05292857 -0.9612724
vn 0.262949 0.06044948 -0.9629142
vn 0.2328654 0.1055748 -0.9667614
vn 0.2328654 0.1055748 -0.9667614
vn 0.6615564 0.729809 -0.1724004
vn 0.6615564 0.729809 -0.1724004
vn 0.6615564 0.729809 -0.1724004
vn 0.6615564 0.729809 -0.1724004
vn 0.5938684 0.7974972 0.1063893
vn 0.5938684 0.7974972 0.1063893
vn 0.5938684 0.7974972 0.1063893
vn 0.5938684 0.7974972 0.1063893
vn 0.5111385 0.8426225 0.1694837
vn 0.5111385 0.8426225 0.1694837
vn 0.5111385 0.8426225 0.1694837
vn 0.5111385 0.8426225 0.1694837
vn 0.3155953 0.06044948 -0.9469665
vn 0.3231161 0.03036594 -0.945872
vn 0.3231161 0.03036594 -0.945872
vn 0.3155953 0.06044948 -0.9469665
vn 0.3005534 0.09805393 -0.9487112
vn 0.2253445 -0.007238567 0.9742522
vn 0.2253445 -0.007238567 0.9742522
vn 0.7518072 0.2033465 0.6272449
vn 0.7066817 0.1807837 0.6840454
vn 0.03732216 -0.01475948 -0.9991943
vn 0.03732216 -0.01475948 -0.9991943
vn 0.03732216 -0.01475948 -0.9991943
vn 0.03732216 -0.01475948 -0.9991943
vn 0.3757624 0.9178314 0.1280161
vn 0.3757624 0.9178314 0.1280161
vn 0.3757624 0.9178314 0.1280161
vn 0.3757624 0.9178314 0.1280161
vn 0.6615564 0.73733 -0.1367031
vn 0.6615564 0.73733 -0.1367031
vn 0.6615564 0.73733 -0.1367031
vn 0.6615564 0.73733 -0.1367031
vn 0.3607206 0.8952688 0.261485
vn 0.3607206 0.8952688 0.261485
vn 0.3607206 0.8952688 0.261485
vn 0.3607206 0.8952688 0.261485
vn 0.7518072 0.2033465 0.6272449
vn 0.1576565 0.1431793 -0.9770589
vn 0.1576565 0.1431793 -0.9770589
vn 0.7066817 0.1807837 0.6840454
g EPI_WoodFence_02_0
f 3/3/3 2/2/2 1/1/1
f 6/6/6 5/5/5 4/4/4
f 9/9/9 8/8/8 7/7/7
f 12/12/12 11/11/11 10/10/10
f 15/15/15 14/14/14 13/13/13
f 18/18/18 17/17/17 16/16/16
f 21/21/21 20/20/20 19/19/19
f 24/24/24 23/23/23 22/22/22
f 27/27/27 26/26/26 25/25/25
f 30/30/30 29/29/29 28/28/28
f 30/30/30 32/32/32 31/31/31
f 32/32/32 33/33/33 31/31/31
f 32/32/32 34/34/34 33/33/33
f 34/34/34 35/35/35 33/33/33
f 38/38/38 37/37/37 36/36/36
f 39/39/39 38/38/38 36/36/36
f 40/40/40 39/39/39 36/36/36
f 40/40/40 41/41/41 39/39/39
f 41/41/41 42/42/42 39/39/39
f 45/45/45 44/44/44 43/43/43
f 44/44/44 46/46/46 43/43/43
f 44/44/44 47/47/47 46/46/46
f 47/47/47 48/48/48 46/46/46
f 51/51/51 50/50/50 49/49/49
f 52/52/52 51/51/51 49/49/49
f 52/52/52 49/49/49 53/53/53
f 54/54/54 52/52/52 53/53/53
f 54/54/54 53/53/53 55/55/55
f 53/53/53 56/56/56 55/55/55
f 59/59/59 58/58/58 57/57/57
f 58/58/58 60/60/60 57/57/57
f 61/61/61 60/60/60 58/58/58
f 62/62/62 61/61/61 58/58/58
f 63/63/63 61/61/61 62/62/62
f 64/64/64 63/63/63 62/62/62
f 67/67/67 66/66/66 65/65/65
f 67/67/67 65/65/65 68/68/68
f 71/71/71 70/70/70 69/69/69
f 72/72/72 71/71/71 69/69/69
f 75/75/75 74/74/74 73/73/73
f 76/76/76 75/75/75 73/73/73
f 79/79/79 78/78/78 77/77/77
f 78/78/78 80/80/80 77/77/77
f 77/77/77 80/80/80 81/81/81
f 80/80/80 82/82/82 81/81/81
f 85/85/85 84/84/84 83/83/83
f 84/84/84 86/86/86 83/83/83
f 83/83/83 86/86/86 87/87/87
f 86/86/86 88/88/88 87/87/87
f 91/91/91 90/90/90 89/89/89
f 90/90/90 92/92/92 89/89/89
f 89/89/89 92/92/92 93/93/93
f 92/92/92 94/94/94 93/93/93
f 93/93/93 94/94/94 95/95/95
f 94/94/94 96/96/96 95/95/95
f 99/99/99 98/98/98 97/97/97
f 100/100/100 99/99/99 97/97/97
f 101/101/101 99/99/99 100/100/100
f 102/102/102 101/101/101 100/100/100
f 103/103/103 101/101/101 102/102/102
f 104/104/104 103/103/103 102/102/102
f 107/107/107 106/106/106 105/105/105
f 108/108/108 107/107/107 105/105/105
f 111/111/111 110/110/110 109/109/109
f 112/112/112 111/111/111 109/109/109
f 115/115/115 114/114/114 113/113/113
f 116/116/116 115/115/115 113/113/113
f 119/119/119 118/118/118 117/117/117
f 118/118/118 120/120/120 117/117/117
f 117/117/117 120/120/120 121/121/121
f 124/124/124 123/123/123 122/122/122
f 125/125/125 124/124/124 122/122/122
f 128/128/128 127/127/127 126/126/126
f 129/129/129 128/128/128 126/126/126
f 132/132/132 131/131/131 130/130/130
f 133/133/133 132/132/132 130/130/130
f 136/136/136 135/135/135 134/134/134
f 137/137/137 136/136/136 134/134/134
f 140/140/140 139/139/139 138/138/138
f 141/141/141 140/140/140 138/138/138
f 144/144/144 143/143/143 142/142/142
f 145/145/145 144/144/144 142/142/142
