g EPI_Rock_06
v 0.21521 -0.02580816 -0.1701638
v -0.1088739 -0.09280668 -0.3228229
v 0.07983252 -0.1327982 -0.238304
v -0.09592053 0.02328604 -0.2869831
v 0.3401044 -0.01763964 0.02555913
v -0.3401045 -0.03668568 0.02555913
v 0.07983252 -0.1327982 -0.238304
v -0.04621395 0.1376558 0.02555913
v 0.01973626 0.07452875 0.2614085
v -0.2029106 -0.01876059 0.2746213
v -0.009927869 -0.1376557 0.02555913
v 0.21521 -0.02580816 -0.1701638
v 0.3401044 -0.01763964 0.02555913
v -0.03279349 -0.1302553 0.3228229
v 0.1814253 -0.04424185 0.2793855
v 0.01973626 0.07452875 0.2614085
vt 0.517418 0.798227
vt 0.5137528 0.7872314
vt 0.5131889 0.7939979
vt 0.5162902 0.7894869
vt 0.5233386 0.8016102
vt 0.5227748 0.7855399
vt 0.5131889 0.7807469
vt 0.5241844 0.7917424
vt 0.530387 0.7917424
vt 0.5292593 0.7838482
vt 0.5199554 0.7799011
vt 0.5137528 0.7751082
vt 0.5188276 0.7703152
vt 0.5267218 0.7790552
vt 0.5247483 0.7748262
vt 0.530387 0.7745443
vn 0.8041452 0.07292902 -0.5899422
vn -0.3156906 -0.4360873 -0.8427143
vn 0.310791 -0.718004 -0.6227995
vn -0.1825633 0.6367624 -0.7491357
vn 0.9999207 0.01028085 -0.007269974
vn -0.9969894 -0.07586038 0.01604382
vn 0.310791 -0.718004 -0.6227995
vn -0.08073942 0.9967352 0
vn 0.05236733 0.7777208 0.6264248
vn -0.6994106 0.01811182 0.7144906
vn 0.005381227 -0.9999207 0.01138334
vn 0.8041452 0.07292902 -0.5899422
vn 0.9999207 0.01028085 -0.007269974
vn -0.02594292 -0.6396939 0.7681918
vn 0.6631869 -0.1620016 0.730711
vn 0.05236733 0.7777208 0.6264248
g EPI_Rock_06_0
f 3/3/3 2/2/2 1/1/1
f 2/2/2 4/4/4 1/1/1
f 5/5/5 1/1/1 4/4/4
f 6/6/6 4/4/4 2/2/2
f 6/6/6 2/2/2 7/7/7
f 8/8/8 5/5/5 4/4/4
f 6/6/6 8/8/8 4/4/4
f 8/8/8 9/9/9 5/5/5
f 9/9/9 8/8/8 6/6/6
f 10/10/10 9/9/9 6/6/6
f 11/11/11 6/6/6 7/7/7
f 6/6/6 11/11/11 10/10/10
f 11/11/11 7/7/7 12/12/12
f 13/13/13 11/11/11 12/12/12
f 11/11/11 14/14/14 10/10/10
f 11/11/11 13/13/13 14/14/14
f 14/14/14 15/15/15 10/10/10
f 13/13/13 15/15/15 14/14/14
f 15/15/15 16/16/16 10/10/10
f 13/13/13 16/16/16 15/15/15
