g Bullet_AssaultCannon_Trail
v -0.09 -0.7166667 0
v -0.05386871 -0.7166667 0
v -0.01601807 -1.25 0
v 0.01601807 -1.25 0
v -0.0852859 -0.2204129 0
v -0.12 -0.220413 0
v -0.12 0.01347456 0
v 0.05386872 -0.7166667 0
v 0.09 -0.7166667 0
v 0.08528591 -0.2204129 0
v 0.12 -0.2204129 0
v -0.0861868 0.01347457 0
v -0.09 0.1260871 0
v 0.0861868 0.01347457 0
v 0.12 0.01347458 0
v 0.09 0.1260871 0
v -0.05190763 0.1260872 0
v -0.0686475 0.1699621 0
v 0.05190763 0.126087 0
v 0.0686475 0.1699621 0
v -0.03714496 0.1699621 0
v -0.03830287 0.2138371 0
v 0.03714496 0.1699621 0
v 0.03830287 0.2138371 0
v -0.01409792 0.2138371 0
v -0.00589275 0.2474745 0
v 0.00589275 0.2474745 0
v 0.01409792 0.2138371 0
vt 0 0.2210738
vt 0.1487131 0.2210738
vt 0.1487131 0
vt 0.8512871 0
vt 0.1487131 0.3461207
vt 0 0.3461207
vt 0 0.6619177
vt 0.8512871 0.2210738
vt 1 0.2210738
vt 0.8512871 0.3461207
vt 1 0.3461207
vt 0.1487131 0.6619177
vt 0 0.8224584
vt 0.8512871 0.6619177
vt 1 0.6619177
vt 1 0.8224584
vt 0.1487131 0.8224584
vt 0 0.8566418
vt 0.8512871 0.8224584
vt 1 0.8566418
vt 0.1487131 0.8566418
vt 0 0.9465593
vt 0.8512871 0.8566418
vt 1 0.9465593
vt 0.1487131 0.9465593
vt 0.1487131 1
vt 0.8512871 1
vt 0.8512871 0.9465593
vn 0 0 1
vn 0 0 1
vn 0 0 1
vn 0 0 1
vn 0 0 1
vn 0 0 1
vn 0 0 1
vn 0 0 1
vn 0 0 1
vn 0 0 1
vn 0 0 1
vn 0 0 1
vn 0 0 1
vn 0 0 1
vn 0 0 1
vn 0 0 1
vn 0 0 1
vn 0 0 1
vn 0 0 1
vn 0 0 1
vn 0 0 1
vn 0 0 1
vn 0 0 1
vn 0 0 1
vn 0 0 1
vn 0 0 1
vn 0 0 1
vn 0 0 1
g Bullet_AssaultCannon_Trail_0
f 3/3/3 2/2/2 1/1/1
f 3/3/3 4/4/4 2/2/2
f 2/2/2 5/5/5 1/1/1
f 5/5/5 6/6/6 1/1/1
f 6/6/6 5/5/5 7/7/7
f 4/4/4 8/8/8 2/2/2
f 2/2/2 8/8/8 5/5/5
f 9/9/9 8/8/8 4/4/4
f 10/10/10 8/8/8 9/9/9
f 8/8/8 10/10/10 5/5/5
f 11/11/11 10/10/10 9/9/9
f 5/5/5 12/12/12 7/7/7
f 5/5/5 10/10/10 12/12/12
f 7/7/7 12/12/12 13/13/13
f 14/14/14 10/10/10 11/11/11
f 10/10/10 14/14/14 12/12/12
f 15/15/15 14/14/14 11/11/11
f 15/15/15 16/16/16 14/14/14
f 12/12/12 17/17/17 13/13/13
f 12/12/12 14/14/14 17/17/17
f 13/13/13 17/17/17 18/18/18
f 16/16/16 19/19/19 14/14/14
f 14/14/14 19/19/19 17/17/17
f 16/16/16 20/20/20 19/19/19
f 17/17/17 21/21/21 18/18/18
f 17/17/17 19/19/19 21/21/21
f 18/18/18 21/21/21 22/22/22
f 20/20/20 23/23/23 19/19/19
f 19/19/19 23/23/23 21/21/21
f 20/20/20 24/24/24 23/23/23
f 21/21/21 25/25/25 22/22/22
f 21/21/21 23/23/23 25/25/25
f 22/22/22 25/25/25 26/26/26
f 26/26/26 25/25/25 27/27/27
f 24/24/24 28/28/28 23/23/23
f 24/24/24 27/27/27 28/28/28
f 25/25/25 28/28/28 27/27/27
f 23/23/23 28/28/28 25/25/25
