g Bullet_AssaultCannon
v -0.05999996 -0.175 3.785866E-08
v 0.05999997 -0.08750004 1.898894E-08
v 0.05999997 -0.175 3.785866E-08
v -0.05999996 -0.08750004 1.898894E-08
v 0.05999997 -5.960464E-08 1.192138E-10
v -0.05999996 -5.960464E-08 1.192138E-10
v 0.04199997 0.08749992 -1.875051E-08
v -0.04199995 0.08749992 -1.875051E-08
v 1.005828E-06 0.1749999 -3.762023E-08
v -1.005828E-06 0.1749998 -3.762023E-08
vt -5.960464E-08 2.980232E-08
vt 0.9999998 0.25
vt 0.9999995 0
vt 2.384186E-07 0.25
vt 1 0.5
vt 4.768372E-07 0.5
vt 0.8817637 0.75
vt 0.1182373 0.75
vt 0.5000077 1
vt 0.4999937 1
vn 0 0 1
vn 0 0 1
vn 0 0 1
vn 0 0 1
vn 0 0 1
vn 0 0 1
vn 0 0 1
vn 0 0 1
vn 0 0 1
vn 0 0 1
g Bullet_AssaultCannon_0
f 3/3/3 2/2/2 1/1/1
f 2/2/2 4/4/4 1/1/1
f 2/2/2 5/5/5 4/4/4
f 5/5/5 6/6/6 4/4/4
f 5/5/5 7/7/7 6/6/6
f 7/7/7 8/8/8 6/6/6
f 7/7/7 9/9/9 8/8/8
f 9/9/9 10/10/10 8/8/8
