g RocketLauncher_Rocket
v 0.09388137 0.4107704 -0.002444401
v 0.04198086 0.3503809 -0.002444401
v 0.07978201 0.4072638 -0.002444372
v -0.07978058 0.4072638 -0.002444372
v -0.04197919 0.3503799 -0.002444416
v -0.09387946 0.4107685 -0.002444357
v -0.039801 -0.1316996 -0.002444401
v 0.01010093 -0.3830929 -0.002444357
v -0.007684797 -0.3830919 -0.002444357
v 0.03986919 -0.1317387 -0.002444372
v 0.03986919 -0.09465408 -0.002444372
v -0.039801 -0.09465981 -0.002444401
v 0.03986919 -0.01672649 -0.002444372
v -0.039801 -0.01671886 -0.002444401
v -0.039801 -0.01671886 -0.002444401
v -0.02235916 -0.005794525 -0.002444357
v 0.02235988 -0.005803108 -0.002444401
v 0.03986919 -0.01672649 -0.002444372
v -0.02235916 -0.005794525 -0.002444357
v 0.02236049 0.1661673 -0.002444372
v 0.02235988 -0.005803108 -0.002444401
v -0.0223588 0.1661682 -0.002444357
v 0.02236024 0.1834002 -0.002444357
v -0.02235904 0.1833992 -0.002444357
v 0.0223603 0.2167311 -0.002444372
v -0.02235886 0.2167311 -0.002444357
v 0.02236018 0.2620792 -0.002444372
v -0.02235924 0.2620783 -0.002444357
v 0.0223603 0.3725615 -0.002444401
v 0.04198086 0.3503809 -0.002444401
v -0.02235886 0.3725615 -0.002444401
v -0.04197919 0.3503799 -0.002444416
v -0.02235886 0.3725615 -0.002444401
v 0.02563842 0.4107323 -0.002444372
v -0.02563676 0.4107323 -0.002444357
v -0.02563676 0.4107323 -0.002444357
v 0.0271377 0.4237785 -0.002444372
v -0.0271365 0.4237785 -0.002444372
v -0.0271365 0.4237785 -0.002444372
v -0.02250981 0.4351664 -0.002444372
v 0.02251172 0.4351654 -0.002444372
v 0.0271377 0.4237785 -0.002444372
v -0.039801 -0.1316996 -0.002444401
v -0.04597951 -0.1194649 -0.002444401
v -0.04597951 -0.106905 -0.002444401
v -0.039801 -0.09465981 -0.002444401
v 0.03986919 -0.09465408 -0.002444372
v 0.04604772 -0.1069031 -0.002444372
v 0.04604772 -0.1194782 -0.002444372
v 0.03986919 -0.1317387 -0.002444372
v 0.01909471 -0.469327 -0.002444372
v 0.01010093 -0.3830929 -0.002444357
v 0.03986919 -0.1317387 -0.002444372
v 0.110069 -0.1395321 -0.002444401
v 0.110069 -0.1395321 -0.002444401
v 0.03986919 -0.1317387 -0.002444372
v 0.04604772 -0.1194782 -0.002444372
v 0.122601 -0.1275225 -0.002444401
v 0.122601 -0.1275225 -0.002444401
v 0.04604772 -0.1194782 -0.002444372
v 0.04604772 -0.1069031 -0.002444372
v 0.122601 -0.1008902 -0.002444372
v 0.122601 -0.1008902 -0.002444372
v 0.04604772 -0.1069031 -0.002444372
v 0.03986919 -0.09465408 -0.002444372
v 0.1070104 -0.08753777 -0.002444372
v 0.1070104 -0.08753777 -0.002444372
v 0.03986919 -0.09465408 -0.002444372
v 0.03986919 -0.01672649 -0.002444372
v 0.1017885 -0.006598473 -0.002444372
v 0.1017885 -0.006598473 -0.002444372
v 0.03986919 -0.01672649 -0.002444372
v 0.02235988 -0.005803108 -0.002444401
v 0.07553029 0.004066467 -0.002444401
v 0.07553029 0.004066467 -0.002444401
v 0.02235988 -0.005803108 -0.002444401
v 0.02236049 0.1661673 -0.002444372
v 0.07553053 0.1564684 -0.002444401
v 0.07553053 0.1564684 -0.002444401
v 0.02236049 0.1661673 -0.002444372
v 0.02236024 0.1834002 -0.002444357
v 0.1160364 0.1737003 -0.002444372
v 0.1160364 0.1737003 -0.002444372
v 0.02236024 0.1834002 -0.002444357
v 0.0223603 0.2167311 -0.002444372
v 0.1160362 0.2201014 -0.002444372
v 0.1160362 0.2201014 -0.002444372
v 0.0223603 0.2167311 -0.002444372
v 0.02236018 0.2620792 -0.002444372
v 0.09403038 0.2654552 -0.002444372
v 0.09403038 0.2654552 -0.002444372
v 0.02236018 0.2620792 -0.002444372
v 0.04198086 0.3503809 -0.002444401
v 0.09388137 0.4107704 -0.002444401
v 0.07978201 0.4072638 -0.002444372
v 0.04198086 0.3503809 -0.002444401
v 0.0223603 0.3725615 -0.002444401
v 0.07359076 0.4032354 -0.002444401
v 0.07359076 0.4032354 -0.002444401
v 0.0223603 0.3725615 -0.002444401
v 0.02563842 0.4107323 -0.002444372
v 0.07702208 0.4228544 -0.002444401
v 0.07702208 0.4228544 -0.002444401
v 0.02563842 0.4107323 -0.002444372
v 0.0271377 0.4237785 -0.002444372
v 0.07970762 0.4569464 -0.002444372
v 0.07970762 0.4569464 -0.002444372
v 0.0271377 0.4237785 -0.002444372
v 0.02251172 0.4351654 -0.002444372
v 0.06829429 0.4693289 -0.002444372
v 0.06829429 0.4693289 -0.002444372
v 0.02251172 0.4351654 -0.002444372
v -0.02250981 0.4351664 -0.002444372
v -0.06829286 0.4693289 -0.002444401
v -0.06829286 0.4693289 -0.002444401
v -0.02250981 0.4351664 -0.002444372
v -0.0271365 0.4237785 -0.002444372
v -0.07970643 0.4569464 -0.002444372
v -0.07970643 0.4569464 -0.002444372
v -0.0271365 0.4237785 -0.002444372
v -0.02563676 0.4107323 -0.002444357
v -0.07702065 0.4228554 -0.002444372
v -0.07702065 0.4228554 -0.002444372
v -0.02563676 0.4107323 -0.002444357
v -0.02235886 0.3725615 -0.002444401
v -0.07358909 0.4032354 -0.002444416
v -0.07358909 0.4032354 -0.002444416
v -0.02235886 0.3725615 -0.002444401
v -0.04197919 0.3503799 -0.002444416
v -0.07978058 0.4072638 -0.002444372
v -0.09387946 0.4107685 -0.002444357
v -0.04197919 0.3503799 -0.002444416
v -0.02235924 0.2620783 -0.002444357
v -0.09402847 0.2654562 -0.002444372
v -0.09402847 0.2654562 -0.002444372
v -0.02235924 0.2620783 -0.002444357
v -0.02235886 0.2167311 -0.002444357
v -0.1160347 0.2200994 -0.002444372
v -0.1160347 0.2200994 -0.002444372
v -0.02235886 0.2167311 -0.002444357
v -0.02235904 0.1833992 -0.002444357
v -0.1160347 0.1737003 -0.002444372
v -0.1160347 0.1737003 -0.002444372
v -0.02235904 0.1833992 -0.002444357
v -0.0223588 0.1661682 -0.002444357
v -0.07552862 0.1564684 -0.002444401
v -0.07552862 0.1564684 -0.002444401
v -0.0223588 0.1661682 -0.002444357
v -0.02235916 -0.005794525 -0.002444357
v -0.07552838 0.004066467 -0.002444416
v -0.07552838 0.004066467 -0.002444416
v -0.02235916 -0.005794525 -0.002444357
v -0.039801 -0.01671886 -0.002444401
v -0.1017122 -0.00660038 -0.002444401
v -0.1017122 -0.00660038 -0.002444401
v -0.039801 -0.01671886 -0.002444401
v -0.039801 -0.09465981 -0.002444401
v -0.1070085 -0.08753777 -0.002444372
v -0.1070085 -0.08753777 -0.002444372
v -0.039801 -0.09465981 -0.002444401
v -0.04597951 -0.106905 -0.002444401
v -0.1225994 -0.1008902 -0.002444372
v -0.1225994 -0.1008902 -0.002444372
v -0.04597951 -0.106905 -0.002444401
v -0.04597951 -0.1194649 -0.002444401
v -0.1225991 -0.1275225 -0.002444401
v -0.1225991 -0.1275225 -0.002444401
v -0.04597951 -0.1194649 -0.002444401
v -0.039801 -0.1316996 -0.002444401
v -0.1100667 -0.1395311 -0.002444401
v -0.1100667 -0.1395311 -0.002444401
v -0.039801 -0.1316996 -0.002444401
v -0.007684797 -0.3830919 -0.002444357
v -0.01659679 -0.469326 -0.002444372
v -0.01659679 -0.469326 -0.002444372
v -0.007684797 -0.3830919 -0.002444357
v 0.01010093 -0.3830929 -0.002444357
v 0.01909471 -0.469327 -0.002444372
v -0.007805824 -0.4662094 0.002444416
v -0.008050919 -0.003992081 0.002444401
v 0.0104866 -0.003992081 0.002444372
v 0.01028347 -0.4662104 0.002444401
v -0.007806301 0.1555004 0.002444416
v -0.00805068 0.4108286 0.002444401
v 0.01048684 0.4108286 0.002444372
v 0.01028395 0.1554995 0.002444401
vt 0.2233887 0.03124601
vt 0.1145765 0.2376062
vt 0.1645885 0.03138465
vt 0.2233886 0.03152328
vt 0.273401 0.2377448
vt 0.1645885 0.03138465
vt 0.7567884 0.5720714
vt 0.9999999 0.5720711
vt 0.9999999 0.5720712
vt 0.7568375 0.5720708
vt 0.7093111 0.5720708
vt 0.7093176 0.5720714
vt 0.6094389 0.5720708
vt 0.6094304 0.5720714
vt 0.6094304 0.5720714
vt 0.5954298 0.5720713
vt 0.5954435 0.572071
vt 0.6094389 0.5720708
vt 0.5954298 0.5720713
vt 0.3750461 0.572071
vt 0.5954435 0.572071
vt 0.375046 0.5720713
vt 0.352962 0.572071
vt 0.3529619 0.5720713
vt 0.3102465 0.572071
vt 0.3102463 0.5720713
vt 0.2521294 0.572071
vt 0.2521293 0.5720713
vt 0.110536 0.572071
vt 0.110536 0.5720709
vt 0.110536 0.5720713
vt 0.110536 0.5720714
vt 0.110536 0.5720713
vt 0.0437178 0.572071
vt 0.0437178 0.5720713
vt 0.0437178 0.5720713
vt 0.02037603 0.572071
vt 0.02037627 0.5720713
vt 0.02037627 0.5720713
vt -5.960464E-08 0.5720713
vt -5.960464E-08 0.572071
vt 0.02037603 0.572071
vt 0.7567884 0.5720714
vt 0.7567884 0.5720714
vt 0.7093176 0.5720714
vt 0.7093176 0.5720714
vt 0.7093111 0.5720708
vt 0.7093111 0.5720708
vt 0.7568376 0.5720708
vt 0.7568375 0.5720708
vt 1.379631 0.02291109
vt 0.8858038 0.3104618
vt 0.1808243 0.2821963
vt 0.1645885 0.03138465
vt 0.2308057 0.03452067
vt 0.3160312 0.2343605
vt 0.3160315 0.23436
vt 0.1645885 0.03138465
vt 0.2580183 0.03138465
vt 0.2728107 0.3715967
vt 0.1427079 0.3715968
vt 0.1645885 0.03138465
vt 0.2435644 0.03233698
vt 0.07876591 0.2002415
vt 0.07876591 0.2002415
vt 0.1645885 0.03138465
vt 0.4493375 0.02878256
vt 0.465577 0.256418
vt 0.1928441 0.2218699
vt 0.1645885 0.03138465
vt 0.2780269 0.03232834
vt 0.1922742 0.1538734
vt 0.05023167 0.1690713
vt 0.1645885 0.03138465
vt 0.6992617 0.03138432
vt 0.7338961 0.2720841
vt 0.1305614 0.2720843
vt 0.1645885 0.03138465
vt 0.340499 0.03082588
vt 0.4537196 0.1710735
vt 0.4330429 0.2739838
vt 0.1645885 0.03138465
vt 0.3273723 0.03138465
vt 0.2933452 0.5713406
vt 0.1764119 0.5713406
vt 0.1645885 0.03138465
vt 0.3472683 0.0289348
vt 0.2131029 0.5115747
vt 0.07395575 0.3718514
vt 0.1645885 0.03138465
vt 0.6743992 0.03028222
vt 0.6862476 0.4076586
vt 0.2986381 0.181288
vt 0.1645885 0.03138465
vt 0.1935252 0.03116913
vt 0.1124151 0.2018916
vt 0.003120996 0.09214474
vt 0.1645885 0.03138465
vt 0.2348244 0.03247854
vt 0.3643077 0.217492
vt 0.1798547 0.235055
vt 0.1645885 0.03138465
vt 0.2846893 0.03226615
vt 0.2881196 0.2377116
vt 0.2234414 0.2266003
vt 0.1645885 0.03138465
vt 0.2282594 0.03143485
vt 0.179574 0.235634
vt 0.1150262 0.2065106
vt 0.1645885 0.03138465
vt 0.7216316 0.03138475
vt 0.6194528 0.09823183
vt 0.2667674 0.09823172
vt 0.1645885 0.03138465
vt 0.2282491 0.02932146
vt 0.2794911 0.202854
vt 0.2152334 0.2340141
vt 0.1645885 0.03138465
vt 0.2846893 0.03050292
vt 0.2258359 0.2257186
vt 0.1611582 0.2368298
vt 0.1645885 0.03138465
vt 0.2348243 0.03251126
vt 0.2175983 0.235668
vt 0.03334258 0.2122764
vt 0.1645885 0.03138465
vt 0.1935229 0.0306854
vt 0.3555513 0.08633115
vt 0.2473312 0.1995165
vt 0.1645885 0.03138465
vt 0.6743991 0.03248664
vt 0.5403494 0.1823902
vt 0.1527403 0.408761
vt 0.1645885 0.03138465
vt 0.3472681 0.03383438
vt 0.4379011 0.3743005
vt 0.2987538 0.5140243
vt 0.1645885 0.03138465
vt 0.3273721 0.03138465
vt 0.3155487 0.5713404
vt 0.1986155 0.5713404
vt 0.1645885 0.03138465
vt 0.3404988 0.03194309
vt 0.07204447 0.274542
vt 0.0513678 0.171632
vt 0.1645885 0.03138465
vt 0.699262 0.03138443
vt 0.7332888 0.2720841
vt 0.1299911 0.2720841
vt 0.1645885 0.03138465
vt 0.2777393 0.03026127
vt 0.392108 0.1678846
vt 0.250318 0.1528709
vt 0.1645885 0.03138465
vt 0.4493587 0.03453665
vt 0.4211237 0.2249597
vt 0.14835 0.259513
vt 0.1645885 0.03138465
vt 0.2435615 0.03292912
vt 0.3279503 0.2047954
vt 0.3279503 0.2047954
vt 0.1645885 0.03138465
vt 0.2580188 0.03138465
vt 0.2798817 0.3720888
vt 0.149931 0.372089
vt 0.1645885 0.03138465
vt 0.2308257 0.03034161
vt 0.07732896 0.2290017
vt 0.07732896 0.2290017
vt 0.1645885 0.03138465
vt 1.382776 0.02232166
vt 1.366584 0.2736761
vt 0.6585179 0.3183652
vt 0.1645885 0.03138465
vt 0.310149 0.03138465
vt 0.3121152 0.5740038
vt 0.1629532 0.5740038
vt 0.1645885 0.03138465
vt 0.03587927 0.008594601
vt 0.9755309 0.008556547
vt 0.9755309 0.01144345
vt 0.03587928 0.0114118
vt 0.03587927 0.008594601
vt 0.9755309 0.008556547
vt 0.9755309 0.01144345
vt 0.03587928 0.0114118
vn 0 0 1
vn 0 0 1
vn 0 0 1
vn 0 0 1
vn 0 0 1
vn 0 0 1
vn 0 0 1
vn 0 0 1
vn 0 0 1
vn 0 0 1
vn 0 0 1
vn 0 0 1
vn 0 0 1
vn 0 0 1
vn 0 0 1
vn 0 0 1
vn 0 0 1
vn 0 0 1
vn 0 0 1
vn 0 0 1
vn 0 0 1
vn 0 0 1
vn 0 0 1
vn 0 0 1
vn 0 0 1
vn 0 0 1
vn 0 0 1
vn 0 0 1
vn 0 0 1
vn 0 0 1
vn 0 0 1
vn 0 0 1
vn 0 0 1
vn 0 0 1
vn 0 0 1
vn 0 0 1
vn 0 0 1
vn 0 0 1
vn 0 0 1
vn 0 0 1
vn 0 0 1
vn 0 0 1
vn 0 0 1
vn 0 0 1
vn 0 0 1
vn 0 0 1
vn 0 0 1
vn 0 0 1
vn 0 0 1
vn 0 0 1
vn 0 0 1
vn 0 0 1
vn 0 0 1
vn 0 0 1
vn 0 0 1
vn 0 0 1
vn 0 0 1
vn 0 0 1
vn 0 0 1
vn 0 0 1
vn 0 0 1
vn 0 0 1
vn 0 0 1
vn 0 0 1
vn 0 0 1
vn 0 0 1
vn 0 0 1
vn 0 0 1
vn 0 0 1
vn 0 0 1
vn 0 0 1
vn 0 0 1
vn 0 0 1
vn 0 0 1
vn 0 0 1
vn 0 0 1
vn 0 0 1
vn 0 0 1
vn 0 0 1
vn 0 0 1
vn 0 0 1
vn 0 0 1
vn 0 0 1
vn 0 0 1
vn 0 0 1
vn 0 0 1
vn 0 0 1
vn 0 0 1
vn 0 0 1
vn 0 0 1
vn 0 0 1
vn 0 0 1
vn 0 0 1
vn 0 0 1
vn 0 0 1
vn 0 0 1
vn 0 0 1
vn 0 0 1
vn 0 0 1
vn 0 0 1
vn 0 0 1
vn 0 0 1
vn 0 0 1
vn 0 0 1
vn 0 0 1
vn 0 0 1
vn 0 0 1
vn 0 0 1
vn 0 0 1
vn 0 0 1
vn 0 0 1
vn 0 0 1
vn 0 0 1
vn 0 0 1
vn 0 0 1
vn 0 0 1
vn 0 0 1
vn 0 0 1
vn 0 0 1
vn 0 0 1
vn 0 0 1
vn 0 0 1
vn 0 0 1
vn 0 0 1
vn 0 0 1
vn 0 0 1
vn 0 0 1
vn 0 0 1
vn 0 0 1
vn 0 0 1
vn 0 0 1
vn 0 0 1
vn 0 0 1
vn 0 0 1
vn 0 0 1
vn 0 0 1
vn 0 0 1
vn 0 0 1
vn 0 0 1
vn 0 0 1
vn 0 0 1
vn 0 0 1
vn 0 0 1
vn 0 0 1
vn 0 0 1
vn 0 0 1
vn 0 0 1
vn 0 0 1
vn 0 0 1
vn 0 0 1
vn 0 0 1
vn 0 0 1
vn 0 0 1
vn 0 0 1
vn 0 0 1
vn 0 0 1
vn 0 0 1
vn 0 0 1
vn 0 0 1
vn 0 0 1
vn 0 0 1
vn 0 0 1
vn 0 0 1
vn 0 0 1
vn 0 0 1
vn 0 0 1
vn 0 0 1
vn 0 0 1
vn 0 0 1
vn 0 0 1
vn 0 0 1
vn 0 0 1
vn 0 0 1
vn 0 0 1
vn 0 0 1
vn 0 0 1
vn 0 0 1
vn 0 0 1
vn 0 0 1
vn 0 0 1
vn 0 0 1
vn 0 0 1
vn 0 0 1
vn 0 0 1
vn 0 0 1
vn 0 0 1
g RocketLauncher_Rocket_0
f 3/3/3 2/2/2 1/1/1
f 6/6/6 5/5/5 4/4/4
f 9/9/9 8/8/8 7/7/7
f 8/8/8 10/10/10 7/7/7
f 10/10/10 11/11/11 7/7/7
f 11/11/11 12/12/12 7/7/7
f 11/11/11 13/13/13 12/12/12
f 13/13/13 14/14/14 12/12/12
f 17/17/17 16/16/16 15/15/15
f 18/18/18 17/17/17 15/15/15
f 21/21/21 20/20/20 19/19/19
f 20/20/20 22/22/22 19/19/19
f 20/20/20 23/23/23 22/22/22
f 23/23/23 24/24/24 22/22/22
f 23/23/23 25/25/25 24/24/24
f 25/25/25 26/26/26 24/24/24
f 25/25/25 27/27/27 26/26/26
f 27/27/27 28/28/28 26/26/26
f 27/27/27 29/29/29 28/28/28
f 27/27/27 30/30/30 29/29/29
f 29/29/29 31/31/31 28/28/28
f 31/31/31 32/32/32 28/28/28
f 29/29/29 34/34/34 33/33/33
f 34/34/34 35/35/35 33/33/33
f 34/34/34 37/37/37 36/36/36
f 37/37/37 38/38/38 36/36/36
f 41/41/41 40/40/40 39/39/39
f 42/42/42 41/41/41 39/39/39
f 45/45/45 44/44/44 43/43/43
f 46/46/46 45/45/45 43/43/43
f 49/49/49 48/48/48 47/47/47
f 50/50/50 49/49/49 47/47/47
f 53/53/53 52/52/52 51/51/51
f 54/54/54 53/53/53 51/51/51
f 57/57/57 56/56/56 55/55/55
f 58/58/58 57/57/57 55/55/55
f 61/61/61 60/60/60 59/59/59
f 62/62/62 61/61/61 59/59/59
f 65/65/65 64/64/64 63/63/63
f 66/66/66 65/65/65 63/63/63
f 69/69/69 68/68/68 67/67/67
f 70/70/70 69/69/69 67/67/67
f 73/73/73 72/72/72 71/71/71
f 74/74/74 73/73/73 71/71/71
f 77/77/77 76/76/76 75/75/75
f 78/78/78 77/77/77 75/75/75
f 81/81/81 80/80/80 79/79/79
f 82/82/82 81/81/81 79/79/79
f 85/85/85 84/84/84 83/83/83
f 86/86/86 85/85/85 83/83/83
f 89/89/89 88/88/88 87/87/87
f 90/90/90 89/89/89 87/87/87
f 93/93/93 92/92/92 91/91/91
f 94/94/94 93/93/93 91/91/91
f 97/97/97 96/96/96 95/95/95
f 98/98/98 97/97/97 95/95/95
f 101/101/101 100/100/100 99/99/99
f 102/102/102 101/101/101 99/99/99
f 105/105/105 104/104/104 103/103/103
f 106/106/106 105/105/105 103/103/103
f 109/109/109 108/108/108 107/107/107
f 110/110/110 109/109/109 107/107/107
f 113/113/113 112/112/112 111/111/111
f 114/114/114 113/113/113 111/111/111
f 117/117/117 116/116/116 115/115/115
f 118/118/118 117/117/117 115/115/115
f 121/121/121 120/120/120 119/119/119
f 122/122/122 121/121/121 119/119/119
f 125/125/125 124/124/124 123/123/123
f 126/126/126 125/125/125 123/123/123
f 129/129/129 128/128/128 127/127/127
f 130/130/130 129/129/129 127/127/127
f 133/133/133 132/132/132 131/131/131
f 134/134/134 133/133/133 131/131/131
f 137/137/137 136/136/136 135/135/135
f 138/138/138 137/137/137 135/135/135
f 141/141/141 140/140/140 139/139/139
f 142/142/142 141/141/141 139/139/139
f 145/145/145 144/144/144 143/143/143
f 146/146/146 145/145/145 143/143/143
f 149/149/149 148/148/148 147/147/147
f 150/150/150 149/149/149 147/147/147
f 153/153/153 152/152/152 151/151/151
f 154/154/154 153/153/153 151/151/151
f 157/157/157 156/156/156 155/155/155
f 158/158/158 157/157/157 155/155/155
f 161/161/161 160/160/160 159/159/159
f 162/162/162 161/161/161 159/159/159
f 165/165/165 164/164/164 163/163/163
f 166/166/166 165/165/165 163/163/163
f 169/169/169 168/168/168 167/167/167
f 170/170/170 169/169/169 167/167/167
f 173/173/173 172/172/172 171/171/171
f 174/174/174 173/173/173 171/171/171
f 177/177/177 176/176/176 175/175/175
f 178/178/178 177/177/177 175/175/175
f 181/181/181 180/180/180 179/179/179
f 182/182/182 181/181/181 179/179/179
f 185/185/185 184/184/184 183/183/183
f 186/186/186 185/185/185 183/183/183
