g ChapterBG
v 2.497309 0.5308191 0.3435022
v 0 0 0.3435022
v 2.332373 1.038439 0.3435022
v 2.553098 0 0.3435022
v 2.065502 1.500674 0.3435022
v 2.497307 -0.5308189 0.3435022
v 1.708358 1.897323 0.3435022
v 2.332371 -1.038439 0.3435022
v 1.276551 2.211049 0.3435022
v 2.0655 -1.500674 0.3435022
v 0.7889517 2.428142 0.3435022
v 1.708356 -1.897322 0.3435022
v 0.266872 2.539114 0.3435022
v 1.276549 -2.211048 0.3435022
v -0.2668712 2.539114 0.3435022
v 0.7889506 -2.428141 0.3435022
v -0.7889509 2.428143 0.3435022
v 0.2668713 -2.539113 0.3435022
v -1.27655 2.21105 0.3435022
v -0.2668716 -2.539113 0.3435022
v -1.708357 1.897323 0.3435022
v -0.788951 -2.428141 0.3435022
v -2.065501 1.500674 0.3435022
v -1.27655 -2.211048 0.3435022
v -2.332372 1.038439 0.3435022
v -1.708357 -1.897322 0.3435022
v -2.497308 0.5308194 0.3435022
v -2.0655 -1.500674 0.3435022
v -2.553099 3.051758E-07 0.3435022
v -2.332372 -1.038439 0.3435022
v -2.497308 -0.5308189 0.3435022
vt 0.9892578 0.6044922
vt 0.5 0.5
vt 0.956543 0.7045898
vt 1 0.5
vt 0.9042969 0.7954102
vt 0.9892578 0.3955078
vt 0.8344727 0.8735352
vt 0.956543 0.2954102
vt 0.75 0.9355469
vt 0.9042969 0.2044678
vt 0.6542969 0.9780273
vt 0.8344727 0.1263428
vt 0.5522461 1
vt 0.75 0.0645752
vt 0.4477539 1
vt 0.6542969 0.02185059
vt 0.345459 0.9780273
vt 0.5522461 0
vt 0.25 0.9355469
vt 0.4477539 0
vt 0.1654053 0.8735352
vt 0.345459 0.02185059
vt 0.09552002 0.7954102
vt 0.25 0.0645752
vt 0.04321289 0.7045898
vt 0.1654053 0.1263428
vt 0.01092529 0.6044922
vt 0.09552002 0.2044678
vt 0 0.5
vt 0.04321289 0.2954102
vt 0.01092529 0.3955078
vn 0 0 1
vn 0 0 1
vn 0 0 1
vn 0 0 1
vn 0 0 1
vn 0 0 1
vn 5.960464E-07 0 1
vn 0 0 1
vn 5.960464E-07 0 1
vn 0 0 1
vn 0 0 1
vn 0 0 1
vn 0 0 1
vn 0 0 1
vn 0 0 1
vn 0 0 1
vn 0 0 1
vn 0 0 1
vn 0 0 1
vn 0 0 1
vn 0 0 1
vn -1.132488E-06 0 1
vn 0 0 1
vn -1.132488E-06 0 1
vn 0 0 1
vn 0 0 1
vn 0 0 1
vn 0 0 1
vn -2.384186E-07 0 1
vn 0 0 1
vn -2.384186E-07 0 1
g ChapterBG_0
f 3/3/3 2/2/2 1/1/1
f 1/1/1 2/2/2 4/4/4
f 5/5/5 2/2/2 3/3/3
f 4/4/4 2/2/2 6/6/6
f 7/7/7 2/2/2 5/5/5
f 6/6/6 2/2/2 8/8/8
f 9/9/9 2/2/2 7/7/7
f 8/8/8 2/2/2 10/10/10
f 11/11/11 2/2/2 9/9/9
f 10/10/10 2/2/2 12/12/12
f 13/13/13 2/2/2 11/11/11
f 12/12/12 2/2/2 14/14/14
f 15/15/15 2/2/2 13/13/13
f 14/14/14 2/2/2 16/16/16
f 17/17/17 2/2/2 15/15/15
f 16/16/16 2/2/2 18/18/18
f 19/19/19 2/2/2 17/17/17
f 18/18/18 2/2/2 20/20/20
f 21/21/21 2/2/2 19/19/19
f 20/20/20 2/2/2 22/22/22
f 23/23/23 2/2/2 21/21/21
f 22/22/22 2/2/2 24/24/24
f 25/25/25 2/2/2 23/23/23
f 24/24/24 2/2/2 26/26/26
f 27/27/27 2/2/2 25/25/25
f 26/26/26 2/2/2 28/28/28
f 29/29/29 2/2/2 27/27/27
f 28/28/28 2/2/2 30/30/30
f 31/31/31 2/2/2 29/29/29
f 30/30/30 2/2/2 31/31/31
