g Circle_Cone_01
v 0.4755283 0.1545085 1.490116E-08
v 0.5 -5.463917E-09 1.490116E-08
v -3.278256E-08 1.870096E-07 -0.2
v 0.4045085 0.2938926 1.490116E-08
v 0.4755285 -0.1545078 1.490116E-08
v 0.2938926 0.4045085 1.490116E-08
v 0.4045089 -0.2938921 1.490116E-08
v 0.1545085 0.4755282 1.490116E-08
v 0.2938931 -0.4045081 1.490116E-08
v -1.639178E-08 0.5 1.490116E-08
v 0.154509 -0.4755281 1.490116E-08
v -0.1545085 0.4755282 1.490116E-08
v 4.773356E-07 -0.5 1.490116E-08
v -0.2938926 0.4045085 1.490116E-08
v -0.1545081 -0.4755284 1.490116E-08
v -0.4045085 0.2938926 1.490116E-08
v -0.2938924 -0.4045087 1.490116E-08
v -0.4755283 0.1545084 1.490116E-08
v -0.4045084 -0.2938929 1.490116E-08
v -0.5 -1.574568E-07 1.490116E-08
v -0.4755282 -0.1545087 1.490116E-08
vt 0.9755284 0.6545084
vt 1 0.4999999
vt 0.5 0.5000002
vt 0.9045086 0.7938925
vt 0.9755285 0.3454921
vt 0.7938927 0.9045085
vt 0.9045088 0.2061078
vt 0.6545087 0.9755282
vt 0.793893 0.0954918
vt 0.5000001 1
vt 0.6545089 0.02447188
vt 0.3454916 0.9755282
vt 0.5000004 0
vt 0.2061075 0.9045086
vt 0.3454918 0.02447167
vt 0.09549153 0.7938927
vt 0.2061076 0.09549135
vt 0.02447176 0.6545085
vt 0.09549159 0.2061072
vt 0 0.5
vt 0.02447182 0.3454914
vn -0.3532135 -0.114766 0.9284768
vn -0.3713907 0 0.9284766
vn 0 0 1
vn -0.3004614 -0.218298 0.9284766
vn -0.3532136 0.1147656 0.9284768
vn -0.218298 -0.3004615 0.9284766
vn -0.3004616 0.2182975 0.9284768
vn -0.1147661 -0.3532137 0.9284766
vn -0.2182983 0.3004611 0.9284768
vn 0 -0.3713908 0.9284766
vn -0.1147664 0.3532133 0.9284768
vn 0.1147661 -0.3532137 0.9284766
vn 0 0.3713906 0.9284768
vn 0.218298 -0.3004615 0.9284766
vn 0.1147657 0.3532136 0.9284768
vn 0.3004614 -0.218298 0.9284766
vn 0.2182977 0.3004615 0.9284768
vn 0.3532136 -0.1147659 0.9284766
vn 0.3004612 0.2182981 0.9284768
vn 0.3713907 0 0.9284766
vn 0.3532135 0.1147662 0.9284768
g Circle_Cone_01_0
f 3/3/3 2/2/2 1/1/1
f 3/3/3 1/1/1 4/4/4
f 3/3/3 5/5/5 2/2/2
f 3/3/3 4/4/4 6/6/6
f 3/3/3 7/7/7 5/5/5
f 3/3/3 6/6/6 8/8/8
f 3/3/3 9/9/9 7/7/7
f 3/3/3 8/8/8 10/10/10
f 3/3/3 11/11/11 9/9/9
f 3/3/3 10/10/10 12/12/12
f 3/3/3 13/13/13 11/11/11
f 3/3/3 12/12/12 14/14/14
f 3/3/3 15/15/15 13/13/13
f 3/3/3 14/14/14 16/16/16
f 3/3/3 17/17/17 15/15/15
f 3/3/3 16/16/16 18/18/18
f 3/3/3 19/19/19 17/17/17
f 3/3/3 18/18/18 20/20/20
f 3/3/3 21/21/21 19/19/19
f 3/3/3 20/20/20 21/21/21
