g Coin_01
v -0.2121321 -0.212132 -0.0625
v -0.1148051 -0.2771639 0.0625
v -0.1148051 -0.2771639 -0.0625
v -0.2121321 -0.212132 0.0625
v -0.2771639 -0.114805 -0.0625
v -0.2771639 -0.114805 0.0625
v -0.3 3.51162E-08 -0.0625
v -0.3 3.51162E-08 0.0625
v -0.2771639 0.114805 -0.0625
v -0.2771639 0.114805 0.0625
v -0.212132 0.212132 -0.0625
v -0.212132 0.212132 0.0625
v -0.1148051 0.2771639 -0.0625
v -0.1148051 0.2771639 0.0625
v -1.311342E-08 0.3 -0.0625
v -1.311342E-08 0.3 0.0625
v 0.114805 0.2771639 -0.0625
v 0.114805 0.2771639 0.0625
v 0.212132 0.212132 -0.0625
v 0.212132 0.212132 0.0625
v 0.2771639 0.114805 -0.0625
v 0.2771639 0.114805 0.0625
v 0.3 -1.018254E-08 -0.0625
v 0.3 -1.018254E-08 0.0625
v 0.2771639 -0.1148049 -0.0625
v 0.2771639 -0.1148049 0.0625
v 0.2121321 -0.212132 -0.0625
v 0.2121321 -0.212132 0.0625
v 0.1148051 -0.2771638 -0.0625
v 0.1148051 -0.2771638 0.0625
v 3.577464E-09 -0.3 -0.0625
v 3.577464E-09 -0.3 0.0625
v -0.1148051 -0.2771639 -0.0625
v -0.1148051 -0.2771639 0.0625
v 0.2771639 -0.1148049 -0.0625
v 0.1868985 -0.1868984 -0.0625
v 0.2121321 -0.212132 -0.0625
v 0.2441946 -0.1011486 -0.0625
v 0.3 -1.018254E-08 -0.0625
v 0.2643143 -1.451995E-08 -0.0625
v 0.2771639 0.114805 -0.0625
v 0.2441946 0.1011487 -0.0625
v 0.212132 0.212132 -0.0625
v 0.1868984 0.1868984 -0.0625
v 0.114805 0.2771639 -0.0625
v 0.1011487 0.2441946 -0.0625
v -1.311342E-08 0.3 -0.0625
v -1.311342E-08 0.2643143 -0.0625
v -0.1148051 0.2771639 -0.0625
v -0.1011487 0.2441946 -0.0625
v -0.212132 0.212132 -0.0625
v -0.1868984 0.1868984 -0.0625
v -0.2771639 0.114805 -0.0625
v -0.2441946 0.1011487 -0.0625
v -0.3 3.51162E-08 -0.0625
v -0.2643143 3.050771E-08 -0.0625
v -0.2771639 -0.114805 -0.0625
v -0.2441946 -0.1011487 -0.0625
v -0.2121321 -0.212132 -0.0625
v -0.1868985 -0.1868984 -0.0625
v -0.1148051 -0.2771639 -0.0625
v -0.1011488 -0.2441946 -0.0625
v 0.2121321 -0.212132 -0.0625
v 0.1868985 -0.1868984 -0.0625
v 0.1011488 -0.2441946 -0.0625
v 0.1148051 -0.2771638 -0.0625
v 0.1148051 -0.2771638 -0.0625
v 0.1011488 -0.2441946 -0.0625
v -4.888558E-10 -0.2643143 -0.0625
v 3.577464E-09 -0.3 -0.0625
v 3.577464E-09 -0.3 -0.0625
v -4.888558E-10 -0.2643143 -0.0625
v -0.1011488 -0.2441946 -0.0625
v -0.1148051 -0.2771639 -0.0625
v -1.311342E-08 0.3 0.0625
v -0.1011487 0.2441946 0.0625
v -0.1148051 0.2771639 0.0625
v -1.311342E-08 0.2643143 0.0625
v 0.114805 0.2771639 0.0625
v 0.1011487 0.2441946 0.0625
v 0.212132 0.212132 0.0625
v 0.1868984 0.1868984 0.0625
v 0.2771639 0.114805 0.0625
v 0.2441946 0.1011487 0.0625
v 0.3 -1.018254E-08 0.0625
v 0.2643143 -1.451995E-08 0.0625
v 0.2771639 -0.1148049 0.0625
v 0.2441946 -0.1011486 0.0625
v 0.2121321 -0.212132 0.0625
v 0.1868985 -0.1868984 0.0625
v -0.1148051 0.2771639 0.0625
v -0.1011487 0.2441946 0.0625
v -0.1868984 0.1868984 0.0625
v -0.212132 0.212132 0.0625
v -0.212132 0.212132 0.0625
v -0.2441946 0.1011487 0.0625
v -0.2771639 0.114805 0.0625
v -0.2643143 3.023662E-08 0.0625
v -0.3 3.51162E-08 0.0625
v -0.2441946 -0.1011487 0.0625
v -0.2771639 -0.114805 0.0625
v -0.1868985 -0.1868984 0.0625
v -0.2121321 -0.212132 0.0625
v -0.2121321 -0.212132 0.0625
v -0.1868985 -0.1868984 0.0625
v -0.1011488 -0.2441946 0.0625
v -0.1148051 -0.2771639 0.0625
v -0.1148051 -0.2771639 0.0625
v -0.1011488 -0.2441946 0.0625
v -2.177678E-10 -0.2643143 0.0625
v 3.577464E-09 -0.3 0.0625
v 0.1011488 -0.2441946 0.0625
v 0.1148051 -0.2771638 0.0625
v 0.1148051 -0.2771638 0.0625
v 0.1011488 -0.2441946 0.0625
v 0.1868985 -0.1868984 0.0625
v 0.2121321 -0.212132 0.0625
v 0.1868984 0.1868984 -0.0625
v 0.2643143 -1.451995E-08 -0.0625
v 0.2441946 0.1011487 -0.0625
v 0.1011487 0.2441946 -0.0625
v -1.311342E-08 0.2643143 -0.0625
v 0.2441946 -0.1011486 -0.0625
v 0.1868985 -0.1868984 -0.0625
v -0.1011487 0.2441946 -0.0625
v 0.1011488 -0.2441946 -0.0625
v -0.1868984 0.1868984 -0.0625
v -4.888558E-10 -0.2643143 -0.0625
v -0.2441946 0.1011487 -0.0625
v -0.1011488 -0.2441946 -0.0625
v -0.2643143 3.050771E-08 -0.0625
v -0.1868985 -0.1868984 -0.0625
v -0.2441946 -0.1011487 -0.0625
v 0.2441946 0.1011487 0.0625
v 0.1011487 0.2441946 0.0625
v 0.1868984 0.1868984 0.0625
v 0.2643143 -1.451995E-08 0.0625
v -1.311342E-08 0.2643143 0.0625
v 0.2441946 -0.1011486 0.0625
v 0.1868985 -0.1868984 0.0625
v -0.1011487 0.2441946 0.0625
v -0.1868984 0.1868984 0.0625
v 0.1011488 -0.2441946 0.0625
v -0.2441946 0.1011487 0.0625
v -2.177678E-10 -0.2643143 0.0625
v -0.2643143 3.023662E-08 0.0625
v -0.1011488 -0.2441946 0.0625
v -0.2441946 -0.1011487 0.0625
v -0.1868985 -0.1868984 0.0625
vt 0.06798354 0.9373661
vt 0.2199185 0.9998624
vt 0.06798325 0.9998624
vt 0.2199189 0.9373661
vt 0.06798377 0.8748697
vt 0.2199191 0.8748698
vt 0.06798398 0.8123733
vt 0.2199192 0.8123734
vt 0.06798406 0.7498771
vt 0.2199194 0.7498772
vt 0.06798404 0.6873807
vt 0.2199194 0.6873807
vt 0.06798389 0.6248844
vt 0.2199192 0.6248844
vt 0.0679837 0.5623881
vt 0.219919 0.5623881
vt 0.06798343 0.4998918
vt 0.2199187 0.4998917
vt 0.06798317 0.4373954
vt 0.2199184 0.4373954
vt 0.06798289 0.3748991
vt 0.2199181 0.3748991
vt 0.06798272 0.3124028
vt 0.219918 0.3124028
vt 0.0679826 0.2499065
vt 0.2199179 0.2499065
vt 0.06798264 0.1874101
vt 0.219918 0.1874101
vt 0.06798281 0.1249137
vt 0.219918 0.1249138
vt 0.06798299 0.0624174
vt 0.2199183 0.0624174
vt 0.06798327 -7.893797E-05
vt 0.2199186 -7.893797E-05
vt 0.0679826 0.2499065
vt 0.005422026 0.1874101
vt 0.06798264 0.1874101
vt 0.005421984 0.2499065
vt 0.06798272 0.3124028
vt 0.005422068 0.3124028
vt 0.06798289 0.3748991
vt 0.005422256 0.3748991
vt 0.06798317 0.4373954
vt 0.005422507 0.4373954
vt 0.06798343 0.4998918
vt 0.005422821 0.4998918
vt 0.0679837 0.5623881
vt 0.005423115 0.5623881
vt 0.06798389 0.6248844
vt 0.005423344 0.6248844
vt 0.06798404 0.6873807
vt 0.005423491 0.6873807
vt 0.06798406 0.7498771
vt 0.005423512 0.7498771
vt 0.06798398 0.8123733
vt 0.005423428 0.8123733
vt 0.06798377 0.8748697
vt 0.005423218 0.8748697
vt 0.06798354 0.9373661
vt 0.005422947 0.9373661
vt 0.06798325 0.9998624
vt 0.005422654 0.9998624
vt 0.06798264 0.1874101
vt 0.005422026 0.1874101
vt 0.005422152 0.1249137
vt 0.06798281 0.1249137
vt 0.06798281 0.1249137
vt 0.005422152 0.1249137
vt 0.005422361 0.0624174
vt 0.06798299 0.0624174
vt 0.06798299 0.0624174
vt 0.005422361 0.0624174
vt 0.005422675 -7.893797E-05
vt 0.06798327 -7.893797E-05
vt 0.06798285 0.5623881
vt 0.005421984 0.6248844
vt 0.0679826 0.6248844
vt 0.005422152 0.5623881
vt 0.0679831 0.4998917
vt 0.005422486 0.4998917
vt 0.06798334 0.4373954
vt 0.005422821 0.4373954
vt 0.06798368 0.3748991
vt 0.005423073 0.3748991
vt 0.06798377 0.3124028
vt 0.00542324 0.3124028
vt 0.06798393 0.2499065
vt 0.005423428 0.2499065
vt 0.06798385 0.1874101
vt 0.005423344 0.1874101
vt 0.0679826 0.6248844
vt 0.005421984 0.6248844
vt 0.005421817 0.6873807
vt 0.06798243 0.6873807
vt 0.06798243 0.6873807
vt 0.005421817 0.7498771
vt 0.06798243 0.7498772
vt 0.005421817 0.8123734
vt 0.0679826 0.8123734
vt 0.005422152 0.8748698
vt 0.06798268 0.8748698
vt 0.005422319 0.9373661
vt 0.06798293 0.9373661
vt 0.06798293 0.9373661
vt 0.005422319 0.9373661
vt 0.005422654 0.9998624
vt 0.06798327 0.9998624
vt 0.06798328 -7.893797E-05
vt 0.005422675 -7.893797E-05
vt 0.005423009 0.0624174
vt 0.06798354 0.0624174
vt 0.00542326 0.1249137
vt 0.06798378 0.1249137
vt 0.06798378 0.1249137
vt 0.00542326 0.1249137
vt 0.005423344 0.1874101
vt 0.06798385 0.1874101
vt 0.8846689 0.6546276
vt 0.9961622 0.3854591
vt 0.9671861 0.531132
vt 0.7611734 0.7371446
vt 0.6155003 0.7661209
vt 0.9671862 0.2397863
vt 0.8846691 0.1162907
vt 0.4698273 0.7371446
vt 0.7611734 0.03377351
vt 0.3463317 0.6546276
vt 0.6155004 0.004797314
vt 0.2638146 0.5311321
vt 0.4698273 0.03377349
vt 0.2348384 0.3854591
vt 0.3463316 0.1162906
vt 0.2638146 0.2397862
vt 0.9671862 0.531132
vt 0.7611734 0.7371446
vt 0.8846691 0.6546276
vt 0.9961624 0.3854591
vt 0.6155004 0.7661209
vt 0.9671863 0.2397863
vt 0.8846691 0.1162907
vt 0.4698274 0.7371446
vt 0.3463318 0.6546276
vt 0.7611735 0.03377351
vt 0.2638147 0.5311321
vt 0.6155004 0.004797314
vt 0.2348385 0.3854591
vt 0.4698274 0.03377346
vt 0.2638146 0.2397862
vt 0.3463317 0.1162906
vn -0.7071069 -0.7071066 0
vn -0.3826835 -0.9238795 0
vn -0.3826835 -0.9238795 0
vn -0.7071069 -0.7071066 0
vn -0.9238796 -0.3826832 0
vn -0.9238796 -0.3826832 0
vn -1 0 0
vn -1 0 0
vn -0.9238795 0.3826835 0
vn -0.9238795 0.3826835 0
vn -0.7071068 0.7071068 0
vn -0.7071068 0.7071068 0
vn -0.3826835 0.9238795 0
vn -0.3826835 0.9238795 0
vn 0 1 0
vn 0 1 0
vn 0.3826834 0.9238795 0
vn 0.3826834 0.9238795 0
vn 0.7071068 0.7071068 0
vn 0.7071068 0.7071068 0
vn 0.9238795 0.3826835 0
vn 0.9238795 0.3826835 0
vn 1 0 0
vn 1 0 0
vn 0.9238796 -0.3826832 0
vn 0.9238796 -0.3826832 0
vn 0.7071069 -0.7071066 0
vn 0.7071069 -0.7071066 0
vn 0.3826836 -0.9238794 0
vn 0.3826836 -0.9238794 0
vn 0 -1 0
vn 0 -1 0
vn -0.3826835 -0.9238795 0
vn -0.3826835 -0.9238795 0
vn 0 0 -1
vn 0 0 -1
vn 0 0 -1
vn 0 0 -1
vn 0 0 -1
vn 0 0 -1
vn 0 0 -1
vn 0 0 -1
vn 0 0 -1
vn 0 0 -1
vn 0 0 -1
vn 0 0 -1
vn 0 0 -1
vn 0 0 -1
vn 0 0 -1
vn 0 0 -1
vn 0 0 -1
vn 0 0 -1
vn 0 0 -1
vn 0 0 -1
vn 0 0 -1
vn 0 0 -1
vn 0 0 -1
vn 0 0 -1
vn 0 0 -1
vn 0 0 -1
vn 0 0 -1
vn 0 0 -1
vn 0 0 -1
vn 0 0 -1
vn 0 0 -1
vn 0 0 -1
vn 0 0 -1
vn 0 0 -1
vn 0 0 -1
vn 0 0 -1
vn 0 0 -1
vn 0 0 -1
vn 0 0 -1
vn 0 0 -1
vn 0 0 1
vn 0 0 1
vn 0 0 1
vn 0 0 1
vn 0 0 1
vn 0 0 1
vn 0 0 1
vn 0 0 1
vn 0 0 1
vn 0 0 1
vn 0 0 1
vn 0 0 1
vn 0 0 1
vn 0 0 1
vn 0 0 1
vn 0 0 1
vn 0 0 1
vn 0 0 1
vn 0 0 1
vn 0 0 1
vn 0 0 1
vn 0 0 1
vn 0 0 1
vn 0 0 1
vn 0 0 1
vn 0 0 1
vn 0 0 1
vn 0 0 1
vn 0 0 1
vn 0 0 1
vn 0 0 1
vn 0 0 1
vn 0 0 1
vn 0 0 1
vn 0 0 1
vn 0 0 1
vn 0 0 1
vn 0 0 1
vn 0 0 1
vn 0 0 1
vn 0 0 1
vn 0 0 1
vn 0 0 1
vn 0 0 -1
vn 0 0 -1
vn 0 0 -1
vn 0 0 -1
vn 0 0 -1
vn 0 0 -1
vn 0 0 -1
vn 0 0 -1
vn 0 0 -1
vn 0 0 -1
vn 0 0 -1
vn 0 0 -1
vn 0 0 -1
vn 0 0 -1
vn 0 0 -1
vn 0 0 -1
vn 0 0 1
vn 0 0 1
vn 0 0 1
vn 0 0 1
vn 0 0 1
vn 0 0 1
vn 0 0 1
vn 0 0 1
vn 0 0 1
vn 0 0 1
vn 0 0 1
vn 0 0 1
vn 0 0 1
vn 0 0 1
vn 0 0 1
vn 0 0 1
g Coin_01_0
f 3/3/3 2/2/2 1/1/1
f 2/2/2 4/4/4 1/1/1
f 1/1/1 4/4/4 5/5/5
f 4/4/4 6/6/6 5/5/5
f 5/5/5 6/6/6 7/7/7
f 6/6/6 8/8/8 7/7/7
f 7/7/7 8/8/8 9/9/9
f 8/8/8 10/10/10 9/9/9
f 9/9/9 10/10/10 11/11/11
f 10/10/10 12/12/12 11/11/11
f 11/11/11 12/12/12 13/13/13
f 12/12/12 14/14/14 13/13/13
f 13/13/13 14/14/14 15/15/15
f 14/14/14 16/16/16 15/15/15
f 15/15/15 16/16/16 17/17/17
f 16/16/16 18/18/18 17/17/17
f 17/17/17 18/18/18 19/19/19
f 18/18/18 20/20/20 19/19/19
f 19/19/19 20/20/20 21/21/21
f 20/20/20 22/22/22 21/21/21
f 21/21/21 22/22/22 23/23/23
f 22/22/22 24/24/24 23/23/23
f 23/23/23 24/24/24 25/25/25
f 24/24/24 26/26/26 25/25/25
f 25/25/25 26/26/26 27/27/27
f 26/26/26 28/28/28 27/27/27
f 27/27/27 28/28/28 29/29/29
f 28/28/28 30/30/30 29/29/29
f 29/29/29 30/30/30 31/31/31
f 30/30/30 32/32/32 31/31/31
f 31/31/31 32/32/32 33/33/33
f 32/32/32 34/34/34 33/33/33
f 37/37/37 36/36/36 35/35/35
f 36/36/36 38/38/38 35/35/35
f 35/35/35 38/38/38 39/39/39
f 38/38/38 40/40/40 39/39/39
f 39/39/39 40/40/40 41/41/41
f 40/40/40 42/42/42 41/41/41
f 41/41/41 42/42/42 43/43/43
f 42/42/42 44/44/44 43/43/43
f 43/43/43 44/44/44 45/45/45
f 44/44/44 46/46/46 45/45/45
f 45/45/45 46/46/46 47/47/47
f 46/46/46 48/48/48 47/47/47
f 47/47/47 48/48/48 49/49/49
f 48/48/48 50/50/50 49/49/49
f 49/49/49 50/50/50 51/51/51
f 50/50/50 52/52/52 51/51/51
f 51/51/51 52/52/52 53/53/53
f 52/52/52 54/54/54 53/53/53
f 53/53/53 54/54/54 55/55/55
f 54/54/54 56/56/56 55/55/55
f 55/55/55 56/56/56 57/57/57
f 56/56/56 58/58/58 57/57/57
f 57/57/57 58/58/58 59/59/59
f 58/58/58 60/60/60 59/59/59
f 59/59/59 60/60/60 61/61/61
f 60/60/60 62/62/62 61/61/61
f 65/65/65 64/64/64 63/63/63
f 66/66/66 65/65/65 63/63/63
f 69/69/69 68/68/68 67/67/67
f 70/70/70 69/69/69 67/67/67
f 73/73/73 72/72/72 71/71/71
f 74/74/74 73/73/73 71/71/71
f 77/77/77 76/76/76 75/75/75
f 76/76/76 78/78/78 75/75/75
f 75/75/75 78/78/78 79/79/79
f 78/78/78 80/80/80 79/79/79
f 79/79/79 80/80/80 81/81/81
f 80/80/80 82/82/82 81/81/81
f 81/81/81 82/82/82 83/83/83
f 82/82/82 84/84/84 83/83/83
f 83/83/83 84/84/84 85/85/85
f 84/84/84 86/86/86 85/85/85
f 85/85/85 86/86/86 87/87/87
f 86/86/86 88/88/88 87/87/87
f 87/87/87 88/88/88 89/89/89
f 88/88/88 90/90/90 89/89/89
f 93/93/93 92/92/92 91/91/91
f 94/94/94 93/93/93 91/91/91
f 96/96/96 93/93/93 95/95/95
f 97/97/97 96/96/96 95/95/95
f 98/98/98 96/96/96 97/97/97
f 99/99/99 98/98/98 97/97/97
f 100/100/100 98/98/98 99/99/99
f 101/101/101 100/100/100 99/99/99
f 102/102/102 100/100/100 101/101/101
f 103/103/103 102/102/102 101/101/101
f 106/106/106 105/105/105 104/104/104
f 107/107/107 106/106/106 104/104/104
f 110/110/110 109/109/109 108/108/108
f 111/111/111 110/110/110 108/108/108
f 112/112/112 110/110/110 111/111/111
f 113/113/113 112/112/112 111/111/111
f 116/116/116 115/115/115 114/114/114
f 117/117/117 116/116/116 114/114/114
f 120/120/120 119/119/119 118/118/118
f 119/119/119 121/121/121 118/118/118
f 121/121/121 119/119/119 122/122/122
f 119/119/119 123/123/123 122/122/122
f 122/122/122 123/123/123 124/124/124
f 125/125/125 122/122/122 124/124/124
f 125/125/125 124/124/124 126/126/126
f 127/127/127 125/125/125 126/126/126
f 127/127/127 126/126/126 128/128/128
f 129/129/129 127/127/127 128/128/128
f 129/129/129 128/128/128 130/130/130
f 131/131/131 129/129/129 130/130/130
f 131/131/131 130/130/130 132/132/132
f 133/133/133 131/131/131 132/132/132
f 136/136/136 135/135/135 134/134/134
f 135/135/135 137/137/137 134/134/134
f 135/135/135 138/138/138 137/137/137
f 138/138/138 139/139/139 137/137/137
f 140/140/140 139/139/139 138/138/138
f 141/141/141 140/140/140 138/138/138
f 140/140/140 141/141/141 142/142/142
f 143/143/143 140/140/140 142/142/142
f 143/143/143 142/142/142 144/144/144
f 145/145/145 143/143/143 144/144/144
f 145/145/145 144/144/144 146/146/146
f 147/147/147 145/145/145 146/146/146
f 147/147/147 146/146/146 148/148/148
f 149/149/149 147/147/147 148/148/148
