g Cube_01
v -0.5 -1.331581E-07 0.5
v 0.5 -1.331581E-07 0.5
v 0.5 1.331581E-07 -0.5
v -0.5 1.331581E-07 -0.5
v -0.5 0.9999999 0.5000002
v -0.5 1 -0.4999997
v 0.5 1 -0.4999997
v 0.5 0.9999999 0.5000002
v -0.5 -1.331581E-07 0.5
v -0.5 0.9999999 0.5000002
v 0.5 0.9999999 0.5000002
v 0.5 -1.331581E-07 0.5
v 0.5 -1.331581E-07 0.5
v 0.5 0.9999999 0.5000002
v 0.5 1 -0.4999997
v 0.5 1.331581E-07 -0.5
v 0.5 1.331581E-07 -0.5
v 0.5 1 -0.4999997
v -0.5 1 -0.4999997
v -0.5 1.331581E-07 -0.5
v -0.5 1.331581E-07 -0.5
v -0.5 1 -0.4999997
v -0.5 0.9999999 0.5000002
v -0.5 -1.331581E-07 0.5
vt 0.4008106 0
vt 0 0
vt 0 0.4008106
vt 0.4008106 0.4008106
vt 0 0
vt 0 0.4008106
vt 0.4008106 0.4008106
vt 0.4008106 0
vt 0 7.167053E-09
vt 7.167053E-09 0.4008106
vt 0.4008106 0.4008106
vt 0.4008106 0
vt 0 0
vt 0 0.4008106
vt 0.4008106 0.4008106
vt 0.4008106 0
vt 7.167053E-09 0
vt 0 0.4008106
vt 0.4008106 0.4008106
vt 0.4008106 7.167053E-09
vt 0 0
vt 0 0.4008106
vt 0.4008106 0.4008106
vt 0.4008106 0
vn 0 -1 0
vn 0 -1 0
vn 0 -1 0
vn 0 -1 0
vn 0 1 0
vn 0 1 0
vn 0 1 0
vn 0 1 0
vn 0 0 1
vn 0 0 1
vn 0 0 1
vn 0 0 1
vn 1 0 0
vn 1 0 0
vn 1 0 0
vn 1 0 0
vn 0 0 -1
vn 0 0 -1
vn 0 0 -1
vn 0 0 -1
vn -1 0 0
vn -1 0 0
vn -1 0 0
vn -1 0 0
g Cube_01_0
f 3/3/3 2/2/2 1/1/1
f 4/4/4 3/3/3 1/1/1
f 7/7/7 6/6/6 5/5/5
f 8/8/8 7/7/7 5/5/5
f 11/11/11 10/10/10 9/9/9
f 12/12/12 11/11/11 9/9/9
f 15/15/15 14/14/14 13/13/13
f 16/16/16 15/15/15 13/13/13
f 19/19/19 18/18/18 17/17/17
f 20/20/20 19/19/19 17/17/17
f 23/23/23 22/22/22 21/21/21
f 24/24/24 23/23/23 21/21/21
