g Flash_Muzzle
v 0.0649519 0.0375 0
v 0.07378432 0.1277982 0.1209477
v 0.0375 0.06495191 0
v 0.2660244 0.1535893 0.3869642
v 0.075 0 0
v 0.1850805 1.166357E-08 0.1834674
v 0.06495188 -0.03750005 0
v 0.3247595 -0.1875002 0.5
v 0.03749996 -0.06495193 0
v 0.06662117 -0.1153914 0.09707075
v -3.486842E-08 -0.075 0
v -9.037612E-08 -0.2684563 0.3224272
v -0.03750002 -0.0649519 0
v -0.09544723 -0.1653193 0.1931573
v -0.06495192 -0.03749999 0
v -0.305883 -0.1766016 0.4636722
v -0.075 1.132469E-08 0
v -0.1710628 3.60081E-08 0.1601046
v -0.0649519 0.03750001 0
v -0.2693647 0.1555179 0.3933928
v -0.03750001 0.0649519 0
v -0.0801427 0.1388112 0.1421423
v -3.278354E-09 0.075 0
v 3.700406E-08 0.375 0.5
v 0.0375 0.06495191 0
v 0.07378432 0.1277982 0.1209477
vt 0.8333334 0
vt 0.9166667 1
vt 0.9166667 0
vt 0.8333334 1
vt 0.75 0
vt 0.75 1
vt 0.6666666 0
vt 0.6666666 1
vt 0.5833333 0
vt 0.5833333 1
vt 0.4999999 0
vt 0.4999999 1
vt 0.4166666 0
vt 0.4166666 1
vt 0.3333333 0
vt 0.3333333 1
vt 0.25 0
vt 0.25 1
vt 0.1666667 0
vt 0.1666667 1
vt 0.08333334 0
vt 0.08333334 1
vt 2.980232E-08 0
vt 2.980232E-08 1
vt -0.08333331 0
vt -0.08333331 1
vn 0.7426106 0.4287465 -0.5144958
vn 0.4262845 0.744028 -0.5144938
vn 0.4287464 0.7426106 -0.5144958
vn 0.7668992 0.3844917 -0.5138401
vn 0.8574928 0 -0.5144958
vn 0.8574808 -0.005325426 -0.5144886
vn 0.7426104 -0.4287468 -0.5144958
vn 0.7715784 -0.3754134 -0.513548
vn 0.428746 -0.7426109 -0.5144958
vn 0.43262 -0.7403643 -0.5144907
vn 0 -0.8574929 -0.5144957
vn -0.08527946 -0.8543692 -0.5126215
vn -0.4287467 -0.7426105 -0.5144957
vn -0.4387835 -0.7367489 -0.5144609
vn -0.7426108 -0.4287462 -0.5144957
vn -0.7305537 -0.4491482 -0.5143512
vn -0.8574929 0 -0.5144957
vn -0.8574895 -0.002837825 -0.5144937
vn -0.7426106 0.4287465 -0.5144957
vn -0.7498084 0.416098 -0.5144412
vn -0.4287465 0.7426108 -0.5144957
vn -0.4259456 0.7442226 -0.514493
vn 0 0.8574929 -0.5144958
vn -0.01536474 0.8573917 -0.514435
vn 0.4287464 0.7426106 -0.5144958
vn 0.4262845 0.744028 -0.5144938
g Flash_Muzzle_0
f 3/3/3 2/2/2 1/1/1
f 2/2/2 4/4/4 1/1/1
f 1/1/1 4/4/4 5/5/5
f 4/4/4 6/6/6 5/5/5
f 5/5/5 6/6/6 7/7/7
f 6/6/6 8/8/8 7/7/7
f 7/7/7 8/8/8 9/9/9
f 8/8/8 10/10/10 9/9/9
f 9/9/9 10/10/10 11/11/11
f 10/10/10 12/12/12 11/11/11
f 11/11/11 12/12/12 13/13/13
f 12/12/12 14/14/14 13/13/13
f 13/13/13 14/14/14 15/15/15
f 14/14/14 16/16/16 15/15/15
f 15/15/15 16/16/16 17/17/17
f 16/16/16 18/18/18 17/17/17
f 17/17/17 18/18/18 19/19/19
f 18/18/18 20/20/20 19/19/19
f 19/19/19 20/20/20 21/21/21
f 20/20/20 22/22/22 21/21/21
f 21/21/21 22/22/22 23/23/23
f 22/22/22 24/24/24 23/23/23
f 23/23/23 24/24/24 25/25/25
f 24/24/24 26/26/26 25/25/25
