g FloorEdge25
v -7.30693 20.74563 0.1208947
v -7.30693 20.74563 -1.194307
v 7.330965 20.74561 -1.194307
v 7.330965 20.74561 0.1208947
v 7.114716 20.55571 0.2708948
v -7.090683 20.55572 0.2708948
v -5.460543 12.6415 0.27089
v 5.473828 12.64149 0.27089
v 5.413371 12.50421 0.12089
v -5.400085 12.50422 0.12089
v -5.400085 12.50422 -0.728658
v 5.413371 12.50421 -0.728658
v 7.33094 -20.29484 0.1208899
v 7.33094 -20.29484 -1.194312
v -7.306952 -20.29482 -1.194312
v -7.306952 -20.29482 0.1208899
v -7.090704 -20.10492 0.27089
v 7.114697 -20.10493 0.27089
v 5.473816 -12.6381 0.27089
v -5.460557 -12.63809 0.27089
v -5.400099 -12.50082 0.12089
v 5.413358 -12.50082 0.12089
v 5.413358 -12.50082 -0.728658
v -5.400099 -12.50082 -0.728658
v 7.330965 20.74561 0.1208947
v 7.330965 20.74561 -1.194307
v 7.663954 20.42447 -1.194307
v 7.663954 20.42447 0.1208947
v 7.114716 20.55571 0.2708948
v 7.663935 -19.97368 -1.194312
v 7.447706 20.23456 0.2708949
v 5.473828 12.64149 0.27089
v 7.663935 -19.97368 0.1208899
v 7.33094 -20.29484 -1.194312
v 7.33094 -20.29484 0.1208899
v 7.447686 -19.78378 0.27089
v 7.114697 -20.10493 0.27089
v 5.59509 12.53397 0.27089
v 5.595077 -12.53057 0.27089
v 5.473816 -12.6381 0.27089
v 5.413358 -12.50082 0.12089
v 5.497708 12.41988 0.12089
v 5.413371 12.50421 0.12089
v 5.413371 12.50421 -0.728658
v 5.497708 12.41988 -0.728658
v 5.497695 -12.41648 0.12089
v 5.497695 -12.41648 -0.728658
v 5.413358 -12.50082 -0.728658
v -7.306952 -20.29482 0.1208899
v -7.306952 -20.29482 -1.194312
v -7.639942 -19.97368 -1.194312
v -7.639942 -19.97368 0.1208899
v -7.090704 -20.10492 0.27089
v -7.639921 20.42448 -1.194307
v -7.423694 -19.78377 0.27089
v -5.460557 -12.63809 0.27089
v -7.639921 20.42448 0.1208947
v -7.30693 20.74563 -1.194307
v -7.30693 20.74563 0.1208947
v -7.423674 20.23457 0.2708949
v -7.090683 20.55572 0.2708948
v -5.581817 -12.53057 0.27089
v -5.581804 12.53397 0.27089
v -5.460543 12.6415 0.27089
v -5.400085 12.50422 0.12089
v -5.484436 -12.41648 0.12089
v -5.400099 -12.50082 0.12089
v -5.400099 -12.50082 -0.728658
v -5.484436 -12.41648 -0.728658
v -5.484422 12.41988 0.12089
v -5.484422 12.41988 -0.728658
v -5.400085 12.50422 -0.728658
vt 0.8648624 0.1215774
vt 0.8648624 0.1215774
vt 0.1157675 0.1215773
vt 0.1157675 0.1215773
vt 0.1157675 0.1215773
vt 0.8648624 0.1215774
vt 0.8648623 0.8997537
vt 0.1157674 0.8997536
vt 0.1157674 0.8997536
vt 0.8648623 0.8997537
vt 0.8648623 0.8997537
vt 0.1157674 0.8997536
vt 0.8648624 0.1215774
vt 0.8648624 0.1215774
vt 0.1157675 0.1215773
vt 0.1157675 0.1215773
vt 0.1157675 0.1215773
vt 0.8648624 0.1215774
vt 0.8648623 0.8997537
vt 0.1157674 0.8997536
vt 0.1157674 0.8997536
vt 0.8648623 0.8997537
vt 0.8648623 0.8997537
vt 0.1157674 0.8997536
vt 0.6058365 0.1215773
vt 0.6058365 0.1215773
vt 0.6058365 0.1215773
vt 0.6058365 0.1215773
vt 0.6058365 0.1215773
vt 0.1157675 0.1215773
vt 0.6058365 0.1215773
vt 0.6058364 0.8997536
vt 0.1157675 0.1215773
vt 0.1157675 0.1215773
vt 0.1157675 0.1215773
vt 0.1157675 0.1215773
vt 0.1157675 0.1215773
vt 0.6058364 0.8997536
vt 0.1157674 0.8997536
vt 0.1157674 0.8997536
vt 0.1157674 0.8997536
vt 0.6058364 0.8997536
vt 0.6058364 0.8997536
vt 0.6058364 0.8997536
vt 0.6058364 0.8997536
vt 0.1157674 0.8997536
vt 0.1157674 0.8997536
vt 0.1157674 0.8997536
vt 0.8648624 0.1215774
vt 0.8648624 0.1215774
vt 0.8648624 0.1215774
vt 0.8648624 0.1215774
vt 0.8648624 0.1215774
vt 0.1157675 0.1215773
vt 0.8648624 0.1215774
vt 0.8648623 0.8997537
vt 0.1157675 0.1215773
vt 0.1157675 0.1215773
vt 0.1157675 0.1215773
vt 0.1157675 0.1215773
vt 0.1157675 0.1215773
vt 0.8648623 0.8997537
vt 0.1157674 0.8997536
vt 0.1157674 0.8997536
vt 0.1157674 0.8997536
vt 0.8648623 0.8997537
vt 0.8648623 0.8997537
vt 0.8648623 0.8997537
vt 0.8648623 0.8997537
vt 0.1157674 0.8997536
vt 0.1157674 0.8997536
vt 0.1157674 0.8997536
vn -0.3506346 0.8166186 0.4584643
vn -0.3743021 0.9273068 0
vn 0.3743019 0.9273069 0
vn 0.3506346 0.8166181 0.458465
vn 0.08230465 0.3289252 0.9407625
vn -0.08230479 0.3289256 0.9407624
vn 0.1112994 -0.2782277 0.9540449
vn -0.1112982 -0.2782298 0.9540445
vn -0.3364134 -0.84067 0.4243819
vn 0.3364187 -0.8406675 0.4243826
vn 0.3826844 -0.9238791 0
vn -0.3826785 -0.9238815 0
vn 0.3506372 -0.8166186 0.4584623
vn 0.3743066 -0.927305 0
vn -0.3743038 -0.9273062 0
vn -0.350637 -0.8166181 0.4584634
vn -0.0823054 -0.3289267 0.9407619
vn 0.08230639 -0.3289253 0.9407624
vn -0.1113001 0.2782275 0.9540449
vn 0.1112991 0.2782287 0.9540447
vn 0.3364168 0.840669 0.4243812
vn -0.3364211 0.8406667 0.4243824
vn -0.3826884 0.9238775 0
vn 0.3826824 0.92388 0
vn 0.3506346 0.8166181 0.458465
vn 0.3743019 0.9273069 0
vn 0.920376 0.3910344 0
vn 0.8104337 0.3588084 0.4630915
vn 0.08230465 0.3289252 0.9407625
vn 0.9203786 -0.3910286 0
vn 0.301721 0.09294392 0.948855
vn -0.1112982 -0.2782298 0.9540445
vn 0.8104366 -0.3588041 0.4630897
vn 0.3743066 -0.927305 0
vn 0.3506372 -0.8166186 0.4584623
vn 0.3017215 -0.09294709 0.9488546
vn 0.08230639 -0.3289253 0.9407624
vn -0.2729132 -0.1402565 0.9517597
vn -0.2729169 0.1402555 0.9517588
vn -0.1113001 0.2782275 0.9540449
vn -0.3364211 0.8406667 0.4243824
vn -0.8721967 -0.3185399 0.3712214
vn -0.3364134 -0.84067 0.4243819
vn -0.3826785 -0.9238815 0
vn -0.9238775 -0.3826884 0
vn -0.8722006 0.3185326 0.3712183
vn -0.9238815 0.3826785 0
vn -0.3826884 0.9238775 0
vn -0.350637 -0.8166181 0.4584634
vn -0.3743038 -0.9273062 0
vn -0.920377 -0.391032 0
vn -0.8104357 -0.3588071 0.4630891
vn -0.0823054 -0.3289267 0.9407619
vn -0.9203766 0.3910331 0
vn -0.3017218 -0.09294716 0.9488545
vn 0.1112991 0.2782287 0.9540447
vn -0.8104342 0.3588086 0.4630906
vn -0.3743021 0.9273068 0
vn -0.3506346 0.8166186 0.4584643
vn -0.3017214 0.09294485 0.9488548
vn -0.08230479 0.3289256 0.9407624
vn 0.2729156 0.1402559 0.951759
vn 0.2729168 -0.140256 0.9517587
vn 0.1112994 -0.2782277 0.9540449
vn 0.3364187 -0.8406675 0.4243826
vn 0.8721983 0.3185371 0.3712198
vn 0.3364168 0.840669 0.4243812
vn 0.3826824 0.92388 0
vn 0.9238791 0.3826845 0
vn 0.8721992 -0.3185356 0.371219
vn 0.92388 -0.3826824 0
vn 0.3826844 -0.9238791 0
g FloorEdge25_0
f 3/3/3 2/2/2 1/1/1
f 4/4/4 3/3/3 1/1/1
f 4/4/4 1/1/1 5/5/5
f 1/1/1 6/6/6 5/5/5
f 6/6/6 7/7/7 5/5/5
f 7/7/7 8/8/8 5/5/5
f 9/9/9 8/8/8 7/7/7
f 10/10/10 9/9/9 7/7/7
f 10/10/10 11/11/11 9/9/9
f 11/11/11 12/12/12 9/9/9
f 15/15/15 14/14/14 13/13/13
f 16/16/16 15/15/15 13/13/13
f 16/16/16 13/13/13 17/17/17
f 13/13/13 18/18/18 17/17/17
f 18/18/18 19/19/19 17/17/17
f 19/19/19 20/20/20 17/17/17
f 21/21/21 20/20/20 19/19/19
f 22/22/22 21/21/21 19/19/19
f 22/22/22 23/23/23 21/21/21
f 23/23/23 24/24/24 21/21/21
f 27/27/27 26/26/26 25/25/25
f 28/28/28 27/27/27 25/25/25
f 25/25/25 29/29/29 28/28/28
f 30/30/30 27/27/27 28/28/28
f 29/29/29 31/31/31 28/28/28
f 29/29/29 32/32/32 31/31/31
f 33/33/33 30/30/30 28/28/28
f 34/34/34 30/30/30 33/33/33
f 35/35/35 34/34/34 33/33/33
f 33/33/33 28/28/28 36/36/36
f 33/33/33 36/36/36 35/35/35
f 28/28/28 31/31/31 36/36/36
f 36/36/36 37/37/37 35/35/35
f 32/32/32 38/38/38 31/31/31
f 31/31/31 38/38/38 36/36/36
f 36/36/36 39/39/39 37/37/37
f 38/38/38 39/39/39 36/36/36
f 39/39/39 40/40/40 37/37/37
f 41/41/41 40/40/40 39/39/39
f 42/42/42 38/38/38 32/32/32
f 43/43/43 42/42/42 32/32/32
f 43/43/43 44/44/44 42/42/42
f 44/44/44 45/45/45 42/42/42
f 46/46/46 39/39/39 38/38/38
f 42/42/42 46/46/46 38/38/38
f 42/42/42 45/45/45 46/46/46
f 46/46/46 41/41/41 39/39/39
f 45/45/45 47/47/47 46/46/46
f 46/46/46 47/47/47 41/41/41
f 47/47/47 48/48/48 41/41/41
f 51/51/51 50/50/50 49/49/49
f 52/52/52 51/51/51 49/49/49
f 52/52/52 49/49/49 53/53/53
f 54/54/54 51/51/51 52/52/52
f 55/55/55 52/52/52 53/53/53
f 53/53/53 56/56/56 55/55/55
f 57/57/57 54/54/54 52/52/52
f 58/58/58 54/54/54 57/57/57
f 59/59/59 58/58/58 57/57/57
f 57/57/57 52/52/52 60/60/60
f 59/59/59 57/57/57 60/60/60
f 52/52/52 55/55/55 60/60/60
f 61/61/61 59/59/59 60/60/60
f 56/56/56 62/62/62 55/55/55
f 55/55/55 62/62/62 60/60/60
f 60/60/60 63/63/63 61/61/61
f 62/62/62 63/63/63 60/60/60
f 63/63/63 64/64/64 61/61/61
f 65/65/65 64/64/64 63/63/63
f 66/66/66 62/62/62 56/56/56
f 67/67/67 66/66/66 56/56/56
f 67/67/67 68/68/68 66/66/66
f 68/68/68 69/69/69 66/66/66
f 70/70/70 63/63/63 62/62/62
f 66/66/66 70/70/70 62/62/62
f 66/66/66 69/69/69 70/70/70
f 70/70/70 65/65/65 63/63/63
f 69/69/69 71/71/71 70/70/70
f 70/70/70 71/71/71 65/65/65
f 71/71/71 72/72/72 65/65/65
