g Ground_11x25
v -5.5 2.328306E-12 -2.5
v -5.5 -2.328306E-12 -12.5
v 5.5 -2.328306E-12 -12.5
v 5.5 2.328306E-12 -2.5
v -5.5 -2.328306E-12 12.5
v -5.5 2.328306E-12 2.505428
v 5.5 2.328306E-12 2.505428
v 5.5 -2.328306E-12 12.5
v -5.5 2.328306E-12 2.505428
v -5.5 2.328306E-12 -2.5
v 5.5 2.328306E-12 -2.5
v 5.5 2.328306E-12 2.505428
vt 0.5 0.455
vt 0.5 0.9099996
vt 1 0.9099996
vt 1 0.4549998
vt 0.5 0
vt 0.5 0.4549997
vt 0.9999999 0.4549998
vt 1 0
vt 2.384186E-07 0.4549999
vt 1.192093E-07 0.6824996
vt 0.5000002 0.6824996
vt 0.5000002 0.4549997
vn 0 1 0
vn 0 1 0
vn 0 1 0
vn 0 1 0
vn 0 1 0
vn 0 1 0
vn 0 1 0
vn 0 1 0
vn 0 1 0
vn 0 1 0
vn 0 1 0
vn 0 1 0
g Ground_11x25_0
f 3/3/3 2/2/2 1/1/1
f 4/4/4 3/3/3 1/1/1
f 7/7/7 6/6/6 5/5/5
f 8/8/8 7/7/7 5/5/5
f 11/11/11 10/10/10 9/9/9
f 12/12/12 11/11/11 9/9/9
