g Octahedron_01
v 0 0 0.5
v 0.3535534 0.3535534 5.184203E-11
v 0.3535534 -0.3535534 5.184207E-11
v 0.3535534 0.3535534 5.184203E-11
v -0.3535534 0.3535534 1.171548E-18
v 7.33153E-11 2.220446E-16 -0.5
v -0.3535534 0.3535534 1.171548E-18
v 0 0 0.5
v -0.3535534 -0.3535534 1.110223E-16
v -0.3535534 -0.3535534 1.110223E-16
v 0.3535534 -0.3535534 5.184207E-11
v 7.33153E-11 2.220446E-16 -0.5
v 0.3535534 0.3535534 5.184203E-11
v 0 0 0.5
v -0.3535534 0.3535534 1.171548E-18
v -0.3535534 -0.3535534 1.110223E-16
v 0 0 0.5
v 0.3535534 -0.3535534 5.184207E-11
v 0.3535534 -0.3535534 5.184207E-11
v 0.3535534 0.3535534 5.184203E-11
v 7.33153E-11 2.220446E-16 -0.5
v -0.3535534 -0.3535534 1.110223E-16
v 7.33153E-11 2.220446E-16 -0.5
v -0.3535534 0.3535534 1.171548E-18
vt 0 0.5
vt 0.5 5.184203E-11
vt -0.5 5.184207E-11
vt 5.184203E-11 0.5
vt 1.171548E-18 -0.5
vt -0.5 1.036835E-10
vt 0.5 1.171548E-18
vt 0 0.5
vt -0.5 1.110223E-16
vt 1.110223E-16 -0.5
vt 5.184207E-11 0.5
vt -0.5 1.036835E-10
vt 5.184203E-11 0.5
vt 0.5 0
vt 1.171548E-18 -0.5
vt 1.110223E-16 -0.5
vt 0.5 0
vt 5.184207E-11 0.5
vt -0.5 5.184207E-11
vt 0.5 5.184203E-11
vt 3.140185E-16 -0.5
vt -0.5 1.110223E-16
vt 3.140185E-16 -0.5
vt 0.5 1.171548E-18
vn 0.8164966 0 0.5773503
vn 0.8164966 0 0.5773503
vn 0.8164966 0 0.5773503
vn 0 0.8164966 -0.5773503
vn 0 0.8164966 -0.5773503
vn 0 0.8164966 -0.5773503
vn -0.8164966 0 0.5773503
vn -0.8164966 0 0.5773503
vn -0.8164966 0 0.5773503
vn 0 -0.8164966 -0.5773503
vn 0 -0.8164966 -0.5773503
vn 0 -0.8164966 -0.5773503
vn 0 0.8164966 0.5773503
vn 0 0.8164966 0.5773503
vn 0 0.8164966 0.5773503
vn 0 -0.8164966 0.5773503
vn 0 -0.8164966 0.5773503
vn 0 -0.8164966 0.5773503
vn 0.8164966 0 -0.5773503
vn 0.8164966 0 -0.5773503
vn 0.8164966 0 -0.5773503
vn -0.8164966 0 -0.5773503
vn -0.8164966 0 -0.5773503
vn -0.8164966 0 -0.5773503
g Octahedron_01_0
f 3/3/3 2/2/2 1/1/1
f 6/6/6 5/5/5 4/4/4
f 9/9/9 8/8/8 7/7/7
f 12/12/12 11/11/11 10/10/10
f 15/15/15 14/14/14 13/13/13
f 18/18/18 17/17/17 16/16/16
f 21/21/21 20/20/20 19/19/19
f 24/24/24 23/23/23 22/22/22
