g RingWave_03
v 0.2347999 0.07629263 1.776357E-15
v 0.3312559 1.192093E-07 0.1249999
v 0.2468837 1.788139E-07 1.776357E-15
v 0.3150425 0.1023646 0.1249999
v 0.1997325 0.1451154 1.776357E-15
v 0.415628 1.192093E-07 0.2
v 0.2679912 0.1947078 0.1249999
v 0.1451142 0.1997335 1.776357E-15
v 0.3952854 0.1284366 0.2
v 0.5 0 0.25
v 0.4755284 0.1545085 0.25
v 0.3362499 0.2443002 0.2
v 0.4045085 0.2938927 0.25
v 0.1947069 0.2679919 0.1249999
v 0.07629263 0.2347999 2.664535E-15
v 0.2442998 0.3362502 0.2
v 0.2938926 0.4045085 0.25
v 0.1023648 0.3150427 0.1249999
v 2.980232E-07 0.2468837 1.776357E-15
v 0.1284366 0.3952854 0.2
v 0.1545085 0.4755282 0.25
v 1.192093E-07 0.3312559 0.1249999
v -0.07629246 0.2347999 0
v 1.192093E-07 0.415628 0.2
v -5.960464E-08 0.5 0.25
v -0.1023645 0.3150426 0.1249999
v -0.1451145 0.1997333 0
v -0.1284365 0.3952854 0.2
v -0.1545085 0.4755281 0.25
v -0.1947072 0.2679917 0.1249999
v -0.1997315 0.1451169 1.776357E-15
v -0.2442999 0.3362501 0.2
v -0.2938926 0.4045085 0.25
v -0.2679905 0.1947089 0.1249999
v -0.2347999 0.07629257 1.776357E-15
v -0.3362495 0.2443007 0.2
v -0.4045085 0.2938926 0.25
v -0.3150427 0.1023645 0.1249999
v -0.2468837 -8.940697E-08 1.776357E-15
v -0.3952855 0.1284364 0.2
v -0.4755283 0.1545085 0.25
v -0.3312558 -5.960464E-08 0.1249999
v -0.2347999 -0.07629266 0
v -0.4156279 -1.490116E-07 0.2
v -0.5 -2.086163E-07 0.25
v -0.3150427 -0.1023647 0.1249999
v -0.1997324 -0.1451155 1.776357E-15
v -0.3952854 -0.1284367 0.2
v -0.4755282 -0.1545087 0.25
v -0.267991 -0.194708 0.1249999
v -0.1451167 -0.1997316 1.776357E-15
v -0.3362497 -0.2443004 0.2
v -0.4045084 -0.2938929 0.25
v -0.1947087 -0.2679906 0.1249999
v -0.07629246 -0.2348 2.664535E-15
v -0.2443005 -0.3362496 0.2
v -0.2938924 -0.4045087 0.25
v -0.1023644 -0.3150428 0.125
v 1.192093E-07 -0.2468837 3.552714E-15
v -0.1284363 -0.3952856 0.2
v -0.1545082 -0.4755284 0.25
v 2.980232E-07 -0.3312558 0.1249999
v 0.07629293 -0.2347999 2.664535E-15
v 2.980232E-07 -0.4156279 0.2
v 4.768372E-07 -0.5 0.25
v 0.102365 -0.3150426 0.1249999
v 0.1451136 -0.1997339 0
v 0.1284372 -0.3952853 0.2
v 0.1545089 -0.4755281 0.25
v 0.1947069 -0.267992 0.1249999
v 0.1997329 -0.1451151 0
v 0.2442999 -0.3362501 0.2
v 0.293893 -0.4045081 0.25
v 0.2679915 -0.1947075 0.1249999
v 0.2348001 -0.07629192 1.776357E-15
v 0.3362501 -0.2442998 0.2
v 0.4045091 -0.2938921 0.25
v 0.315043 -0.1023639 0.1249999
v 0.2468837 1.788139E-07 1.776357E-15
v 0.3312559 1.192093E-07 0.1249999
v 0.3952859 -0.1284358 0.2
v 0.4755282 -0.1545078 0.25
v 0.415628 1.192093E-07 0.2
v 0.5 0 0.25
vt 0.05000001 0.005
vt 3.046372E-08 0.3333336
vt 1.589326E-08 0.005
vt 0.05000002 0.3333336
vt 0.1 0.005
vt 4.503418E-08 0.6666669
vt 0.1 0.3333336
vt 0.15 0.005
vt 0.05000004 0.6666669
vt 5.960464E-08 0.995
vt 0.05000005 0.995
vt 0.1 0.6666669
vt 0.1 0.995
vt 0.15 0.3333336
vt 0.2 0.005
vt 0.15 0.6666669
vt 0.1500001 0.995
vt 0.2 0.3333336
vt 0.25 0.005
vt 0.2 0.6666669
vt 0.2000001 0.995
vt 0.25 0.3333336
vt 0.3 0.005
vt 0.25 0.6666669
vt 0.2500001 0.995
vt 0.3 0.3333336
vt 0.35 0.005
vt 0.3000001 0.6666669
vt 0.3000001 0.995
vt 0.35 0.3333336
vt 0.4 0.005
vt 0.35 0.6666669
vt 0.35 0.995
vt 0.4 0.3333336
vt 0.45 0.005
vt 0.4000001 0.6666669
vt 0.4000001 0.995
vt 0.45 0.3333336
vt 0.5000001 0.005
vt 0.4500001 0.6666669
vt 0.4500001 0.995
vt 0.5000001 0.3333336
vt 0.5500001 0.005
vt 0.5000001 0.6666669
vt 0.5000001 0.995
vt 0.5500001 0.3333336
vt 0.6000001 0.005
vt 0.5500001 0.6666669
vt 0.5500001 0.995
vt 0.6000001 0.3333336
vt 0.6500001 0.005
vt 0.6000001 0.6666669
vt 0.6000001 0.995
vt 0.6500001 0.3333336
vt 0.7000001 0.005
vt 0.6500002 0.6666669
vt 0.6500002 0.995
vt 0.7000001 0.3333336
vt 0.7500001 0.005
vt 0.7000002 0.6666669
vt 0.7000002 0.995
vt 0.7500001 0.3333336
vt 0.8000001 0.005
vt 0.7500002 0.6666669
vt 0.7500002 0.995
vt 0.8000001 0.3333336
vt 0.8500001 0.005
vt 0.8000002 0.6666669
vt 0.8000002 0.995
vt 0.8500001 0.3333336
vt 0.9000002 0.005
vt 0.8500002 0.6666669
vt 0.8500002 0.995
vt 0.9000002 0.3333336
vt 0.9500002 0.005
vt 0.9000002 0.6666669
vt 0.9000002 0.995
vt 0.9500002 0.3333336
vt 1 0.005
vt 1 0.3333336
vt 0.9500003 0.6666669
vt 0.9500003 0.995
vt 1 0.6666669
vt 1 0.995
vn -0.7882894 -0.2561342 0.5594595
vn -0.747002 0 0.6648217
vn -0.8288572 0 0.5594603
vn -0.7104411 -0.2308384 0.6648211
vn -0.6705588 -0.487192 0.5594595
vn -0.5835014 0 0.8121121
vn -0.6043372 -0.4390779 0.6648212
vn -0.48719 -0.6705601 0.5594596
vn -0.5549425 -0.1803125 0.8121122
vn -0.5098157 0 0.8602837
vn -0.484863 -0.1575415 0.860284
vn -0.4720625 -0.3429738 0.812112
vn -0.4124493 -0.2996621 0.8602837
vn -0.4390769 -0.604338 0.664821
vn -0.2561329 -0.7882895 0.5594601
vn -0.3429736 -0.4720631 0.8121118
vn -0.2996621 -0.4124497 0.8602836
vn -0.2308377 -0.7104414 0.664821
vn 0 -0.8288571 0.5594605
vn -0.1803124 -0.5549434 0.8121117
vn -0.1575416 -0.4848636 0.8602837
vn 0 -0.7470022 0.6648216
vn 0.2561327 -0.7882897 0.5594599
vn 0 -0.5835015 0.812112
vn 0 -0.5098154 0.8602839
vn 0.2308376 -0.7104414 0.6648211
vn 0.4871888 -0.6705611 0.5594594
vn 0.1803124 -0.5549431 0.8121119
vn 0.1575416 -0.4848635 0.8602837
vn 0.4390764 -0.6043388 0.6648207
vn 0.670557 -0.4871941 0.5594598
vn 0.3429734 -0.4720634 0.8121117
vn 0.299662 -0.4124497 0.8602837
vn 0.6043362 -0.4390795 0.664821
vn 0.788289 -0.2561343 0.5594602
vn 0.4720622 -0.3429745 0.8121119
vn 0.4124494 -0.2996618 0.8602837
vn 0.7104408 -0.2308383 0.6648216
vn 0.8288572 0 0.5594602
vn 0.5549426 -0.1803123 0.8121122
vn 0.4848631 -0.1575415 0.8602839
vn 0.7470022 0 0.6648214
vn 0.7882892 0.2561339 0.5594601
vn 0.5835015 0 0.8121121
vn 0.5098152 0 0.8602839
vn 0.7104409 0.2308383 0.6648213
vn 0.6705594 0.487191 0.5594596
vn 0.5549427 0.1803126 0.812112
vn 0.4848631 0.1575417 0.8602839
vn 0.6043378 0.4390778 0.6648207
vn 0.4871935 0.6705574 0.5594597
vn 0.4720629 0.3429742 0.8121117
vn 0.4124494 0.2996621 0.8602837
vn 0.439079 0.6043367 0.6648209
vn 0.2561339 0.7882892 0.5594601
vn 0.3429742 0.4720625 0.8121119
vn 0.2996616 0.4124497 0.8602837
vn 0.2308379 0.7104409 0.6648216
vn 0 0.8288572 0.5594601
vn 0.180312 0.5549427 0.8121122
vn 0.1575412 0.4848632 0.8602839
vn 0 0.7470022 0.6648214
vn -0.2561325 0.7882899 0.5594598
vn 0 0.5835013 0.8121122
vn 0 0.5098151 0.860284
vn -0.2308376 0.7104415 0.664821
vn -0.4871893 0.6705605 0.5594596
vn -0.1803128 0.5549428 0.8121119
vn -0.1575419 0.4848632 0.8602839
vn -0.4390773 0.6043382 0.6648208
vn -0.6705589 0.4871912 0.55946
vn -0.3429742 0.4720629 0.8121117
vn -0.2996625 0.4124489 0.8602837
vn -0.6043374 0.4390776 0.6648211
vn -0.7882898 0.2561319 0.5594601
vn -0.4720629 0.3429736 0.812112
vn -0.4124497 0.2996613 0.8602839
vn -0.7104413 0.2308368 0.6648214
vn -0.8288572 0 0.5594603
vn -0.747002 0 0.6648217
vn -0.5549431 0.1803117 0.8121119
vn -0.484864 0.1575413 0.8602835
vn -0.5835014 0 0.8121121
vn -0.5098157 0 0.8602837
g RingWave_03_0
f 3/3/3 2/2/2 1/1/1
f 2/2/2 4/4/4 1/1/1
f 1/1/1 4/4/4 5/5/5
f 2/2/2 6/6/6 4/4/4
f 4/4/4 7/7/7 5/5/5
f 5/5/5 7/7/7 8/8/8
f 6/6/6 9/9/9 4/4/4
f 4/4/4 9/9/9 7/7/7
f 9/9/9 6/6/6 10/10/10
f 11/11/11 9/9/9 10/10/10
f 12/12/12 9/9/9 11/11/11
f 9/9/9 12/12/12 7/7/7
f 13/13/13 12/12/12 11/11/11
f 7/7/7 14/14/14 8/8/8
f 7/7/7 12/12/12 14/14/14
f 8/8/8 14/14/14 15/15/15
f 16/16/16 12/12/12 13/13/13
f 12/12/12 16/16/16 14/14/14
f 17/17/17 16/16/16 13/13/13
f 14/14/14 18/18/18 15/15/15
f 14/14/14 16/16/16 18/18/18
f 15/15/15 18/18/18 19/19/19
f 20/20/20 16/16/16 17/17/17
f 16/16/16 20/20/20 18/18/18
f 21/21/21 20/20/20 17/17/17
f 18/18/18 22/22/22 19/19/19
f 18/18/18 20/20/20 22/22/22
f 19/19/19 22/22/22 23/23/23
f 24/24/24 20/20/20 21/21/21
f 20/20/20 24/24/24 22/22/22
f 25/25/25 24/24/24 21/21/21
f 22/22/22 26/26/26 23/23/23
f 22/22/22 24/24/24 26/26/26
f 23/23/23 26/26/26 27/27/27
f 28/28/28 24/24/24 25/25/25
f 24/24/24 28/28/28 26/26/26
f 29/29/29 28/28/28 25/25/25
f 26/26/26 30/30/30 27/27/27
f 26/26/26 28/28/28 30/30/30
f 27/27/27 30/30/30 31/31/31
f 32/32/32 28/28/28 29/29/29
f 28/28/28 32/32/32 30/30/30
f 33/33/33 32/32/32 29/29/29
f 30/30/30 34/34/34 31/31/31
f 30/30/30 32/32/32 34/34/34
f 31/31/31 34/34/34 35/35/35
f 36/36/36 32/32/32 33/33/33
f 32/32/32 36/36/36 34/34/34
f 37/37/37 36/36/36 33/33/33
f 34/34/34 38/38/38 35/35/35
f 34/34/34 36/36/36 38/38/38
f 35/35/35 38/38/38 39/39/39
f 40/40/40 36/36/36 37/37/37
f 36/36/36 40/40/40 38/38/38
f 41/41/41 40/40/40 37/37/37
f 38/38/38 42/42/42 39/39/39
f 38/38/38 40/40/40 42/42/42
f 39/39/39 42/42/42 43/43/43
f 44/44/44 40/40/40 41/41/41
f 40/40/40 44/44/44 42/42/42
f 45/45/45 44/44/44 41/41/41
f 42/42/42 46/46/46 43/43/43
f 42/42/42 44/44/44 46/46/46
f 43/43/43 46/46/46 47/47/47
f 48/48/48 44/44/44 45/45/45
f 44/44/44 48/48/48 46/46/46
f 49/49/49 48/48/48 45/45/45
f 46/46/46 50/50/50 47/47/47
f 46/46/46 48/48/48 50/50/50
f 47/47/47 50/50/50 51/51/51
f 52/52/52 48/48/48 49/49/49
f 48/48/48 52/52/52 50/50/50
f 53/53/53 52/52/52 49/49/49
f 50/50/50 54/54/54 51/51/51
f 50/50/50 52/52/52 54/54/54
f 51/51/51 54/54/54 55/55/55
f 56/56/56 52/52/52 53/53/53
f 52/52/52 56/56/56 54/54/54
f 57/57/57 56/56/56 53/53/53
f 54/54/54 58/58/58 55/55/55
f 54/54/54 56/56/56 58/58/58
f 55/55/55 58/58/58 59/59/59
f 60/60/60 56/56/56 57/57/57
f 56/56/56 60/60/60 58/58/58
f 61/61/61 60/60/60 57/57/57
f 58/58/58 62/62/62 59/59/59
f 58/58/58 60/60/60 62/62/62
f 59/59/59 62/62/62 63/63/63
f 64/64/64 60/60/60 61/61/61
f 60/60/60 64/64/64 62/62/62
f 65/65/65 64/64/64 61/61/61
f 62/62/62 66/66/66 63/63/63
f 62/62/62 64/64/64 66/66/66
f 63/63/63 66/66/66 67/67/67
f 68/68/68 64/64/64 65/65/65
f 64/64/64 68/68/68 66/66/66
f 69/69/69 68/68/68 65/65/65
f 66/66/66 70/70/70 67/67/67
f 66/66/66 68/68/68 70/70/70
f 67/67/67 70/70/70 71/71/71
f 72/72/72 68/68/68 69/69/69
f 68/68/68 72/72/72 70/70/70
f 73/73/73 72/72/72 69/69/69
f 70/70/70 74/74/74 71/71/71
f 70/70/70 72/72/72 74/74/74
f 71/71/71 74/74/74 75/75/75
f 76/76/76 72/72/72 73/73/73
f 72/72/72 76/76/76 74/74/74
f 77/77/77 76/76/76 73/73/73
f 74/74/74 78/78/78 75/75/75
f 74/74/74 76/76/76 78/78/78
f 75/75/75 78/78/78 79/79/79
f 78/78/78 80/80/80 79/79/79
f 81/81/81 76/76/76 77/77/77
f 76/76/76 81/81/81 78/78/78
f 78/78/78 81/81/81 80/80/80
f 82/82/82 81/81/81 77/77/77
f 81/81/81 83/83/83 80/80/80
f 83/83/83 81/81/81 82/82/82
f 84/84/84 83/83/83 82/82/82
