g RingWave_04
v 0.04695995 0.01525866 1.598721E-15
v 0.1325024 1.344085E-07 0.1249999
v 0.04937673 1.704693E-07 1.598721E-15
v 0.126017 0.04094592 0.1249999
v 0.03994648 0.02902322 1.598721E-15
v 0.2493768 1.168251E-07 0.2
v 0.1071965 0.07788318 0.1249999
v 0.02902281 0.03994682 1.598721E-15
v 0.2371712 0.07706198 0.2
v 0.4 1.728535E-08 0.25
v 0.3804227 0.1236068 0.25
v 0.20175 0.1465801 0.1999999
v 0.3236068 0.2351141 0.25
v 0.07788277 0.1071968 0.125
v 0.0152585 0.0469601 1.776357E-15
v 0.1465799 0.2017502 0.2
v 0.2351141 0.3236068 0.25
v 0.04094593 0.1260172 0.1249999
v 3.695487E-08 0.04937688 1.598721E-15
v 0.07706197 0.2371713 0.2
v 0.1236068 0.3804226 0.25
v 6.55651E-08 0.1325025 0.125
v -0.01525851 0.0469601 1.24345E-15
v 1.019239E-07 0.2493768 0.2
v -2.145767E-08 0.4 0.25
v -0.04094579 0.1260171 0.1249999
v -0.02902292 0.03994678 1.24345E-15
v -0.07706187 0.2371713 0.2
v -0.1236068 0.3804225 0.25
v -0.07788286 0.1071967 0.1249999
v -0.03994632 0.02902351 1.598721E-15
v -0.1465799 0.2017501 0.2
v -0.2351141 0.3236068 0.25
v -0.1071962 0.07788363 0.1249999
v -0.04696 0.01525865 1.598721E-15
v -0.2017497 0.1465805 0.2
v -0.3236068 0.2351141 0.25
v -0.1260171 0.0409459 0.125
v -0.04937676 1.168251E-07 1.598721E-15
v -0.2371713 0.07706191 0.2
v -0.3804226 0.1236068 0.25
v -0.1325023 6.28829E-08 0.125
v -0.04696 -0.0152584 1.24345E-15
v -0.2493767 -4.410743E-08 0.2
v -0.4 -1.496076E-07 0.25
v -0.126017 -0.0409458 0.1249999
v -0.0399465 -0.02902297 1.598721E-15
v -0.2371712 -0.07706198 0.2
v -0.3804225 -0.1236069 0.25
v -0.1071964 -0.07788311 0.1249999
v -0.02902337 -0.03994618 1.598721E-15
v -0.2017498 -0.1465802 0.2
v -0.3236067 -0.2351143 0.25
v -0.07788345 -0.1071962 0.1249999
v -0.01525851 -0.04695986 1.776357E-15
v -0.1465803 -0.2017497 0.2
v -0.2351138 -0.3236069 0.25
v -0.04094572 -0.126017 0.125
v 1.192092E-09 -0.04937661 1.953993E-15
v -0.07706173 -0.2371713 0.1999999
v -0.1236065 -0.3804226 0.25
v 1.370907E-07 -0.1325022 0.125
v 0.01525856 -0.04695983 1.776357E-15
v 2.092123E-07 -0.2493767 0.2
v 4.076957E-07 -0.3999999 0.25
v 0.04094602 -0.1260169 0.1249999
v 0.02902271 -0.03994665 1.24345E-15
v 0.07706232 -0.2371711 0.2
v 0.1236071 -0.3804224 0.25
v 0.07788277 -0.1071967 0.1249999
v 0.03994656 -0.02902289 1.24345E-15
v 0.14658 -0.20175 0.2
v 0.2351144 -0.3236065 0.25
v 0.1071966 -0.07788289 0.1249999
v 0.04696 -0.01525825 1.598721E-15
v 0.2017501 -0.1465798 0.2
v 0.3236072 -0.2351136 0.25
v 0.1260172 -0.04094547 0.125
v 0.04937673 1.704693E-07 1.598721E-15
v 0.1325024 1.344085E-07 0.1249999
v 0.2371716 -0.07706142 0.2
v 0.3804226 -0.1236062 0.25
v 0.2493768 1.168251E-07 0.2
v 0.4 1.728535E-08 0.25
vt 0.05000001 2.384186E-07
vt 3.046372E-08 0.3333336
vt 1.589326E-08 2.384186E-07
vt 0.05000002 0.3333336
vt 0.1 2.384186E-07
vt 4.503418E-08 0.6666669
vt 0.1 0.3333336
vt 0.15 2.384186E-07
vt 0.05000004 0.6666669
vt 5.960464E-08 1
vt 0.05000005 1
vt 0.1 0.6666669
vt 0.1 1
vt 0.15 0.3333336
vt 0.2 2.384186E-07
vt 0.15 0.6666669
vt 0.1500001 1
vt 0.2 0.3333336
vt 0.25 2.384186E-07
vt 0.2 0.6666669
vt 0.2000001 1
vt 0.25 0.3333336
vt 0.3 2.384186E-07
vt 0.25 0.6666669
vt 0.2500001 1
vt 0.3 0.3333336
vt 0.35 2.384186E-07
vt 0.3000001 0.6666669
vt 0.3000001 1
vt 0.35 0.3333336
vt 0.4 2.384186E-07
vt 0.35 0.6666669
vt 0.35 1
vt 0.4 0.3333336
vt 0.45 2.384186E-07
vt 0.4000001 0.6666669
vt 0.4000001 1
vt 0.45 0.3333336
vt 0.5000001 2.384186E-07
vt 0.4500001 0.6666669
vt 0.4500001 1
vt 0.5000001 0.3333336
vt 0.5500001 2.384186E-07
vt 0.5000001 0.6666669
vt 0.5000001 1
vt 0.5500001 0.3333336
vt 0.6000001 2.384186E-07
vt 0.5500001 0.6666669
vt 0.5500001 1
vt 0.6000001 0.3333336
vt 0.6500001 2.384186E-07
vt 0.6000001 0.6666669
vt 0.6000001 1
vt 0.6500001 0.3333336
vt 0.7000001 2.384186E-07
vt 0.6500002 0.6666669
vt 0.6500002 1
vt 0.7000001 0.3333336
vt 0.7500001 2.384186E-07
vt 0.7000002 0.6666669
vt 0.7000002 1
vt 0.7500001 0.3333336
vt 0.8000001 2.384186E-07
vt 0.7500002 0.6666669
vt 0.7500002 1
vt 0.8000001 0.3333336
vt 0.8500001 2.384186E-07
vt 0.8000002 0.6666669
vt 0.8000002 1
vt 0.8500001 0.3333336
vt 0.9000002 2.384186E-07
vt 0.8500002 0.6666669
vt 0.8500002 1
vt 0.9000002 0.3333336
vt 0.9500002 2.384186E-07
vt 0.9000002 0.6666669
vt 0.9000002 1
vt 0.9500002 0.3333336
vt 1 2.384186E-07
vt 1 0.3333336
vt 0.9500003 0.6666669
vt 0.9500003 1
vt 1 0.6666669
vt 1 1
vn -0.7919328 -0.2573177 0.5537418
vn -0.6906028 0 0.7232342
vn -0.8326882 0 0.5537422
vn -0.6568024 -0.21341 0.7232336
vn -0.6736581 -0.4894434 0.5537418
vn -0.4206732 0 0.9072123
vn -0.5587093 -0.4059272 0.7232338
vn -0.4894419 -0.6736591 0.5537418
vn -0.400084 -0.1299957 0.9072121
vn -0.3150496 0 0.9490752
vn -0.2996299 -0.09735571 0.9490752
vn -0.3403318 -0.2472657 0.9072121
vn -0.2548805 -0.1851816 0.9490752
vn -0.4059264 -0.55871 0.7232337
vn -0.2573165 -0.7919332 0.5537419
vn -0.2472655 -0.340332 0.9072121
vn -0.1851815 -0.2548807 0.9490752
vn -0.2134094 -0.6568026 0.7232335
vn 0 -0.8326883 0.5537419
vn -0.1299956 -0.4000843 0.9072121
vn -0.09735571 -0.2996301 0.9490752
vn 0 -0.6906031 0.7232339
vn 0.2573164 -0.7919335 0.5537416
vn 0 -0.4206733 0.9072121
vn 0 -0.3150496 0.9490752
vn 0.2134093 -0.6568028 0.7232334
vn 0.4894406 -0.6736602 0.5537415
vn 0.1299956 -0.4000843 0.9072121
vn 0.09735578 -0.29963 0.9490752
vn 0.4059258 -0.5587108 0.7232333
vn 0.673657 -0.4894451 0.5537416
vn 0.2472654 -0.3403323 0.9072121
vn 0.1851814 -0.2548806 0.9490752
vn 0.5587085 -0.4059286 0.7232335
vn 0.7919329 -0.2573176 0.5537417
vn 0.3403316 -0.2472662 0.9072121
vn 0.2548803 -0.1851815 0.9490752
vn 0.6568024 -0.2134098 0.7232338
vn 0.8326885 0 0.5537418
vn 0.400084 -0.1299955 0.9072123
vn 0.2996298 -0.0973556 0.9490753
vn 0.6906034 0 0.7232338
vn 0.791933 0.2573172 0.5537419
vn 0.4206733 0 0.9072123
vn 0.3150494 0 0.9490753
vn 0.6568022 0.2134097 0.7232338
vn 0.6736587 0.4894425 0.5537418
vn 0.4000839 0.1299957 0.9072123
vn 0.2996298 0.09735581 0.9490753
vn 0.5587097 0.4059271 0.7232335
vn 0.4894443 0.6736572 0.5537419
vn 0.3403318 0.2472659 0.9072121
vn 0.2548803 0.1851815 0.9490752
vn 0.405928 0.5587088 0.7232337
vn 0.2573171 0.7919328 0.553742
vn 0.2472659 0.3403316 0.9072121
vn 0.1851814 0.2548804 0.9490752
vn 0.2134093 0.6568021 0.7232341
vn 0 0.8326883 0.5537421
vn 0.1299953 0.4000839 0.9072123
vn 0.0973555 0.2996298 0.9490753
vn 0 0.690603 0.723234
vn -0.2573159 0.7919332 0.5537422
vn 0 0.4206731 0.9072124
vn 0 0.3150494 0.9490753
vn -0.2134091 0.6568024 0.7232338
vn -0.4894413 0.6736592 0.5537422
vn -0.1299958 0.4000838 0.9072123
vn -0.09735593 0.2996297 0.9490753
vn -0.4059264 0.5587099 0.7232338
vn -0.6736584 0.4894426 0.5537423
vn -0.2472658 0.3403318 0.9072121
vn -0.1851817 0.2548802 0.9490752
vn -0.5587094 0.4059268 0.723234
vn -0.7919334 0.2573155 0.5537422
vn -0.3403319 0.2472655 0.9072121
vn -0.2548806 0.1851811 0.9490753
vn -0.6568025 0.2134085 0.7232339
vn -0.8326882 0 0.5537422
vn -0.6906028 0 0.7232342
vn -0.4000841 0.129995 0.9072123
vn -0.2996303 0.09735543 0.9490752
vn -0.4206732 0 0.9072123
vn -0.3150496 0 0.9490752
g RingWave_04_0
f 3/3/3 2/2/2 1/1/1
f 2/2/2 4/4/4 1/1/1
f 1/1/1 4/4/4 5/5/5
f 2/2/2 6/6/6 4/4/4
f 4/4/4 7/7/7 5/5/5
f 5/5/5 7/7/7 8/8/8
f 6/6/6 9/9/9 4/4/4
f 4/4/4 9/9/9 7/7/7
f 9/9/9 6/6/6 10/10/10
f 11/11/11 9/9/9 10/10/10
f 12/12/12 9/9/9 11/11/11
f 9/9/9 12/12/12 7/7/7
f 13/13/13 12/12/12 11/11/11
f 7/7/7 14/14/14 8/8/8
f 7/7/7 12/12/12 14/14/14
f 8/8/8 14/14/14 15/15/15
f 16/16/16 12/12/12 13/13/13
f 12/12/12 16/16/16 14/14/14
f 17/17/17 16/16/16 13/13/13
f 14/14/14 18/18/18 15/15/15
f 14/14/14 16/16/16 18/18/18
f 15/15/15 18/18/18 19/19/19
f 20/20/20 16/16/16 17/17/17
f 16/16/16 20/20/20 18/18/18
f 21/21/21 20/20/20 17/17/17
f 18/18/18 22/22/22 19/19/19
f 18/18/18 20/20/20 22/22/22
f 19/19/19 22/22/22 23/23/23
f 24/24/24 20/20/20 21/21/21
f 20/20/20 24/24/24 22/22/22
f 25/25/25 24/24/24 21/21/21
f 22/22/22 26/26/26 23/23/23
f 22/22/22 24/24/24 26/26/26
f 23/23/23 26/26/26 27/27/27
f 28/28/28 24/24/24 25/25/25
f 24/24/24 28/28/28 26/26/26
f 29/29/29 28/28/28 25/25/25
f 26/26/26 30/30/30 27/27/27
f 26/26/26 28/28/28 30/30/30
f 27/27/27 30/30/30 31/31/31
f 32/32/32 28/28/28 29/29/29
f 28/28/28 32/32/32 30/30/30
f 33/33/33 32/32/32 29/29/29
f 30/30/30 34/34/34 31/31/31
f 30/30/30 32/32/32 34/34/34
f 31/31/31 34/34/34 35/35/35
f 36/36/36 32/32/32 33/33/33
f 32/32/32 36/36/36 34/34/34
f 37/37/37 36/36/36 33/33/33
f 34/34/34 38/38/38 35/35/35
f 34/34/34 36/36/36 38/38/38
f 35/35/35 38/38/38 39/39/39
f 40/40/40 36/36/36 37/37/37
f 36/36/36 40/40/40 38/38/38
f 41/41/41 40/40/40 37/37/37
f 38/38/38 42/42/42 39/39/39
f 38/38/38 40/40/40 42/42/42
f 39/39/39 42/42/42 43/43/43
f 44/44/44 40/40/40 41/41/41
f 40/40/40 44/44/44 42/42/42
f 45/45/45 44/44/44 41/41/41
f 42/42/42 46/46/46 43/43/43
f 42/42/42 44/44/44 46/46/46
f 43/43/43 46/46/46 47/47/47
f 48/48/48 44/44/44 45/45/45
f 44/44/44 48/48/48 46/46/46
f 49/49/49 48/48/48 45/45/45
f 46/46/46 50/50/50 47/47/47
f 46/46/46 48/48/48 50/50/50
f 47/47/47 50/50/50 51/51/51
f 52/52/52 48/48/48 49/49/49
f 48/48/48 52/52/52 50/50/50
f 53/53/53 52/52/52 49/49/49
f 50/50/50 54/54/54 51/51/51
f 50/50/50 52/52/52 54/54/54
f 51/51/51 54/54/54 55/55/55
f 56/56/56 52/52/52 53/53/53
f 52/52/52 56/56/56 54/54/54
f 57/57/57 56/56/56 53/53/53
f 54/54/54 58/58/58 55/55/55
f 54/54/54 56/56/56 58/58/58
f 55/55/55 58/58/58 59/59/59
f 60/60/60 56/56/56 57/57/57
f 56/56/56 60/60/60 58/58/58
f 61/61/61 60/60/60 57/57/57
f 58/58/58 62/62/62 59/59/59
f 58/58/58 60/60/60 62/62/62
f 59/59/59 62/62/62 63/63/63
f 64/64/64 60/60/60 61/61/61
f 60/60/60 64/64/64 62/62/62
f 65/65/65 64/64/64 61/61/61
f 62/62/62 66/66/66 63/63/63
f 62/62/62 64/64/64 66/66/66
f 63/63/63 66/66/66 67/67/67
f 68/68/68 64/64/64 65/65/65
f 64/64/64 68/68/68 66/66/66
f 69/69/69 68/68/68 65/65/65
f 66/66/66 70/70/70 67/67/67
f 66/66/66 68/68/68 70/70/70
f 67/67/67 70/70/70 71/71/71
f 72/72/72 68/68/68 69/69/69
f 68/68/68 72/72/72 70/70/70
f 73/73/73 72/72/72 69/69/69
f 70/70/70 74/74/74 71/71/71
f 70/70/70 72/72/72 74/74/74
f 71/71/71 74/74/74 75/75/75
f 76/76/76 72/72/72 73/73/73
f 72/72/72 76/76/76 74/74/74
f 77/77/77 76/76/76 73/73/73
f 74/74/74 78/78/78 75/75/75
f 74/74/74 76/76/76 78/78/78
f 75/75/75 78/78/78 79/79/79
f 78/78/78 80/80/80 79/79/79
f 81/81/81 76/76/76 77/77/77
f 76/76/76 81/81/81 78/78/78
f 78/78/78 81/81/81 80/80/80
f 82/82/82 81/81/81 77/77/77
f 81/81/81 83/83/83 80/80/80
f 83/83/83 81/81/81 82/82/82
f 84/84/84 83/83/83 82/82/82
