g RingWave_01
v 0.2348 0.07629262 1.490116E-08
v 0.5 -5.463917E-09 1.490116E-08
v 0.2468837 1.64418E-07 1.490116E-08
v 0.4755283 0.1545085 1.490116E-08
v 0.1997325 0.1451155 1.490116E-08
v 0.4045085 0.2938926 1.490116E-08
v 0.1451142 0.1997335 1.490116E-08
v 0.2938926 0.4045085 1.490116E-08
v 0.07629272 0.2347999 1.490116E-08
v 0.1545085 0.4755282 1.490116E-08
v 2.089578E-07 0.2468837 1.490116E-08
v -1.639178E-08 0.5 1.490116E-08
v -0.07629252 0.2348 1.490116E-08
v -0.1545085 0.4755282 1.490116E-08
v -0.1451145 0.1997332 1.490116E-08
v -0.2938926 0.4045085 1.490116E-08
v -0.1997315 0.1451169 1.490116E-08
v -0.4045085 0.2938926 1.490116E-08
v -0.2347999 0.07629263 1.490116E-08
v -0.4755283 0.1545084 1.490116E-08
v -0.2468837 -2.300014E-08 1.490116E-08
v -0.5 -1.574568E-07 1.490116E-08
v -0.2347999 -0.07629267 1.490116E-08
v -0.4755282 -0.1545087 1.490116E-08
v -0.1997324 -0.1451156 1.490116E-08
v -0.4045084 -0.2938929 1.490116E-08
v -0.1451168 -0.1997316 1.490116E-08
v -0.2938924 -0.4045087 1.490116E-08
v -0.07629243 -0.2348 1.490116E-08
v -0.1545081 -0.4755284 1.490116E-08
v 1.622076E-07 -0.2468837 1.490116E-08
v 4.773356E-07 -0.5 1.490116E-08
v 0.07629292 -0.2347998 1.490116E-08
v 0.154509 -0.4755281 1.490116E-08
v 0.1451135 -0.1997339 1.490116E-08
v 0.2938931 -0.4045081 1.490116E-08
v 0.1997328 -0.1451151 1.490116E-08
v 0.4045089 -0.2938921 1.490116E-08
v 0.2348001 -0.07629193 1.490116E-08
v 0.4755285 -0.1545078 1.490116E-08
v 0.2468837 1.64418E-07 1.490116E-08
v 0.5 -5.463917E-09 1.490116E-08
vt 0.05000001 2.384186E-07
vt 5.960464E-08 1
vt 1.589326E-08 2.384186E-07
vt 0.05000005 1
vt 0.1 2.384186E-07
vt 0.1 1
vt 0.15 2.384186E-07
vt 0.1500001 1
vt 0.2 2.384186E-07
vt 0.2000001 1
vt 0.25 2.384186E-07
vt 0.2500001 1
vt 0.3 2.384186E-07
vt 0.3000001 1
vt 0.35 2.384186E-07
vt 0.35 1
vt 0.4 2.384186E-07
vt 0.4000001 1
vt 0.45 2.384186E-07
vt 0.4500001 1
vt 0.5000001 2.384186E-07
vt 0.5000001 1
vt 0.5500001 2.384186E-07
vt 0.5500001 1
vt 0.6000001 2.384186E-07
vt 0.6000001 1
vt 0.6500001 2.384186E-07
vt 0.6500002 1
vt 0.7000001 2.384186E-07
vt 0.7000002 1
vt 0.7500001 2.384186E-07
vt 0.7500002 1
vt 0.8000001 2.384186E-07
vt 0.8000002 1
vt 0.8500001 2.384186E-07
vt 0.8500002 1
vt 0.9000002 2.384186E-07
vt 0.9000002 1
vt 0.9500002 2.384186E-07
vt 0.9500003 1
vt 1 2.384186E-07
vt 1 1
vn 0 0 1
vn 0 0 1
vn 0 0 1
vn 0 0 1
vn 0 0 1
vn 0 0 1
vn 0 0 1
vn 0 0 1
vn 0 0 1
vn 0 0 1
vn 0 0 1
vn 0 0 1
vn 0 0 1
vn 0 0 1
vn 0 0 1
vn 0 0 1
vn 0 0 1
vn 0 0 1
vn 0 0 1
vn 0 0 1
vn 0 0 1
vn 0 0 1
vn 0 0 1
vn 0 0 1
vn 0 0 1
vn 0 0 1
vn 0 0 1
vn 0 0 1
vn 0 0 1
vn 0 0 1
vn 0 0 1
vn 0 0 1
vn 0 0 1
vn 0 0 1
vn 0 0 1
vn 0 0 1
vn 0 0 1
vn 0 0 1
vn 0 0 1
vn 0 0 1
vn 0 0 1
vn 0 0 1
g RingWave_01_0
f 3/3/3 2/2/2 1/1/1
f 2/2/2 4/4/4 1/1/1
f 1/1/1 4/4/4 5/5/5
f 4/4/4 6/6/6 5/5/5
f 5/5/5 6/6/6 7/7/7
f 6/6/6 8/8/8 7/7/7
f 7/7/7 8/8/8 9/9/9
f 8/8/8 10/10/10 9/9/9
f 9/9/9 10/10/10 11/11/11
f 10/10/10 12/12/12 11/11/11
f 11/11/11 12/12/12 13/13/13
f 12/12/12 14/14/14 13/13/13
f 13/13/13 14/14/14 15/15/15
f 14/14/14 16/16/16 15/15/15
f 15/15/15 16/16/16 17/17/17
f 16/16/16 18/18/18 17/17/17
f 17/17/17 18/18/18 19/19/19
f 18/18/18 20/20/20 19/19/19
f 19/19/19 20/20/20 21/21/21
f 20/20/20 22/22/22 21/21/21
f 21/21/21 22/22/22 23/23/23
f 22/22/22 24/24/24 23/23/23
f 23/23/23 24/24/24 25/25/25
f 24/24/24 26/26/26 25/25/25
f 25/25/25 26/26/26 27/27/27
f 26/26/26 28/28/28 27/27/27
f 27/27/27 28/28/28 29/29/29
f 28/28/28 30/30/30 29/29/29
f 29/29/29 30/30/30 31/31/31
f 30/30/30 32/32/32 31/31/31
f 31/31/31 32/32/32 33/33/33
f 32/32/32 34/34/34 33/33/33
f 33/33/33 34/34/34 35/35/35
f 34/34/34 36/36/36 35/35/35
f 35/35/35 36/36/36 37/37/37
f 36/36/36 38/38/38 37/37/37
f 37/37/37 38/38/38 39/39/39
f 38/38/38 40/40/40 39/39/39
f 39/39/39 40/40/40 41/41/41
f 40/40/40 42/42/42 41/41/41
