g Sphere_Drop
v 1.192093E-07 -2.384186E-07 -3.538784
v -0.1713558 0.6001999 -2.599006
v -0.6401339 -1.788139E-07 -2.554626
v -0.7200209 0.5078193 -1.473274
v -0.9158218 -1.788139E-07 -1.239054
v -0.7200215 -0.5078194 -1.473274
v -0.171356 -0.6002003 -2.599006
v 1.192093E-07 -2.384186E-07 -3.538784
v -0.9510566 0.3090169 -0.5215895
v -0.9510568 -0.3090167 -0.5215898
v -0.2766367 0.8860971 -1.287594
v -0.5877857 0.8090172 -0.5215895
v 0.26389 0.8605387 -1.462806
v 0.493857 0.339516 -2.578983
v 1.192093E-07 -2.384186E-07 -3.538784
v 0.7461323 0.5302033 -1.300705
v -5.960464E-08 0.9999999 -0.5215898
v 0.5877851 0.8090173 -0.5215895
v 0.9510565 0.3090169 -0.5215895
v 0.6778041 0.4982371 0.2721289
v 0.2765942 0.8363789 0.1580141
v 0.1614161 0.4869787 0.7280191
v -0.2628738 0.7910138 0.2713228
v -0.7151808 0.5247785 0.1589756
v -0.416629 0.3053279 0.7293061
v 1.192093E-07 -1.192093E-07 1
v -0.8356354 2.384186E-07 0.2729527
v -0.416629 -0.3053277 0.7293061
v 1.192093E-07 -1.192093E-07 1
v -0.715181 -0.524778 0.1589754
v -0.5877858 -0.8090169 -0.5215895
v -0.2628736 -0.7910137 0.2713229
v -0.2766372 -0.8860977 -1.287594
v 5.960464E-08 -0.9999999 -0.5215895
v 0.1614161 -0.4869789 0.7280191
v 1.192093E-07 -1.192093E-07 1
v 0.2638898 -0.8605386 -1.462806
v 0.2765944 -0.8363788 0.1580141
v 0.5877851 -0.8090171 -0.5215895
v 0.4938569 -0.3395159 -2.578983
v 1.192093E-07 -2.384186E-07 -3.538784
v 0.6778042 -0.498237 0.2721289
v 0.7461321 -0.5302037 -1.300704
v 0.9510564 -0.309017 -0.5215895
v 0.5107156 -2.384186E-07 0.7297207
v 1.192093E-07 -1.192093E-07 1
v 0.892704 -5.960464E-08 -1.406229
v 0.8856218 -1.192093E-07 0.1578788
v 0.493857 0.339516 -2.578983
v 1.192093E-07 -2.384186E-07 -3.538784
v 0.7461323 0.5302033 -1.300705
v 0.9510565 0.3090169 -0.5215895
v 0.6778041 0.4982371 0.2721289
v 0.1614161 0.4869787 0.7280191
v 1.192093E-07 -1.192093E-07 1
vt 0.6 1
vt 0.7 0.8237917
vt 0.5 0.8237919
vt 0.6 0.6762082
vt 0.5 0.6475836
vt 0.4 0.6762081
vt 0.3 0.8237917
vt 0.4 1
vt 0.55 0.5
vt 0.45 0.5
vt 0.7 0.6475836
vt 0.65 0.5
vt 0.8 0.6762082
vt 0.9 0.8237919
vt 0.8 1
vt 0.9 0.6475836
vt 0.75 0.5
vt 0.85 0.5
vt 0.95 0.5
vt 0.9 0.3237918
vt 0.8 0.3524164
vt 0.8 0.1762081
vt 0.7 0.3237918
vt 0.6 0.3524164
vt 0.6 0.1762082
vt 0.6999999 0
vt 0.5 0.3237918
vt 0.4000001 0.1762081
vt 0.5 0
vt 0.4000001 0.3524164
vt 0.35 0.5
vt 0.3 0.3237918
vt 0.3 0.6475836
vt 0.25 0.5
vt 0.2 0.1762082
vt 0.3 0
vt 0.2 0.6762082
vt 0.2 0.3524164
vt 0.15 0.5
vt 0.1000001 0.8237917
vt 0.2 1
vt 0.09999999 0.3237918
vt 0.1000001 0.6475836
vt 0.05000001 0.5
vt 2.980232E-08 0.1762081
vt 0.1 0
vt 2.980232E-08 0.6762081
vt 2.980232E-08 0.3524164
vt -0.1 0.8237919
vt 1.490116E-08 1
vt -0.1 0.6475836
vt -0.05000001 0.5
vt -0.1 0.3237918
vt -0.2 0.1762081
vt -0.1 0
vn 0.006987531 0 -0.9999756
vn -0.2457977 0.8636912 -0.4400238
vn -0.9057395 0 -0.4238348
vn -0.8022839 0.5618789 -0.2015752
vn -0.9855052 0 -0.1696452
vn -0.8022842 -0.5618785 -0.2015751
vn -0.2457975 -0.8636913 -0.4400238
vn 0.006987531 0 -0.9999756
vn -0.951727 0.3052784 0.03195195
vn -0.9517271 -0.3052781 0.03195211
vn -0.3151054 0.9335642 -0.1707823
vn -0.5864345 0.8091905 0.03612671
vn 0.3099125 0.9287047 -0.2036219
vn 0.7519109 0.5041973 -0.424753
vn 0.006987531 0 -0.9999756
vn 0.8038706 0.5657886 -0.1835084
vn -0.002658841 0.9989492 0.04575323
vn 0.5904247 0.8062419 0.0370472
vn 0.9496199 0.3115889 0.03368104
vn 0.7287766 0.5347983 0.4276394
vn 0.2848277 0.8916517 0.3518953
vn 0.2047707 0.6257187 0.7526919
vn -0.2763053 0.8611789 0.4266453
vn -0.7555894 0.5533093 0.3506187
vn -0.5289305 0.3893965 0.7540576
vn 0.001787966 0 0.9999985
vn -0.9044949 0 0.4264844
vn -0.5289307 -0.3893964 0.7540575
vn 0.001787966 0 0.9999985
vn -0.7555895 -0.5533091 0.3506188
vn -0.5864348 -0.8091904 0.0361272
vn -0.2763055 -0.8611789 0.4266453
vn -0.3151051 -0.9335642 -0.1707819
vn -0.002658608 -0.9989492 0.04575351
vn 0.2047704 -0.6257189 0.7526918
vn 0.001787966 0 0.9999985
vn 0.3099128 -0.9287045 -0.2036218
vn 0.2848279 -0.8916517 0.3518952
vn 0.5904248 -0.8062419 0.03704714
vn 0.7519111 -0.5041971 -0.4247529
vn 0.006987531 0 -0.9999756
vn 0.7287768 -0.5347983 0.4276392
vn 0.8038704 -0.565789 -0.1835084
vn 0.9496198 -0.3115891 0.03368103
vn 0.6550055 0 0.7556241
vn 0.001787966 0 0.9999985
vn 0.9789401 0 -0.2041479
vn 0.936085 0 0.3517737
vn 0.7519109 0.5041973 -0.424753
vn 0.006987531 0 -0.9999756
vn 0.8038706 0.5657886 -0.1835084
vn 0.9496199 0.3115889 0.03368104
vn 0.7287766 0.5347983 0.4276394
vn 0.2047707 0.6257187 0.7526919
vn 0.001787966 0 0.9999985
g Sphere_Drop_0
f 3/3/3 2/2/2 1/1/1
f 4/4/4 2/2/2 3/3/3
f 5/5/5 4/4/4 3/3/3
f 6/6/6 5/5/5 3/3/3
f 6/6/6 3/3/3 7/7/7
f 7/7/7 3/3/3 8/8/8
f 4/4/4 5/5/5 9/9/9
f 5/5/5 6/6/6 10/10/10
f 10/10/10 9/9/9 5/5/5
f 4/4/4 11/11/11 2/2/2
f 4/4/4 9/9/9 12/12/12
f 11/11/11 4/4/4 12/12/12
f 11/11/11 13/13/13 2/2/2
f 13/13/13 14/14/14 2/2/2
f 2/2/2 14/14/14 15/15/15
f 13/13/13 16/16/16 14/14/14
f 13/13/13 11/11/11 17/17/17
f 12/12/12 17/17/17 11/11/11
f 16/16/16 13/13/13 18/18/18
f 13/13/13 17/17/17 18/18/18
f 18/18/18 19/19/19 16/16/16
f 20/20/20 19/19/19 18/18/18
f 21/21/21 20/20/20 18/18/18
f 18/18/18 17/17/17 21/21/21
f 20/20/20 21/21/21 22/22/22
f 23/23/23 21/21/21 17/17/17
f 23/23/23 17/17/17 12/12/12
f 21/21/21 23/23/23 22/22/22
f 12/12/12 9/9/9 24/24/24
f 24/24/24 23/23/23 12/12/12
f 23/23/23 25/25/25 22/22/22
f 23/23/23 24/24/24 25/25/25
f 22/22/22 25/25/25 26/26/26
f 27/27/27 24/24/24 9/9/9
f 24/24/24 27/27/27 25/25/25
f 27/27/27 9/9/9 10/10/10
f 27/27/27 28/28/28 25/25/25
f 25/25/25 28/28/28 29/29/29
f 30/30/30 27/27/27 10/10/10
f 27/27/27 30/30/30 28/28/28
f 10/10/10 31/31/31 30/30/30
f 6/6/6 31/31/31 10/10/10
f 30/30/30 32/32/32 28/28/28
f 32/32/32 30/30/30 31/31/31
f 6/6/6 33/33/33 31/31/31
f 33/33/33 6/6/6 7/7/7
f 34/34/34 31/31/31 33/33/33
f 32/32/32 31/31/31 34/34/34
f 32/32/32 35/35/35 28/28/28
f 28/28/28 35/35/35 36/36/36
f 37/37/37 33/33/33 7/7/7
f 33/33/33 37/37/37 34/34/34
f 38/38/38 32/32/32 34/34/34
f 32/32/32 38/38/38 35/35/35
f 34/34/34 39/39/39 38/38/38
f 37/37/37 39/39/39 34/34/34
f 37/37/37 7/7/7 40/40/40
f 40/40/40 7/7/7 41/41/41
f 38/38/38 42/42/42 35/35/35
f 42/42/42 38/38/38 39/39/39
f 37/37/37 43/43/43 39/39/39
f 43/43/43 37/37/37 40/40/40
f 44/44/44 39/39/39 43/43/43
f 42/42/42 39/39/39 44/44/44
f 42/42/42 45/45/45 35/35/35
f 35/35/35 45/45/45 46/46/46
f 47/47/47 43/43/43 40/40/40
f 43/43/43 47/47/47 44/44/44
f 48/48/48 42/42/42 44/44/44
f 42/42/42 48/48/48 45/45/45
f 47/47/47 40/40/40 49/49/49
f 49/49/49 40/40/40 50/50/50
f 51/51/51 47/47/47 49/49/49
f 47/47/47 51/51/51 52/52/52
f 47/47/47 52/52/52 44/44/44
f 44/44/44 52/52/52 48/48/48
f 53/53/53 48/48/48 52/52/52
f 48/48/48 53/53/53 45/45/45
f 53/53/53 54/54/54 45/45/45
f 45/45/45 54/54/54 55/55/55
