g Token
v -0.1767443 -0.228298 0.09350073
v -0.1767301 -0.1526097 0.09370913
v -0.145056 -0.2592123 0.09350073
v -0.104836 -0.1777088 0.09370913
v -0.1048776 -0.2592123 0.09350073
v -0.14498 0.291627 0.09350073
v -0.2482779 -0.07975126 0.09350073
v -0.2482779 0.1877005 0.09350073
v -0.06093648 -0.1777088 0.09370913
v -0.02324961 -0.1777088 0.09370913
v -0.06093648 -0.259259 0.09370913
v -0.02324961 -0.259259 0.09370913
v 0 0.291627 0.09350073
v 0.02407394 -0.1777088 0.09370913
v 0.06326398 -0.1777088 0.09370913
v 0.02407394 -0.259259 0.09370913
v 0.06326398 -0.259259 0.09370913
v 0.1449693 0.291627 0.09350073
v 0.1033169 -0.1777088 0.09370913
v 0.176714 -0.1526097 0.09370913
v 0.1033774 -0.2592123 0.09350073
v 0.1450997 -0.2592123 0.09350073
v 0.1767603 -0.228298 0.09350073
v 0.2482779 -0.07975126 0.09350073
v 0.2482779 0.1877005 0.09350073
v -0.145056 -0.2592123 -0.003417935
v -0.1767443 -0.228298 -0.003417935
v -0.1767443 -0.228298 0.09350073
v -0.145056 -0.2592123 0.09350073
v 0.1450997 -0.2592123 -0.003417935
v 0.1450997 -0.2592123 0.09350073
v 0.1767603 -0.228298 0.09350073
v 0.1767603 -0.228298 -0.003417935
v 0.176714 -0.1526097 -0.003419295
v 0.1767603 -0.228298 -0.003417935
v 0.1767603 -0.228298 0.09350073
v 0.176714 -0.1526097 0.09370913
v 0.2482779 -0.07975126 -0.003417935
v 0.2482779 -0.07975126 0.09350073
v 0.2482779 0.1877005 0.09350073
v 0.2482779 0.1877005 -0.003417935
v 0.2482779 0.1877005 -0.003417935
v 0.2482779 0.1877005 0.09350073
v 0.1449693 0.291627 0.09350073
v 0.1449693 0.291627 -0.003417935
v 0.1449693 0.291627 -0.003417935
v 0.1449693 0.291627 0.09350073
v 0 0.291627 0.09350073
v 0 0.291627 -0.003417935
v -0.14498 0.291627 0.09350073
v -0.14498 0.291627 -0.003417935
v -0.14498 0.291627 -0.003417935
v -0.14498 0.291627 0.09350073
v -0.2482779 0.1877005 0.09350073
v -0.2482779 0.1877005 -0.003417935
v -0.2482779 0.1877005 -0.003417935
v -0.2482779 0.1877005 0.09350073
v -0.2482779 -0.07975126 0.09350073
v -0.2482779 -0.07975126 -0.003417935
v -0.1767301 -0.1526097 -0.003419295
v -0.2482779 -0.07975126 -0.003417935
v -0.2482779 -0.07975126 0.09350073
v -0.1767301 -0.1526097 0.09370913
v 0.2482779 -0.07975126 -0.003417935
v 0.176714 -0.1526097 -0.003419295
v 0.176714 -0.1526097 0.09370913
v 0.2482779 -0.07975126 0.09350073
v -0.1767443 -0.228298 -0.003417935
v -0.1767301 -0.1526097 -0.003419295
v -0.1767301 -0.1526097 0.09370913
v -0.1767443 -0.228298 0.09350073
v -0.145056 -0.2592123 0.09350073
v -0.1048776 -0.2592123 0.09350073
v -0.1048776 -0.2592123 -0.003417935
v -0.145056 -0.2592123 -0.003417935
v 0.1450997 -0.2592123 -0.003417935
v 0.1033774 -0.2592123 -0.003417935
v 0.1033774 -0.2592123 0.09350073
v 0.1450997 -0.2592123 0.09350073
v 0.1033169 -0.1777088 0.09370913
v 0.1033774 -0.2592123 0.09350073
v 0.1033774 -0.2592123 -0.003417935
v 0.1033169 -0.1777088 -0.003419295
v 0.06326398 -0.1777088 0.09370913
v 0.1033169 -0.1777088 0.09370913
v 0.1033169 -0.1777088 -0.003419295
v 0.06326398 -0.1777088 -0.003419295
v -0.1048776 -0.2592123 0.09350073
v -0.104836 -0.1777088 0.09370913
v -0.104836 -0.1777088 -0.003419295
v -0.1048776 -0.2592123 -0.003417935
v -0.104836 -0.1777088 0.09370913
v -0.06093648 -0.1777088 0.09370913
v -0.06093648 -0.1777088 -0.003419295
v -0.104836 -0.1777088 -0.003419295
v -0.06093648 -0.259259 0.09370913
v -0.02324961 -0.259259 0.09370913
v -0.02324961 -0.259259 -0.003419295
v -0.06093648 -0.259259 -0.003419295
v 0.06326398 -0.259259 -0.003419295
v 0.02407394 -0.259259 -0.003419295
v 0.02407394 -0.259259 0.09370913
v 0.06326398 -0.259259 0.09370913
v -0.02324961 -0.1777088 -0.003419295
v -0.02324961 -0.1777088 0.09370913
v 0.02407394 -0.1777088 0.09370913
v 0.02407394 -0.1777088 -0.003419295
v -0.02324961 -0.1777088 -0.003419295
v -0.02324961 -0.259259 -0.003419295
v -0.02324961 -0.259259 0.09370913
v -0.02324961 -0.1777088 0.09370913
v -0.06093648 -0.1777088 0.09370913
v -0.06093648 -0.259259 0.09370913
v -0.06093648 -0.259259 -0.003419295
v -0.06093648 -0.1777088 -0.003419295
v 0.02407394 -0.1777088 0.09370913
v 0.02407394 -0.259259 0.09370913
v 0.02407394 -0.259259 -0.003419295
v 0.02407394 -0.1777088 -0.003419295
v 0.06326398 -0.1777088 -0.003419295
v 0.06326398 -0.259259 -0.003419295
v 0.06326398 -0.259259 0.09370913
v 0.06326398 -0.1777088 0.09370913
v -0.1767443 -0.228298 -0.003417935
v -0.145056 -0.2592123 -0.003417935
v -0.1767301 -0.1526097 -0.003419295
v -0.104836 -0.1777088 -0.003419295
v -0.1048776 -0.2592123 -0.003417935
v -0.14498 0.291627 -0.003417935
v -0.2482779 -0.07975126 -0.003417935
v -0.2482779 0.1877005 -0.003417935
v -0.06093648 -0.1777088 -0.003419295
v -0.02324961 -0.1777088 -0.003419295
v -0.06093648 -0.259259 -0.003419295
v -0.02324961 -0.259259 -0.003419295
v 0 0.291627 -0.003417935
v 0.02407394 -0.1777088 -0.003419295
v 0.06326398 -0.1777088 -0.003419295
v 0.02407394 -0.259259 -0.003419295
v 0.06326398 -0.259259 -0.003419295
v 0.1449693 0.291627 -0.003417935
v 0.1033169 -0.1777088 -0.003419295
v 0.176714 -0.1526097 -0.003419295
v 0.1033774 -0.2592123 -0.003417935
v 0.1450997 -0.2592123 -0.003417935
v 0.1767603 -0.228298 -0.003417935
v 0.2482779 -0.07975126 -0.003417935
v 0.2482779 0.1877005 -0.003417935
vt 0.3268005 0.2869568
vt 0.3320738 0.3553834
vt 0.3604434 0.2427517
vt 0.3956296 0.3224293
vt 0.3955888 0.2427517
vt 0.383754 0.8045746
vt 0.2654455 0.4319499
vt 0.2560084 0.6882986
vt 0.4404222 0.3224293
vt 0.474778 0.3224293
vt 0.4404222 0.2427057
vt 0.474778 0.2427057
vt 0.5064291 0.8045928
vt 0.5221193 0.3224293
vt 0.5602362 0.3224293
vt 0.5221193 0.2427057
vt 0.5602362 0.2427057
vt 0.6288832 0.8045746
vt 0.6075181 0.3224293
vt 0.6705793 0.3616194
vt 0.6075767 0.2427517
vt 0.6370084 0.2427517
vt 0.6706246 0.2869568
vt 0.7373056 0.4319499
vt 0.7467428 0.6882986
vt 0.3209392 0.1858002
vt 0.2821053 0.2242251
vt 0.3268005 0.2869568
vt 0.3604434 0.2427517
vt 0.6765235 0.1858002
vt 0.6370084 0.2427517
vt 0.6706246 0.2869568
vt 0.7153236 0.2242251
vt 0.7152662 0.3183001
vt 0.7153236 0.2242251
vt 0.6706246 0.2869568
vt 0.6705793 0.3616194
vt 0.8029678 0.4088586
vt 0.7373056 0.4319499
vt 0.7467428 0.6882986
vt 0.8029678 0.7412833
vt 0.8029678 0.7412833
vt 0.7467428 0.6882986
vt 0.6288832 0.8045746
vt 0.676364 0.8707221
vt 0.676364 0.8707221
vt 0.6288832 0.8045746
vt 0.5064291 0.8045928
vt 0.4987043 0.8707221
vt 0.383754 0.8045746
vt 0.3210323 0.8707221
vt 0.3210323 0.8707221
vt 0.383754 0.8045746
vt 0.2560084 0.6882986
vt 0.1944412 0.7412833
vt 0.1944412 0.7412833
vt 0.2560084 0.6882986
vt 0.2654455 0.4319499
vt 0.1944412 0.4088586
vt 0.2821225 0.3183001
vt 0.1944412 0.4088586
vt 0.2654455 0.4319499
vt 0.3320738 0.3553834
vt 0.8029678 0.4088586
vt 0.7152662 0.3183001
vt 0.6705793 0.3616194
vt 0.7373056 0.4319499
vt 0.2821053 0.2242251
vt 0.2821225 0.3183001
vt 0.3320738 0.3553834
vt 0.3268005 0.2869568
vt 0.3604434 0.2427517
vt 0.3955888 0.2427517
vt 0.413581 0.1858002
vt 0.3209392 0.1858002
vt 0.6765235 0.1858002
vt 0.5845866 0.1858002
vt 0.6075767 0.2427517
vt 0.6370084 0.2427517
vt 0.6075181 0.3224293
vt 0.6075767 0.2427517
vt 0.5845866 0.1858002
vt 0.5928916 0.2726732
vt 0.5602362 0.3224293
vt 0.6075181 0.3224293
vt 0.5928916 0.2726732
vt 0.5762342 0.2726732
vt 0.3955888 0.2427517
vt 0.3956296 0.3224293
vt 0.4134828 0.2726732
vt 0.413581 0.1858002
vt 0.3956296 0.3224293
vt 0.4404222 0.3224293
vt 0.4245655 0.2726732
vt 0.4134828 0.2726732
vt 0.4404222 0.2427057
vt 0.474778 0.2427057
vt 0.4901177 0.1857428
vt 0.4244564 0.1857428
vt 0.5762342 0.1857428
vt 0.5003393 0.1857428
vt 0.5221193 0.2427057
vt 0.5602362 0.2427057
vt 0.4901177 0.2726732
vt 0.474778 0.3224293
vt 0.5221193 0.3224293
vt 0.5003393 0.2726732
vt 0.4901177 0.2726732
vt 0.4901177 0.1857428
vt 0.474778 0.2427057
vt 0.474778 0.3224293
vt 0.4404222 0.3224293
vt 0.4404222 0.2427057
vt 0.4244564 0.1857428
vt 0.4245655 0.2726732
vt 0.5221193 0.3224293
vt 0.5221193 0.2427057
vt 0.5003393 0.1857428
vt 0.5003393 0.2726732
vt 0.5762342 0.2726732
vt 0.5762342 0.1857428
vt 0.5602362 0.2427057
vt 0.5602362 0.3224293
vt 0.3268005 0.2869568
vt 0.3604434 0.2427517
vt 0.3320738 0.3553834
vt 0.3956296 0.3224293
vt 0.3955888 0.2427517
vt 0.383754 0.8045746
vt 0.2654455 0.4319499
vt 0.2560084 0.6882986
vt 0.4404222 0.3224293
vt 0.474778 0.3224293
vt 0.4404222 0.2427057
vt 0.474778 0.2427057
vt 0.5064291 0.8045928
vt 0.5221193 0.3224293
vt 0.5602362 0.3224293
vt 0.5221193 0.2427057
vt 0.5602362 0.2427057
vt 0.6288832 0.8045746
vt 0.6075181 0.3224293
vt 0.6705793 0.3616194
vt 0.6075767 0.2427517
vt 0.6370084 0.2427517
vt 0.6706246 0.2869568
vt 0.7373056 0.4319499
vt 0.7467428 0.6882986
vn -0.00268555 -0.00275278 0.9999926
vn -0.0007388059 -0.0004080302 0.9999996
vn -0.0009818976 -0.002399176 0.9999967
vn -0.0001696137 -0.0006636998 0.9999998
vn -0.0005156323 -0.002302399 0.9999973
vn -0.0001822142 0.0003644068 1
vn -0.002009407 0.0005589118 0.9999979
vn 0 0 1
vn 0 0.0004440162 0.9999999
vn 0 0.0004440163 0.9999999
vn 0 0 1
vn 0 0 1
vn 0 0.0004440162 0.9999999
vn 0 0.0004440162 0.9999999
vn 0 0.0004440162 0.9999999
vn 0 0 1
vn 0 0 1
vn 0.0001822108 0.0003644359 1
vn 0.00016384 -0.0006587826 0.9999998
vn 0.0007378955 -0.000411883 0.9999996
vn 0.0005014183 -0.002299798 0.9999973
vn 0.0009711609 -0.002396923 0.9999967
vn 0.002686779 -0.00275164 0.9999926
vn 0.002008972 0.0005588484 0.9999979
vn 0 0 1
vn -0.6983119 -0.7157936 0
vn -0.6983119 -0.7157936 0
vn -0.6983119 -0.7157936 0
vn -0.6983119 -0.7157936 0
vn 0.6986237 -0.7154893 0
vn 0.6986237 -0.7154893 0
vn 0.6986238 -0.7154893 0
vn 0.6986238 -0.7154893 0
vn 0.9999999 0.000611692 0
vn 0.9999999 0.000611692 0
vn 0.9999999 0.0006116921 0
vn 0.9999999 0.0006116921 0
vn 1 0 0
vn 1 0 0
vn 1 0 0
vn 1 0 0
vn 0.7092116 0.7049956 0
vn 0.7092116 0.7049956 0
vn 0.7092116 0.7049956 0
vn 0.7092116 0.7049956 0
vn 0 1 0
vn 0 1 0
vn 0 1 0
vn 0 1 0
vn 0 1 0
vn 0 1 0
vn -0.7092482 0.7049589 0
vn -0.7092482 0.7049589 0
vn -0.7092482 0.7049589 0
vn -0.7092482 0.7049589 0
vn -1 0 0
vn -1 0 0
vn -1 0 0
vn -1 0 0
vn -0.713495 -0.7006602 0
vn -0.713495 -0.7006602 0
vn -0.713495 -0.7006602 0
vn -0.713495 -0.7006602 0
vn 0.7134165 -0.7007403 0
vn 0.7134165 -0.7007403 0
vn 0.7134164 -0.7007403 0
vn 0.7134164 -0.7007403 0
vn -1 0.0001874255 0
vn -1 0.0001874254 0
vn -1 0.0001874255 0
vn -1 0.0001874254 0
vn 0 -1 0
vn 0 -1 0
vn 0 -1 0
vn 0 -1 0
vn 0 -1 0
vn 0 -1 0
vn 0 -1 0
vn 0 -1 0
vn -0.9999998 -0.0007419181 0
vn -0.9999998 -0.0007419182 0
vn -0.9999998 -0.0007419182 0
vn -0.9999998 -0.0007419181 0
vn 0 -1 0
vn 0 -1 0
vn 0 -1 0
vn 0 -1 0
vn 0.9999999 -0.0005100916 0
vn 0.9999999 -0.0005100916 0
vn 0.9999999 -0.0005100915 0
vn 0.9999999 -0.0005100916 0
vn 0 -1 0
vn 0 -1 0
vn 0 -1 0
vn 0 -1 0
vn 0 -1 0
vn 0 -1 0
vn 0 -1 0
vn 0 -1 0
vn 0 -1 0
vn 0 -1 0
vn 0 -1 0
vn 0 -1 0
vn 0 -1 0
vn 0 -1 0
vn 0 -1 0
vn 0 -1 0
vn 1 0 0
vn 1 0 0
vn 1 0 0
vn 1 0 0
vn -1 0 0
vn -1 0 0
vn -1 0 0
vn -1 0 0
vn -1 0 0
vn -1 0 0
vn -1 0 0
vn -1 0 0
vn 1 0 0
vn 1 0 0
vn 1 0 0
vn 1 0 0
vn -1.752893E-05 -1.796776E-05 -1
vn 0 -1.565967E-05 -1
vn 0 0 -1
vn 0 0 -1
vn 0 -1.502798E-05 -1
vn 0 0 -1
vn -1.31156E-05 0 -1
vn 0 0 -1
vn 0 0 -1
vn 0 0 -1
vn 0 0 -1
vn 0 0 -1
vn 0 0 -1
vn 0 0 -1
vn 0 0 -1
vn 0 0 -1
vn 0 0 -1
vn 0 0 -1
vn 0 0 -1
vn 0 0 -1
vn 0 -1.501102E-05 -1
vn 0 -1.564496E-05 -1
vn 1.753695E-05 -1.796031E-05 -1
vn 1.311276E-05 0 -1
vn 0 0 -1
g Token_0
f 3/3/3 2/2/2 1/1/1
f 2/2/2 3/3/3 4/4/4
f 3/3/3 5/5/5 4/4/4
f 2/2/2 4/4/4 6/6/6
f 6/6/6 7/7/7 2/2/2
f 6/6/6 8/8/8 7/7/7
f 4/4/4 9/9/9 6/6/6
f 6/6/6 9/9/9 10/10/10
f 9/9/9 11/11/11 10/10/10
f 11/11/11 12/12/12 10/10/10
f 13/13/13 6/6/6 10/10/10
f 10/10/10 14/14/14 13/13/13
f 14/14/14 15/15/15 13/13/13
f 14/14/14 16/16/16 15/15/15
f 16/16/16 17/17/17 15/15/15
f 15/15/15 18/18/18 13/13/13
f 15/15/15 19/19/19 18/18/18
f 20/20/20 18/18/18 19/19/19
f 20/20/20 19/19/19 21/21/21
f 22/22/22 20/20/20 21/21/21
f 23/23/23 20/20/20 22/22/22
f 24/24/24 18/18/18 20/20/20
f 24/24/24 25/25/25 18/18/18
f 28/28/28 27/27/27 26/26/26
f 29/29/29 28/28/28 26/26/26
f 32/32/32 31/31/31 30/30/30
f 33/33/33 32/32/32 30/30/30
f 36/36/36 35/35/35 34/34/34
f 37/37/37 36/36/36 34/34/34
f 40/40/40 39/39/39 38/38/38
f 41/41/41 40/40/40 38/38/38
f 44/44/44 43/43/43 42/42/42
f 45/45/45 44/44/44 42/42/42
f 48/48/48 47/47/47 46/46/46
f 49/49/49 48/48/48 46/46/46
f 50/50/50 48/48/48 49/49/49
f 51/51/51 50/50/50 49/49/49
f 54/54/54 53/53/53 52/52/52
f 55/55/55 54/54/54 52/52/52
f 58/58/58 57/57/57 56/56/56
f 59/59/59 58/58/58 56/56/56
f 62/62/62 61/61/61 60/60/60
f 63/63/63 62/62/62 60/60/60
f 66/66/66 65/65/65 64/64/64
f 67/67/67 66/66/66 64/64/64
f 70/70/70 69/69/69 68/68/68
f 71/71/71 70/70/70 68/68/68
f 74/74/74 73/73/73 72/72/72
f 75/75/75 74/74/74 72/72/72
f 78/78/78 77/77/77 76/76/76
f 79/79/79 78/78/78 76/76/76
f 82/82/82 81/81/81 80/80/80
f 83/83/83 82/82/82 80/80/80
f 86/86/86 85/85/85 84/84/84
f 87/87/87 86/86/86 84/84/84
f 90/90/90 89/89/89 88/88/88
f 91/91/91 90/90/90 88/88/88
f 94/94/94 93/93/93 92/92/92
f 95/95/95 94/94/94 92/92/92
f 98/98/98 97/97/97 96/96/96
f 99/99/99 98/98/98 96/96/96
f 102/102/102 101/101/101 100/100/100
f 103/103/103 102/102/102 100/100/100
f 106/106/106 105/105/105 104/104/104
f 107/107/107 106/106/106 104/104/104
f 110/110/110 109/109/109 108/108/108
f 111/111/111 110/110/110 108/108/108
f 114/114/114 113/113/113 112/112/112
f 115/115/115 114/114/114 112/112/112
f 118/118/118 117/117/117 116/116/116
f 119/119/119 118/118/118 116/116/116
f 122/122/122 121/121/121 120/120/120
f 123/123/123 122/122/122 120/120/120
f 126/126/126 125/125/125 124/124/124
f 125/125/125 126/126/126 127/127/127
f 128/128/128 125/125/125 127/127/127
f 127/127/127 126/126/126 129/129/129
f 130/130/130 129/129/129 126/126/126
f 131/131/131 129/129/129 130/130/130
f 132/132/132 127/127/127 129/129/129
f 132/132/132 129/129/129 133/133/133
f 134/134/134 132/132/132 133/133/133
f 135/135/135 134/134/134 133/133/133
f 129/129/129 136/136/136 133/133/133
f 137/137/137 133/133/133 136/136/136
f 138/138/138 137/137/137 136/136/136
f 139/139/139 137/137/137 138/138/138
f 140/140/140 139/139/139 138/138/138
f 141/141/141 138/138/138 136/136/136
f 142/142/142 138/138/138 141/141/141
f 141/141/141 143/143/143 142/142/142
f 142/142/142 143/143/143 144/144/144
f 143/143/143 145/145/145 144/144/144
f 143/143/143 146/146/146 145/145/145
f 141/141/141 147/147/147 143/143/143
f 148/148/148 147/147/147 141/141/141
