g Torus_01
v -1.876483E-08 0.4292892 0.07071081
v 0.07803606 0.392314 -8.742293E-09
v -1.748455E-08 0.3999998 -8.742293E-09
v 0.08375013 0.4210405 0.07071081
v -2.185569E-08 0.5 0.1000002
v 0.1530733 0.3695517 -8.742293E-09
v 0.09754512 0.4903927 0.1000002
v -2.494656E-08 0.5707108 0.07071081
v 0.1642818 0.3966115 0.07071081
v 0.222228 0.3325877 -8.742293E-09
v 0.1113401 0.5597448 0.07071081
v -2.622684E-08 0.6000002 0
v 0.1170542 0.5884714 0
v 0.1913417 0.4619398 0.1000002
v 0.2385003 0.3569409 0.07071081
v 0.2828425 0.2828426 -8.742293E-09
v 0.2184015 0.5272681 0.07071081
v 0.2296101 0.5543279 0
v 0.2777851 0.4157348 0.1000002
v 0.3035533 0.3035533 0.07071081
v 0.3325877 0.222228 -8.742293E-09
v 0.3170699 0.4745287 0.07071081
v 0.3333422 0.498882 0
v 0.3535534 0.3535534 0.1000002
v 0.3569409 0.2385003 0.07071081
v 0.3695516 0.1530733 -8.742293E-09
v 0.4035534 0.4035535 0.07071081
v 0.4242642 0.4242643 0
v 0.4157348 0.2777852 0.1000002
v 0.3966115 0.1642819 0.07071081
v 0.3923139 0.07803611 -8.742293E-09
v 0.4745287 0.3170699 0.07071081
v 0.4988819 0.3333423 0
v 0.4619398 0.1913417 0.1000002
v 0.4210405 0.08375018 0.07071081
v 0.3999998 1.192092E-08 -8.742293E-09
v 0.527268 0.2184016 0.07071081
v 0.5543279 0.2296101 0
v 0.4903926 0.09754518 0.1000002
v 0.4292892 1.279381E-08 0.07071081
v 0.392314 -0.07803608 -8.742293E-09
v 0.5597447 0.1113402 0.07071081
v 0.5884714 0.1170543 0
v 0.5 1.490116E-08 0.1000002
v 0.4210405 -0.08375015 0.07071081
v 0.3695517 -0.1530733 -8.742293E-09
v 0.5707108 1.700851E-08 0.07071081
v 0.6000002 1.78814E-08 0
v 0.4903927 -0.09754515 0.1000002
v 0.3966115 -0.1642819 0.07071081
v 0.3325877 -0.222228 -8.742293E-09
v 0.5597448 -0.1113401 0.07071081
v 0.5884714 -0.1170542 0
v 0.4619398 -0.1913417 0.1000002
v 0.3569409 -0.2385003 0.07071081
v 0.2828426 -0.2828426 -8.742293E-09
v 0.5272681 -0.2184016 0.07071081
v 0.5543279 -0.2296101 0
v 0.4157348 -0.2777851 0.1000002
v 0.3035533 -0.3035533 0.07071081
v 0.222228 -0.3325877 -8.742293E-09
v 0.4745287 -0.3170699 0.07071081
v 0.4988819 -0.3333423 0
v 0.3535534 -0.3535534 0.1000002
v 0.2385003 -0.3569409 0.07071081
v 0.1530733 -0.3695516 -8.742293E-09
v 0.4035535 -0.4035535 0.07071081
v 0.4242642 -0.4242642 0
v 0.2777851 -0.4157348 0.1000002
v 0.1642819 -0.3966115 0.07071081
v 0.07803611 -0.3923139 -8.742293E-09
v 0.3170699 -0.4745287 0.07071081
v 0.3333422 -0.498882 0
v 0.1913417 -0.4619398 0.1000002
v 0.08375018 -0.4210405 0.07071081
v 3.019915E-08 -0.3999998 -8.742293E-09
v 0.2184016 -0.527268 0.07071081
v 0.2296101 -0.5543279 0
v 0.09754518 -0.4903926 0.1000002
v 3.241043E-08 -0.4292892 0.07071081
v -0.07803605 -0.392314 -8.742293E-09
v 0.1113402 -0.5597447 0.07071081
v 0.1170543 -0.5884714 0
v 3.774895E-08 -0.5 0.1000002
v -0.08375011 -0.4210405 0.07071081
v -0.1530733 -0.3695517 -8.742293E-09
v 4.308746E-08 -0.5707108 0.07071081
v 4.529875E-08 -0.6000002 0
v -0.0975451 -0.4903927 0.1000002
v -0.1642818 -0.3966115 0.07071081
v -0.222228 -0.3325877 -8.742293E-09
v -0.1113401 -0.5597448 0.07071081
v -0.1170542 -0.5884714 0
v -0.1913416 -0.4619398 0.1000002
v -0.2385003 -0.3569409 0.07071081
v -0.2828426 -0.2828426 -8.742293E-09
v -0.2184015 -0.5272681 0.07071081
v -0.22961 -0.5543279 0
v -0.2777851 -0.4157348 0.1000002
v -0.3035533 -0.3035533 0.07071081
v -0.3325877 -0.222228 -8.742293E-09
v -0.3170699 -0.4745287 0.07071081
v -0.3333422 -0.498882 0
v -0.3535534 -0.3535534 0.1000002
v -0.3569409 -0.2385003 0.07071081
v -0.3695517 -0.1530733 -8.742293E-09
v -0.4035535 -0.4035535 0.07071081
v -0.4242642 -0.4242642 0
v -0.4157348 -0.2777851 0.1000002
v -0.3966115 -0.1642818 0.07071081
v -0.392314 -0.078036 -8.742293E-09
v -0.4745287 -0.3170699 0.07071081
v -0.498882 -0.3333422 0
v -0.4619398 -0.1913416 0.1000002
v -0.4210405 -0.08375006 0.07071081
v -0.3999998 1.303365E-07 -8.742293E-09
v -0.5272681 -0.2184015 0.07071081
v -0.554328 -0.22961 0
v -0.4903927 -0.09754504 0.1000002
v -0.4292892 1.398802E-07 0.07071081
v -0.3923139 0.07803626 -8.742293E-09
v -0.5597448 -0.11134 0.07071081
v -0.5884714 -0.1170541 0
v -0.5 1.629207E-07 0.1000002
v -0.4210405 0.08375034 0.07071081
v -0.3695516 0.1530735 -8.742293E-09
v -0.5707108 1.859612E-07 0.07071081
v -0.6000002 1.955049E-07 0
v -0.4903926 0.09754536 0.1000002
v -0.3966114 0.1642821 0.07071081
v -0.3325876 0.2222282 -8.742293E-09
v -0.5597447 0.1113404 0.07071081
v -0.5884713 0.1170545 0
v -0.4619397 0.1913419 0.1000002
v -0.3569408 0.2385005 0.07071081
v -0.2828424 0.2828428 -8.742293E-09
v -0.5272679 0.2184018 0.07071081
v -0.5543278 0.2296104 0
v -0.4157346 0.2777854 0.1000002
v -0.3035531 0.3035535 0.07071081
v -0.2222278 0.3325879 -8.742293E-09
v -0.4745285 0.3170702 0.07071081
v -0.4988818 0.3333426 0
v -0.3535532 0.3535536 0.1000002
v -0.2385 0.3569411 0.07071081
v -0.153073 0.3695518 -8.742293E-09
v -0.4035532 0.4035537 0.07071081
v -0.424264 0.4242645 0
v -0.2777848 0.415735 0.1000002
v -0.1642815 0.3966116 0.07071081
v -0.07803575 0.392314 -8.742293E-09
v -0.3170696 0.4745289 0.07071081
v -0.3333419 0.4988822 0
v -0.1913413 0.4619399 0.1000002
v -0.08374979 0.4210406 0.07071081
v -1.748455E-08 0.3999998 -8.742293E-09
v -1.876483E-08 0.4292892 0.07071081
v -0.2184011 0.5272682 0.07071081
v -0.2296097 0.5543281 0
v -0.09754473 0.4903927 0.1000002
v -2.185569E-08 0.5 0.1000002
v -0.1113397 0.5597448 0.07071081
v -0.1170537 0.5884715 0
v -2.494656E-08 0.5707108 0.07071081
v -2.622684E-08 0.6000002 0
vt 0.0001285567 0.2541243
vt 0.06263381 0.009999949
vt 0.0001286136 0.009999949
vt 0.06263376 0.2541243
vt 0.0001284979 0.4958825
vt 0.125139 0.009999949
vt 0.0626337 0.4958825
vt 0.0001285567 0.744879
vt 0.1251389 0.2541243
vt 0.1876443 0.009999949
vt 0.06263376 0.744879
vt 0.0001286136 0.9963126
vt 0.06263381 0.9963126
vt 0.1251389 0.4958825
vt 0.1876441 0.2541243
vt 0.2501494 0.009999949
vt 0.1251389 0.744879
vt 0.125139 0.9963126
vt 0.1876441 0.4958825
vt 0.2501493 0.2541243
vt 0.3126546 0.009999949
vt 0.1876441 0.744879
vt 0.1876443 0.9963126
vt 0.2501493 0.4958825
vt 0.3126546 0.2541243
vt 0.3751598 0.009999949
vt 0.2501493 0.744879
vt 0.2501494 0.9963126
vt 0.3126544 0.4958825
vt 0.3751597 0.2541243
vt 0.437665 0.009999949
vt 0.3126546 0.744879
vt 0.3126546 0.9963126
vt 0.3751596 0.4958825
vt 0.4376649 0.2541243
vt 0.5001701 0.009999949
vt 0.3751597 0.744879
vt 0.3751598 0.9963126
vt 0.4376648 0.4958825
vt 0.50017 0.2541243
vt 0.5626754 0.009999949
vt 0.4376649 0.744879
vt 0.437665 0.9963126
vt 0.50017 0.4958825
vt 0.5626752 0.2541243
vt 0.6251805 0.009999949
vt 0.50017 0.744879
vt 0.5001701 0.9963126
vt 0.5626752 0.4958825
vt 0.6251804 0.2541243
vt 0.6876857 0.009999949
vt 0.5626752 0.744879
vt 0.5626754 0.9963126
vt 0.6251804 0.4958825
vt 0.6876857 0.2541243
vt 0.7501909 0.009999949
vt 0.6251804 0.744879
vt 0.6251805 0.9963126
vt 0.6876855 0.4958825
vt 0.7501908 0.2541243
vt 0.8126962 0.009999949
vt 0.6876857 0.744879
vt 0.6876857 0.9963126
vt 0.7501908 0.4958825
vt 0.812696 0.2541243
vt 0.8752013 0.009999949
vt 0.7501908 0.744879
vt 0.7501909 0.9963126
vt 0.8126959 0.4958825
vt 0.8752013 0.2541243
vt 0.9377065 0.009999949
vt 0.812696 0.744879
vt 0.8126962 0.9963126
vt 0.8752012 0.4958825
vt 0.9377064 0.2541243
vt 1.000212 0.009999949
vt 0.8752013 0.744879
vt 0.8752013 0.9963126
vt 0.9377064 0.4958825
vt 1.000212 0.2541243
vt 1.062717 0.009999949
vt 0.9377064 0.744879
vt 0.9377065 0.9963126
vt 1.000211 0.4958825
vt 1.062717 0.2541243
vt 1.125222 0.009999949
vt 1.000212 0.744879
vt 1.000212 0.9963126
vt 1.062717 0.4958825
vt 1.125222 0.2541243
vt 1.187727 0.009999949
vt 1.062717 0.744879
vt 1.062717 0.9963126
vt 1.125222 0.4958825
vt 1.187727 0.2541243
vt 1.250232 0.009999949
vt 1.125222 0.744879
vt 1.125222 0.9963126
vt 1.187727 0.4958825
vt 1.250232 0.2541243
vt 1.312738 0.009999949
vt 1.187727 0.744879
vt 1.187727 0.9963126
vt 1.250232 0.4958825
vt 1.312738 0.2541243
vt 1.375243 0.009999949
vt 1.250232 0.744879
vt 1.250232 0.9963126
vt 1.312737 0.4958825
vt 1.375243 0.2541243
vt 1.437748 0.009999949
vt 1.312738 0.744879
vt 1.312738 0.9963126
vt 1.375243 0.4958825
vt 1.437748 0.2541243
vt 1.500253 0.009999949
vt 1.375243 0.744879
vt 1.375243 0.9963126
vt 1.437748 0.4958825
vt 1.500253 0.2541243
vt 1.562758 0.009999949
vt 1.437748 0.744879
vt 1.437748 0.9963126
vt 1.500253 0.4958825
vt 1.562758 0.2541243
vt 1.625263 0.01000001
vt 1.500253 0.744879
vt 1.500253 0.9963126
vt 1.562758 0.4958825
vt 1.625263 0.2541243
vt 1.687769 0.01000001
vt 1.562758 0.744879
vt 1.562758 0.9963126
vt 1.625263 0.4958825
vt 1.687769 0.2541243
vt 1.750274 0.01000001
vt 1.625263 0.744879
vt 1.625263 0.9963126
vt 1.687769 0.4958825
vt 1.750274 0.2541243
vt 1.812779 0.01000001
vt 1.687769 0.744879
vt 1.687769 0.9963126
vt 1.750274 0.4958825
vt 1.812779 0.2541243
vt 1.875284 0.01000001
vt 1.750274 0.744879
vt 1.750274 0.9963126
vt 1.812779 0.4958825
vt 1.875284 0.2541243
vt 1.937789 0.01000001
vt 1.812779 0.744879
vt 1.812779 0.9963126
vt 1.875284 0.4958825
vt 1.937789 0.2541243
vt 2.000295 0.01000001
vt 2.000295 0.2541243
vt 1.875284 0.744879
vt 1.875284 0.9963126
vt 1.937789 0.4958825
vt 2.000295 0.4958825
vt 1.937789 0.744879
vt 1.937789 0.9963126
vt 2.000295 0.744879
vt 2.000295 0.9963126
vn 0 -0.6947504 0.7192509
vn -0.1802399 -0.9061275 0.3826832
vn 0 -0.9238796 0.3826833
vn -0.1355391 -0.681401 0.719251
vn 0 0.02390522 0.9997142
vn -0.3535534 -0.8535534 0.3826832
vn 0.004663672 0.02344594 0.9997142
vn 0 0.7186677 0.6953538
vn -0.2658695 -0.6418657 0.7192509
vn -0.5132801 -0.7681779 0.3826832
vn 0.1402051 0.7048587 0.6953536
vn 0 0.9238793 0.382684
vn 0.1802399 0.9061273 0.3826839
vn 0.009148142 0.02208555 0.9997142
vn -0.3859826 -0.5776639 0.719251
vn -0.6532813 -0.6532817 0.3826832
vn 0.2750223 0.6639624 0.6953536
vn 0.3535534 0.8535533 0.3826837
vn 0.01328109 0.01987653 0.9997142
vn -0.4912626 -0.4912629 0.719251
vn -0.7681777 -0.51328 0.3826834
vn 0.3992703 0.5975504 0.6953536
vn 0.5132798 0.7681777 0.3826839
vn 0.01690358 0.01690358 0.9997142
vn -0.5776637 -0.3859826 0.7192511
vn -0.8535534 -0.3535533 0.3826834
vn 0.5081747 0.5081748 0.6953537
vn 0.6532812 0.6532815 0.382684
vn 0.01987657 0.01328109 0.9997142
vn -0.6418657 -0.2658694 0.719251
vn -0.9061275 -0.1802401 0.3826833
vn 0.5975503 0.3992704 0.6953536
vn 0.7681776 0.5132799 0.382684
vn 0.02208558 0.009148153 0.9997142
vn -0.6814009 -0.1355392 0.719251
vn -0.9238796 0 0.3826833
vn 0.6639624 0.2750221 0.6953537
vn 0.8535532 0.3535532 0.3826841
vn 0.02344598 0.004663699 0.9997142
vn -0.6947504 0 0.719251
vn -0.9061275 0.1802399 0.3826832
vn 0.7048587 0.1402051 0.6953537
vn 0.9061272 0.1802399 0.382684
vn 0.02390533 0 0.9997142
vn -0.681401 0.135539 0.719251
vn -0.8535534 0.3535534 0.3826833
vn 0.7186677 0 0.6953537
vn 0.9238793 0 0.382684
vn 0.02344596 -0.004663666 0.9997142
vn -0.6418657 0.2658695 0.719251
vn -0.7681777 0.5132802 0.3826834
vn 0.7048587 -0.140205 0.6953536
vn 0.9061273 -0.1802398 0.3826839
vn 0.02208559 -0.009148168 0.9997142
vn -0.5776638 0.3859827 0.719251
vn -0.6532815 0.6532816 0.3826833
vn 0.6639624 -0.2750223 0.6953536
vn 0.8535532 -0.3535535 0.3826837
vn 0.01987649 -0.01328107 0.9997142
vn -0.4912627 0.4912628 0.719251
vn -0.51328 0.7681779 0.3826833
vn 0.5975503 -0.3992705 0.6953536
vn 0.7681776 -0.51328 0.3826838
vn 0.01690359 -0.01690359 0.9997142
vn -0.3859826 0.5776638 0.719251
vn -0.3535534 0.8535535 0.3826833
vn 0.5081748 -0.5081748 0.6953537
vn 0.6532814 -0.6532813 0.3826839
vn 0.0132811 -0.01987657 0.9997142
vn -0.2658694 0.6418656 0.719251
vn -0.1802401 0.9061275 0.3826833
vn 0.3992703 -0.5975503 0.6953536
vn 0.5132799 -0.7681776 0.382684
vn 0.009148149 -0.02208563 0.9997142
vn -0.1355392 0.681401 0.7192509
vn 0 0.9238796 0.3826833
vn 0.2750221 -0.6639624 0.6953537
vn 0.3535532 -0.8535532 0.3826841
vn 0.004663697 -0.02344596 0.9997142
vn 0 0.6947504 0.719251
vn 0.1802399 0.9061275 0.3826833
vn 0.1402052 -0.7048587 0.6953537
vn 0.18024 -0.9061272 0.382684
vn 0 -0.0239053 0.9997142
vn 0.1355391 0.681401 0.719251
vn 0.3535534 0.8535535 0.3826833
vn 0 -0.7186677 0.6953537
vn 0 -0.9238793 0.382684
vn -0.004663675 -0.02344595 0.9997142
vn 0.2658694 0.6418657 0.719251
vn 0.51328 0.7681777 0.3826832
vn -0.1402051 -0.7048587 0.6953536
vn -0.1802399 -0.9061273 0.3826839
vn -0.009148133 -0.02208552 0.9997142
vn 0.3859826 0.5776638 0.719251
vn 0.6532816 0.6532815 0.3826833
vn -0.2750222 -0.6639625 0.6953536
vn -0.3535533 -0.8535533 0.3826837
vn -0.01328112 -0.01987659 0.9997142
vn 0.4912628 0.4912627 0.719251
vn 0.7681777 0.51328 0.3826832
vn -0.3992704 -0.5975505 0.6953536
vn -0.5132799 -0.7681776 0.3826838
vn -0.01690361 -0.01690361 0.9997142
vn 0.5776638 0.3859827 0.719251
vn 0.8535535 0.3535532 0.3826832
vn -0.5081748 -0.5081748 0.6953536
vn -0.6532813 -0.6532813 0.3826839
vn -0.01987653 -0.01328107 0.9997142
vn 0.6418657 0.2658693 0.719251
vn 0.9061275 0.1802397 0.3826832
vn -0.5975503 -0.3992704 0.6953536
vn -0.7681776 -0.5132799 0.3826839
vn -0.02208563 -0.009148168 0.9997142
vn 0.681401 0.1355389 0.7192509
vn 0.9238796 0 0.3826833
vn -0.6639624 -0.2750221 0.6953537
vn -0.8535533 -0.3535532 0.3826841
vn -0.0234459 -0.004663678 0.9997142
vn 0.6947504 0 0.719251
vn 0.9061275 -0.1802403 0.3826833
vn -0.7048588 -0.1402049 0.6953537
vn -0.9061273 -0.1802396 0.3826841
vn -0.02390531 0 0.9997142
vn 0.6814009 -0.1355394 0.719251
vn 0.8535533 -0.3535537 0.3826833
vn -0.7186677 0 0.6953536
vn -0.9238793 0 0.382684
vn -0.02344602 0.004663734 0.9997142
vn 0.6418655 -0.2658697 0.719251
vn 0.7681776 -0.5132805 0.3826832
vn -0.7048586 0.1402055 0.6953537
vn -0.9061272 0.1802404 0.3826841
vn -0.02208566 0.009148175 0.9997142
vn 0.5776637 -0.385983 0.719251
vn 0.6532812 -0.653282 0.3826831
vn -0.6639622 0.2750224 0.6953537
vn -0.853553 0.3535536 0.3826841
vn -0.01987659 0.0132811 0.9997142
vn 0.4912625 -0.4912631 0.7192509
vn 0.5132794 -0.7681783 0.3826832
vn -0.5975502 0.3992706 0.6953537
vn -0.7681773 0.5132802 0.3826841
vn -0.01690363 0.01690365 0.9997142
vn 0.3859822 -0.5776641 0.719251
vn 0.3535527 -0.8535538 0.3826832
vn -0.5081744 0.5081751 0.6953536
vn -0.6532809 0.6532817 0.382684
vn -0.01328106 0.01987655 0.9997142
vn 0.2658689 -0.6418658 0.719251
vn 0.1802394 -0.9061276 0.3826832
vn -0.3992699 0.5975507 0.6953536
vn -0.5132792 0.768178 0.3826838
vn -0.009148171 0.02208568 0.9997142
vn 0.1355387 -0.6814011 0.719251
vn 0 -0.9238796 0.3826833
vn 0 -0.6947504 0.7192509
vn -0.2750217 0.6639626 0.6953536
vn -0.3535526 0.8535535 0.3826839
vn -0.004663673 0.02344586 0.9997142
vn 0 0.02390522 0.9997142
vn -0.1402047 0.7048588 0.6953537
vn -0.1802393 0.9061273 0.3826839
vn 0 0.7186677 0.6953538
vn 0 0.9238793 0.382684
g Torus_01_0
f 3/3/3 2/2/2 1/1/1
f 2/2/2 4/4/4 1/1/1
f 1/1/1 4/4/4 5/5/5
f 2/2/2 6/6/6 4/4/4
f 4/4/4 7/7/7 5/5/5
f 5/5/5 7/7/7 8/8/8
f 6/6/6 9/9/9 4/4/4
f 4/4/4 9/9/9 7/7/7
f 6/6/6 10/10/10 9/9/9
f 7/7/7 11/11/11 8/8/8
f 8/8/8 11/11/11 12/12/12
f 11/11/11 13/13/13 12/12/12
f 9/9/9 14/14/14 7/7/7
f 7/7/7 14/14/14 11/11/11
f 10/10/10 15/15/15 9/9/9
f 9/9/9 15/15/15 14/14/14
f 10/10/10 16/16/16 15/15/15
f 11/11/11 17/17/17 13/13/13
f 14/14/14 17/17/17 11/11/11
f 17/17/17 18/18/18 13/13/13
f 15/15/15 19/19/19 14/14/14
f 14/14/14 19/19/19 17/17/17
f 16/16/16 20/20/20 15/15/15
f 15/15/15 20/20/20 19/19/19
f 16/16/16 21/21/21 20/20/20
f 17/17/17 22/22/22 18/18/18
f 19/19/19 22/22/22 17/17/17
f 22/22/22 23/23/23 18/18/18
f 20/20/20 24/24/24 19/19/19
f 19/19/19 24/24/24 22/22/22
f 21/21/21 25/25/25 20/20/20
f 20/20/20 25/25/25 24/24/24
f 21/21/21 26/26/26 25/25/25
f 22/22/22 27/27/27 23/23/23
f 24/24/24 27/27/27 22/22/22
f 27/27/27 28/28/28 23/23/23
f 25/25/25 29/29/29 24/24/24
f 24/24/24 29/29/29 27/27/27
f 26/26/26 30/30/30 25/25/25
f 25/25/25 30/30/30 29/29/29
f 26/26/26 31/31/31 30/30/30
f 27/27/27 32/32/32 28/28/28
f 29/29/29 32/32/32 27/27/27
f 32/32/32 33/33/33 28/28/28
f 30/30/30 34/34/34 29/29/29
f 29/29/29 34/34/34 32/32/32
f 31/31/31 35/35/35 30/30/30
f 30/30/30 35/35/35 34/34/34
f 31/31/31 36/36/36 35/35/35
f 32/32/32 37/37/37 33/33/33
f 34/34/34 37/37/37 32/32/32
f 37/37/37 38/38/38 33/33/33
f 35/35/35 39/39/39 34/34/34
f 34/34/34 39/39/39 37/37/37
f 36/36/36 40/40/40 35/35/35
f 35/35/35 40/40/40 39/39/39
f 36/36/36 41/41/41 40/40/40
f 37/37/37 42/42/42 38/38/38
f 39/39/39 42/42/42 37/37/37
f 42/42/42 43/43/43 38/38/38
f 40/40/40 44/44/44 39/39/39
f 39/39/39 44/44/44 42/42/42
f 41/41/41 45/45/45 40/40/40
f 40/40/40 45/45/45 44/44/44
f 41/41/41 46/46/46 45/45/45
f 42/42/42 47/47/47 43/43/43
f 44/44/44 47/47/47 42/42/42
f 47/47/47 48/48/48 43/43/43
f 45/45/45 49/49/49 44/44/44
f 44/44/44 49/49/49 47/47/47
f 46/46/46 50/50/50 45/45/45
f 45/45/45 50/50/50 49/49/49
f 46/46/46 51/51/51 50/50/50
f 47/47/47 52/52/52 48/48/48
f 49/49/49 52/52/52 47/47/47
f 52/52/52 53/53/53 48/48/48
f 50/50/50 54/54/54 49/49/49
f 49/49/49 54/54/54 52/52/52
f 51/51/51 55/55/55 50/50/50
f 50/50/50 55/55/55 54/54/54
f 51/51/51 56/56/56 55/55/55
f 52/52/52 57/57/57 53/53/53
f 54/54/54 57/57/57 52/52/52
f 57/57/57 58/58/58 53/53/53
f 55/55/55 59/59/59 54/54/54
f 54/54/54 59/59/59 57/57/57
f 56/56/56 60/60/60 55/55/55
f 55/55/55 60/60/60 59/59/59
f 56/56/56 61/61/61 60/60/60
f 57/57/57 62/62/62 58/58/58
f 59/59/59 62/62/62 57/57/57
f 62/62/62 63/63/63 58/58/58
f 60/60/60 64/64/64 59/59/59
f 59/59/59 64/64/64 62/62/62
f 61/61/61 65/65/65 60/60/60
f 60/60/60 65/65/65 64/64/64
f 61/61/61 66/66/66 65/65/65
f 62/62/62 67/67/67 63/63/63
f 64/64/64 67/67/67 62/62/62
f 67/67/67 68/68/68 63/63/63
f 65/65/65 69/69/69 64/64/64
f 64/64/64 69/69/69 67/67/67
f 66/66/66 70/70/70 65/65/65
f 65/65/65 70/70/70 69/69/69
f 66/66/66 71/71/71 70/70/70
f 67/67/67 72/72/72 68/68/68
f 69/69/69 72/72/72 67/67/67
f 72/72/72 73/73/73 68/68/68
f 70/70/70 74/74/74 69/69/69
f 69/69/69 74/74/74 72/72/72
f 71/71/71 75/75/75 70/70/70
f 70/70/70 75/75/75 74/74/74
f 71/71/71 76/76/76 75/75/75
f 72/72/72 77/77/77 73/73/73
f 74/74/74 77/77/77 72/72/72
f 77/77/77 78/78/78 73/73/73
f 75/75/75 79/79/79 74/74/74
f 74/74/74 79/79/79 77/77/77
f 76/76/76 80/80/80 75/75/75
f 75/75/75 80/80/80 79/79/79
f 76/76/76 81/81/81 80/80/80
f 77/77/77 82/82/82 78/78/78
f 79/79/79 82/82/82 77/77/77
f 82/82/82 83/83/83 78/78/78
f 80/80/80 84/84/84 79/79/79
f 79/79/79 84/84/84 82/82/82
f 81/81/81 85/85/85 80/80/80
f 80/80/80 85/85/85 84/84/84
f 81/81/81 86/86/86 85/85/85
f 82/82/82 87/87/87 83/83/83
f 84/84/84 87/87/87 82/82/82
f 87/87/87 88/88/88 83/83/83
f 85/85/85 89/89/89 84/84/84
f 84/84/84 89/89/89 87/87/87
f 86/86/86 90/90/90 85/85/85
f 85/85/85 90/90/90 89/89/89
f 86/86/86 91/91/91 90/90/90
f 87/87/87 92/92/92 88/88/88
f 89/89/89 92/92/92 87/87/87
f 92/92/92 93/93/93 88/88/88
f 90/90/90 94/94/94 89/89/89
f 89/89/89 94/94/94 92/92/92
f 91/91/91 95/95/95 90/90/90
f 90/90/90 95/95/95 94/94/94
f 91/91/91 96/96/96 95/95/95
f 92/92/92 97/97/97 93/93/93
f 94/94/94 97/97/97 92/92/92
f 97/97/97 98/98/98 93/93/93
f 95/95/95 99/99/99 94/94/94
f 94/94/94 99/99/99 97/97/97
f 96/96/96 100/100/100 95/95/95
f 95/95/95 100/100/100 99/99/99
f 96/96/96 101/101/101 100/100/100
f 97/97/97 102/102/102 98/98/98
f 99/99/99 102/102/102 97/97/97
f 102/102/102 103/103/103 98/98/98
f 100/100/100 104/104/104 99/99/99
f 99/99/99 104/104/104 102/102/102
f 101/101/101 105/105/105 100/100/100
f 100/100/100 105/105/105 104/104/104
f 101/101/101 106/106/106 105/105/105
f 102/102/102 107/107/107 103/103/103
f 104/104/104 107/107/107 102/102/102
f 107/107/107 108/108/108 103/103/103
f 105/105/105 109/109/109 104/104/104
f 104/104/104 109/109/109 107/107/107
f 106/106/106 110/110/110 105/105/105
f 105/105/105 110/110/110 109/109/109
f 106/106/106 111/111/111 110/110/110
f 107/107/107 112/112/112 108/108/108
f 109/109/109 112/112/112 107/107/107
f 112/112/112 113/113/113 108/108/108
f 110/110/110 114/114/114 109/109/109
f 109/109/109 114/114/114 112/112/112
f 111/111/111 115/115/115 110/110/110
f 110/110/110 115/115/115 114/114/114
f 111/111/111 116/116/116 115/115/115
f 112/112/112 117/117/117 113/113/113
f 114/114/114 117/117/117 112/112/112
f 117/117/117 118/118/118 113/113/113
f 115/115/115 119/119/119 114/114/114
f 114/114/114 119/119/119 117/117/117
f 116/116/116 120/120/120 115/115/115
f 115/115/115 120/120/120 119/119/119
f 116/116/116 121/121/121 120/120/120
f 117/117/117 122/122/122 118/118/118
f 119/119/119 122/122/122 117/117/117
f 122/122/122 123/123/123 118/118/118
f 120/120/120 124/124/124 119/119/119
f 119/119/119 124/124/124 122/122/122
f 121/121/121 125/125/125 120/120/120
f 120/120/120 125/125/125 124/124/124
f 121/121/121 126/126/126 125/125/125
f 122/122/122 127/127/127 123/123/123
f 124/124/124 127/127/127 122/122/122
f 127/127/127 128/128/128 123/123/123
f 125/125/125 129/129/129 124/124/124
f 124/124/124 129/129/129 127/127/127
f 126/126/126 130/130/130 125/125/125
f 125/125/125 130/130/130 129/129/129
f 126/126/126 131/131/131 130/130/130
f 127/127/127 132/132/132 128/128/128
f 129/129/129 132/132/132 127/127/127
f 132/132/132 133/133/133 128/128/128
f 130/130/130 134/134/134 129/129/129
f 129/129/129 134/134/134 132/132/132
f 131/131/131 135/135/135 130/130/130
f 130/130/130 135/135/135 134/134/134
f 131/131/131 136/136/136 135/135/135
f 132/132/132 137/137/137 133/133/133
f 134/134/134 137/137/137 132/132/132
f 137/137/137 138/138/138 133/133/133
f 135/135/135 139/139/139 134/134/134
f 134/134/134 139/139/139 137/137/137
f 136/136/136 140/140/140 135/135/135
f 135/135/135 140/140/140 139/139/139
f 136/136/136 141/141/141 140/140/140
f 137/137/137 142/142/142 138/138/138
f 139/139/139 142/142/142 137/137/137
f 142/142/142 143/143/143 138/138/138
f 140/140/140 144/144/144 139/139/139
f 139/139/139 144/144/144 142/142/142
f 141/141/141 145/145/145 140/140/140
f 140/140/140 145/145/145 144/144/144
f 141/141/141 146/146/146 145/145/145
f 142/142/142 147/147/147 143/143/143
f 144/144/144 147/147/147 142/142/142
f 147/147/147 148/148/148 143/143/143
f 145/145/145 149/149/149 144/144/144
f 144/144/144 149/149/149 147/147/147
f 146/146/146 150/150/150 145/145/145
f 145/145/145 150/150/150 149/149/149
f 146/146/146 151/151/151 150/150/150
f 147/147/147 152/152/152 148/148/148
f 149/149/149 152/152/152 147/147/147
f 152/152/152 153/153/153 148/148/148
f 150/150/150 154/154/154 149/149/149
f 149/149/149 154/154/154 152/152/152
f 151/151/151 155/155/155 150/150/150
f 150/150/150 155/155/155 154/154/154
f 151/151/151 156/156/156 155/155/155
f 156/156/156 157/157/157 155/155/155
f 152/152/152 158/158/158 153/153/153
f 154/154/154 158/158/158 152/152/152
f 158/158/158 159/159/159 153/153/153
f 155/155/155 160/160/160 154/154/154
f 155/155/155 157/157/157 160/160/160
f 154/154/154 160/160/160 158/158/158
f 157/157/157 161/161/161 160/160/160
f 158/158/158 162/162/162 159/159/159
f 160/160/160 162/162/162 158/158/158
f 160/160/160 161/161/161 162/162/162
f 162/162/162 163/163/163 159/159/159
f 161/161/161 164/164/164 162/162/162
f 162/162/162 164/164/164 163/163/163
f 164/164/164 165/165/165 163/163/163
