g WallSmash_Crack_01
v -0.6929588 0.4421169 3.327772E-07
v -0.7876301 0.5619127 5.321613E-07
v -0.7279024 0.4110004 5.813348E-07
v -0.6929169 0.04898946 4.608744E-07
v -0.8445692 0.06675642 4.550851E-07
v -0.6956224 0.00227659 4.760954E-07
v 0.1279964 0.2309686 6.399966E-07
v 0.2932653 0.3165695 6.121043E-07
v 0.09128666 0.2599794 6.305437E-07
v 0.4594545 -0.0225342 4.841797E-07
v 0.555337 0.06971853 4.5412E-07
v 0.4499769 0.02328699 1.184505E-06
v -0.2734766 0.3796846 5.915388E-07
v -0.4354324 0.559622 5.329077E-07
v -0.3178377 0.3682367 3.568504E-07
v -0.4937878 -0.1583651 5.28439E-07
v -0.6454391 -0.1405972 5.226495E-07
v -0.4964943 -0.2050761 7.82078E-07
v -0.4602165 -0.4799288 1.563807E-07
v -0.5404091 -0.6098631 6.755558E-07
v -0.4190235 -0.5021227 6.404495E-07
v -0.1635618 -0.4949587 1.61278E-07
v -0.1414738 -0.6460388 2.105062E-07
v -0.1177425 -0.4854811 6.35027E-07
v 0.04032326 -0.5908344 6.693555E-07
v 0.1203375 -0.7023714 7.056988E-07
v 0.07395554 -0.5700768 1.377848E-06
v 0.2647705 -0.3210047 1.29669E-06
v 0.3804283 -0.334029 1.088405E-07
v 0.2668219 -0.2855967 8.08315E-07
v -0.7279024 0.4110004 5.813348E-07
v -0.5428085 0.2884285 3.828552E-07
v -0.6929588 0.4421169 3.327772E-07
v -0.5858498 0.2339584 1.11586E-06
v -0.3450546 0.1586696 4.25136E-07
v -0.4010067 0.08785933 6.866275E-07
v -0.2618713 0.02614706 4.683174E-07
v -0.3723412 -0.009905646 4.800648E-07
v -0.6956224 0.00227659 4.760954E-07
v -0.4780693 0.04648798 4.616894E-07
v -0.6929169 0.04898946 4.608744E-07
v -0.4699898 -0.02246554 7.225759E-07
v -0.3723412 -0.009905646 4.800648E-07
v -0.4023914 -0.0682028 4.990604E-07
v -0.2092943 -0.04240115 7.290718E-07
v -0.2618713 0.02614706 4.683174E-07
v -0.3624659 -0.1109503 3.61522E-08
v -0.198637 0.09270494 4.466301E-07
v -0.3013248 0.1749498 6.582499E-07
v -0.240469 0.1580545 4.253365E-07
v -0.3178377 0.3682367 3.568504E-07
v -0.2734766 0.3796846 5.915388E-07
v -0.1709108 0.04688566 4.615599E-07
v -0.1083126 0.07924288 1.166272E-06
v -0.2853003 -0.1434315 4.673592E-08
v -0.407258 -0.1421889 4.633101E-08
v -0.1016846 -0.08287603 5.038416E-07
v -0.1465015 -0.1418389 5.230542E-07
v -0.02418804 0.02862375 -9.326802E-09
v -0.02644444 0.1656782 1.614945E-06
v 0.03467464 0.1327497 -4.325535E-08
v 0.09128666 0.2599794 6.305437E-07
v 0.1279964 0.2309686 6.399966E-07
v -0.0139389 -0.04975493 7.314679E-07
v -0.02637672 -0.1234482 5.170617E-07
v 0.05614853 -0.039481 7.281203E-07
v -0.05256748 -0.1727808 7.715549E-07
v 0.04893208 -0.1640185 5.302812E-07
v 0.1555929 -0.04612048 7.302837E-07
v 0.007333755 -0.1879223 5.3807E-07
v 0.04297829 -0.2344273 7.916419E-07
v 0.1507626 -0.1295098 5.190368E-07
v 0.2974005 -0.0134762 7.196468E-07
v 0.3230524 -0.07798845 7.406676E-07
v 0.4499769 0.02328699 1.184505E-06
v 0.4594545 -0.0225342 4.841797E-07
v -0.037467 -0.2843779 9.266208E-08
v -0.1684246 -0.2119692 6.906834E-08
v -0.3463526 -0.2675999 5.640323E-07
v -0.223896 -0.3426569 1.780582E-06
v -0.1210918 -0.3328884 5.85306E-07
v -0.223896 -0.3426569 1.780582E-06
v -0.1116257 -0.3883169 6.033669E-07
v -0.1960135 -0.4057692 1.322164E-07
v -0.1177425 -0.4854811 6.35027E-07
v -0.1635618 -0.4949587 1.61278E-07
v -0.4116936 -0.218726 1.263363E-06
v -0.2853003 -0.1434315 4.673592E-08
v -0.407258 -0.1421889 4.633101E-08
v -0.4964943 -0.2050761 7.82078E-07
v -0.4937878 -0.1583651 5.28439E-07
v -0.309926 -0.3900478 8.423495E-07
v -0.3463526 -0.2675999 5.640323E-07
v -0.3571424 -0.3455256 -3.642506E-07
v -0.4190235 -0.5021227 6.404495E-07
v -0.4602165 -0.4799288 1.563807E-07
v 0.2668219 -0.2855967 8.08315E-07
v 0.1213055 -0.2981232 5.73978E-07
v 0.2647705 -0.3210047 1.29669E-06
v 0.1242495 -0.247299 1.272673E-06
v 0.01951504 -0.2888659 9.412445E-08
v 0.04297829 -0.2344273 7.916419E-07
v -0.05256748 -0.1727808 7.715549E-07
v 0.07395554 -0.5700768 1.377848E-06
v -0.03231239 -0.4318808 1.407246E-07
v 0.04032326 -0.5908344 6.693555E-07
v 0.0192194 -0.4000738 6.071978E-07
v -0.08088207 -0.3613995 8.330147E-07
v -0.009409904 -0.3172844 1.033844E-07
v -0.1210918 -0.3328884 5.85306E-07
v -0.037467 -0.2843779 9.266208E-08
vt 0 1
vt 1 1
vt 0.5 0
vt 0 1
vt 1 1
vt 0.5 0
vt 0 1
vt 1 1
vt 0.5 0
vt 0 1
vt 1 1
vt 0.5 0
vt 0 1
vt 1 1
vt 0.5 0
vt 0 1
vt 1 1
vt 0.5 0
vt 0 1
vt 1 1
vt 0.5 0
vt 0 1
vt 1 1
vt 0.5 0
vt 0 1
vt 1 1
vt 0.5 0
vt 0 1
vt 1 1
vt 0.5 0
vt 0.5 0
vt 0 1
vt 0 1
vt 0.5 0
vt 0 1
vt 0.5 0
vt 0 1
vt 0.5 0
vt 0.5 0
vt 0 1
vt 0 1
vt 0.5 0
vt 0 1
vt 0.5 0
vt 0.5 0
vt 0.5 0
vt 0.5 0
vt 0 1
vt 0.5 0
vt 0 1
vt 0.5 0
vt 0 1
vt 0.25 0.5
vt 0.5 0
vt 0.5 0
vt 0.5 0
vt 0 1
vt 0 1
vt 0 1
vt 0.5 0
vt 0 1
vt 0.5 0
vt 0 1
vt 0.25 0.5
vt 0 1
vt 0.5 0
vt 0 1
vt 0 1
vt 0.5 0
vt 0 1
vt 0 1
vt 0 1
vt 0.5 0
vt 0 1
vt 0.5 0
vt 0 1
vt 0 1
vt 0 1
vt 0.5 0
vt 0.5 0
vt 0.5 0
vt 0 1
vt 0.5 0
vt 0 1
vt 0.5 0
vt 0 1
vt 0.5 0
vt 0 1
vt 0 1
vt 0.5 0
vt 0 1
vt 0.5 0
vt 0 1
vt 0 1
vt 0.5 0
vt 0 1
vt 0.5 0
vt 0 1
vt 0 1
vt 0.5 0
vt 0 1
vt 0.5 0
vt 0.5 0
vt 0.5 0
vt 0 1
vt 0 1
vt 0.5 0
vt 0 1
vt 0.5 0
vt 0 1
vt 0.5 0
vn 0 0 -1
vn 0 0 -1
vn 0 0 -1
vn 0 0 -1
vn 0 0 -1
vn 0 0 -1
vn 0 0 -1
vn 0 0 -1
vn 0 0 -1
vn -1.252601E-05 1.269301E-05 -1
vn -1.252601E-05 1.269301E-05 -1
vn -1.252601E-05 1.269301E-05 -1
vn 0 0 -1
vn 0 0 -1
vn 0 0 -1
vn 0 0 -1
vn 0 0 -1
vn 0 0 -1
vn 0 0 -1
vn 0 0 -1
vn 0 0 -1
vn 1.010143E-05 0 -1
vn 1.010143E-05 0 -1
vn 1.010143E-05 0 -1
vn 1.474043E-05 1.024863E-05 -1
vn 1.474044E-05 1.024863E-05 -1
vn 1.474043E-05 1.024863E-05 -1
vn -1.174695E-05 -1.311221E-05 -1
vn -1.174695E-05 -1.311221E-05 -1
vn -1.174695E-05 -1.311221E-05 -1
vn 0 0 -1
vn 0 0 -1
vn 0 0 -1
vn 0 0 -1
vn 0 0 -1
vn 0 0 -1
vn 0 0 -1
vn 0 0 -1
vn 0 0 -1
vn 0 0 -1
vn 0 0 -1
vn 0 0 -1
vn 0 0 -1
vn 0 0 -1
vn 0 0 -1
vn 0 0 -1
vn 0 0 -1
vn 0 0 -1
vn 0 0 -1
vn 0 0 -1
vn 0 0 -1
vn 0 0 -1
vn 0 0 -1
vn -1.281488E-05 1.164031E-05 -1
vn 0 0 -1
vn 0 0 -1
vn 0 0 -1
vn 0 0 -1
vn -1.281488E-05 1.164031E-05 -1
vn -1.053297E-05 0 -1
vn -1.053297E-05 0 -1
vn -1.053297E-05 0 -1
vn -1.053297E-05 0 -1
vn 0 0 -1
vn 0 0 -1
vn 0 0 -1
vn 0 0 -1
vn 0 0 -1
vn 0 0 -1
vn 0 0 -1
vn 0 -1.046829E-05 -1
vn 0 0 -1
vn 0 0 -1
vn 0 0 -1
vn 0 0 -1
vn 0 0 -1
vn 0 0 -1
vn 0 0 -1
vn 0 0 -1
vn 1.604292E-05 0 -1
vn 0 1.198519E-05 -1
vn 0 1.198519E-05 -1
vn 0 0 -1
vn 0 0 -1
vn 0 0 -1
vn 0 0 -1
vn 0 -1.194253E-05 -1
vn 0 0 -1
vn 0 -1.194253E-05 -1
vn 0 -1.194253E-05 -1
vn 0 -1.194253E-05 -1
vn 1.10011E-05 -1.076303E-05 -1
vn 1.604292E-05 0 -1
vn 1.10011E-05 -1.076303E-05 -1
vn 1.10011E-05 -1.076303E-05 -1
vn 1.10011E-05 -1.076303E-05 -1
vn 0 0 -1
vn 0 0 -1
vn 0 0 -1
vn 0 0 -1
vn 0 1.159562E-05 -1
vn 0 1.159562E-05 -1
vn 0 0 -1
vn 1.31029E-05 0 -1
vn 1.310291E-05 0 -1
vn 1.310291E-05 0 -1
vn 1.31029E-05 0 -1
vn 0 0 -1
vn 0 0 -1
vn 0 0 -1
vn 0 0 -1
g WallSmash_Crack_01_0
f 3/3/3 2/2/2 1/1/1
f 6/6/6 5/5/5 4/4/4
f 9/9/9 8/8/8 7/7/7
f 12/12/12 11/11/11 10/10/10
f 15/15/15 14/14/14 13/13/13
f 18/18/18 17/17/17 16/16/16
f 21/21/21 20/20/20 19/19/19
f 24/24/24 23/23/23 22/22/22
f 27/27/27 26/26/26 25/25/25
f 30/30/30 29/29/29 28/28/28
f 33/33/33 32/32/32 31/31/31
f 32/32/32 34/34/34 31/31/31
f 32/32/32 35/35/35 34/34/34
f 35/35/35 36/36/36 34/34/34
f 35/35/35 37/37/37 36/36/36
f 37/37/37 38/38/38 36/36/36
f 41/41/41 40/40/40 39/39/39
f 40/40/40 42/42/42 39/39/39
f 40/40/40 43/43/43 42/42/42
f 43/43/43 44/44/44 42/42/42
f 44/44/44 43/43/43 45/45/45
f 43/43/43 46/46/46 45/45/45
f 44/44/44 45/45/45 47/47/47
f 46/46/46 48/48/48 45/45/45
f 48/48/48 46/46/46 49/49/49
f 50/50/50 48/48/48 49/49/49
f 50/50/50 49/49/49 51/51/51
f 52/52/52 50/50/50 51/51/51
f 48/48/48 53/53/53 45/45/45
f 45/45/45 53/53/53 54/54/54
f 45/45/45 55/55/55 47/47/47
f 56/56/56 47/47/47 55/55/55
f 57/57/57 45/45/45 54/54/54
f 58/58/58 55/55/55 45/45/45
f 57/57/57 58/58/58 45/45/45
f 59/59/59 57/57/57 54/54/54
f 59/59/59 54/54/54 60/60/60
f 61/61/61 59/59/59 60/60/60
f 61/61/61 60/60/60 62/62/62
f 63/63/63 61/61/61 62/62/62
f 59/59/59 64/64/64 57/57/57
f 64/64/64 65/65/65 57/57/57
f 65/65/65 64/64/64 66/66/66
f 65/65/65 67/67/67 57/57/57
f 67/67/67 58/58/58 57/57/57
f 68/68/68 65/65/65 66/66/66
f 65/65/65 68/68/68 67/67/67
f 68/68/68 66/66/66 69/69/69
f 68/68/68 70/70/70 67/67/67
f 67/67/67 70/70/70 71/71/71
f 72/72/72 68/68/68 69/69/69
f 72/72/72 69/69/69 73/73/73
f 74/74/74 72/72/72 73/73/73
f 74/74/74 73/73/73 75/75/75
f 76/76/76 74/74/74 75/75/75
f 67/67/67 77/77/77 58/58/58
f 77/77/77 78/78/78 58/58/58
f 58/58/58 78/78/78 55/55/55
f 78/78/78 79/79/79 55/55/55
f 80/80/80 79/79/79 78/78/78
f 77/77/77 81/81/81 78/78/78
f 81/81/81 82/82/82 78/78/78
f 82/82/82 81/81/81 83/83/83
f 84/84/84 82/82/82 83/83/83
f 84/84/84 83/83/83 85/85/85
f 86/86/86 84/84/84 85/85/85
f 88/88/88 79/79/79 87/87/87
f 89/89/89 88/88/88 87/87/87
f 89/89/89 87/87/87 90/90/90
f 91/91/91 89/89/89 90/90/90
f 93/93/93 80/80/80 92/92/92
f 94/94/94 93/93/93 92/92/92
f 94/94/94 92/92/92 95/95/95
f 96/96/96 94/94/94 95/95/95
f 99/99/99 98/98/98 97/97/97
f 98/98/98 100/100/100 97/97/97
f 98/98/98 101/101/101 100/100/100
f 101/101/101 102/102/102 100/100/100
f 101/101/101 77/77/77 102/102/102
f 77/77/77 103/103/103 102/102/102
f 106/106/106 105/105/105 104/104/104
f 105/105/105 107/107/107 104/104/104
f 105/105/105 108/108/108 107/107/107
f 108/108/108 109/109/109 107/107/107
f 108/108/108 110/110/110 109/109/109
f 110/110/110 111/111/111 109/109/109
