g WallSmash_Crack_02
v -0.5656309 1.137471 3.446205E-07
v -0.7325773 1.237031 3.121798E-07
v -0.5946398 1.100758 5.950019E-07
v -1.426853 1.04783 -3.414263E-07
v -1.57633 1.155149 1.004419E-07
v -1.451249 1.012274 6.238336E-07
v -1.448164 0.1172201 6.770606E-07
v -1.670288 0.2101804 6.467703E-07
v -1.469406 0.07512873 1.406031E-06
v 0.4254751 0.770241 4.642794E-07
v 0.4796448 1.127283 3.479402E-07
v 0.3944511 0.8015358 6.925008E-07
v 0.7048426 0.14106 4.30874E-07
v 1.131142 0.3905937 3.495656E-07
v 0.7001314 0.1953165 6.516136E-07
v -0.7355022 -0.1382473 5.218839E-07
v -0.9897585 -0.3193768 5.809033E-07
v -0.711936 -0.1891888 7.769013E-07
v -0.783637 -0.8018616 7.381169E-07
v -0.9516382 -0.9161671 7.753623E-07
v -0.7558012 -0.8533838 9.933235E-07
v -0.6088257 -1.02102 5.711091E-07
v -0.8118858 -1.180084 6.229388E-07
v -0.5654764 -1.048665 8.185356E-07
v -0.163517 -0.6472405 1.402991E-06
v -0.2767124 -1.059341 5.835958E-07
v -0.1200323 -0.6686524 6.947118E-07
v 0.06558609 -1.210273 8.711941E-07
v 0.2240601 -1.598972 2.825927E-07
v 0.1127071 -1.203962 8.691379E-07
v 0.4546909 -0.9613464 7.900836E-07
v 0.5963516 -1.177261 6.22019E-07
v 0.5001087 -0.9400061 7.8313E-07
v 0.6350536 -0.6037052 9.119679E-07
v 1.058214 -0.6983173 2.275407E-07
v 0.6762934 -0.5608862 6.595971E-07
v 0.6696472 -0.2784565 5.675698E-07
v 0.8541174 -0.2844532 9.268663E-08
v 0.6768103 -0.2286661 1.266602E-06
v 0.7001314 0.1953165 6.516136E-07
v 0.7906685 0.3843557 5.900167E-07
v 0.6369133 0.1972219 4.125741E-07
v 0.6369133 0.1972219 4.125741E-07
v 0.4549294 0.04980199 6.990282E-07
v 0.7001314 0.1953165 6.516136E-07
v -0.163517 -0.6472405 1.402991E-06
v -0.1200323 -0.6686524 6.947118E-07
v -0.1700726 -0.574416 6.640057E-07
v -0.5654764 -1.048665 8.185356E-07
v -0.4788351 -0.8068445 9.781591E-07
v -0.6088257 -1.02102 5.711091E-07
v -0.4290047 -0.8342016 1.46391E-06
v -0.1700726 -0.574416 6.640057E-07
v -0.163517 -0.6472405 1.402991E-06
v 0.1127071 -1.203962 8.691379E-07
v 0.08119011 -0.7327164 7.155865E-07
v 0.06558609 -1.210273 8.711941E-07
v 0.1359148 -0.7352102 9.548177E-07
v -0.009597778 -0.5386942 6.52366E-07
v 0.06506252 -0.4917048 1.352311E-06
v -0.07979202 -0.383333 6.017429E-07
v 0.02164745 -0.3233793 5.822075E-07
v 0.5001087 -0.9400061 7.8313E-07
v 0.1359148 -0.7352102 9.548177E-07
v 0.4546909 -0.9613464 7.900836E-07
v 0.1533813 -0.6957195 9.4195E-07
v 0.06506252 -0.4917048 1.352311E-06
v 0.6762934 -0.5608862 6.595971E-07
v 0.3649397 -0.3670481 5.964366E-07
v 0.6350536 -0.6037052 9.119679E-07
v 0.4032373 -0.3420323 1.303541E-06
v 0.02164745 -0.3233793 5.822075E-07
v 0.0594883 -0.2227715 5.494254E-07
v 0.07371616 0.006066491 7.13279E-07
v 0.1342726 -0.1728171 5.631095E-08
v 0.1705856 -0.004660437 4.783557E-07
v 0.6768103 -0.2286661 1.266602E-06
v 0.4032373 -0.3420323 1.303541E-06
v 0.6696472 -0.2784565 5.675698E-07
v 0.3891382 -0.2892655 8.095104E-07
v 0.0594883 -0.2227715 5.494254E-07
v -0.07979202 -0.383333 6.017429E-07
v 0.02164745 -0.3233793 5.822075E-07
v 0.07371616 0.006066491 7.13279E-07
v -0.4055004 -0.282811 8.074073E-07
v -0.3846626 -0.3401507 1.108352E-07
v -0.7558012 -0.8533838 9.933235E-07
v -0.5652237 -0.5802849 6.65918E-07
v -0.783637 -0.8018616 7.381169E-07
v -0.5343037 -0.6474722 9.262289E-07
v -0.3846626 -0.3401507 1.108352E-07
v -0.301755 -0.4130934 8.498587E-07
v -0.711936 -0.1891888 7.769013E-07
v -0.4865971 -0.2405861 5.552301E-07
v -0.493906 -0.1108626 5.129608E-07
v -0.7355022 -0.1382473 5.218839E-07
v -0.4716806 -0.05681498 7.337684E-07
v -0.1064997 0.1253568 4.359907E-07
v -0.2061272 0.1392595 4.314606E-07
v 0.02787781 0.0509836 6.986432E-07
v -0.4289007 0.07224768 -2.354128E-08
v -0.328557 0.1849519 4.165722E-07
v -0.4865971 -0.2405861 5.552301E-07
v 0.07371616 0.006066491 7.13279E-07
v -0.4055004 -0.282811 8.074073E-07
v -0.6259232 0.2291147 4.021821E-07
v -0.328557 0.1849519 4.165722E-07
v -0.5168524 0.3180191 -5.804609E-07
v -0.7684917 0.4207155 5.781692E-07
v -0.6717052 0.4945614 5.541072E-07
v -0.8972187 0.6745207 1.863183E-08
v -0.8301964 0.7460911 -4.688762E-09
v -1.11696 0.769684 4.644608E-07
v -1.084136 0.8312666 4.443947E-07
v -1.266328 0.9465134 1.360517E-06
v -1.23783 0.9951145 8.678434E-07
v -1.451249 1.012274 6.238336E-07
v -1.426853 1.04783 -3.414263E-07
v -1.469406 0.07512873 1.406031E-06
v -1.15264 0.04926412 6.992034E-07
v -1.448164 0.1172201 6.770606E-07
v -1.172488 -0.02891905 -2.289956E-07
v -0.825922 0.09979551 6.827382E-07
v -0.8308849 0.005518129 4.750391E-07
v -0.4289007 0.07224768 -2.354128E-08
v -0.4716806 -0.05681498 7.337684E-07
v -0.5946398 1.100758 5.950019E-07
v -0.4476538 0.8965752 4.231144E-07
v -0.5656309 1.137471 3.446205E-07
v -0.5058079 0.8623392 6.726885E-07
v -0.4415207 0.6339361 5.086931E-07
v -0.5303726 0.6168291 7.526859E-07
v -0.2473555 0.3951198 3.480908E-07
v -0.3362055 0.3729135 5.937451E-07
v -0.2061272 0.1392595 4.314606E-07
v 0.3944511 0.8015358 6.925008E-07
v 0.394146 0.3983232 3.47047E-07
v 0.4254751 0.770241 4.642794E-07
v 0.3355665 0.3655359 3.577304E-07
v 0.3890924 0.3390409 -1.104736E-07
v 0.3307104 0.2986853 3.795132E-07
v 0.1121683 0.1782009 4.187719E-07
v 0.02390575 0.2600958 6.305058E-07
v 0.02787781 0.0509836 6.986432E-07
v -0.1064997 0.1253568 4.359907E-07
v 0.7001314 0.1953165 6.516136E-07
v 0.4567738 -0.05429537 7.329474E-07
v 0.7048426 0.14106 4.30874E-07
v 0.4549294 0.04980199 6.990282E-07
v 0.1342726 -0.1728171 5.631095E-08
v 0.1705856 -0.004660437 4.783557E-07
v -0.1700726 -0.574416 6.640057E-07
v -0.1200323 -0.6686524 6.947118E-07
v -0.07979202 -0.383333 6.017429E-07
v -0.2229385 -0.4351986 6.186429E-07
v -0.2229385 -0.4351986 6.186429E-07
v -0.07979202 -0.383333 6.017429E-07
v -0.3846626 -0.3401507 1.108352E-07
v -0.301755 -0.4130934 8.498587E-07
vt 0 1
vt 1 1
vt 0.5 0
vt 0 1
vt 1 1
vt 0.5 0
vt 0 1
vt 1 1
vt 0.5 0
vt 0 1
vt 1 1
vt 0.5 0
vt 0 1
vt 1 1
vt 0.5 0
vt 0 1
vt 1 1
vt 0.5 0
vt 0 1
vt 1 1
vt 0.5 0
vt 0 1
vt 1 1
vt 0.5 0
vt 0 1
vt 1 1
vt 0.5 0
vt 0 1
vt 1 1
vt 0.5 0
vt 0 1
vt 1 1
vt 0.5 0
vt 0 1
vt 1 1
vt 0.5 0
vt 0 1
vt 1 1
vt 0.5 0
vt 0 1
vt 1 1
vt 0.5 0
vt 0.5 0
vt 0.25 0.5
vt 0 1
vt 0 1
vt 0.5 0
vt -0.06763635 1.135273
vt 0.5 0
vt 0 1
vt 0 1
vt 0.5 0
vt 0 1
vt 0.5 0
vt 0.5 0
vt 0 1
vt 0 1
vt 0.5 0
vt 0 1
vt 0.5 0
vt 0 1
vt 0.5 0
vt 0.5 0
vt 0 1
vt 0 1
vt 0.5 0
vt 0 1
vt 0.5 0
vt 0 1
vt 0 1
vt 0.5 0
vt 0 1
vt 0.5 0
vt 0.5 0
vt 0.5 0
vt 0 1
vt 0.5 0
vt 0 1
vt 0 1
vt 0.5 0
vt 0.25 0.5
vt 0.09558387 0.8088322
vt 0.1762614 0.6474773
vt 0.25 0.5
vt 0 1
vt 0.5 0
vt 0.5 0
vt 0 1
vt 0 1
vt 0.5 0
vt 0 1
vt 0.5 0
vt 0.5 0
vt 0.5 0
vt 0 1
vt 0 1
vt 0 1
vt 0.25 0.5
vt 0.25 0.5
vt 0.25 0.5
vt 0.5 0
vt 0.5 0
vt 0 1
vt 0.25 0.5
vt 0 1
vt 0.5 0
vt 0 1
vt 0 1
vt 0.5 0
vt 0 1
vt 0.5 0
vt 0 1
vt 0.5 0
vt 0 1
vt 0.5 0
vt 0 1
vt 0.5 0
vt 0 1
vt 0.5 0
vt 0 1
vt 0 1
vt 0.5 0
vt 0 1
vt 0.5 0
vt 0 1
vt 0.5 0
vt 0.5 0
vt 0 1
vt 0 1
vt 0.5 0
vt 0 1
vt 0.5 0
vt 0 1
vt 0.5 0
vt 0 1
vt 0.5 0
vt 0 1
vt 0 1
vt 0.5 0
vt 0 1
vt 0.5 0
vt 0.5 0
vt 0.5 0
vt 0.5 0
vt 0.5 0
vt 0.5 0
vt 0 1
vt 0 1
vt 0.5 0
vt 0 1
vt 0.5 0
vt -0.06763635 1.135273
vt 0.5 0
vt 0.5 0
vt 0 1
vt 0 1
vt 0.09558387 0.8088322
vt 0.5 0
vt 0 1
vn 0 0 -1
vn 0 0 -1
vn 0 0 -1
vn -1.503879E-05 -1.682915E-05 -1
vn -1.503879E-05 -1.682915E-05 -1
vn -1.503879E-05 -1.682915E-05 -1
vn 0 -1.43556E-05 -1
vn 0 -1.43556E-05 -1
vn 0 -1.43556E-05 -1
vn 0 0 -1
vn 0 0 -1
vn 0 0 -1
vn 0 0 -1
vn 0 0 -1
vn 0 0 -1
vn 0 0 -1
vn 0 0 -1
vn 0 0 -1
vn 0 0 -1
vn 0 0 -1
vn 0 0 -1
vn 0 0 -1
vn 0 0 -1
vn 0 0 -1
vn -1.348506E-05 0 -1
vn -1.348506E-05 0 -1
vn -1.348506E-05 0 -1
vn 0 0 -1
vn 0 0 -1
vn 0 0 -1
vn 0 0 -1
vn 0 0 -1
vn 0 0 -1
vn 0 0 -1
vn 0 0 -1
vn 0 0 -1
vn 0 1.434277E-05 -1
vn 0 1.434277E-05 -1
vn 0 1.434277E-05 -1
vn 0 0 -1
vn 0 0 -1
vn 0 0 -1
vn 0 0 -1
vn 0 0 -1
vn 0 0 -1
vn -2.227184E-05 -1.215236E-05 -1
vn -2.227184E-05 -1.215236E-05 -1
vn -2.227184E-05 -1.215236E-05 -1
vn 0 0 -1
vn 0 0 -1
vn 0 0 -1
vn 0 0 -1
vn 0 0 -1
vn 0 0 -1
vn 0 0 -1
vn 0 0 -1
vn 0 0 -1
vn 0 0 -1
vn 0 0 -1
vn 0 0 -1
vn 0 0 -1
vn 0 0 -1
vn 0 0 -1
vn 0 0 -1
vn 0 0 -1
vn 0 0 -1
vn 0 0 -1
vn 0 0 -1
vn 0 0 -1
vn 0 0 -1
vn 0 0 -1
vn 0 0 -1
vn 0 0 -1
vn 0 0 -1
vn 0 0 -1
vn 0 0 -1
vn 0 0 -1
vn 0 0 -1
vn 0 0 -1
vn 0 0 -1
vn 0 0 -1
vn 0 0 -1
vn 0 0 -1
vn 0 0 -1
vn 0 0 -1
vn 0 0 -1
vn 0 0 -1
vn 0 0 -1
vn 0 0 -1
vn 0 0 -1
vn 0 0 -1
vn 0 0 -1
vn 0 0 -1
vn 0 0 -1
vn 0 0 -1
vn 0 0 -1
vn 0 0 -1
vn 0 0 -1
vn 0 0 -1
vn 0 0 -1
vn 0 0 -1
vn 0 0 -1
vn 0 0 -1
vn 0 0 -1
vn 0 0 -1
vn 0 0 -1
vn 0 0 -1
vn 0 0 -1
vn 0 0 -1
vn 0 0 -1
vn 0 0 -1
vn 0 0 -1
vn 0 0 -1
vn 0 0 -1
vn 0 -1.717467E-05 -1
vn 0 -1.717467E-05 -1
vn 0 -1.717467E-05 -1
vn 0 -1.717467E-05 -1
vn 0 0 -1
vn 0 0 -1
vn 0 0 -1
vn 0 0 -1
vn 0 0 -1
vn 0 0 -1
vn 0 0 -1
vn 0 0 -1
vn 0 0 -1
vn 0 0 -1
vn 0 0 -1
vn 0 0 -1
vn 0 0 -1
vn 0 0 -1
vn 0 0 -1
vn 0 0 -1
vn 0 0 -1
vn 0 0 -1
vn 0 0 -1
vn 0 0 -1
vn 0 0 -1
vn 0 0 -1
vn 0 0 -1
vn 0 0 -1
vn 0 0 -1
vn 0 0 -1
vn 0 0 -1
vn 0 0 -1
vn 0 0 -1
vn 0 0 -1
vn 0 0 -1
vn 0 0 -1
vn 0 0 -1
vn 0 0 -1
vn 0 0 -1
vn 0 0 -1
vn 0 0 -1
vn 0 0 -1
vn 0 0 -1
vn 0 0 -1
vn 0 0 -1
g WallSmash_Crack_02_0
f 3/3/3 2/2/2 1/1/1
f 6/6/6 5/5/5 4/4/4
f 9/9/9 8/8/8 7/7/7
f 12/12/12 11/11/11 10/10/10
f 15/15/15 14/14/14 13/13/13
f 18/18/18 17/17/17 16/16/16
f 21/21/21 20/20/20 19/19/19
f 24/24/24 23/23/23 22/22/22
f 27/27/27 26/26/26 25/25/25
f 30/30/30 29/29/29 28/28/28
f 33/33/33 32/32/32 31/31/31
f 36/36/36 35/35/35 34/34/34
f 39/39/39 38/38/38 37/37/37
f 42/42/42 41/41/41 40/40/40
f 45/45/45 44/44/44 43/43/43
f 48/48/48 47/47/47 46/46/46
f 51/51/51 50/50/50 49/49/49
f 50/50/50 52/52/52 49/49/49
f 50/50/50 53/53/53 52/52/52
f 53/53/53 54/54/54 52/52/52
f 57/57/57 56/56/56 55/55/55
f 56/56/56 58/58/58 55/55/55
f 56/56/56 59/59/59 58/58/58
f 59/59/59 60/60/60 58/58/58
f 59/59/59 61/61/61 60/60/60
f 61/61/61 62/62/62 60/60/60
f 65/65/65 64/64/64 63/63/63
f 64/64/64 66/66/66 63/63/63
f 64/64/64 67/67/67 66/66/66
f 70/70/70 69/69/69 68/68/68
f 69/69/69 71/71/71 68/68/68
f 69/69/69 72/72/72 71/71/71
f 72/72/72 73/73/73 71/71/71
f 75/75/75 73/73/73 74/74/74
f 76/76/76 75/75/75 74/74/74
f 79/79/79 78/78/78 77/77/77
f 78/78/78 80/80/80 77/77/77
f 78/78/78 81/81/81 80/80/80
f 83/83/83 82/82/82 81/81/81
f 82/82/82 84/84/84 81/81/81
f 84/84/84 82/82/82 85/85/85
f 82/82/82 86/86/86 85/85/85
f 89/89/89 88/88/88 87/87/87
f 88/88/88 90/90/90 87/87/87
f 88/88/88 91/91/91 90/90/90
f 91/91/91 92/92/92 90/90/90
f 95/95/95 94/94/94 93/93/93
f 96/96/96 95/95/95 93/93/93
f 98/98/98 95/95/95 97/97/97
f 99/99/99 98/98/98 97/97/97
f 98/98/98 100/100/100 95/95/95
f 99/99/99 97/97/97 101/101/101
f 102/102/102 99/99/99 101/101/101
f 100/100/100 103/103/103 95/95/95
f 100/100/100 104/104/104 103/103/103
f 104/104/104 105/105/105 103/103/103
f 107/107/107 101/101/101 106/106/106
f 108/108/108 107/107/107 106/106/106
f 108/108/108 106/106/106 109/109/109
f 110/110/110 108/108/108 109/109/109
f 110/110/110 109/109/109 111/111/111
f 112/112/112 110/110/110 111/111/111
f 112/112/112 111/111/111 113/113/113
f 114/114/114 112/112/112 113/113/113
f 114/114/114 113/113/113 115/115/115
f 116/116/116 114/114/114 115/115/115
f 116/116/116 115/115/115 117/117/117
f 118/118/118 116/116/116 117/117/117
f 121/121/121 120/120/120 119/119/119
f 120/120/120 122/122/122 119/119/119
f 120/120/120 123/123/123 122/122/122
f 123/123/123 124/124/124 122/122/122
f 123/123/123 125/125/125 124/124/124
f 125/125/125 126/126/126 124/124/124
f 129/129/129 128/128/128 127/127/127
f 128/128/128 130/130/130 127/127/127
f 128/128/128 131/131/131 130/130/130
f 131/131/131 132/132/132 130/130/130
f 131/131/131 133/133/133 132/132/132
f 133/133/133 134/134/134 132/132/132
f 133/133/133 135/135/135 134/134/134
f 135/135/135 102/102/102 134/134/134
f 138/138/138 137/137/137 136/136/136
f 137/137/137 139/139/139 136/136/136
f 137/137/137 140/140/140 139/139/139
f 140/140/140 141/141/141 139/139/139
f 141/141/141 142/142/142 139/139/139
f 142/142/142 143/143/143 139/139/139
f 142/142/142 144/144/144 143/143/143
f 144/144/144 145/145/145 143/143/143
f 148/148/148 147/147/147 146/146/146
f 147/147/147 149/149/149 146/146/146
f 147/147/147 150/150/150 149/149/149
f 150/150/150 151/151/151 149/149/149
f 154/154/154 153/153/153 152/152/152
f 155/155/155 154/154/154 152/152/152
f 158/158/158 157/157/157 156/156/156
f 159/159/159 158/158/158 156/156/156
