g ShieldSoldier_Shield
v 0.326677 -0.1018142 -0.917927
v 0.326677 -0.1018142 -0.7359274
v 0.6252223 0.00653249 -0.7359275
v 0.326677 -0.00653255 -0.917927
v 0.6252223 0.1018142 -0.7359275
v 0.326677 -0.00653255 -0.7359274
v -0.3184781 -0.1018142 -0.7359274
v -0.3184781 -0.1018142 -0.917927
v -0.6252227 0.00653249 -0.7359274
v -0.6252227 0.1018142 -0.7359274
v -0.3184781 -0.00653255 -0.917927
v -0.3184781 -0.00653255 -0.7359274
v -0.2419496 -0.00653255 -0.9307139
v -0.3184781 -0.00653255 -0.917927
v -0.3184781 -0.1018142 -0.917927
v -0.2419496 -0.1018142 -0.9307139
v -0.2419496 -0.1018142 1.085248
v -0.3184781 -0.1018142 1.059064
v -0.3184781 -0.00653255 1.059064
v -0.2419496 -0.00653255 1.085248
v 0.326677 -0.1018142 -0.917927
v 0.6252223 0.00653249 -0.7359275
v 0.6252223 0.1018142 -0.7359275
v 0.326677 -0.00653255 -0.917927
v 0.6252223 0.00653249 -0.7359275
v 0.326677 -0.1018142 -0.7359274
v 0.326677 -0.1018142 -0.6805251
v 0.64276 0.00653249 -0.6805251
v 0.6252223 0.1018142 -0.7359275
v 0.6252223 0.00653249 -0.7359275
v 0.64276 0.00653249 -0.6805251
v 0.64276 0.1018142 -0.6805251
v 0.326677 -0.00653255 -0.7359274
v 0.6252223 0.1018142 -0.7359275
v 0.64276 0.1018142 -0.6805251
v 0.326677 -0.00653255 -0.6805251
v -0.6252227 0.00653249 -0.7359274
v -0.6252227 0.1018142 -0.7359274
v -0.6427603 0.1018142 -0.6805251
v -0.6427603 0.00653249 -0.6805251
v 0.64276 0.00653249 -0.6805251
v 0.326677 -0.1018142 -0.6805251
v 0.326677 -0.1018142 -0.01934561
v 0.64276 0.00653249 -0.01934558
v 0.64276 0.00653249 0.5828536
v 0.326677 -0.1018142 0.582527
v 0.64276 0.00653249 0.8185521
v 0.326677 -0.1018142 0.8185521
v 0.326677 -0.1018142 1.059064
v 0.64276 0.1018142 -0.6805251
v 0.64276 0.00653249 -0.6805251
v 0.64276 0.00653249 -0.01934558
v 0.64276 0.1018142 -0.01934558
v 0.64276 0.1018142 0.5828536
v 0.64276 0.00653249 0.5828536
v 0.64276 0.1018142 0.8185521
v 0.64276 0.00653249 0.8185521
v 0.326677 -0.00653255 -0.01934561
v 0.326677 -0.00653255 -0.6805251
v 0.64276 0.1018142 -0.6805251
v 0.64276 0.1018142 -0.01934558
v 0.326677 -0.00653255 0.5825267
v 0.64276 0.1018142 0.5828536
v 0.326677 -0.00653255 0.8185521
v 0.64276 0.1018142 0.8185521
v 0.326677 -0.00653255 1.059064
v 0.64276 0.00653249 0.8185521
v 0.326677 -0.1018142 1.059064
v 0.326677 -0.00653255 1.059064
v 0.64276 0.1018142 0.8185521
v -0.6427603 0.1018142 0.8185521
v -0.3184781 -0.00653255 1.059064
v -0.3184781 -0.1018142 1.059064
v -0.6427603 0.00653249 0.8185521
v -0.3184781 -0.1018142 1.059064
v -0.3184781 -0.1018142 0.8185521
v -0.6427603 0.00653249 0.8185521
v -0.6427603 0.00653249 0.562554
v -0.3184781 -0.1018142 0.4845301
v -0.6427603 0.00653249 -0.09809965
v -0.3184781 -0.1018142 -0.01934576
v -0.3184781 -0.1018142 -0.6805251
v -0.6427603 0.00653249 -0.6805251
v -0.3184781 -0.00653255 -0.7359274
v -0.3184781 -0.00653255 -0.6805251
v -0.6427603 0.1018142 -0.6805251
v -0.6252227 0.1018142 -0.7359274
v -0.3184781 -0.00653255 0.8185521
v -0.3184781 -0.00653255 1.059064
v -0.6427603 0.1018142 0.8185521
v -0.6427603 0.1018142 0.562554
v -0.3184781 -0.00653255 0.4845301
v -0.3184781 -0.1018142 0.4845301
v -0.3184781 -0.1018142 -0.01934576
v -0.3184781 -0.00653255 -0.01934576
v -0.3184781 -0.00653255 0.4845301
v -0.6427603 0.00653249 0.562554
v -0.3184781 -0.1018142 0.4845301
v -0.3184781 -0.00653255 0.4845301
v -0.6427603 0.1018142 0.562554
v -0.3184781 -0.1018142 -0.01934576
v -0.6427603 0.00653249 -0.09809965
v -0.6427603 0.1018142 -0.09809965
v -0.3184781 -0.00653255 -0.01934576
v -0.6252227 0.00653249 -0.7359274
v -0.3184781 -0.1018142 -0.917927
v -0.3184781 -0.00653255 -0.917927
v -0.6252227 0.1018142 -0.7359274
v 0.2473819 -0.1018142 1.085248
v 0.326677 -0.1018142 1.059064
v 0.326677 -0.1018142 0.8185521
v 0.2473819 -0.1018142 0.8185521
v 0.326677 -0.1018142 0.582527
v -0.2419496 -0.1018142 0.8185521
v -0.2419496 -0.1018142 1.085248
v -0.3184781 -0.1018142 1.059064
v -0.3184781 -0.1018142 0.8185521
v -0.2419498 -0.1018142 0.5821906
v -0.3184781 -0.1018142 0.4845301
v 0.2473819 -0.1018142 0.5823588
v -0.2419497 -0.1018142 -0.01934552
v -0.3184781 -0.1018142 -0.01934576
v 0.2473819 -0.1018142 -0.01934561
v 0.326677 -0.1018142 -0.01934561
v -0.2419496 -0.1018142 -0.6805251
v -0.3184781 -0.1018142 -0.6805251
v -0.3184781 -0.1018142 -0.7359274
v 0.2473819 -0.1018142 -0.6805251
v 0.326677 -0.1018142 -0.6805251
v -0.2419496 -0.1018142 -0.7359274
v 0.2473819 -0.1018142 -0.7359274
v 0.326677 -0.1018142 -0.7359274
v 0.326677 -0.1018142 -0.917927
v 0.2473819 -0.1018142 -0.9307139
v -0.2419496 -0.1018142 -0.9307139
v -0.3184781 -0.1018142 -0.917927
v 0.2473819 -0.00653255 -0.9307139
v 0.326677 -0.00653255 -0.917927
v 0.326677 -0.00653255 -0.7359274
v 0.2473819 -0.00653255 -0.7359274
v -0.2419496 -0.00653255 -0.9307139
v 0.326677 -0.00653255 -0.6805251
v -0.2419496 -0.00653255 -0.7359274
v -0.3184781 -0.00653255 -0.917927
v -0.3184781 -0.00653255 -0.7359274
v 0.2473819 -0.00653255 -0.6805251
v -0.2419496 -0.00653255 -0.6805251
v -0.3184781 -0.00653255 -0.6805251
v -0.3184781 -0.00653255 -0.01934576
v 0.2473819 -0.00653255 -0.01934561
v 0.326677 -0.00653255 -0.01934561
v -0.2419496 -0.00653255 -0.01934558
v -0.2419496 -0.00653255 0.5821904
v -0.3184781 -0.00653255 0.4845301
v -0.3184781 -0.00653255 0.8185521
v 0.2473819 -0.00653255 0.5823586
v 0.326677 -0.00653255 0.5825267
v 0.2473819 -0.00653255 0.8185521
v 0.326677 -0.00653255 0.8185521
v 0.326677 -0.00653255 1.059064
v 0.2473819 -0.00653255 1.085248
v -0.2419496 -0.00653255 0.8185521
v -0.2419496 -0.00653255 1.085248
v -0.3184781 -0.00653255 1.059064
v 0.2473819 -0.00653255 -0.9307139
v -0.2419496 -0.00653255 -0.9307139
v -0.2419496 -0.1018142 -0.9307139
v 0.2473819 -0.1018142 -0.9307139
v 0.2473819 -0.1018142 1.085248
v -0.2419496 -0.1018142 1.085248
v -0.2419496 -0.00653255 1.085248
v 0.2473819 -0.00653255 1.085248
v 0.326677 -0.00653255 -0.917927
v 0.2473819 -0.00653255 -0.9307139
v 0.2473819 -0.1018142 -0.9307139
v 0.326677 -0.1018142 -0.917927
v 0.326677 -0.1018142 1.059064
v 0.2473819 -0.1018142 1.085248
v 0.2473819 -0.00653255 1.085248
v 0.326677 -0.00653255 1.059064
v -0.6427603 0.00653249 0.8185521
v -0.6427603 0.00653249 0.562554
v -0.6427603 0.1018142 0.562554
v -0.6427603 0.1018142 0.8185521
v 0.2473819 -0.00653255 0.8185521
v -0.2419496 -0.00653255 0.8185521
v -0.2419496 -0.1018142 0.8185521
v 0.2473819 -0.1018142 0.8185521
v 0.2473819 -0.00653255 0.5823586
v 0.2473819 -0.00653255 0.8185521
v 0.2473819 -0.1018142 0.8185521
v 0.2473819 -0.1018142 0.5823588
v -0.2419496 -0.00653255 0.5821904
v 0.2473819 -0.00653255 0.5823586
v 0.2473819 -0.1018142 0.5823588
v -0.2419498 -0.1018142 0.5821906
v -0.2419496 -0.00653255 0.8185521
v -0.2419496 -0.00653255 0.5821904
v -0.2419498 -0.1018142 0.5821906
v -0.2419496 -0.1018142 0.8185521
v -0.6427603 0.00653249 -0.09809965
v -0.6427603 0.00653249 -0.6805251
v -0.6427603 0.1018142 -0.6805251
v -0.6427603 0.1018142 -0.09809965
v -0.6427603 0.00653249 -0.6805251
v -0.3184781 -0.1018142 -0.6805251
v -0.3184781 -0.1018142 -0.7359274
v -0.6252227 0.00653249 -0.7359274
v -0.6427603 0.1018142 -0.09809965
v -0.6427603 0.1018142 -0.6805251
v -0.3184781 -0.00653255 -0.6805251
v -0.3184781 -0.00653255 -0.01934576
vt 0.01298561 0.254274
vt 0.1020501 0.254274
vt 0.10205 0.02970865
vt 0.01298561 0.254274
vt 0.10205 0.02970865
vt 0.1020501 0.254274
vt 0.1020501 0.7395587
vt 0.01298563 0.7395587
vt 0.1020501 0.9702914
vt 0.1020501 0.9702914
vt 0.01298563 0.7395587
vt 0.1020501 0.7395587
vt 0.006728152 0.681994
vt 0.01298563 0.7395587
vt 0.01298563 0.7395587
vt 0.006728152 0.681994
vt 0.9932719 0.681994
vt 0.9804584 0.7395586
vt 0.9804584 0.7395586
vt 0.9932719 0.681994
vt 0.01298561 0.254274
vt 0.10205 0.02970865
vt 0.10205 0.02970865
vt 0.01298561 0.254274
vt 0.10205 0.02970865
vt 0.1020501 0.254274
vt 0.1291621 0.254274
vt 0.1291621 0.01651683
vt 0.10205 0.02970865
vt 0.10205 0.02970865
vt 0.1291621 0.01651683
vt 0.1291621 0.01651683
vt 0.1020501 0.254274
vt 0.10205 0.02970865
vt 0.1291621 0.01651683
vt 0.1291621 0.254274
vt 0.1020501 0.9702914
vt 0.1020501 0.9702914
vt 0.1291621 0.9834832
vt 0.1291621 0.9834832
vt 0.1291621 0.01651683
vt 0.1291621 0.254274
vt 0.4527211 0.254274
vt 0.4527211 0.01651683
vt 0.747417 0.01651683
vt 0.7472572 0.254274
vt 0.8627599 0.01651683
vt 0.8627599 0.254274
vt 0.9804584 0.254274
vt 0.1291621 0.01651683
vt 0.1291621 0.01651683
vt 0.4527211 0.01651683
vt 0.4527211 0.01651683
vt 0.747417 0.01651683
vt 0.747417 0.01651683
vt 0.8627599 0.01651683
vt 0.8627599 0.01651683
vt 0.452721 0.254274
vt 0.1291621 0.254274
vt 0.1291621 0.01651683
vt 0.4527211 0.01651683
vt 0.747257 0.254274
vt 0.747417 0.01651683
vt 0.8627599 0.254274
vt 0.8627599 0.01651683
vt 0.9804584 0.254274
vt 0.8627599 0.01651683
vt 0.9804584 0.254274
vt 0.9804584 0.254274
vt 0.8627599 0.01651683
vt 0.8627599 0.9834832
vt 0.9804584 0.7395586
vt 0.9804584 0.7395586
vt 0.8627599 0.9834832
vt 0.9804584 0.7395586
vt 0.8627599 0.7395586
vt 0.8627599 0.9834832
vt 0.7374831 0.9834832
vt 0.6993008 0.7395586
vt 0.4141815 0.9834832
vt 0.452721 0.7395586
vt 0.1291621 0.7395587
vt 0.1291621 0.9834832
vt 0.1020501 0.7395587
vt 0.1291621 0.7395587
vt 0.1291621 0.9834832
vt 0.1020501 0.9702914
vt 0.8627599 0.7395586
vt 0.9804584 0.7395586
vt 0.8627599 0.9834832
vt 0.7374831 0.9834832
vt 0.6993008 0.7395586
vt 0.6993008 0.7395586
vt 0.452721 0.7395586
vt 0.452721 0.7395586
vt 0.6993008 0.7395586
vt 0.7374831 0.9834832
vt 0.6993008 0.7395586
vt 0.6993008 0.7395586
vt 0.7374831 0.9834832
vt 0.452721 0.7395586
vt 0.4141815 0.9834832
vt 0.4141815 0.9834832
vt 0.452721 0.7395586
vt 0.1020501 0.9702914
vt 0.01298563 0.7395587
vt 0.01298563 0.7395587
vt 0.1020501 0.9702914
vt 0.9932719 0.3139196
vt 0.9804584 0.254274
vt 0.8627599 0.254274
vt 0.8627599 0.3139196
vt 0.7472572 0.254274
vt 0.8627599 0.681994
vt 0.9932719 0.681994
vt 0.9804584 0.7395586
vt 0.8627599 0.7395586
vt 0.7470926 0.6819941
vt 0.6993008 0.7395586
vt 0.747175 0.3139196
vt 0.4527211 0.681994
vt 0.452721 0.7395586
vt 0.4527211 0.3139196
vt 0.4527211 0.254274
vt 0.1291621 0.681994
vt 0.1291621 0.7395587
vt 0.1020501 0.7395587
vt 0.1291621 0.3139196
vt 0.1291621 0.254274
vt 0.1020501 0.681994
vt 0.1020501 0.3139196
vt 0.1020501 0.254274
vt 0.01298561 0.254274
vt 0.006728136 0.3139196
vt 0.006728152 0.681994
vt 0.01298563 0.7395587
vt 0.006728136 0.3139196
vt 0.01298561 0.254274
vt 0.1020501 0.254274
vt 0.1020501 0.3139196
vt 0.006728152 0.681994
vt 0.1291621 0.254274
vt 0.1020501 0.681994
vt 0.01298563 0.7395587
vt 0.1020501 0.7395587
vt 0.1291621 0.3139196
vt 0.1291621 0.681994
vt 0.1291621 0.7395587
vt 0.452721 0.7395586
vt 0.452721 0.3139196
vt 0.452721 0.254274
vt 0.4527211 0.681994
vt 0.7470925 0.681994
vt 0.6993008 0.7395586
vt 0.8627599 0.7395586
vt 0.7471749 0.3139196
vt 0.747257 0.254274
vt 0.8627599 0.3139196
vt 0.8627599 0.254274
vt 0.9804584 0.254274
vt 0.9932719 0.3139196
vt 0.8627599 0.681994
vt 0.9932719 0.681994
vt 0.9804584 0.7395586
vt 0.006728136 0.3139196
vt 0.006728152 0.681994
vt 0.006728152 0.681994
vt 0.006728136 0.3139196
vt 0.9932719 0.3139196
vt 0.9932719 0.681994
vt 0.9932719 0.681994
vt 0.9932719 0.3139196
vt 0.01298561 0.254274
vt 0.006728136 0.3139196
vt 0.006728136 0.3139196
vt 0.01298561 0.254274
vt 0.9804584 0.254274
vt 0.9932719 0.3139196
vt 0.9932719 0.3139196
vt 0.9804584 0.254274
vt 0.8627599 0.9834832
vt 0.7374831 0.9834832
vt 0.7374831 0.9834832
vt 0.8627599 0.9834832
vt 0.8627599 0.3139196
vt 0.8627599 0.681994
vt 0.8627599 0.681994
vt 0.8627599 0.3139196
vt 0.7471749 0.3139196
vt 0.8627599 0.3139196
vt 0.8627599 0.3139196
vt 0.747175 0.3139196
vt 0.7470925 0.681994
vt 0.7471749 0.3139196
vt 0.747175 0.3139196
vt 0.7470926 0.6819941
vt 0.8627599 0.681994
vt 0.7470925 0.681994
vt 0.7470926 0.6819941
vt 0.8627599 0.681994
vt 0.4141815 0.9834832
vt 0.1291621 0.9834832
vt 0.1291621 0.9834832
vt 0.4141815 0.9834832
vt 0.1291621 0.9834832
vt 0.1291621 0.7395587
vt 0.1020501 0.7395587
vt 0.1020501 0.9702914
vt 0.4141815 0.9834832
vt 0.1291621 0.9834832
vt 0.1291621 0.7395587
vt 0.452721 0.7395586
vn 0.3411444 -0.9400108 0
vn 0.3411444 -0.9400108 0
vn 0.3411444 -0.9400108 0
vn -0.3411444 0.9400108 0
vn -0.3411444 0.9400108 0
vn -0.3411444 0.9400108 0
vn -0.3330494 -0.9429094 0
vn -0.3330495 -0.9429094 0
vn -0.3330495 -0.9429094 0
vn 0.3330495 0.9429094 0
vn 0.3330495 0.9429094 0
vn 0.3330494 0.9429094 0
vn -0.1648016 0 -0.9863268
vn -0.1648016 0 -0.9863268
vn -0.1648016 0 -0.9863268
vn -0.1648016 0 -0.9863268
vn -0.3237238 0 0.9461517
vn -0.3237238 0 0.9461517
vn -0.3237238 0 0.9461517
vn -0.3237238 0 0.9461517
vn 0.5205234 0 -0.8538474
vn 0.5205234 0 -0.8538474
vn 0.5205234 0 -0.8538474
vn 0.5205234 0 -0.8538474
vn 0.332041 -0.9417998 -0.05255406
vn 0.3320409 -0.9417998 -0.05255406
vn 0.332041 -0.9417998 -0.05255406
vn 0.332041 -0.9417998 -0.05255406
vn 0.9533738 0 -0.301792
vn 0.9533738 0 -0.301792
vn 0.9533738 0 -0.301792
vn 0.9533738 0 -0.301792
vn -0.3320409 0.9417998 0.05255405
vn -0.332041 0.9417998 0.05255406
vn -0.332041 0.9417998 0.05255406
vn -0.332041 0.9417998 0.05255406
vn -0.9533743 0 -0.3017904
vn -0.9533743 0 -0.3017904
vn -0.9533743 0 -0.3017904
vn -0.9533743 0 -0.3017904
vn 0.3242584 -0.9459686 0
vn 0.3242584 -0.9459686 0
vn 0.3242584 -0.9459686 0
vn 0.3242584 -0.9459686 0
vn 0.3242583 -0.9459686 0
vn 0.3242583 -0.9459686 0
vn 0.3242584 -0.9459686 0
vn 0.3242583 -0.9459686 0
vn 0.3242583 -0.9459686 0
vn 1 0 0
vn 1 0 0
vn 1 0 0
vn 1 0 0
vn 1 0 0
vn 1 0 0
vn 1 0 0
vn 1 0 0
vn -0.3242584 0.9459686 0
vn -0.3242584 0.9459686 0
vn -0.3242584 0.9459686 0
vn -0.3242584 0.9459686 0
vn -0.3242584 0.9459686 0
vn -0.3242584 0.9459686 0
vn -0.3242583 0.9459686 0
vn -0.3242584 0.9459686 0
vn -0.3242583 0.9459686 0
vn 0.6055439 0 0.7958118
vn 0.605544 0 0.7958118
vn 0.6055439 0 0.7958118
vn 0.605544 0 0.7958118
vn -0.5957118 0 0.8031983
vn -0.5957118 0 0.8031983
vn -0.5957118 0 0.8031983
vn -0.5957118 0 0.8031983
vn -0.3168927 -0.9484614 0
vn -0.3168927 -0.9484614 0
vn -0.3168927 -0.9484614 0
vn -0.3168927 -0.9484614 0
vn -0.3168927 -0.9484614 0
vn -0.3168927 -0.9484614 0
vn -0.3168927 -0.9484614 0
vn -0.3168927 -0.9484614 0
vn -0.3168927 -0.9484614 0
vn 0.3243539 0.9445417 0.05133705
vn 0.3243539 0.9445417 0.05133705
vn 0.3243539 0.9445417 0.05133705
vn 0.3243539 0.9445417 0.05133705
vn 0.3168927 0.9484614 0
vn 0.3168927 0.9484614 0
vn 0.3168927 0.9484614 0
vn 0.3168927 0.9484614 0
vn 0.3168927 0.9484614 0
vn -1 0 0
vn -1 0 0
vn -1 0 0
vn -1 0 0
vn -0.2339291 0 -0.9722536
vn -0.233929 0 -0.9722536
vn -0.2339291 0 -0.9722536
vn -0.233929 0 -0.9722536
vn -0.2359963 0 0.971754
vn -0.2359963 0 0.971754
vn -0.2359963 0 0.971754
vn -0.2359963 0 0.971754
vn -0.5102693 0 -0.8600147
vn -0.5102693 0 -0.8600147
vn -0.5102693 0 -0.8600147
vn -0.5102693 0 -0.8600147
vn 0 -1 0
vn 0 -1 0
vn 0 -1 0
vn 0 -1 0
vn 0 -1 0
vn 0 -1 0
vn 0 -1 0
vn 0 -1 0
vn 0 -1 0
vn 0 -1 0
vn 0 -1 0
vn 0 -1 0
vn 0 -1 0
vn 0 -1 0
vn 0 -1 0
vn 0 -1 0
vn 0 -1 0
vn 0 -1 0
vn 0 -1 0
vn 0 -1 0
vn 0 -1 0
vn 0 -1 0
vn 0 -1 0
vn 0 -1 0
vn 0 -1 0
vn 0 -1 0
vn 0 -1 0
vn 0 -1 0
vn 0 1 0
vn 0 1 0
vn 0 1 0
vn 0 1 0
vn 0 1 0
vn 0 1 0
vn 0 1 0
vn 0 1 0
vn 0 1 0
vn 0 1 0
vn 0 1 0
vn 0 1 0
vn 0 1 0
vn 0 1 0
vn 0 1 0
vn 0 1 0
vn 0 1 0
vn 0 1 0
vn 0 1 0
vn 0 1 0
vn 0 1 0
vn 0 1 0
vn 0 1 0
vn 0 1 0
vn 0 1 0
vn 0 1 0
vn 0 1 0
vn 0 1 0
vn 0 0 -1
vn 0 0 -1
vn 0 0 -1
vn 0 0 -1
vn 0 0 1
vn 0 0 1
vn 0 0 1
vn 0 0 1
vn 0.1592001 0 -0.9872463
vn 0.1592001 0 -0.9872463
vn 0.1592001 0 -0.9872463
vn 0.1592001 0 -0.9872463
vn 0.313558 0 0.949569
vn 0.313558 0 0.949569
vn 0.313558 0 0.949569
vn 0.313558 0 0.949569
vn -1 0 0
vn -1 0 0
vn -1 0 0
vn -1 0 0
vn 0 0 -1
vn 0 0 -1
vn 0 0 -1
vn 0 0 -1
vn -1 0 0
vn -1 0 0
vn -1 0 0
vn -1 0 0
vn -0.0003437429 0 1
vn -0.000343743 0 1
vn -0.000343743 0 1
vn -0.000343743 0 1
vn 1 0 0
vn 1 0 0
vn 1 0 0
vn 1 0 0
vn -1 0 0
vn -1 0 0
vn -1 0 0
vn -1 0 0
vn -0.3243539 -0.9445417 -0.05133705
vn -0.3243538 -0.9445417 -0.05133705
vn -0.3243538 -0.9445417 -0.05133705
vn -0.3243538 -0.9445417 -0.05133705
vn 0.3168927 0.9484614 0
vn 0.3168927 0.9484614 0
vn 0.3168927 0.9484614 0
vn 0.3168927 0.9484614 0
g ShieldSoldier_Shield_0
f 3/3/3 2/2/2 1/1/1
f 6/6/6 5/5/5 4/4/4
f 9/9/9 8/8/8 7/7/7
f 12/12/12 11/11/11 10/10/10
f 15/15/15 14/14/14 13/13/13
f 16/16/16 15/15/15 13/13/13
f 19/19/19 18/18/18 17/17/17
f 20/20/20 19/19/19 17/17/17
f 23/23/23 22/22/22 21/21/21
f 24/24/24 23/23/23 21/21/21
f 27/27/27 26/26/26 25/25/25
f 28/28/28 27/27/27 25/25/25
f 31/31/31 30/30/30 29/29/29
f 32/32/32 31/31/31 29/29/29
f 35/35/35 34/34/34 33/33/33
f 36/36/36 35/35/35 33/33/33
f 39/39/39 38/38/38 37/37/37
f 40/40/40 39/39/39 37/37/37
f 43/43/43 42/42/42 41/41/41
f 44/44/44 43/43/43 41/41/41
f 43/43/43 44/44/44 45/45/45
f 46/46/46 43/43/43 45/45/45
f 46/46/46 45/45/45 47/47/47
f 48/48/48 46/46/46 47/47/47
f 47/47/47 49/49/49 48/48/48
f 52/52/52 51/51/51 50/50/50
f 53/53/53 52/52/52 50/50/50
f 52/52/52 53/53/53 54/54/54
f 55/55/55 52/52/52 54/54/54
f 55/55/55 54/54/54 56/56/56
f 57/57/57 55/55/55 56/56/56
f 60/60/60 59/59/59 58/58/58
f 61/61/61 60/60/60 58/58/58
f 61/61/61 58/58/58 62/62/62
f 63/63/63 61/61/61 62/62/62
f 63/63/63 62/62/62 64/64/64
f 65/65/65 63/63/63 64/64/64
f 64/64/64 66/66/66 65/65/65
f 69/69/69 68/68/68 67/67/67
f 70/70/70 69/69/69 67/67/67
f 73/73/73 72/72/72 71/71/71
f 74/74/74 73/73/73 71/71/71
f 77/77/77 76/76/76 75/75/75
f 77/77/77 78/78/78 76/76/76
f 78/78/78 79/79/79 76/76/76
f 82/82/82 81/81/81 80/80/80
f 83/83/83 82/82/82 80/80/80
f 86/86/86 85/85/85 84/84/84
f 87/87/87 86/86/86 84/84/84
f 90/90/90 89/89/89 88/88/88
f 90/90/90 88/88/88 91/91/91
f 88/88/88 92/92/92 91/91/91
f 95/95/95 94/94/94 93/93/93
f 96/96/96 95/95/95 93/93/93
f 99/99/99 98/98/98 97/97/97
f 100/100/100 99/99/99 97/97/97
f 103/103/103 102/102/102 101/101/101
f 104/104/104 103/103/103 101/101/101
f 107/107/107 106/106/106 105/105/105
f 108/108/108 107/107/107 105/105/105
f 111/111/111 110/110/110 109/109/109
f 112/112/112 111/111/111 109/109/109
f 113/113/113 111/111/111 112/112/112
f 112/112/112 109/109/109 114/114/114
f 109/109/109 115/115/115 114/114/114
f 114/114/114 115/115/115 116/116/116
f 117/117/117 114/114/114 116/116/116
f 118/118/118 114/114/114 117/117/117
f 119/119/119 118/118/118 117/117/117
f 120/120/120 113/113/113 112/112/112
f 121/121/121 118/118/118 119/119/119
f 120/120/120 118/118/118 121/121/121
f 122/122/122 121/121/121 119/119/119
f 113/113/113 120/120/120 123/123/123
f 123/123/123 120/120/120 121/121/121
f 124/124/124 113/113/113 123/123/123
f 125/125/125 121/121/121 122/122/122
f 123/123/123 121/121/121 125/125/125
f 126/126/126 125/125/125 122/122/122
f 125/125/125 126/126/126 127/127/127
f 124/124/124 123/123/123 128/128/128
f 128/128/128 123/123/123 125/125/125
f 129/129/129 124/124/124 128/128/128
f 130/130/130 125/125/125 127/127/127
f 128/128/128 125/125/125 130/130/130
f 129/129/129 128/128/128 131/131/131
f 131/131/131 128/128/128 130/130/130
f 132/132/132 129/129/129 131/131/131
f 133/133/133 132/132/132 131/131/131
f 134/134/134 133/133/133 131/131/131
f 134/134/134 131/131/131 130/130/130
f 135/135/135 134/134/134 130/130/130
f 135/135/135 130/130/130 127/127/127
f 136/136/136 135/135/135 127/127/127
f 139/139/139 138/138/138 137/137/137
f 140/140/140 139/139/139 137/137/137
f 140/140/140 137/137/137 141/141/141
f 142/142/142 139/139/139 140/140/140
f 143/143/143 140/140/140 141/141/141
f 143/143/143 141/141/141 144/144/144
f 145/145/145 143/143/143 144/144/144
f 146/146/146 142/142/142 140/140/140
f 146/146/146 140/140/140 143/143/143
f 147/147/147 143/143/143 145/145/145
f 147/147/147 146/146/146 143/143/143
f 148/148/148 147/147/147 145/145/145
f 147/147/147 148/148/148 149/149/149
f 142/142/142 146/146/146 150/150/150
f 151/151/151 142/142/142 150/150/150
f 146/146/146 147/147/147 152/152/152
f 152/152/152 147/147/147 149/149/149
f 150/150/150 146/146/146 152/152/152
f 153/153/153 152/152/152 149/149/149
f 150/150/150 152/152/152 153/153/153
f 154/154/154 153/153/153 149/149/149
f 153/153/153 154/154/154 155/155/155
f 151/151/151 150/150/150 156/156/156
f 156/156/156 150/150/150 153/153/153
f 157/157/157 151/151/151 156/156/156
f 157/157/157 156/156/156 158/158/158
f 159/159/159 157/157/157 158/158/158
f 160/160/160 159/159/159 158/158/158
f 161/161/161 160/160/160 158/158/158
f 161/161/161 158/158/158 162/162/162
f 162/162/162 153/153/153 155/155/155
f 163/163/163 161/161/161 162/162/162
f 163/163/163 162/162/162 155/155/155
f 164/164/164 163/163/163 155/155/155
f 167/167/167 166/166/166 165/165/165
f 168/168/168 167/167/167 165/165/165
f 171/171/171 170/170/170 169/169/169
f 172/172/172 171/171/171 169/169/169
f 175/175/175 174/174/174 173/173/173
f 176/176/176 175/175/175 173/173/173
f 179/179/179 178/178/178 177/177/177
f 180/180/180 179/179/179 177/177/177
f 183/183/183 182/182/182 181/181/181
f 184/184/184 183/183/183 181/181/181
f 187/187/187 186/186/186 185/185/185
f 188/188/188 187/187/187 185/185/185
f 191/191/191 190/190/190 189/189/189
f 192/192/192 191/191/191 189/189/189
f 195/195/195 194/194/194 193/193/193
f 196/196/196 195/195/195 193/193/193
f 199/199/199 198/198/198 197/197/197
f 200/200/200 199/199/199 197/197/197
f 203/203/203 202/202/202 201/201/201
f 204/204/204 203/203/203 201/201/201
f 207/207/207 206/206/206 205/205/205
f 208/208/208 207/207/207 205/205/205
f 211/211/211 210/210/210 209/209/209
f 212/212/212 211/211/211 209/209/209
