g Crate_HologramDisplay
v 2.217116 1.384954 0.4525877
v 1.893681 1.990058 1.952588
v 2.217116 1.384954 1.952588
v 1.893681 1.990058 0.4525877
v 1.458411 2.520436 1.952588
v 1.458411 2.520436 0.4525877
v 0.9280332 2.955706 1.952588
v 0.9280332 2.955706 0.4525877
v 0.3229295 3.27914 1.952588
v 0.3229295 3.27914 0.4525877
v -0.3558539 3.27914 0.4525877
v -0.9609582 2.955706 1.952588
v -0.3558539 3.27914 1.952588
v -0.9609582 2.955706 0.4525877
v -1.491336 2.520436 1.952588
v -1.491336 2.520436 0.4525877
v -1.926606 1.990058 1.952588
v -1.926606 1.990058 0.4525877
v -2.250041 1.384953 1.952588
v -2.250041 1.384953 0.4525877
vt 0.6308594 0
vt 0.4763184 1
vt 0.6308594 1
vt 0.4763184 0
vt 0.3154297 1
vt 0.3154297 0
vt 0.1546631 1
vt 0.1546631 0
vt -5.960464E-08 1
vt -5.960464E-08 0
vt 0.6357422 -0.001968384
vt 0.9956055 0.2441406
vt 0.9956055 -0.001968384
vt 0.6357422 0.2441406
vt 0.9956055 0.5
vt 0.6357422 0.5
vt 0.9956055 0.7558594
vt 0.6357422 0.7558594
vt 0.9956055 1.001953
vt 0.6357422 1.001953
vn -0.8818359 -0.4714355 0
vn -0.831543 -0.5556641 0
vn -0.8818359 -0.4714355 0
vn -0.831543 -0.5556641 0
vn -0.7070313 -0.7070313 0
vn -0.7070313 -0.7070313 0
vn -0.5556641 -0.831543 0
vn -0.5556641 -0.831543 0
vn -0.4714355 -0.8818359 0
vn -0.4714355 -0.8818359 0
vn 0.4714355 -0.8818359 0
vn 0.5556641 -0.831543 0
vn 0.4714355 -0.8818359 0
vn 0.5556641 -0.831543 0
vn 0.7070313 -0.7070313 0
vn 0.7070313 -0.7070313 0
vn 0.831543 -0.5556641 0
vn 0.831543 -0.5556641 0
vn 0.8818359 -0.4714355 0
vn 0.8818359 -0.4714355 0
g Crate_HologramDisplay_0
f 3/3/3 2/2/2 1/1/1
f 2/2/2 4/4/4 1/1/1
f 2/2/2 5/5/5 4/4/4
f 5/5/5 6/6/6 4/4/4
f 5/5/5 7/7/7 6/6/6
f 7/7/7 8/8/8 6/6/6
f 7/7/7 9/9/9 8/8/8
f 9/9/9 10/10/10 8/8/8
f 13/13/13 12/12/12 11/11/11
f 12/12/12 14/14/14 11/11/11
f 12/12/12 15/15/15 14/14/14
f 15/15/15 16/16/16 14/14/14
f 15/15/15 17/17/17 16/16/16
f 17/17/17 18/18/18 16/16/16
f 17/17/17 19/19/19 18/18/18
f 19/19/19 20/20/20 18/18/18
