g Crate_Platform_Background
v 5 0 -4.5
v 4.890738 1.039559 4.5
v 5 0 4.5
v 4.890738 1.039559 -4.5
v 4.567727 2.033683 4.5
v 4.567727 2.033683 -4.5
v 4.045085 2.938926 4.5
v 4.045085 2.938926 -4.5
v 3.345653 3.715724 4.5
v 3.345653 3.715724 -4.5
v 2.5 4.330127 4.5
v 2.5 4.330127 -4.5
v 1.545085 4.755283 4.5
v 1.545085 4.755283 -4.5
v 0.5226421 4.97261 4.5
v 0.5226421 4.97261 -4.5
v -0.5226426 4.97261 4.5
v -0.5226426 4.97261 -4.5
v -1.545085 4.755282 4.5
v -1.545085 4.755282 -4.5
v -2.5 4.330127 4.5
v -2.5 4.330127 -4.5
v -3.345654 3.715724 4.5
v -3.345654 3.715724 -4.5
v -4.045085 2.938926 4.5
v -4.045085 2.938926 -4.5
v -4.567728 2.033683 4.5
v -4.567728 2.033683 -4.5
v -4.890738 1.039558 4.5
v -4.890738 1.039558 -4.5
v -5 -4.768372E-07 4.5
v -5 -4.768372E-07 -4.5
vt 1.1875 0.0150528
vt 1.095703 0.9882813
vt 1.1875 0.9882813
vt 1.095703 0.0150528
vt 1.003906 0.9882813
vt 1.003906 0.0150528
vt 0.9125977 0.9882813
vt 0.9125977 0.0150528
vt 0.8208008 0.9882813
vt 0.8208008 0.0150528
vt 0.7290039 0.9882813
vt 0.7290039 0.0150528
vt 0.637207 0.9882813
vt 0.637207 0.0150528
vt 0.5454102 0.9882813
vt 0.5454102 0.0150528
vt 0.4536133 0.9882813
vt 0.4536133 0.0150528
vt 0.3620605 0.9882813
vt 0.3620605 0.0150528
vt 0.2702637 0.9882813
vt 0.2702637 0.0150528
vt 0.1784668 0.9882813
vt 0.1784668 0.0150528
vt 0.08673096 0.9882813
vt 0.08673096 0.0150528
vt -0.005027771 0.9882813
vt -0.005027771 0.0150528
vt -0.09680176 0.9882813
vt -0.09680176 0.0150528
vt -0.1884766 0.9882813
vt -0.1884766 0.0150528
vn -0.9946289 -0.1045532 0
vn -0.9780273 -0.2078857 0
vn -0.9946289 -0.1045532 0
vn -0.9780273 -0.2078857 0
vn -0.9135742 -0.4067383 0
vn -0.9135742 -0.4067383 0
vn -0.809082 -0.5878906 0
vn -0.809082 -0.5878906 0
vn -0.6689453 -0.7431641 0
vn -0.6689453 -0.7431641 0
vn -0.5 -0.8662109 0
vn -0.5 -0.8662109 0
vn -0.309082 -0.9511719 0
vn -0.309082 -0.9511719 0
vn -0.1045532 -0.9946289 0
vn -0.1045532 -0.9946289 0
vn 0.1045532 -0.9946289 0
vn 0.1045532 -0.9946289 0
vn 0.309082 -0.9511719 0
vn 0.309082 -0.9511719 0
vn 0.5 -0.8662109 0
vn 0.5 -0.8662109 0
vn 0.6689453 -0.7431641 0
vn 0.6689453 -0.7431641 0
vn 0.809082 -0.5878906 0
vn 0.809082 -0.5878906 0
vn 0.9135742 -0.4067383 0
vn 0.9135742 -0.4067383 0
vn 0.9780273 -0.2078857 0
vn 0.9780273 -0.2078857 0
vn 0.9946289 -0.1045532 0
vn 0.9946289 -0.1045532 0
g Crate_Platform_Background_0
f 3/3/3 2/2/2 1/1/1
f 2/2/2 4/4/4 1/1/1
f 2/2/2 5/5/5 4/4/4
f 5/5/5 6/6/6 4/4/4
f 5/5/5 7/7/7 6/6/6
f 7/7/7 8/8/8 6/6/6
f 7/7/7 9/9/9 8/8/8
f 9/9/9 10/10/10 8/8/8
f 9/9/9 11/11/11 10/10/10
f 11/11/11 12/12/12 10/10/10
f 11/11/11 13/13/13 12/12/12
f 13/13/13 14/14/14 12/12/12
f 13/13/13 15/15/15 14/14/14
f 15/15/15 16/16/16 14/14/14
f 15/15/15 17/17/17 16/16/16
f 17/17/17 18/18/18 16/16/16
f 17/17/17 19/19/19 18/18/18
f 19/19/19 20/20/20 18/18/18
f 19/19/19 21/21/21 20/20/20
f 21/21/21 22/22/22 20/20/20
f 21/21/21 23/23/23 22/22/22
f 23/23/23 24/24/24 22/22/22
f 23/23/23 25/25/25 24/24/24
f 25/25/25 26/26/26 24/24/24
f 25/25/25 27/27/27 26/26/26
f 27/27/27 28/28/28 26/26/26
f 27/27/27 29/29/29 28/28/28
f 29/29/29 30/30/30 28/28/28
f 29/29/29 31/31/31 30/30/30
f 31/31/31 32/32/32 30/30/30
