g TUT_Walkway_MidA
v 7.000015 5.000029 0.6944097
v 7.000018 4.173432E-06 0.6944097
v 6.050001 3.249944E-06 0.6944097
v 6.049999 5.000002 0.694321
v 5.951387 3.894165E-06 0.5012041
v 5.951386 5.000001 0.5011136
v 5.951386 5.000001 0.6265337
v 5.951387 3.894165E-06 0.6283231
v 5.500017 1.181976E-05 -0.006944857
v 5.49981 5.000001 -0.006945088
v 5.500015 5.000001 0.04825661
v 5.500018 3.773958E-06 0.04825686
v 5.889942 5.000001 0.1110106
v 5.889944 3.877802E-06 0.1110105
v 5.62904 3.808319E-06 0.1110105
v 5.629036 5.000001 0.1110106
v 5.602052 3.801131E-06 0.09942003
v 5.602048 5.000001 0.09941974
v 5.56968 3.79251E-06 0.0692723
v 5.569676 5.000001 0.06927205
v 5.51471 3.777871E-06 0.06704808
v 5.514709 5.000001 0.06704783
v 5.569676 5.000001 0.06927205
v 5.56968 3.79251E-06 0.0692723
v 6.045391 5.000003 0.4616773
v 6.049111 3.92019E-06 0.4624642
v 5.889944 3.877802E-06 0.1110105
v 5.889942 5.000001 0.1110106
v 5.500018 3.773958E-06 0.04825686
v 5.500015 5.000001 0.04825661
v 5.514709 5.000001 0.06704783
v 5.51471 3.777871E-06 0.06704808
v -7.000017 5.000031 0.6944097
v -6.05 5.000005 0.694321
v -6.050003 6.061867E-06 0.6944097
v -7.000021 7.149829E-06 0.6944097
v -5.95139 6.758613E-06 0.5012041
v -5.95139 6.758613E-06 0.6283231
v -5.951387 5.000004 0.6265337
v -5.951387 5.000004 0.5011136
v -5.50002 1.425414E-05 -0.006944857
v -5.50002 6.208337E-06 0.04825686
v -5.500016 5.000004 0.04825661
v -5.499811 5.000004 -0.006945088
v -5.889944 5.000004 0.1110106
v -5.629043 6.173976E-06 0.1110105
v -5.889946 6.774976E-06 0.1110105
v -5.629038 5.000003 0.1110106
v -5.602055 6.181163E-06 0.09942003
v -5.60205 5.000003 0.09941974
v -5.569683 6.189784E-06 0.0692723
v -5.569678 5.000004 0.06927205
v -5.514713 6.204424E-06 0.06704808
v -5.569683 6.189784E-06 0.0692723
v -5.569678 5.000004 0.06927205
v -5.51471 5.000004 0.06704783
v -6.045393 5.000005 0.4616773
v -5.889944 5.000004 0.1110106
v -5.889946 6.774976E-06 0.1110105
v -6.049114 6.732587E-06 0.4624642
v -5.50002 6.208337E-06 0.04825686
v -5.514713 6.204424E-06 0.06704808
v -5.51471 5.000004 0.06704783
v -5.500016 5.000004 0.04825661
v 5.951387 3.894165E-06 0.6283231
v 5.951386 5.000001 0.6265337
v 6.049999 5.000002 0.694321
v 6.050001 3.249944E-06 0.6944097
v -5.95139 6.758613E-06 0.6283231
v -6.050003 6.061867E-06 0.6944097
v -6.05 5.000005 0.694321
v -5.951387 5.000004 0.6265337
v 5.542216 2.44423E-06 0.09140667
v 5.542213 5.00003 0.09140667
v 5.594566 4.99999 0.1498418
v 5.59457 2.458172E-06 0.1498418
v 5.594566 4.99999 0.1498418
v 5.668645 4.99999 0.1498418
v 5.66865 -2.04032E-07 0.1498418
v 5.59457 2.458172E-06 0.1498418
v -5.542215 -3.189666E-06 0.09140667
v -5.594569 -3.203609E-06 0.1498418
v -5.594569 4.999987 0.1498418
v -5.542218 5.000025 0.09140667
v -5.668649 -3.893821E-06 0.1498418
v -5.668649 4.999987 0.1498418
v -5.594569 4.999987 0.1498418
v -5.594569 -3.203609E-06 0.1498418
vt 0.9001238 0.1882694
vt 0.9001238 0.02834442
vt 0.932148 0.02834442
vt 0.932148 0.1882685
vt 0.9388157 0.02834476
vt 0.9388055 0.1882689
vt 0.9347938 0.1882685
vt 0.9347498 0.02834442
vt 0.9443446 0.1929877
vt 0.9443448 0.3529113
vt 0.9425792 0.3529113
vt 0.9425789 0.1929874
vt 0.9293555 0.3529116
vt 0.9293555 0.1929875
vt 0.9377006 0.1929875
vt 0.9377006 0.3529116
vt 0.9386403 0.1929875
vt 0.9386403 0.3529116
vt 0.9400557 0.1929874
vt 0.9400557 0.3529114
vt 0.9418157 0.1929874
vt 0.9418159 0.3529114
vt 0.9400557 0.3529114
vt 0.9400557 0.1929874
vt 0.9170869 0.3529116
vt 0.9170151 0.1929875
vt 0.9293555 0.1929875
vt 0.9293555 0.3529116
vt 0.9425789 0.1929874
vt 0.9425792 0.3529113
vt 0.9418159 0.3529114
vt 0.9418157 0.1929874
vt 0.9001238 0.1882694
vt 0.932148 0.1882685
vt 0.932148 0.02834442
vt 0.9001238 0.02834442
vt 0.9388157 0.02834476
vt 0.9347498 0.02834442
vt 0.9347938 0.1882685
vt 0.9388055 0.1882689
vt 0.9443446 0.1929877
vt 0.9425789 0.1929874
vt 0.9425792 0.3529113
vt 0.9443448 0.3529113
vt 0.9293555 0.3529116
vt 0.9377006 0.1929875
vt 0.9293555 0.1929875
vt 0.9377006 0.3529116
vt 0.9386403 0.1929875
vt 0.9386403 0.3529116
vt 0.9400557 0.1929874
vt 0.9400557 0.3529114
vt 0.9418157 0.1929874
vt 0.9400557 0.1929874
vt 0.9400557 0.3529114
vt 0.9418159 0.3529114
vt 0.9170869 0.3529116
vt 0.9293555 0.3529116
vt 0.9293555 0.1929875
vt 0.9170151 0.1929875
vt 0.9425789 0.1929874
vt 0.9418157 0.1929874
vt 0.9418159 0.3529114
vt 0.9425792 0.3529113
vt 0.9347498 0.02834442
vt 0.9347938 0.1882685
vt 0.932148 0.1882685
vt 0.932148 0.02834442
vt 0.9347498 0.02834442
vt 0.932148 0.02834442
vt 0.932148 0.1882685
vt 0.9347938 0.1882685
vt 0.8621936 0.3757988
vt 0.8621935 0.3970972
vt 0.8491181 0.3970969
vt 0.8491181 0.3757985
vt 0.8869023 0.3286532
vt 0.8869023 0.3182797
vt 0.8458679 0.3182797
vt 0.8458679 0.3286532
vt 0.8621936 0.3757988
vt 0.8491181 0.3757985
vt 0.8491181 0.3970969
vt 0.8621935 0.3970972
vt 0.8458679 0.3182797
vt 0.8458679 0.3593142
vt 0.8562415 0.3593142
vt 0.8562415 0.3182797
vn -4.666848E-05 0 1
vn -4.666847E-05 0 1
vn -4.666847E-05 0 1
vn -4.666847E-05 0 1
vn -1 0 0
vn -1 0 0
vn -1 0 0
vn -1 0 0
vn -0.9999983 -2.098415E-05 0.001864415
vn -0.9999983 -2.098415E-05 0.001864416
vn -0.9999983 -2.098415E-05 0.001864415
vn -0.9999983 -2.098415E-05 0.001864415
vn 0 0 1
vn 0 0 1
vn -0.2014374 0 0.9795013
vn -0.2014375 0 0.9795013
vn -0.5461372 0 0.8376957
vn -0.5461374 0 0.8376957
vn -0.6815231 0 0.7317966
vn -0.6815231 0 0.7317966
vn -0.04043017 0 0.9991824
vn -0.04043017 0 0.9991824
vn -0.04043017 0 0.9991824
vn -0.04043017 0 0.9991824
vn -0.9125711 -0.0003074142 0.4089179
vn -0.9125711 -0.0003074142 0.408918
vn -0.9125711 -0.0003074142 0.4089179
vn -0.9125711 -0.0003074143 0.408918
vn -0.7877666 0 0.6159738
vn -0.7877666 0 0.6159738
vn -0.7877666 0 0.6159738
vn -0.7877666 0 0.6159738
vn 4.666845E-05 0 1
vn 4.666846E-05 0 1
vn 4.666845E-05 0 1
vn 4.666846E-05 0 1
vn 1 0 0
vn 1 0 0
vn 1 0 0
vn 1 0 0
vn 0.9999983 -2.12561E-05 0.001864415
vn 0.9999983 -2.12561E-05 0.001864415
vn 0.9999983 -2.12561E-05 0.001864415
vn 0.9999983 -2.12561E-05 0.001864415
vn 0 0 1
vn 0.2014374 0 0.9795013
vn 0 0 1
vn 0.2014374 0 0.9795013
vn 0.5461372 0 0.8376957
vn 0.5461374 0 0.8376955
vn 0.6815231 0 0.7317966
vn 0.6815231 0 0.7317966
vn 0.04043018 0 0.9991824
vn 0.04043018 0 0.9991824
vn 0.04043017 0 0.9991824
vn 0.04043018 0 0.9991824
vn 0.9125711 -0.0003076622 0.408918
vn 0.9125711 -0.0003076622 0.408918
vn 0.9125711 -0.0003076622 0.408918
vn 0.9125711 -0.0003076622 0.408918
vn 0.7877666 0 0.6159738
vn 0.7877666 0 0.6159738
vn 0.7877666 0 0.6159738
vn 0.7877666 0 0.6159738
vn -0.5616221 0.0001552029 0.8273939
vn -0.5616221 0.0001552029 0.8273939
vn -0.5616221 0.0001552029 0.8273939
vn -0.561622 0.0001552029 0.8273939
vn 0.5616226 0.0001550687 0.8273935
vn 0.5616226 0.0001550687 0.8273935
vn 0.5616226 0.0001550687 0.8273935
vn 0.5616226 0.0001550687 0.8273935
vn -0.7448024 0 0.6672851
vn -0.7448025 0 0.6672851
vn -0.7448024 0 0.6672851
vn -0.7448024 0 0.6672851
vn 0 0 1
vn 0 0 1
vn 0 0 1
vn 0 0 1
vn 0.7448066 0 0.6672804
vn 0.7448066 0 0.6672804
vn 0.7448067 0 0.6672803
vn 0.7448067 0 0.6672804
vn 0 0 1
vn 0 0 1
vn 0 0 1
vn 0 0 1
g TUT_Walkway_MidA_0
f 3/3/3 2/2/2 1/1/1
f 4/4/4 3/3/3 1/1/1
f 7/7/7 6/6/6 5/5/5
f 8/8/8 7/7/7 5/5/5
f 11/11/11 10/10/10 9/9/9
f 12/12/12 11/11/11 9/9/9
f 15/15/15 14/14/14 13/13/13
f 16/16/16 15/15/15 13/13/13
f 17/17/17 15/15/15 16/16/16
f 18/18/18 17/17/17 16/16/16
f 19/19/19 17/17/17 18/18/18
f 20/20/20 19/19/19 18/18/18
f 23/23/23 22/22/22 21/21/21
f 24/24/24 23/23/23 21/21/21
f 27/27/27 26/26/26 25/25/25
f 28/28/28 27/27/27 25/25/25
f 31/31/31 30/30/30 29/29/29
f 32/32/32 31/31/31 29/29/29
f 35/35/35 34/34/34 33/33/33
f 36/36/36 35/35/35 33/33/33
f 39/39/39 38/38/38 37/37/37
f 40/40/40 39/39/39 37/37/37
f 43/43/43 42/42/42 41/41/41
f 44/44/44 43/43/43 41/41/41
f 47/47/47 46/46/46 45/45/45
f 46/46/46 48/48/48 45/45/45
f 46/46/46 49/49/49 48/48/48
f 49/49/49 50/50/50 48/48/48
f 49/49/49 51/51/51 50/50/50
f 51/51/51 52/52/52 50/50/50
f 55/55/55 54/54/54 53/53/53
f 56/56/56 55/55/55 53/53/53
f 59/59/59 58/58/58 57/57/57
f 60/60/60 59/59/59 57/57/57
f 63/63/63 62/62/62 61/61/61
f 64/64/64 63/63/63 61/61/61
g TUT_Walkway_MidA_1
f 67/67/67 66/66/66 65/65/65
f 68/68/68 67/67/67 65/65/65
f 71/71/71 70/70/70 69/69/69
f 72/72/72 71/71/71 69/69/69
f 75/75/75 74/74/74 73/73/73
f 76/76/76 75/75/75 73/73/73
f 79/79/79 78/78/78 77/77/77
f 80/80/80 79/79/79 77/77/77
f 83/83/83 82/82/82 81/81/81
f 84/84/84 83/83/83 81/81/81
f 87/87/87 86/86/86 85/85/85
f 88/88/88 87/87/87 85/85/85
