g TUT_Walkway_Bot
v 4.197901 -0.06967192 0.0692718
v 4.1979 -0.01932936 0.0692718
v 4.1979 -0.01470303 0.06704768
v 7.000012 -6.000006 0.6940094
v 6.049998 -0.5659564 0.6940091
v 6.049999 4.999999 0.6949454
v 7.000013 4.999999 0.6949454
v 5.951382 4.999999 0.5011967
v 5.951382 4.999999 0.6275634
v 5.951383 -0.4513735 0.626019
v 5.951383 -0.4513735 0.5011137
v 5.500012 4.999996 -0.006944799
v 5.500013 4.999999 0.04825691
v 5.500012 -4.344707E-06 0.04825668
v 5.499806 -4.344762E-06 -0.006945009
v 5.889938 -0.3899278 0.1110105
v 5.629036 4.999999 0.1110107
v 5.889938 4.999999 0.1110107
v 5.629033 -0.1290214 0.1110105
v 5.602047 4.999999 0.09942012
v 5.602045 -0.1020358 0.0994198
v 5.569675 4.999999 0.06927236
v 5.569673 -0.06966485 0.06927213
v 5.514706 4.999999 0.06704814
v 5.569675 4.999999 0.06927236
v 5.569673 -0.06966485 0.06927213
v 5.514705 -0.01469865 0.06704791
v 6.043529 -0.5490978 0.4616377
v 5.889938 -0.3899278 0.1110105
v 5.889938 4.999999 0.1110107
v 6.047248 4.999999 0.4617587
v 5.500013 4.999999 0.04825691
v 5.514706 4.999999 0.06704814
v 5.514705 -0.01469865 0.06704791
v 5.500012 -4.344707E-06 0.04825668
v 4.197686 -6.000013 0.6940094
v 4.197686 -0.565969 0.6940091
v 6.049998 -0.5659564 0.6940091
v 7.000012 -6.000006 0.6940094
v 5.951383 -0.4513735 0.5011137
v 5.951383 -0.4513735 0.626019
v 4.197686 -0.4513754 0.6260191
v 4.197686 -0.4513754 0.5010306
v 5.499806 -4.344762E-06 -0.006945009
v 5.500012 -4.344707E-06 0.04825668
v 4.197901 -6.032447E-06 0.04825646
v 4.197901 -6.032447E-06 -0.006945218
v 4.197902 -0.3899336 0.1110103
v 5.629033 -0.1290214 0.1110105
v 5.889938 -0.3899278 0.1110105
v 4.197901 -0.1290298 0.1110103
v 5.602045 -0.1020358 0.0994198
v 4.197901 -0.1020415 0.09941951
v 5.569673 -0.06966485 0.06927213
v 4.197901 -0.06967192 0.0692718
v 5.514705 -0.01469865 0.06704791
v 5.569673 -0.06966485 0.06927213
v 4.197901 -0.06967192 0.0692718
v 4.1979 -0.01470303 0.06704768
v 4.199196 -0.549105 0.4616366
v 4.197902 -0.3899336 0.1110103
v 5.889938 -0.3899278 0.1110105
v 6.043529 -0.5490978 0.4616377
v 5.500012 -4.344707E-06 0.04825668
v 5.514705 -0.01469865 0.06704791
v 4.1979 -0.01470303 0.06704768
v 4.197901 -6.032447E-06 0.04825646
v -6.999989 -6.00001 0.6944769
v -6.999996 4.999995 0.6944779
v -6.050002 4.999992 0.6944807
v -6.050001 -0.565965 0.6944738
v -5.951365 4.999995 0.5011967
v -5.951363 -0.4513767 0.5011137
v -5.951363 -0.4513754 0.626019
v -5.951365 4.999995 0.6275634
v -5.499995 4.999993 -0.006944799
v -5.499787 -7.274131E-06 -0.006945009
v -5.499992 -7.274185E-06 0.04825667
v -5.499997 4.999996 0.0482569
v -5.889919 -0.3899309 0.1110105
v -5.889922 4.999995 0.1110107
v -5.629019 4.999995 0.1110107
v -5.629013 -0.1290257 0.1110105
v -5.602031 4.999995 0.09942012
v -5.602025 -0.1020388 0.0994198
v -5.569659 4.999995 0.06927236
v -5.569654 -0.06966916 0.06927213
v -5.514689 4.999996 0.06704814
v -5.514686 -0.01470159 0.06704791
v -5.569654 -0.06966916 0.06927213
v -5.569659 4.999995 0.06927236
v -6.043509 -0.549101 0.4616377
v -6.047231 4.999995 0.4617587
v -5.889922 4.999995 0.1110107
v -5.889919 -0.3899309 0.1110105
v -5.499997 4.999996 0.0482569
v -5.499992 -7.274185E-06 0.04825667
v -5.514686 -0.01470159 0.06704791
v -5.514689 4.999996 0.06704814
v -4.190525 -6.000011 0.6940094
v -6.999989 -6.00001 0.6944769
v -6.050001 -0.565965 0.6944738
v -4.190528 -0.5659712 0.6940091
v -5.951363 -0.4513767 0.5011137
v -4.190527 -0.4513776 0.5010306
v -4.190527 -0.4513776 0.6260191
v -5.951363 -0.4513754 0.626019
v -5.499787 -7.274131E-06 -0.006945009
v -4.190743 -8.266478E-06 -0.006945218
v -4.190743 -8.266478E-06 0.04825646
v -5.499992 -7.274185E-06 0.04825667
v -4.190745 -0.3899345 0.1110103
v -5.889919 -0.3899309 0.1110105
v -5.629013 -0.1290257 0.1110105
v -4.190744 -0.1290307 0.1110103
v -5.602025 -0.1020388 0.0994198
v -4.190743 -0.1020437 0.09941951
v -5.569654 -0.06966916 0.06927213
v -4.190743 -0.06967147 0.0692718
v -5.514686 -0.01470159 0.06704791
v -4.190743 -0.01470392 0.06704768
v -4.190743 -0.01932891 0.0692718
v -4.190743 -0.06967147 0.0692718
v -5.569654 -0.06966916 0.06927213
v -4.192039 -0.5491046 0.4616366
v -6.043509 -0.549101 0.4616377
v -5.889919 -0.3899309 0.1110105
v -4.190745 -0.3899345 0.1110103
v -5.499992 -7.274185E-06 0.04825667
v -4.190743 -8.266478E-06 0.04825646
v -4.190743 -0.01470392 0.06704768
v -5.514686 -0.01470159 0.06704791
v 5.951382 4.999999 0.6275634
v 6.049999 4.999999 0.6949454
v 6.049998 -0.5659564 0.6940091
v 5.951383 -0.4513735 0.626019
v 5.951383 -0.4513735 0.626019
v 6.049998 -0.5659564 0.6940091
v 4.197686 -0.565969 0.6940091
v 4.197686 -0.4513754 0.6260191
v 4.187458 -0.167301 0.2377145
v 4.187458 -0.167301 0.09181786
v 5.659233 -0.1672966 0.09181789
v 5.659233 -0.1672966 0.2377145
v 4.187458 -0.167301 0.2377145
v 5.659233 -0.1672966 0.2377145
v 5.659233 -0.6734095 0.2832205
v 4.187458 -0.6734126 0.2832205
v -5.951365 4.999995 0.6275634
v -5.951363 -0.4513754 0.626019
v -6.050001 -0.565965 0.6944738
v -6.050002 4.999992 0.6944807
v -5.951363 -0.4513754 0.626019
v -4.190527 -0.4513776 0.6260191
v -4.190528 -0.5659712 0.6940091
v -6.050001 -0.565965 0.6944738
v -4.131381 -0.1673032 0.2377145
v -5.667966 -0.1673009 0.2377145
v -5.667966 -0.1673009 0.09181789
v -4.131381 -0.1673032 0.09181786
v -4.131381 -0.1673032 0.2377145
v -4.13138 -0.6734148 0.2832205
v -5.667967 -0.6734112 0.2832205
v -5.667966 -0.1673009 0.2377145
v 5.542214 -0.1777803 0.09140667
v 5.542212 4.996165 0.09140667
v 5.594565 4.996127 0.1498418
v 5.594569 -0.1777803 0.1498418
v 5.594565 4.996127 0.1498418
v 5.668644 4.996127 0.1498418
v 5.668649 -0.1777803 0.1498418
v 5.594569 -0.1777803 0.1498418
v -5.542215 -0.1838323 0.09140667
v -5.594569 -0.1838323 0.1498418
v -5.594569 4.99612 0.1498418
v -5.542218 4.996159 0.09140667
v -5.66865 -0.1838324 0.1498418
v -5.668649 4.99612 0.1498418
v -5.594569 4.99612 0.1498418
v -5.594569 -0.1838323 0.1498418
vt 0.7242844 0.4114022
vt 0.7242848 0.4097931
vt 0.724285 0.4096425
vt 0.7649527 0.3761885
vt 0.7963617 0.2001216
vt 0.7957466 0.02424522
vt 0.7637227 0.02435715
vt 0.8024232 0.02422283
vt 0.7983813 0.02423626
vt 0.7990076 0.1985965
vt 0.8030028 0.1985832
vt 0.920202 0.4369107
vt 0.9202021 0.4351447
vt 0.7602779 0.4351449
vt 0.7602779 0.4369106
vt 0.7478066 0.421921
vt 0.9202023 0.4302661
vt 0.9202025 0.4219207
vt 0.7561517 0.4302662
vt 0.9202023 0.4312059
vt 0.7570148 0.431206
vt 0.9202023 0.4326214
vt 0.7580499 0.4326216
vt 0.9202021 0.4343815
vt 0.9202023 0.4326214
vt 0.7580499 0.4326216
vt 0.759808 0.4343815
vt 0.7427157 0.4096773
vt 0.7478066 0.421921
vt 0.9202025 0.4219207
vt 0.9202026 0.4096255
vt 0.9202021 0.4351447
vt 0.9202021 0.4343815
vt 0.759808 0.4343815
vt 0.7602779 0.4351449
vt 0.754882 0.2068277
vt 0.7548819 0.03087172
vt 0.6494423 0.03087164
vt 0.6174182 0.2068277
vt 0.6509582 0.02422551
vt 0.6509584 0.0282207
vt 0.7548817 0.02822061
vt 0.7548817 0.02422283
vt 0.6348116 0.4071152
vt 0.6348049 0.4088808
vt 0.7242855 0.4088796
vt 0.7242855 0.4071138
vt 0.7242831 0.4221016
vt 0.630676 0.4137565
vt 0.6223307 0.4221015
vt 0.7242833 0.4137565
vt 0.6315398 0.4128171
vt 0.7242838 0.4128172
vt 0.6325756 0.4114028
vt 0.7242844 0.4114022
vt 0.6343344 0.4096437
vt 0.6325756 0.4114028
vt 0.7242844 0.4114022
vt 0.724285 0.4096425
vt 0.7242416 0.434418
vt 0.7242831 0.4221016
vt 0.6223307 0.4221015
vt 0.6174182 0.4344179
vt 0.6348049 0.4088808
vt 0.6343344 0.4096437
vt 0.724285 0.4096425
vt 0.7242855 0.4088796
vt 0.7649527 0.3761885
vt 0.7637227 0.02435715
vt 0.7957466 0.02424522
vt 0.7963617 0.2001216
vt 0.8024232 0.02422283
vt 0.8030028 0.1985832
vt 0.7990076 0.1985965
vt 0.7983813 0.02423626
vt 0.920202 0.4369107
vt 0.7602779 0.4369106
vt 0.7602779 0.4351449
vt 0.9202021 0.4351447
vt 0.7478066 0.421921
vt 0.9202025 0.4219207
vt 0.9202023 0.4302661
vt 0.7561517 0.4302662
vt 0.9202023 0.4312059
vt 0.7570148 0.431206
vt 0.9202023 0.4326214
vt 0.7580499 0.4326216
vt 0.9202021 0.4343815
vt 0.759808 0.4343815
vt 0.7580499 0.4326216
vt 0.9202023 0.4326214
vt 0.7427157 0.4096773
vt 0.9202026 0.4096255
vt 0.9202025 0.4219207
vt 0.7478066 0.421921
vt 0.9202021 0.4351447
vt 0.7602779 0.4351449
vt 0.759808 0.4343815
vt 0.9202021 0.4343815
vt 0.754882 0.2068277
vt 0.6174182 0.2068277
vt 0.6494423 0.03087164
vt 0.7548819 0.03087172
vt 0.6509582 0.02422551
vt 0.7548817 0.02422283
vt 0.7548817 0.02822061
vt 0.6509584 0.0282207
vt 0.6348116 0.4071152
vt 0.7242855 0.4071138
vt 0.7242855 0.4088796
vt 0.6348049 0.4088808
vt 0.7242831 0.4221016
vt 0.6223307 0.4221015
vt 0.630676 0.4137565
vt 0.7242833 0.4137565
vt 0.6315398 0.4128171
vt 0.7242838 0.4128172
vt 0.6325756 0.4114028
vt 0.7242844 0.4114022
vt 0.6343344 0.4096437
vt 0.724285 0.4096425
vt 0.7242848 0.4097931
vt 0.7242844 0.4114022
vt 0.6325756 0.4114028
vt 0.7242416 0.434418
vt 0.6174182 0.4344179
vt 0.6223307 0.4221015
vt 0.7242831 0.4221016
vt 0.6348049 0.4088808
vt 0.7242855 0.4088796
vt 0.724285 0.4096425
vt 0.6343344 0.4096437
vt 0.7983813 0.02423626
vt 0.7957466 0.02424522
vt 0.7963617 0.2001216
vt 0.7990076 0.1985965
vt 0.6509584 0.0282207
vt 0.6494423 0.03087164
vt 0.7548819 0.03087172
vt 0.7548817 0.02822061
vt 0.8757918 0.3757988
vt 0.8879563 0.3757987
vt 0.8879563 0.3970972
vt 0.8757918 0.3970972
vt 0.8757918 0.3757988
vt 0.8757918 0.3970972
vt 0.8621935 0.3970972
vt 0.8621936 0.3757988
vt 0.7983813 0.02423626
vt 0.7990076 0.1985965
vt 0.7963617 0.2001216
vt 0.7957466 0.02424522
vt 0.6509584 0.0282207
vt 0.7548817 0.02822061
vt 0.7548819 0.03087172
vt 0.6494423 0.03087164
vt 0.8757918 0.3757988
vt 0.8757918 0.3970972
vt 0.8879563 0.3970972
vt 0.8879563 0.3757987
vt 0.8757918 0.3757988
vt 0.8621936 0.3757988
vt 0.8621935 0.3970972
vt 0.8757918 0.3970972
vt 0.8621936 0.3757988
vt 0.8621935 0.3970972
vt 0.8491181 0.3970969
vt 0.8491181 0.3757985
vt 0.8869023 0.3286532
vt 0.8869023 0.3182797
vt 0.8458679 0.3182797
vt 0.8458679 0.3286532
vt 0.8621936 0.3757988
vt 0.8491181 0.3757985
vt 0.8491181 0.3970969
vt 0.8621935 0.3970972
vt 0.8458679 0.3182797
vt 0.8458679 0.3593142
vt 0.8562415 0.3593142
vt 0.8562415 0.3182797
vn 0.000756638 0.04043005 0.999182
vn 0.000756638 0.04043005 0.999182
vn 0.0007566379 0.04043005 0.999182
vn -3.561949E-05 -1.241455E-05 1
vn -0.0002036845 -7.117965E-05 1
vn -0.0003233451 -0.0001130198 1
vn -0.0003233451 -0.0001130198 1
vn -1 0 0
vn -1 0 0
vn -1 0 0
vn -1 0 0
vn -0.9999982 2.071968E-05 0.001876563
vn -0.9999982 2.071968E-05 0.001876563
vn -0.9999982 2.071968E-05 0.001876563
vn -0.9999982 2.071968E-05 0.001876563
vn 0 0 1
vn -0.2014395 0 0.9795009
vn 0 0 1
vn -0.05225715 0.05225464 0.9972656
vn -0.5461369 0 0.837696
vn -0.2571296 0.2571396 0.9315382
vn -0.6815192 0 0.7318003
vn -0.3888983 0.3889089 0.8351694
vn -0.04043019 0 0.9991824
vn -0.04043019 0 0.9991824
vn -0.01984546 0.02022302 0.9995986
vn -0.01984489 0.02022358 0.9995986
vn -0.9141832 0.0003063015 0.405301
vn -0.9141832 0.0003063015 0.405301
vn -0.9141832 0.0003063015 0.405301
vn -0.9141832 0.0003063015 0.4053011
vn -0.7877806 0 0.615956
vn -0.7877806 0 0.6159561
vn -0.7877806 0 0.6159561
vn -0.7877806 0 0.6159561
vn 0 0 1
vn 0 0 1
vn -0.0002036845 -7.117965E-05 1
vn -3.561949E-05 -1.241455E-05 1
vn 0 1 0
vn 0 1 0
vn 0 1 0
vn 0 1 0
vn 0 1 0
vn 0 1 0
vn 0 1 0
vn 0 1 0
vn 0 0 1
vn -0.05225715 0.05225464 0.9972656
vn 0 0 1
vn 0 0.2014465 0.9794995
vn -0.2571296 0.2571396 0.9315382
vn 0 0.5461535 0.8376852
vn -0.3888983 0.3889089 0.8351694
vn 0 0.681537 0.7317835
vn -0.01984489 0.02022358 0.9995986
vn -0.01984546 0.02022302 0.9995986
vn 0.000756638 0.04043005 0.999182
vn 0.0007566379 0.04043005 0.999182
vn 0 0.9105667 0.4133621
vn 0 0.9105667 0.4133621
vn 0 0.9105667 0.4133621
vn 0 0.9105667 0.4133621
vn 0 0.7877188 0.616035
vn 0 0.7877188 0.616035
vn 0 0.7877188 0.616035
vn 0 0.7877188 0.616035
vn 0.0001778219 -1.530362E-05 1
vn 0 0 1
vn 0 0 1
vn 7.482486E-05 0 1
vn 1 0 0
vn 1 0 0
vn 1 0 0
vn 1 0 0
vn 0.9999983 2.12188E-05 0.001873527
vn 0.9999983 2.12188E-05 0.001873527
vn 0.9999983 2.121879E-05 0.001873527
vn 0.9999983 2.12188E-05 0.001873527
vn 0 0 1
vn 0 0 1
vn 0.2014384 0 0.9795012
vn 0.05225526 0.05225593 0.9972657
vn 0.546138 0 0.8376952
vn 0.2571319 0.257136 0.9315386
vn 0.6815229 0 0.7317968
vn 0.3888972 0.388907 0.8351709
vn 0.04043023 0 0.9991824
vn 0.01984696 0.02022351 0.9995984
vn 0.01984716 0.02022333 0.9995984
vn 0.04043023 0 0.9991824
vn 0.9141834 0.0003067604 0.4053007
vn 0.9141834 0.0003067604 0.4053007
vn 0.9141834 0.0003067605 0.4053007
vn 0.9141834 0.0003067605 0.4053007
vn 0.7877737 0 0.6159647
vn 0.7877737 0 0.6159647
vn 0.7877737 0 0.6159647
vn 0.7877737 0 0.6159647
vn 0.000199656 -1.713971E-05 1
vn 0.0001778219 -1.530362E-05 1
vn 7.482486E-05 0 1
vn 0.000199656 -1.713971E-05 1
vn 0 1 0
vn 0 1 0
vn 0 1 0
vn 0 1 0
vn 0 1 0
vn 0 1 0
vn 0 1 0
vn 0 1 0
vn 0 0 1
vn 0 0 1
vn 0.05225526 0.05225593 0.9972657
vn 0 0.2014482 0.9794992
vn 0.2571319 0.257136 0.9315386
vn 0 0.5461501 0.8376873
vn 0.3888972 0.388907 0.8351709
vn 0 0.6815298 0.7317904
vn 0.01984696 0.02022351 0.9995984
vn -0.0007527451 0.04043011 0.999182
vn -0.0007527451 0.04043011 0.999182
vn -0.0007527451 0.04043011 0.999182
vn 0.01984716 0.02022333 0.9995984
vn 0 0.9105675 0.4133605
vn 0 0.9105675 0.4133605
vn 0 0.9105675 0.4133605
vn 0 0.9105675 0.4133605
vn 0 0.7877324 0.6160176
vn 0 0.7877325 0.6160176
vn 0 0.7877325 0.6160176
vn 0 0.7877325 0.6160176
vn -0.5659637 -0.0001856354 0.8244302
vn -0.5659637 -0.0001856354 0.8244302
vn -0.5659637 -0.0001856354 0.8244302
vn -0.5659637 -0.0001856354 0.8244302
vn 0 0.510279 0.860009
vn 0 0.510279 0.860009
vn 0 0.510279 0.860009
vn 0 0.510279 0.860009
vn 0 1 0
vn 0 1 0
vn 0 1 0
vn 0 1 0
vn 0 0.08955158 0.9959822
vn 0 0.08955158 0.9959822
vn 0 0.08955159 0.9959822
vn 0 0.08955158 0.9959822
vn 0.565854 -0.0001159434 0.8245054
vn 0.565854 -0.0001159434 0.8245054
vn 0.565854 -0.0001159434 0.8245054
vn 0.565854 -0.0001159434 0.8245054
vn 0.0001114421 0.5115209 0.8592708
vn 0.0001114422 0.5115209 0.8592708
vn 0.0001114422 0.5115209 0.8592708
vn 0.0001114422 0.511521 0.8592708
vn 0 1 0
vn 0 1 0
vn 0 1 0
vn 0 1 0
vn 0 0.08955183 0.9959822
vn 0 0.08955182 0.9959822
vn 0 0.08955183 0.9959822
vn 0 0.08955183 0.9959822
vn -0.7447982 0 0.6672898
vn -0.7447982 0 0.6672899
vn -0.7447982 0 0.6672899
vn -0.7447982 0 0.6672899
vn 0 0 1
vn 0 0 1
vn 0 0 1
vn 0 0 1
vn 0.7448046 0 0.6672827
vn 0.7448046 0 0.6672827
vn 0.7448046 0 0.6672827
vn 0.7448045 0 0.6672827
vn 0 0 1
vn 0 0 1
vn 0 0 1
vn 0 0 1
g TUT_Walkway_Bot_0
f 3/3/3 2/2/2 1/1/1
f 6/6/6 5/5/5 4/4/4
f 7/7/7 6/6/6 4/4/4
f 10/10/10 9/9/9 8/8/8
f 11/11/11 10/10/10 8/8/8
f 14/14/14 13/13/13 12/12/12
f 15/15/15 14/14/14 12/12/12
f 18/18/18 17/17/17 16/16/16
f 17/17/17 19/19/19 16/16/16
f 17/17/17 20/20/20 19/19/19
f 20/20/20 21/21/21 19/19/19
f 20/20/20 22/22/22 21/21/21
f 22/22/22 23/23/23 21/21/21
f 26/26/26 25/25/25 24/24/24
f 27/27/27 26/26/26 24/24/24
f 30/30/30 29/29/29 28/28/28
f 31/31/31 30/30/30 28/28/28
f 34/34/34 33/33/33 32/32/32
f 35/35/35 34/34/34 32/32/32
f 38/38/38 37/37/37 36/36/36
f 39/39/39 38/38/38 36/36/36
f 42/42/42 41/41/41 40/40/40
f 43/43/43 42/42/42 40/40/40
f 46/46/46 45/45/45 44/44/44
f 47/47/47 46/46/46 44/44/44
f 50/50/50 49/49/49 48/48/48
f 49/49/49 51/51/51 48/48/48
f 49/49/49 52/52/52 51/51/51
f 52/52/52 53/53/53 51/51/51
f 52/52/52 54/54/54 53/53/53
f 54/54/54 55/55/55 53/53/53
f 58/58/58 57/57/57 56/56/56
f 56/56/56 59/59/59 58/58/58
f 62/62/62 61/61/61 60/60/60
f 63/63/63 62/62/62 60/60/60
f 66/66/66 65/65/65 64/64/64
f 67/67/67 66/66/66 64/64/64
f 70/70/70 69/69/69 68/68/68
f 71/71/71 70/70/70 68/68/68
f 74/74/74 73/73/73 72/72/72
f 75/75/75 74/74/74 72/72/72
f 78/78/78 77/77/77 76/76/76
f 79/79/79 78/78/78 76/76/76
f 82/82/82 81/81/81 80/80/80
f 83/83/83 82/82/82 80/80/80
f 84/84/84 82/82/82 83/83/83
f 85/85/85 84/84/84 83/83/83
f 86/86/86 84/84/84 85/85/85
f 87/87/87 86/86/86 85/85/85
f 90/90/90 89/89/89 88/88/88
f 91/91/91 90/90/90 88/88/88
f 94/94/94 93/93/93 92/92/92
f 95/95/95 94/94/94 92/92/92
f 98/98/98 97/97/97 96/96/96
f 99/99/99 98/98/98 96/96/96
f 102/102/102 101/101/101 100/100/100
f 103/103/103 102/102/102 100/100/100
f 106/106/106 105/105/105 104/104/104
f 107/107/107 106/106/106 104/104/104
f 110/110/110 109/109/109 108/108/108
f 111/111/111 110/110/110 108/108/108
f 114/114/114 113/113/113 112/112/112
f 115/115/115 114/114/114 112/112/112
f 116/116/116 114/114/114 115/115/115
f 117/117/117 116/116/116 115/115/115
f 118/118/118 116/116/116 117/117/117
f 119/119/119 118/118/118 117/117/117
f 122/122/122 121/121/121 120/120/120
f 120/120/120 123/123/123 122/122/122
f 120/120/120 124/124/124 123/123/123
f 127/127/127 126/126/126 125/125/125
f 128/128/128 127/127/127 125/125/125
f 131/131/131 130/130/130 129/129/129
f 132/132/132 131/131/131 129/129/129
g TUT_Walkway_Bot_1
f 135/135/135 134/134/134 133/133/133
f 136/136/136 135/135/135 133/133/133
f 139/139/139 138/138/138 137/137/137
f 140/140/140 139/139/139 137/137/137
f 143/143/143 142/142/142 141/141/141
f 144/144/144 143/143/143 141/141/141
f 147/147/147 146/146/146 145/145/145
f 148/148/148 147/147/147 145/145/145
f 151/151/151 150/150/150 149/149/149
f 152/152/152 151/151/151 149/149/149
f 155/155/155 154/154/154 153/153/153
f 156/156/156 155/155/155 153/153/153
f 159/159/159 158/158/158 157/157/157
f 160/160/160 159/159/159 157/157/157
f 163/163/163 162/162/162 161/161/161
f 164/164/164 163/163/163 161/161/161
f 167/167/167 166/166/166 165/165/165
f 168/168/168 167/167/167 165/165/165
f 171/171/171 170/170/170 169/169/169
f 172/172/172 171/171/171 169/169/169
f 175/175/175 174/174/174 173/173/173
f 176/176/176 175/175/175 173/173/173
f 179/179/179 178/178/178 177/177/177
f 180/180/180 179/179/179 177/177/177
